<svg width="2008" height="720" xmlns="http://www.w3.org/2000/svg" xmlns:xlink="http://www.w3.org/1999/xlink" xml:space="preserve" overflow="hidden"><g transform="translate(-577 -325)"><g><path d="M580 375.5C580 349.266 601.266 328 627.5 328 653.734 328 675 349.266 675 375.5 675 401.734 653.734 423 627.5 423 601.266 423 580 401.734 580 375.5Z" fill="#EF8600" fill-rule="evenodd" fill-opacity="1"/><path d="M580 499.5C580 473.266 601.266 452 627.5 452 653.734 452 675 473.266 675 499.5 675 525.733 653.734 547 627.5 547 601.266 547 580 525.733 580 499.5Z" fill="#8EB6F8" fill-rule="evenodd" fill-opacity="1"/><path d="M580 623.5C580 597.267 601.266 576 627.5 576 653.734 576 675 597.267 675 623.5 675 649.734 653.734 671 627.5 671 601.266 671 580 649.734 580 623.5Z" fill="#B3CEFB" fill-rule="evenodd" fill-opacity="0.45098"/><path d="M580 871.5C580 845.266 601.266 824 627.5 824 653.734 824 675 845.266 675 871.5 675 897.733 653.734 919 627.5 919 601.266 919 580 897.733 580 871.5Z" fill="#8EB6F8" fill-rule="evenodd" fill-opacity="1"/><path d="M580 747.5C580 721.266 601.266 700 627.5 700 653.734 700 675 721.266 675 747.5 675 773.734 653.734 795 627.5 795 601.266 795 580 773.734 580 747.5Z" fill="#FFDDB3" fill-rule="evenodd" fill-opacity="1"/><path d="M580 995.5C580 969.266 601.266 948 627.5 948 653.734 948 675 969.266 675 995.5 675 1021.73 653.734 1043 627.5 1043 601.266 1043 580 1021.73 580 995.5Z" fill="#B3CEFB" fill-rule="evenodd" fill-opacity="0.45098"/><path d="M946 375.5C946 349.266 967.266 328 993.5 328 1019.73 328 1041 349.266 1041 375.5 1041 401.734 1019.73 423 993.5 423 967.266 423 946 401.734 946 375.5Z" fill="#D9E7FD" fill-rule="evenodd" fill-opacity="1"/><path d="M946 499.5C946 473.266 967.266 452 993.5 452 1019.73 452 1041 473.266 1041 499.5 1041 525.733 1019.73 547 993.5 547 967.266 547 946 525.733 946 499.5Z" fill="#FFDDB3" fill-rule="evenodd" fill-opacity="1"/><path d="M946 623.5C946 597.267 967.266 576 993.5 576 1019.73 576 1041 597.267 1041 623.5 1041 649.734 1019.73 671 993.5 671 967.266 671 946 649.734 946 623.5Z" fill="#8EB6F8" fill-rule="evenodd" fill-opacity="1"/><path d="M946 871.5C946 845.266 967.266 824 993.5 824 1019.73 824 1041 845.266 1041 871.5 1041 897.733 1019.73 919 993.5 919 967.266 919 946 897.733 946 871.5Z" fill="#D9E7FD" fill-rule="evenodd" fill-opacity="1"/><path d="M946 747.5C946 721.266 967.266 700 993.5 700 1019.73 700 1041 721.266 1041 747.5 1041 773.734 1019.73 795 993.5 795 967.266 795 946 773.734 946 747.5Z" fill="#EF8600" fill-rule="evenodd" fill-opacity="1"/><path d="M946 995.5C946 969.266 967.266 948 993.5 948 1019.73 948 1041 969.266 1041 995.5 1041 1021.73 1019.73 1043 993.5 1043 967.266 1043 946 1021.73 946 995.5Z" fill="#EF8600" fill-rule="evenodd" fill-opacity="1"/><path d="M675.5 371.917 923.448 371.917 923.448 381.084 675.5 381.083ZM918.864 362.75 946.364 376.5 918.864 390.25Z" fill="#00B050" fill-rule="nonzero" fill-opacity="0.615686"/><path d="M677.407 372.332 927.432 486.722 923.618 495.058 673.593 380.668ZM927.077 476.48 946.364 500.424 915.636 501.487Z" fill="#00B050" fill-rule="nonzero" fill-opacity="0.615686"/><path d="M678.594 373.119 932.551 605.497 926.363 612.26 672.406 379.881ZM935.358 595.64 946.364 624.349 916.793 615.928Z" fill="#00B050" fill-rule="nonzero" fill-opacity="0.615686"/><path d="M679.204 373.801 936.574 727.052 929.165 732.45 671.796 379.199ZM941.283 717.95 946.364 748.273 919.057 734.143Z" fill="#00B050" fill-rule="nonzero" fill-opacity="0.615686"/><path d="M679.522 374.302 939.398 849.89 931.354 854.286 671.478 378.698ZM945.244 841.472 946.364 872.197 921.111 854.658Z" fill="#00B050" fill-rule="nonzero" fill-opacity="0.615686"/><path d="M679.7 374.664 941.384 973.288 932.985 976.96 671.3 378.336ZM947.948 965.416 946.364 996.121 922.75 976.431Z" fill="#00B050" fill-rule="nonzero" fill-opacity="0.615686"/><path d="M1.90685-4.16784 251.932 110.222 248.118 118.558-1.90685 4.16784ZM251.578 99.9797 270.865 123.924 240.137 124.987Z" fill="#00B050" fill-rule="nonzero" fill-opacity="0.615686" transform="matrix(1 0 0 -1 675.5 500.424)"/><path d="M675.5 495.917 923.448 495.917 923.448 505.084 675.5 505.083ZM918.864 486.75 946.364 500.5 918.864 514.25Z" fill="#00B050" fill-rule="nonzero" fill-opacity="0.615686"/><path d="M675.5 619.917 923.448 619.917 923.448 629.084 675.5 629.083ZM918.864 610.75 946.364 624.5 918.864 638.25Z" fill="#00B050" fill-rule="nonzero" fill-opacity="0.615686"/><path d="M675.5 742.917 923.448 742.917 923.448 752.084 675.5 752.083ZM918.864 733.75 946.364 747.501 918.864 761.25Z" fill="#00B050" fill-rule="nonzero" fill-opacity="0.615686"/><path d="M675.5 866.917 923.448 866.917 923.448 876.084 675.5 876.083ZM918.864 857.75 946.364 871.5 918.864 885.25Z" fill="#00B050" fill-rule="nonzero" fill-opacity="0.615686"/><path d="M675.5 990.917 923.448 990.917 923.448 1000.08 675.5 1000.08ZM918.864 981.75 946.364 995.5 918.864 1009.25Z" fill="#00B050" fill-rule="nonzero" fill-opacity="0.615686"/><path d="M677.407 496.332 927.432 610.722 923.618 619.058 673.593 504.668ZM927.078 600.48 946.364 624.424 915.637 625.487Z" fill="#00B050" fill-rule="nonzero" fill-opacity="0.615686"/><path d="M678.594 497.119 932.551 729.497 926.363 736.26 672.406 503.881ZM935.358 719.64 946.364 748.349 916.794 739.928Z" fill="#00B050" fill-rule="nonzero" fill-opacity="0.615686"/><path d="M679.204 497.801 936.574 851.052 929.166 856.45 671.796 503.199ZM941.284 841.95 946.365 872.273 919.058 858.143Z" fill="#00B050" fill-rule="nonzero" fill-opacity="0.615686"/><path d="M679.522 498.302 939.398 973.89 931.354 978.286 671.478 502.698ZM945.244 965.472 946.364 996.197 921.111 978.658Z" fill="#00B050" fill-rule="nonzero" fill-opacity="0.615686"/><path d="M3.09406-3.38138 257.052 228.997 250.864 235.76-3.09406 3.38138ZM259.858 219.14 270.865 247.849 241.294 239.428Z" fill="#00B050" fill-rule="nonzero" fill-opacity="0.615686" transform="matrix(1 0 0 -1 675.5 624.349)"/><path d="M1.90685-4.16784 251.932 110.222 248.118 118.558-1.90685 4.16784ZM251.578 99.9797 270.864 123.924 240.137 124.987Z" fill="#00B050" fill-rule="nonzero" fill-opacity="0.615686" transform="matrix(1 0 0 -1 675.5 624.424)"/><path d="M677.407 620.332 927.432 734.722 923.618 743.058 673.593 628.668ZM927.078 724.48 946.364 748.424 915.637 749.487Z" fill="#00B050" fill-rule="nonzero" fill-opacity="0.615686"/><path d="M678.594 621.119 932.552 853.497 926.364 860.26 672.406 627.882ZM935.358 843.64 946.365 872.349 916.794 863.929Z" fill="#00B050" fill-rule="nonzero" fill-opacity="0.615686"/><path d="M679.204 621.801 936.574 975.052 929.165 980.45 671.796 627.199ZM941.284 965.95 946.364 996.273 919.057 982.143Z" fill="#00B050" fill-rule="nonzero" fill-opacity="0.615686"/><path d="M3.70441-2.69894 261.074 350.552 253.666 355.95-3.70441 2.69894ZM265.784 341.45 270.865 371.773 243.558 357.643Z" fill="#00B050" fill-rule="nonzero" fill-opacity="0.615686" transform="matrix(1 0 0 -1 675.5 748.273)"/><path d="M3.09406-3.38138 257.051 228.997 250.863 235.76-3.09406 3.38138ZM259.858 219.14 270.864 247.849 241.294 239.428Z" fill="#00B050" fill-rule="nonzero" fill-opacity="0.615686" transform="matrix(1 0 0 -1 675.5 748.349)"/><path d="M1.90685-4.16784 251.932 110.222 248.118 118.558-1.90685 4.16784ZM251.578 99.9797 270.864 123.924 240.137 124.987Z" fill="#00B050" fill-rule="nonzero" fill-opacity="0.615686" transform="matrix(1 0 0 -1 675.5 748.424)"/><path d="M677.407 743.332 927.432 857.722 923.618 866.058 673.593 751.668ZM927.078 847.48 946.365 871.424 915.637 872.487Z" fill="#00B050" fill-rule="nonzero" fill-opacity="0.615686"/><path d="M678.594 744.119 932.551 976.497 926.363 983.26 672.406 750.882ZM935.358 966.64 946.364 995.349 916.794 986.929Z" fill="#00B050" fill-rule="nonzero" fill-opacity="0.615686"/><path d="M4.02204-2.19776 263.898 473.39 255.854 477.786-4.02204 2.19776ZM269.744 464.972 270.864 495.697 245.611 478.158Z" fill="#00B050" fill-rule="nonzero" fill-opacity="0.615686" transform="matrix(1 0 0 -1 675.5 872.197)"/><path d="M3.70441-2.69894 261.074 350.552 253.665 355.95-3.70441 2.69894ZM265.783 341.45 270.864 371.773 243.557 357.643Z" fill="#00B050" fill-rule="nonzero" fill-opacity="0.615686" transform="matrix(1 0 0 -1 675.5 872.273)"/><path d="M3.09406-3.38138 257.051 228.997 250.863 235.76-3.09406 3.38138ZM259.858 219.14 270.864 247.849 241.293 239.428Z" fill="#00B050" fill-rule="nonzero" fill-opacity="0.615686" transform="matrix(1 0 0 -1 675.5 872.349)"/><path d="M1.90685-4.16784 251.932 110.222 248.118 118.558-1.90685 4.16784ZM251.577 99.9797 270.864 123.924 240.136 124.987Z" fill="#00B050" fill-rule="nonzero" fill-opacity="0.615686" transform="matrix(1 0 0 -1 675.5 871.424)"/><path d="M677.407 867.332 927.432 981.722 923.618 990.058 673.593 875.668ZM927.077 971.48 946.364 995.424 915.636 996.487Z" fill="#00B050" fill-rule="nonzero" fill-opacity="0.615686"/><path d="M1.90685-4.16784 251.932 110.222 248.118 118.558-1.90685 4.16784ZM251.578 99.9797 270.865 123.924 240.137 124.987Z" fill="#00B050" fill-rule="nonzero" fill-opacity="0.615686" transform="matrix(1 0 0 -1 675.5 995.424)"/><path d="M3.09406-3.38138 257.051 228.997 250.863 235.76-3.09406 3.38138ZM259.858 219.14 270.864 247.849 241.294 239.428Z" fill="#00B050" fill-rule="nonzero" fill-opacity="0.615686" transform="matrix(1 0 0 -1 675.5 995.349)"/><path d="M3.70441-2.69894 261.074 350.552 253.665 355.95-3.70441 2.69894ZM265.784 341.45 270.864 371.773 243.557 357.643Z" fill="#00B050" fill-rule="nonzero" fill-opacity="0.615686" transform="matrix(1 0 0 -1 675.5 996.273)"/><path d="M4.02204-2.19776 263.898 473.39 255.854 477.786-4.02204 2.19776ZM269.744 464.972 270.864 495.697 245.611 478.158Z" fill="#00B050" fill-rule="nonzero" fill-opacity="0.615686" transform="matrix(1 0 0 -1 675.5 996.197)"/><path d="M4.1996-1.83584 265.885 596.788 257.486 600.459-4.1996 1.83584ZM272.448 588.916 270.865 619.622 247.251 599.931Z" fill="#00B050" fill-rule="nonzero" fill-opacity="0.615686" transform="matrix(1 0 0 -1 675.5 996.121)"/><path d="M1312 375.5C1312 349.266 1333.27 328 1359.5 328 1385.73 328 1407 349.266 1407 375.5 1407 401.734 1385.73 423 1359.5 423 1333.27 423 1312 401.734 1312 375.5Z" fill="#EF8600" fill-rule="evenodd" fill-opacity="1"/><path d="M1312 499.5C1312 473.266 1333.27 452 1359.5 452 1385.73 452 1407 473.266 1407 499.5 1407 525.733 1385.73 547 1359.5 547 1333.27 547 1312 525.733 1312 499.5Z" fill="#8EB6F8" fill-rule="evenodd" fill-opacity="1"/><path d="M1312 623.5C1312 597.267 1333.27 576 1359.5 576 1385.73 576 1407 597.267 1407 623.5 1407 649.734 1385.73 671 1359.5 671 1333.27 671 1312 649.734 1312 623.5Z" fill="#D9E7FD" fill-rule="evenodd" fill-opacity="1"/><path d="M1312 871.5C1312 845.266 1333.27 824 1359.5 824 1385.73 824 1407 845.266 1407 871.5 1407 897.733 1385.73 919 1359.5 919 1333.27 919 1312 897.733 1312 871.5Z" fill="#8EB6F8" fill-rule="evenodd" fill-opacity="1"/><path d="M1312 747.5C1312 721.266 1333.27 700 1359.5 700 1385.73 700 1407 721.266 1407 747.5 1407 773.734 1385.73 795 1359.5 795 1333.27 795 1312 773.734 1312 747.5Z" fill="#EF8600" fill-rule="evenodd" fill-opacity="1"/><path d="M1312 995.5C1312 969.266 1333.27 948 1359.5 948 1385.73 948 1407 969.266 1407 995.5 1407 1021.73 1385.73 1043 1359.5 1043 1333.27 1043 1312 1021.73 1312 995.5Z" fill="#D9E7FD" fill-rule="evenodd" fill-opacity="1"/><path d="M1041.5 372.917 1289.45 372.917 1289.45 382.084 1041.5 382.083ZM1284.86 363.75 1312.36 377.5 1284.86 391.25Z" fill="#00B050" fill-rule="nonzero" fill-opacity="0.615686"/><path d="M1043.41 373.332 1293.43 487.722 1289.62 496.058 1039.59 381.668ZM1293.08 477.48 1312.36 501.424 1281.64 502.487Z" fill="#00B050" fill-rule="nonzero" fill-opacity="0.615686"/><path d="M1044.59 374.119 1298.55 606.497 1292.36 613.26 1038.41 380.881ZM1301.36 596.64 1312.36 625.349 1282.79 616.928Z" fill="#00B050" fill-rule="nonzero" fill-opacity="0.615686"/><path d="M1045.2 374.801 1302.57 728.052 1295.16 733.45 1037.8 380.199ZM1307.28 718.95 1312.36 749.273 1285.06 735.143Z" fill="#00B050" fill-rule="nonzero" fill-opacity="0.615686"/><path d="M1045.52 375.302 1305.4 850.89 1297.35 855.286 1037.48 379.698ZM1311.24 842.472 1312.36 873.197 1287.11 855.658Z" fill="#00B050" fill-rule="nonzero" fill-opacity="0.615686"/><path d="M1045.7 375.664 1307.38 974.288 1298.99 977.96 1037.3 379.336ZM1313.95 966.416 1312.36 997.122 1288.75 977.431Z" fill="#00B050" fill-rule="nonzero" fill-opacity="0.615686"/><path d="M1.90685-4.16784 251.932 110.222 248.118 118.558-1.90685 4.16784ZM251.578 99.9797 270.865 123.924 240.137 124.987Z" fill="#00B050" fill-rule="nonzero" fill-opacity="0.615686" transform="matrix(1 0 0 -1 1041.5 501.424)"/><path d="M1041.5 496.917 1289.45 496.917 1289.45 506.084 1041.5 506.083ZM1284.86 487.75 1312.36 501.5 1284.86 515.25Z" fill="#00B050" fill-rule="nonzero" fill-opacity="0.615686"/><path d="M1041.5 620.917 1289.45 620.917 1289.45 630.084 1041.5 630.083ZM1284.86 611.75 1312.36 625.5 1284.86 639.25Z" fill="#00B050" fill-rule="nonzero" fill-opacity="0.615686"/><path d="M1041.5 744.917 1289.45 744.917 1289.45 754.084 1041.5 754.083ZM1284.86 735.75 1312.36 749.5 1284.86 763.25Z" fill="#00B050" fill-rule="nonzero" fill-opacity="0.615686"/><path d="M1041.5 868.917 1289.45 868.917 1289.45 878.084 1041.5 878.083ZM1284.86 859.75 1312.36 873.5 1284.86 887.25Z" fill="#00B050" fill-rule="nonzero" fill-opacity="0.615686"/><path d="M1041.5 991.917 1289.45 991.917 1289.45 1001.08 1041.5 1001.08ZM1284.86 982.75 1312.36 996.5 1284.86 1010.25Z" fill="#00B050" fill-rule="nonzero" fill-opacity="0.615686"/><path d="M1043.41 497.332 1293.43 611.722 1289.62 620.058 1039.59 505.668ZM1293.08 601.48 1312.36 625.424 1281.64 626.487Z" fill="#00B050" fill-rule="nonzero" fill-opacity="0.615686"/><path d="M1044.59 498.119 1298.55 730.497 1292.36 737.26 1038.41 504.881ZM1301.36 720.64 1312.36 749.349 1282.79 740.928Z" fill="#00B050" fill-rule="nonzero" fill-opacity="0.615686"/><path d="M1045.2 498.801 1302.57 852.052 1295.17 857.45 1037.8 504.199ZM1307.28 842.95 1312.36 873.273 1285.06 859.143Z" fill="#00B050" fill-rule="nonzero" fill-opacity="0.615686"/><path d="M1045.52 499.302 1305.4 974.89 1297.35 979.286 1037.48 503.698ZM1311.24 966.472 1312.36 997.197 1287.11 979.658Z" fill="#00B050" fill-rule="nonzero" fill-opacity="0.615686"/><path d="M3.09406-3.38138 257.052 228.997 250.864 235.76-3.09406 3.38138ZM259.858 219.14 270.865 247.849 241.294 239.428Z" fill="#00B050" fill-rule="nonzero" fill-opacity="0.615686" transform="matrix(1 0 0 -1 1041.5 625.349)"/><path d="M1.90685-4.16784 251.932 110.222 248.118 118.558-1.90685 4.16784ZM251.578 99.9797 270.864 123.924 240.137 124.987Z" fill="#00B050" fill-rule="nonzero" fill-opacity="0.615686" transform="matrix(1 0 0 -1 1041.5 625.424)"/><path d="M1043.41 621.332 1293.43 735.722 1289.62 744.058 1039.59 629.668ZM1293.08 725.48 1312.36 749.424 1281.64 750.487Z" fill="#00B050" fill-rule="nonzero" fill-opacity="0.615686"/><path d="M1044.59 622.119 1298.55 854.497 1292.36 861.26 1038.41 628.882ZM1301.36 844.64 1312.36 873.349 1282.79 864.929Z" fill="#00B050" fill-rule="nonzero" fill-opacity="0.615686"/><path d="M1045.2 622.801 1302.57 976.052 1295.17 981.45 1037.8 628.199ZM1307.28 966.95 1312.36 997.273 1285.06 983.143Z" fill="#00B050" fill-rule="nonzero" fill-opacity="0.615686"/><path d="M3.70441-2.69894 261.074 350.552 253.666 355.95-3.70441 2.69894ZM265.784 341.45 270.865 371.773 243.558 357.643Z" fill="#00B050" fill-rule="nonzero" fill-opacity="0.615686" transform="matrix(1 0 0 -1 1041.5 749.273)"/><path d="M3.09406-3.38138 257.051 228.997 250.863 235.76-3.09406 3.38138ZM259.858 219.14 270.864 247.849 241.294 239.428Z" fill="#00B050" fill-rule="nonzero" fill-opacity="0.615686" transform="matrix(1 0 0 -1 1041.5 749.349)"/><path d="M1.90685-4.16784 251.932 110.222 248.118 118.558-1.90685 4.16784ZM251.578 99.9797 270.864 123.924 240.137 124.987Z" fill="#00B050" fill-rule="nonzero" fill-opacity="0.615686" transform="matrix(1 0 0 -1 1041.5 749.424)"/><path d="M1043.41 745.332 1293.43 859.722 1289.62 868.058 1039.59 753.668ZM1293.08 849.48 1312.36 873.424 1281.64 874.487Z" fill="#00B050" fill-rule="nonzero" fill-opacity="0.615686"/><path d="M1044.59 746.118 1298.55 978.497 1292.36 985.26 1038.41 752.881ZM1301.36 968.64 1312.36 997.349 1282.79 988.928Z" fill="#00B050" fill-rule="nonzero" fill-opacity="0.615686"/><path d="M4.02204-2.19776 263.898 473.39 255.854 477.786-4.02204 2.19776ZM269.744 464.972 270.864 495.697 245.611 478.158Z" fill="#00B050" fill-rule="nonzero" fill-opacity="0.615686" transform="matrix(1 0 0 -1 1041.5 873.197)"/><path d="M3.70441-2.69894 261.074 350.552 253.665 355.95-3.70441 2.69894ZM265.783 341.45 270.864 371.773 243.557 357.643Z" fill="#00B050" fill-rule="nonzero" fill-opacity="0.615686" transform="matrix(1 0 0 -1 1041.5 873.273)"/><path d="M3.09406-3.38138 257.051 228.997 250.863 235.76-3.09406 3.38138ZM259.858 219.14 270.864 247.849 241.293 239.428Z" fill="#00B050" fill-rule="nonzero" fill-opacity="0.615686" transform="matrix(1 0 0 -1 1041.5 873.349)"/><path d="M1.90685-4.16784 251.932 110.222 248.118 118.558-1.90685 4.16784ZM251.577 99.9797 270.864 123.924 240.136 124.987Z" fill="#00B050" fill-rule="nonzero" fill-opacity="0.615686" transform="matrix(1 0 0 -1 1041.5 873.424)"/><path d="M1043.41 869.332 1293.43 983.722 1289.62 992.058 1039.59 877.668ZM1293.08 973.48 1312.36 997.424 1281.64 998.487Z" fill="#00B050" fill-rule="nonzero" fill-opacity="0.615686"/><path d="M1.90685-4.16784 251.932 110.222 248.118 118.558-1.90685 4.16784ZM251.578 99.9797 270.865 123.924 240.137 124.987Z" fill="#00B050" fill-rule="nonzero" fill-opacity="0.615686" transform="matrix(1 0 0 -1 1041.5 997.424)"/><path d="M3.09406-3.38138 257.051 228.997 250.863 235.76-3.09406 3.38138ZM259.858 219.14 270.864 247.849 241.294 239.428Z" fill="#00B050" fill-rule="nonzero" fill-opacity="0.615686" transform="matrix(1 0 0 -1 1041.5 997.349)"/><path d="M3.70441-2.69894 261.074 350.552 253.665 355.95-3.70441 2.69894ZM265.784 341.45 270.864 371.773 243.557 357.643Z" fill="#00B050" fill-rule="nonzero" fill-opacity="0.615686" transform="matrix(1 0 0 -1 1041.5 997.273)"/><path d="M4.02204-2.19776 263.898 473.39 255.854 477.786-4.02204 2.19776ZM269.744 464.972 270.864 495.697 245.611 478.158Z" fill="#00B050" fill-rule="nonzero" fill-opacity="0.615686" transform="matrix(1 0 0 -1 1041.5 997.197)"/><path d="M4.1996-1.83584 265.885 596.788 257.486 600.459-4.1996 1.83584ZM272.448 588.916 270.865 619.622 247.251 599.931Z" fill="#00B050" fill-rule="nonzero" fill-opacity="0.615686" transform="matrix(1 0 0 -1 1041.5 997.121)"/><text fill="#000000" fill-opacity="1" font-family="Calibri,Calibri_MSFontService,sans-serif" font-style="normal" font-variant="normal" font-weight="400" font-stretch="normal" font-size="101" text-anchor="start" direction="ltr" writing-mode="lr-tb" unicode-bidi="normal" text-decoration="none" transform="matrix(1 0 0 1 1524.32 717)">vs.</text><path d="M1755 375.5C1755 349.266 1776.27 328 1802.5 328 1828.73 328 1850 349.266 1850 375.5 1850 401.734 1828.73 423 1802.5 423 1776.27 423 1755 401.734 1755 375.5Z" fill="#EF8600" fill-rule="evenodd" fill-opacity="1"/><path d="M1755 499.5C1755 473.266 1776.27 452 1802.5 452 1828.73 452 1850 473.266 1850 499.5 1850 525.733 1828.73 547 1802.5 547 1776.27 547 1755 525.733 1755 499.5Z" fill="#8EB6F8" fill-rule="evenodd" fill-opacity="1"/><path d="M1755 623.5C1755 597.267 1776.27 576 1802.5 576 1828.73 576 1850 597.267 1850 623.5 1850 649.734 1828.73 671 1802.5 671 1776.27 671 1755 649.734 1755 623.5Z" fill="#B3CEFB" fill-rule="evenodd" fill-opacity="0.45098"/><path d="M1755 871.5C1755 845.266 1776.27 824 1802.5 824 1828.73 824 1850 845.266 1850 871.5 1850 897.733 1828.73 919 1802.5 919 1776.27 919 1755 897.733 1755 871.5Z" fill="#8EB6F8" fill-rule="evenodd" fill-opacity="1"/><path d="M1755 747.5C1755 721.266 1776.27 700 1802.5 700 1828.73 700 1850 721.266 1850 747.5 1850 773.734 1828.73 795 1802.5 795 1776.27 795 1755 773.734 1755 747.5Z" fill="#FFDDB3" fill-rule="evenodd" fill-opacity="1"/><path d="M1755 995.5C1755 969.266 1776.27 948 1802.5 948 1828.73 948 1850 969.266 1850 995.5 1850 1021.73 1828.73 1043 1802.5 1043 1776.27 1043 1755 1021.73 1755 995.5Z" fill="#B3CEFB" fill-rule="evenodd" fill-opacity="0.45098"/><path d="M2121 547.5C2121 521.267 2142.27 500 2168.5 500 2194.73 500 2216 521.267 2216 547.5 2216 573.734 2194.73 595 2168.5 595 2142.27 595 2121 573.734 2121 547.5Z" fill="#D9E7FD" fill-rule="evenodd" fill-opacity="1"/><path d="M2121 671.5C2121 645.266 2142.27 624 2168.5 624 2194.73 624 2216 645.266 2216 671.5 2216 697.734 2194.73 719 2168.5 719 2142.27 719 2121 697.734 2121 671.5Z" fill="#EF8600" fill-rule="evenodd" fill-opacity="1"/><path d="M2121 794.5C2121 768.266 2142.27 747 2168.5 747 2194.73 747 2216 768.266 2216 794.5 2216 820.733 2194.73 842 2168.5 842 2142.27 842 2121 820.733 2121 794.5Z" fill="#8EB6F8" fill-rule="evenodd" fill-opacity="1"/><path d="M1852.95 372.627 2104.45 531.789 2099.55 539.535 1848.05 380.373ZM2105.48 521.593 2121.36 547.917 2090.77 544.83Z" fill="#00B050" fill-rule="nonzero" fill-opacity="0.615686"/><path d="M1853.88 373.402 2109.25 651.855 2102.5 658.05 1847.12 379.598ZM2112.91 642.281 2121.36 671.842 2092.64 660.868Z" fill="#00B050" fill-rule="nonzero" fill-opacity="0.615686"/><path d="M1854.35 374.013 2112.78 774.03 2105.08 779.004 1846.65 378.987ZM2117.99 765.206 2121.36 795.766 2094.89 780.128Z" fill="#00B050" fill-rule="nonzero" fill-opacity="0.615686"/><path d="M1851.29 495.986 2099.58 539.521 2098 548.55 1849.71 505.014ZM2096.65 529.7 2121.36 547.993 2091.9 556.787Z" fill="#00B050" fill-rule="nonzero" fill-opacity="0.615686"/><path d="M1852.95 496.627 2104.45 655.789 2099.55 663.535 1848.05 504.373ZM2105.48 645.593 2121.36 671.917 2090.77 668.83Z" fill="#00B050" fill-rule="nonzero" fill-opacity="0.615686"/><path d="M1852.95 620.627 2104.45 779.79 2099.55 787.535 1848.05 628.373ZM2105.48 769.593 2121.36 795.917 2090.77 792.83Z" fill="#00B050" fill-rule="nonzero" fill-opacity="0.615686"/><path d="M1853.88 497.402 2109.25 775.854 2102.5 782.05 1847.12 503.598ZM2112.91 766.281 2121.36 795.842 2092.64 784.868Z" fill="#00B050" fill-rule="nonzero" fill-opacity="0.615686"/><path d="M1.2447-4.41108 250.053 65.7966 247.564 74.6188-1.2447 4.41108ZM248.132 55.7298 270.864 76.4312 240.664 82.1963Z" fill="#00B050" fill-rule="nonzero" fill-opacity="0.615686" transform="matrix(1 0 0 -1 1850.5 623.931)"/><path d="M1851.29 619.986 2099.58 663.521 2098 672.55 1849.71 629.015ZM2096.65 653.7 2121.36 671.993 2091.9 680.787Z" fill="#00B050" fill-rule="nonzero" fill-opacity="0.615686"/><path d="M2.72563-3.68482 255.166 183.043 249.714 190.412-2.72563 3.68482ZM256.932 172.947 270.864 200.356 240.578 195.056Z" fill="#00B050" fill-rule="nonzero" fill-opacity="0.615686" transform="matrix(1 0 0 -1 1850.5 747.856)"/><path d="M1.2447-4.41108 250.053 65.7966 247.564 74.6188-1.2447 4.41108ZM248.131 55.7298 270.864 76.4312 240.663 82.1963Z" fill="#00B050" fill-rule="nonzero" fill-opacity="0.615686" transform="matrix(1 0 0 -1 1850.5 747.931)"/><path d="M1851.29 742.986 2099.58 786.521 2098 795.55 1849.71 752.015ZM2096.65 776.701 2121.36 794.993 2091.9 803.787Z" fill="#00B050" fill-rule="nonzero" fill-opacity="0.615686"/><path d="M3.51765-2.93821 259.69 303.753 252.655 309.63-3.51765 2.93821ZM263.787 294.359 270.864 324.28 242.682 311.989Z" fill="#00B050" fill-rule="nonzero" fill-opacity="0.615686" transform="matrix(1 0 0 -1 1850.5 871.78)"/><path d="M2.72563-3.68482 255.165 183.043 249.714 190.412-2.72563 3.68482ZM256.931 172.947 270.863 200.356 240.578 195.056Z" fill="#00B050" fill-rule="nonzero" fill-opacity="0.615686" transform="matrix(1 0 0 -1 1850.5 871.855)"/><path d="M1.2447-4.41108 250.053 65.7966 247.563 74.6188-1.2447 4.41108ZM248.131 55.7298 270.863 76.4312 240.663 82.1963Z" fill="#00B050" fill-rule="nonzero" fill-opacity="0.615686" transform="matrix(1 0 0 -1 1850.5 871.931)"/><path d="M2.72563-3.68482 255.165 183.043 249.714 190.412-2.72563 3.68482ZM256.932 172.947 270.864 200.356 240.578 195.056Z" fill="#00B050" fill-rule="nonzero" fill-opacity="0.615686" transform="matrix(1 0 0 -1 1850.5 995.855)"/><path d="M3.51765-2.93821 259.69 303.753 252.655 309.63-3.51765 2.93821ZM263.787 294.359 270.864 324.28 242.682 311.989Z" fill="#00B050" fill-rule="nonzero" fill-opacity="0.615686" transform="matrix(1 0 0 -1 1850.5 995.78)"/><path d="M3.92266-2.37059 262.934 426.22 255.088 430.961-3.92266 2.37059ZM268.409 417.556 270.864 448.204 244.873 431.78Z" fill="#00B050" fill-rule="nonzero" fill-opacity="0.615686" transform="matrix(1 0 0 -1 1850.5 995.704)"/><path d="M2487 375.5C2487 349.266 2508.27 328 2534.5 328 2560.73 328 2582 349.266 2582 375.5 2582 401.734 2560.73 423 2534.5 423 2508.27 423 2487 401.734 2487 375.5Z" fill="#EF8600" fill-rule="evenodd" fill-opacity="1"/><path d="M2487 499.5C2487 473.266 2508.27 452 2534.5 452 2560.73 452 2582 473.266 2582 499.5 2582 525.733 2560.73 547 2534.5 547 2508.27 547 2487 525.733 2487 499.5Z" fill="#8EB6F8" fill-rule="evenodd" fill-opacity="1"/><path d="M2487 623.5C2487 597.267 2508.27 576 2534.5 576 2560.73 576 2582 597.267 2582 623.5 2582 649.734 2560.73 671 2534.5 671 2508.27 671 2487 649.734 2487 623.5Z" fill="#8EB6F8" fill-rule="evenodd" fill-opacity="1"/><path d="M2487 871.5C2487 845.266 2508.27 824 2534.5 824 2560.73 824 2582 845.266 2582 871.5 2582 897.733 2560.73 919 2534.5 919 2508.27 919 2487 897.733 2487 871.5Z" fill="#B3CEFB" fill-rule="evenodd" fill-opacity="1"/><path d="M2487 747.5C2487 721.266 2508.27 700 2534.5 700 2560.73 700 2582 721.266 2582 747.5 2582 773.734 2560.73 795 2534.5 795 2508.27 795 2487 773.734 2487 747.5Z" fill="#FFDDB3" fill-rule="evenodd" fill-opacity="1"/><path d="M2487 995.5C2487 969.266 2508.27 948 2534.5 948 2560.73 948 2582 969.266 2582 995.5 2582 1021.73 2560.73 1043 2534.5 1043 2508.27 1043 2487 1021.73 2487 995.5Z" fill="#D9E7FD" fill-rule="evenodd" fill-opacity="1"/><path d="M2.4392-3.88037 253.901 154.188 249.022 161.949-2.4392 3.88037ZM254.899 143.988 270.863 170.265 240.264 167.271Z" fill="#00B050" fill-rule="nonzero" fill-opacity="0.615686" transform="matrix(1 0 0 -1 2216.5 547.765)"/><path d="M0.772906-4.51769 249.048 37.9582 247.502 46.9936-0.772906 4.51769ZM246.076 28.1499 270.863 46.3404 241.438 55.256Z" fill="#00B050" fill-rule="nonzero" fill-opacity="0.615686" transform="matrix(1 0 0 -1 2216.5 547.84)"/><path d="M2217.76 543.094 2466.59 614.368 2464.07 623.18 2215.24 551.906ZM2464.71 604.293 2487.36 625.084 2457.14 630.73Z" fill="#00B050" fill-rule="nonzero" fill-opacity="0.615686"/><path d="M2219.24 543.823 2471.71 731.652 2466.24 739.007 2213.76 551.177ZM2473.51 721.562 2487.36 749.008 2457.09 743.626Z" fill="#00B050" fill-rule="nonzero" fill-opacity="0.615686"/><path d="M2220.02 544.568 2476.23 852.387 2469.18 858.251 2212.98 550.432ZM2480.34 843 2487.36 872.933 2459.2 860.592Z" fill="#00B050" fill-rule="nonzero" fill-opacity="0.615686"/><path d="M2220.43 545.134 2479.46 974.864 2471.61 979.596 2212.57 549.866ZM2484.94 966.206 2487.36 996.857 2461.39 980.403Z" fill="#00B050" fill-rule="nonzero" fill-opacity="0.615686"/><path d="M3.37182-3.10448 258.713 274.226 251.97 280.435-3.37182 3.10448ZM262.352 264.645 270.864 294.189 242.121 283.272Z" fill="#00B050" fill-rule="nonzero" fill-opacity="0.615686" transform="matrix(1 0 0 -1 2216.5 671.689)"/><path d="M2.4392-3.88037 253.901 154.188 249.022 161.949-2.4392 3.88037ZM254.899 143.988 270.863 170.265 240.264 167.271Z" fill="#00B050" fill-rule="nonzero" fill-opacity="0.615686" transform="matrix(1 0 0 -1 2216.5 671.765)"/><path d="M2.4392-3.88037 253.901 154.188 249.022 161.949-2.4392 3.88037ZM254.899 143.988 270.863 170.265 240.264 167.271Z" fill="#00B050" fill-rule="nonzero" fill-opacity="0.615686" transform="matrix(1 0 0 -1 2216.5 795.765)"/><path d="M0.772905-4.51769 249.048 37.9582 247.502 46.9936-0.772905 4.51769ZM246.076 28.1499 270.863 46.3404 241.439 55.256Z" fill="#00B050" fill-rule="nonzero" fill-opacity="0.615686" transform="matrix(1 0 0 -1 2216.5 671.841)"/><path d="M2217.76 667.094 2466.59 738.367 2464.07 747.18 2215.24 675.906ZM2464.71 728.293 2487.36 749.084 2457.14 754.73Z" fill="#00B050" fill-rule="nonzero" fill-opacity="0.615686"/><path d="M2219.24 667.823 2471.71 855.652 2466.24 863.007 2213.76 675.177ZM2473.51 845.562 2487.36 873.008 2457.09 867.626Z" fill="#00B050" fill-rule="nonzero" fill-opacity="0.615686"/><path d="M2220.02 668.568 2476.23 976.387 2469.18 982.251 2212.98 674.432ZM2480.34 967 2487.36 996.932 2459.2 984.592Z" fill="#00B050" fill-rule="nonzero" fill-opacity="0.615686"/><path d="M3.84669-2.49198 262.251 396.388 254.557 401.372-3.84669 2.49198ZM267.452 387.557 270.864 418.113 244.372 402.509Z" fill="#00B050" fill-rule="nonzero" fill-opacity="0.615686" transform="matrix(1 0 0 -1 2216.5 795.613)"/><path d="M3.37182-3.10448 258.713 274.225 251.969 280.434-3.37182 3.10448ZM262.352 264.645 270.863 294.189 242.121 283.272Z" fill="#00B050" fill-rule="nonzero" fill-opacity="0.615686" transform="matrix(1 0 0 -1 2216.5 795.689)"/><path d="M0.772905-4.51769 249.048 37.9582 247.502 46.9936-0.772905 4.51769ZM246.076 28.1499 270.863 46.3404 241.439 55.256Z" fill="#00B050" fill-rule="nonzero" fill-opacity="0.615686" transform="matrix(1 0 0 -1 2216.5 795.84)"/><path d="M2217.76 791.094 2466.6 862.367 2464.07 871.18 2215.24 799.906ZM2464.71 852.293 2487.36 873.084 2457.14 878.73Z" fill="#00B050" fill-rule="nonzero" fill-opacity="0.615686"/><path d="M2219.24 791.823 2471.71 979.652 2466.24 987.007 2213.76 799.177ZM2473.51 969.562 2487.36 997.008 2457.09 991.626Z" fill="#00B050" fill-rule="nonzero" fill-opacity="0.615686"/></g></g></svg>