<svg width="1948" height="1045" xmlns="http://www.w3.org/2000/svg" xmlns:xlink="http://www.w3.org/1999/xlink" xml:space="preserve" overflow="hidden"><defs><clipPath id="clip0"><rect x="453" y="467" width="1948" height="1045"/></clipPath><clipPath id="clip1"><rect x="453" y="467" width="1948" height="1045"/></clipPath></defs><g clip-path="url(#clip0)" transform="translate(-453 -467)"><g clip-path="url(#clip1)"><path d="M626 468 893 645.739 893 1024.26 626 1202Z" fill="#FF0000" fill-rule="evenodd" fill-opacity="0.25098"/><path d="M2227 1202 1961 1024.93 1961 645.073 2227 468Z" fill="#FF0000" fill-rule="evenodd" fill-opacity="0.25098"/><path d="M893 647.833 1116.38 647.833C1121.44 647.833 1125.54 651.938 1125.54 657 1125.54 662.063 1121.44 666.167 1116.38 666.167L893 666.167C887.937 666.167 883.833 662.062 883.833 657 883.833 651.937 887.937 647.833 893 647.833ZM1107.21 629.5 1162.21 657 1107.21 684.5Z" fill="#FF7879" fill-rule="nonzero" fill-opacity="1"/><path d="M893 994.833 1116.38 994.834C1121.44 994.834 1125.54 998.938 1125.54 1004 1125.54 1009.06 1121.44 1013.17 1116.38 1013.17L893 1013.17C887.937 1013.17 883.833 1009.06 883.833 1004 883.833 998.938 887.937 994.833 893 994.833ZM1107.21 976.5 1162.21 1004 1107.21 1031.5Z" fill="#FF7879" fill-rule="nonzero" fill-opacity="1"/><rect x="457" y="468" width="113" height="734" fill="#4285F4" fill-opacity="0.501961"/><text fill="#FFFFFF" fill-opacity="1" font-family="Cambria Math,Cambria Math_MSFontService,sans-serif" font-style="normal" font-variant="normal" font-weight="400" font-stretch="normal" font-size="92" text-anchor="start" direction="ltr" writing-mode="lr-tb" unicode-bidi="normal" text-decoration="none" transform="matrix(1 0 0 1 490.051 866)">𝒙</text><rect x="1162" y="503" width="113" height="307" fill="#7030A0" fill-opacity="0.501961"/><text fill="#FFFFFF" fill-opacity="1" font-family="Cambria Math,Cambria Math_MSFontService,sans-serif" font-style="normal" font-variant="normal" font-weight="400" font-stretch="normal" font-size="92" text-anchor="start" direction="ltr" writing-mode="lr-tb" unicode-bidi="normal" text-decoration="none" transform="matrix(1 0 0 1 1194.95 688)">𝝁</text><rect x="1162" y="851" width="113" height="306" fill="#7030A0" fill-opacity="0.501961"/><text fill="#FFFFFF" fill-opacity="1" font-family="Cambria Math,Cambria Math_MSFontService,sans-serif" font-style="normal" font-variant="normal" font-weight="400" font-stretch="normal" font-size="92" text-anchor="start" direction="ltr" writing-mode="lr-tb" unicode-bidi="normal" text-decoration="none" transform="matrix(1 0 0 1 1194.95 1035)">𝚺</text><rect x="1162" y="1202" width="113" height="307" fill="#4285F4" fill-opacity="0.501961"/><text fill="#FFFFFF" fill-opacity="1" font-family="Cambria Math,Cambria Math_MSFontService,sans-serif" font-style="normal" font-variant="normal" font-weight="400" font-stretch="normal" font-size="92" text-anchor="start" direction="ltr" writing-mode="lr-tb" unicode-bidi="normal" text-decoration="none" transform="matrix(1 0 0 1 1195.52 1386)">𝝐</text><rect x="1579" y="681" width="113" height="307" fill="#7030A0" fill-opacity="0.501961"/><text fill="#FFFFFF" fill-opacity="1" font-family="Cambria Math,Cambria Math_MSFontService,sans-serif" font-style="normal" font-variant="normal" font-weight="400" font-stretch="normal" font-size="92" text-anchor="start" direction="ltr" writing-mode="lr-tb" unicode-bidi="normal" text-decoration="none" transform="matrix(1 0 0 1 1611.79 866)">𝒛</text><path d="M7.91562-4.62284 288.749 476.244C291.302 480.616 289.828 486.229 285.456 488.782 281.084 491.336 275.471 489.861 272.918 485.49L-7.91562 4.62284C-10.4687 0.251162-8.99452-5.3625-4.62284-7.91562-0.251162-10.4687 5.3625-8.99452 7.91562-4.62284ZM299.957 459.083 303.948 520.445 252.464 486.82Z" fill="#FF7879" fill-rule="nonzero" fill-opacity="1" transform="matrix(1 0 0 -1 1275 1355.45)"/><path d="M4.45679-8.01029 268.353 138.817 268.353 138.817C272.776 141.278 274.367 146.86 271.906 151.284 269.445 155.708 263.863 157.299 259.439 154.837L259.439 154.837-4.45679 8.01029C-8.88075 5.54888-10.4717-0.0328249-8.01029-4.45679-5.54888-8.88075 0.032825-10.4717 4.45679-8.01029ZM269.256 118.339 303.947 169.111 242.515 166.401Z" fill="#FF7879" fill-rule="nonzero" fill-opacity="1" transform="matrix(1 0 0 -1 1275 1004.11)"/><path d="M1279.64 649.094 1544.05 804.23C1548.42 806.792 1549.88 812.408 1547.32 816.775 1544.76 821.141 1539.14 822.604 1534.78 820.042L1270.36 664.906C1265.99 662.344 1264.53 656.728 1267.09 652.361 1269.66 647.995 1275.27 646.532 1279.64 649.094ZM1545.43 783.778 1578.95 835.33 1517.59 831.216Z" fill="#FF7879" fill-rule="nonzero" fill-opacity="1"/><path d="M1692 825.833 1915.38 825.834C1920.44 825.834 1924.54 829.938 1924.54 835 1924.54 840.063 1920.44 844.167 1915.38 844.167L1692 844.167C1686.94 844.167 1682.83 840.063 1682.83 835 1682.83 829.937 1686.94 825.833 1692 825.833ZM1906.21 807.5 1961.21 835 1906.21 862.5Z" fill="#FF7879" fill-rule="nonzero" fill-opacity="1"/><rect x="2287" y="468" width="112" height="734" fill="#4285F4" fill-opacity="0.501961"/><text fill="#FFFFFF" fill-opacity="1" font-family="Cambria Math,Cambria Math_MSFontService,sans-serif" font-style="normal" font-variant="normal" font-weight="400" font-stretch="normal" font-size="92" text-anchor="start" direction="ltr" writing-mode="lr-tb" unicode-bidi="normal" text-decoration="none" transform="matrix(1 0 0 1 2319.55 866)">𝒙</text><path d="M38.543-56.1973C39.7708-56.1973 40.849-56.3171 41.7773-56.5566 42.7057-56.7962 43.5967-57.193 44.4502-57.7471 45.3037-58.3011 46.1497-59.0199 46.9883-59.9033 47.8268-60.7868 48.6803-61.7676 49.5488-62.8457L52.1543-60.8691C50.8665-58.8327 49.6312-57.1706 48.4482-55.8828 47.2653-54.595 46.0749-53.5469 44.8769-52.7383 43.679-51.9297 42.4661-51.3532 41.2383-51.0088 40.0104-50.6644 38.7226-50.4922 37.375-50.4922 36.3568-50.4922 35.3909-50.5745 34.4775-50.7393 33.5641-50.904 32.6208-51.1361 31.6475-51.4355 30.6742-51.735 29.6559-52.1243 28.5928-52.6035 27.5296-53.0827 26.3691-53.6367 25.1113-54.2656 23.9434-54.8945 22.8652-55.4111 21.877-55.8154 20.8887-56.2197 19.9603-56.5566 19.0918-56.8262 18.2233-57.0957 17.3997-57.2829 16.6211-57.3877 15.8424-57.4925 15.0638-57.5449 14.2852-57.5449 13.237-57.5449 12.2786-57.4775 11.4102-57.3428 10.5417-57.208 9.6582-56.901 8.75976-56.4219 7.86133-55.9427 6.94043-55.2464 5.99707-54.333 5.05371-53.4196 3.99805-52.1992 2.83008-50.6719L-0.0449219-52.7832C1.12305-54.7298 2.24609-56.3395 3.32422-57.6123 4.40234-58.8851 5.54036-59.9408 6.73828-60.7793 7.9362-61.6178 9.20898-62.2393 10.5566-62.6436 11.9043-63.0478 13.4017-63.25 15.0488-63.25 16.0671-63.25 17.0254-63.1751 17.9238-63.0254 18.8223-62.8756 19.7506-62.6436 20.709-62.3291 21.6673-62.0146 22.6855-61.6253 23.7637-61.1611 24.8418-60.6969 26.0996-60.1504 27.5371-59.5215 28.8548-58.8327 30.0303-58.2712 31.0635-57.8369 32.0967-57.4027 33.0325-57.0658 33.8711-56.8262 34.7096-56.5866 35.4958-56.4219 36.2295-56.332 36.9632-56.2422 37.7344-56.1973 38.543-56.1973Z" fill="#FFFFFF" fill-rule="nonzero" fill-opacity="1" transform="matrix(1 0 0 1 2319.92 864)"/><text fill="#000000" fill-opacity="0" font-family="Arial,Arial_MSFontService,sans-serif" font-size="12.7578" direction="ltr" writing-mode="lr-tb" x="-0.0449219" y="-52.0869">෥</text></g></g></svg>