<svg width="1709" height="614" xmlns="http://www.w3.org/2000/svg" xmlns:xlink="http://www.w3.org/1999/xlink" xml:space="preserve" overflow="hidden"><g transform="translate(-825 -472)"><g><path d="M878.417 917.917 2482.58 917.917 2482.58 927.084 878.417 927.083ZM883 936.25 855.5 922.5 883 908.75ZM2478 908.75 2505.5 922.5 2478 936.25Z" fill="#000000" fill-rule="nonzero" fill-opacity="1"/><text fill="#000000" fill-opacity="1" font-family="Cambria Math,Cambria Math_MSFontService,sans-serif" font-style="normal" font-variant="normal" font-weight="400" font-stretch="normal" font-size="64" text-anchor="start" direction="ltr" writing-mode="lr-tb" unicode-bidi="normal" text-decoration="none" transform="matrix(1 0 0 1 1616.22 1040)">ğ”¼</text><text fill="#000000" fill-opacity="1" font-family="Cambria Math,Cambria Math_MSFontService,sans-serif" font-style="normal" font-variant="normal" font-weight="400" font-stretch="normal" font-size="64" text-anchor="start" direction="ltr" writing-mode="lr-tb" unicode-bidi="normal" text-decoration="none" transform="matrix(1 0 0 1 1656.9 1040)">[</text><text fill="#000000" fill-opacity="1" font-family="Cambria Math,Cambria Math_MSFontService,sans-serif" font-style="normal" font-variant="normal" font-weight="400" font-stretch="normal" font-size="64" text-anchor="start" direction="ltr" writing-mode="lr-tb" unicode-bidi="normal" text-decoration="none" transform="matrix(1 0 0 1 1679.25 1040)">ğ‘‹</text><text fill="#000000" fill-opacity="1" font-family="Cambria Math,Cambria Math_MSFontService,sans-serif" font-style="normal" font-variant="normal" font-weight="400" font-stretch="normal" font-size="64" text-anchor="start" direction="ltr" writing-mode="lr-tb" unicode-bidi="normal" text-decoration="none" transform="matrix(1 0 0 1 1722.05 1040)">]</text><path d="M1680.5 912.5 1680.5 945.5" stroke="#000000" stroke-width="9.16667" stroke-linecap="butt" stroke-linejoin="round" stroke-miterlimit="10" stroke-opacity="1" fill="none" fill-rule="evenodd"/><rect x="2152" y="891" width="353" height="60.0002" fill="#4285F4" fill-opacity="0.501961"/><rect x="855" y="894" width="353" height="60.9998" fill="#4285F4" fill-opacity="0.501961"/><path d="M2152.5 905.5 2152.5 938.5" stroke="#000000" stroke-width="9.16667" stroke-linecap="butt" stroke-linejoin="round" stroke-miterlimit="10" stroke-opacity="1" fill="none" fill-rule="evenodd"/><path d="M1210.5 905.5 1210.5 938.5" stroke="#000000" stroke-width="9.16667" stroke-linecap="butt" stroke-linejoin="round" stroke-miterlimit="10" stroke-opacity="1" fill="none" fill-rule="evenodd"/><path d="M882 859C987.495 852.263 1092.99 845.527 1225.42 781.527 1357.85 717.528 1522.83 473.881 1676.58 475.004 1830.34 476.126 2012.71 724.826 2147.95 788.264 2283.18 851.702 2385.59 853.667 2488 855.632" fill="#92D050" fill-rule="evenodd" fill-opacity="0.501961"/><path d="M1374.5 662.917 1987.36 662.917 1987.36 672.084 1374.5 672.083ZM1374.5 681.25C1366.91 681.25 1360.75 675.094 1360.75 667.5 1360.75 659.906 1366.91 653.75 1374.5 653.75 1382.09 653.75 1388.25 659.906 1388.25 667.5 1388.25 675.094 1382.09 681.25 1374.5 681.25ZM1987.36 653.75C1994.95 653.75 2001.11 659.906 2001.11 667.5 2001.11 675.094 1994.95 681.25 1987.36 681.25 1979.76 681.25 1973.61 675.094 1973.61 667.5 1973.61 659.906 1979.76 653.75 1987.36 653.75Z" fill="#EF8600" fill-rule="nonzero" fill-opacity="1"/><path d="M1786.65 695.845 1795.4 695.845 1795.4 695.967 1857.19 695.967 1921.19 695.967 1985.19 695.967 1985.19 699.967 1921.19 699.967 1857.19 699.967 1795.4 699.967 1795.4 700.001 1789.15 700.001 1768.84 775.313 1765.81 775.313 1752.87 747.501 1747.59 749.845 1746.62 747.501 1756.87 742.813 1767.69 766.938Z" fill="#EF8600" fill-rule="evenodd" fill-opacity="1"/><text fill="#EF8600" fill-opacity="1" font-family="Cambria Math,Cambria Math_MSFontService,sans-serif" font-style="normal" font-variant="normal" font-weight="400" font-stretch="normal" font-size="64" text-anchor="start" direction="ltr" writing-mode="lr-tb" unicode-bidi="normal" text-decoration="none" transform="matrix(1 0 0 1 1793.17 756)">Var</text><text fill="#EF8600" fill-opacity="1" font-family="Cambria Math,Cambria Math_MSFontService,sans-serif" font-style="normal" font-variant="normal" font-weight="400" font-stretch="normal" font-size="64" text-anchor="start" direction="ltr" writing-mode="lr-tb" unicode-bidi="normal" text-decoration="none" transform="matrix(1 0 0 1 1890 756)">(</text><text fill="#EF8600" fill-opacity="1" font-family="Cambria Math,Cambria Math_MSFontService,sans-serif" font-style="normal" font-variant="normal" font-weight="400" font-stretch="normal" font-size="64" text-anchor="start" direction="ltr" writing-mode="lr-tb" unicode-bidi="normal" text-decoration="none" transform="matrix(1 0 0 1 1916.35 756)">ğ‘‹</text><text fill="#EF8600" fill-opacity="1" font-family="Cambria Math,Cambria Math_MSFontService,sans-serif" font-style="normal" font-variant="normal" font-weight="400" font-stretch="normal" font-size="64" text-anchor="start" direction="ltr" writing-mode="lr-tb" unicode-bidi="normal" text-decoration="none" transform="matrix(1 0 0 1 1959.16 756)">)</text></g></g></svg>