<svg width="1013" height="619" xmlns="http://www.w3.org/2000/svg" xmlns:xlink="http://www.w3.org/1999/xlink" xml:space="preserve" overflow="hidden"><g transform="translate(-591 -238)"><g><path d="M767.5 446.5C767.5 407.84 799.064 376.5 838 376.5 876.936 376.5 908.5 407.84 908.5 446.5 908.5 485.16 876.936 516.5 838 516.5 799.064 516.5 767.5 485.16 767.5 446.5Z" stroke="#000000" stroke-width="9.16667" stroke-linecap="butt" stroke-linejoin="round" stroke-miterlimit="10" stroke-opacity="1" fill="none" fill-rule="evenodd"/><text fill="#000000" fill-opacity="1" font-family="Cambria Math,Cambria Math_MSFontService,sans-serif" font-style="normal" font-variant="normal" font-weight="400" font-stretch="normal" font-size="73" text-anchor="start" direction="ltr" writing-mode="lr-tb" unicode-bidi="normal" text-decoration="none" transform="matrix(1 0 0 1 805.356 471)">𝐴</text><path d="M1114.5 651C1114.5 612.064 1146.06 580.5 1185 580.5 1223.94 580.5 1255.5 612.064 1255.5 651 1255.5 689.936 1223.94 721.5 1185 721.5 1146.06 721.5 1114.5 689.936 1114.5 651Z" stroke="#000000" stroke-width="9.16667" stroke-linecap="butt" stroke-linejoin="round" stroke-miterlimit="10" stroke-opacity="1" fill="none" fill-rule="evenodd"/><text fill="#000000" fill-opacity="1" font-family="Cambria Math,Cambria Math_MSFontService,sans-serif" font-style="normal" font-variant="normal" font-weight="400" font-stretch="normal" font-size="73" text-anchor="start" direction="ltr" writing-mode="lr-tb" unicode-bidi="normal" text-decoration="none" transform="matrix(1 0 0 1 1151.4 675)">𝐵</text><path d="M1458.5 446.5C1458.5 407.84 1489.84 376.5 1528.5 376.5 1567.16 376.5 1598.5 407.84 1598.5 446.5 1598.5 485.16 1567.16 516.5 1528.5 516.5 1489.84 516.5 1458.5 485.16 1458.5 446.5Z" stroke="#000000" stroke-width="9.16667" stroke-linecap="butt" stroke-linejoin="round" stroke-miterlimit="10" stroke-opacity="1" fill="none" fill-rule="evenodd"/><text fill="#000000" fill-opacity="1" font-family="Cambria Math,Cambria Math_MSFontService,sans-serif" font-style="normal" font-variant="normal" font-weight="400" font-stretch="normal" font-size="73" text-anchor="start" direction="ltr" writing-mode="lr-tb" unicode-bidi="normal" text-decoration="none" transform="matrix(1 0 0 1 1496.08 471)">𝐶</text><path d="M4.51115e-06-6.875 515.625-6.87466 515.625 6.87534-4.51115e-06 6.875ZM508.75-20.6247 550 0.000360892 508.75 20.6253Z" fill="#000000" fill-rule="nonzero" fill-opacity="1" transform="matrix(-1 0 0 1 1458 446)"/><path d="M1132.46 607.285 915.981 515.723 921.338 503.059 1137.82 594.621ZM916.957 531.065 887 496 933.026 493.073Z" fill="#000000" fill-rule="nonzero" fill-opacity="1"/><path d="M1377.64 853.361 1253.45 729.168 1263.17 719.445 1387.36 843.638ZM1248.58 743.752 1234 700 1277.75 714.584Z" fill="#000000" fill-rule="nonzero" fill-opacity="1"/><path d="M4.86136-4.86136 129.055 119.332 119.332 129.055-4.86136 4.86136ZM133.916 104.748 148.5 148.5 104.748 133.916Z" fill="#000000" fill-rule="nonzero" fill-opacity="1" transform="matrix(1 0 0 -1 978 848.5)"/><path d="M5.38419-4.27506 93.6065 106.836 82.8381 115.386-5.38419 4.27506ZM100.1 92.9016 109.598 138.032 67.7947 118.552Z" fill="#000000" fill-rule="nonzero" fill-opacity="1" transform="matrix(1 0 0 -1 678 634.032)"/><path d="M593 439.125 732.389 439.125 732.389 452.875 593 452.875ZM725.514 425.375 766.764 446 725.514 466.625Z" fill="#000000" fill-rule="nonzero" fill-opacity="1"/><path d="M634.767 240.046 767.275 367.54 757.742 377.448 625.233 249.954ZM771.854 352.864 787.279 396.327 743.254 382.59Z" fill="#000000" fill-rule="nonzero" fill-opacity="1"/><path d="M4.4374-5.2512 114.877 88.0726 106.002 98.575-4.4374 5.2512ZM118.5 73.1328 136.695 115.511 91.8758 104.64Z" fill="#000000" fill-rule="nonzero" fill-opacity="1" transform="matrix(-1 0 0 1 1023.7 281)"/><path d="M928.037 642.125 1080.05 642.935 1079.98 656.685 927.964 655.875ZM1073.25 629.149 1114.39 649.993 1073.03 670.398Z" fill="#000000" fill-rule="nonzero" fill-opacity="1"/></g></g></svg>