<svg width="2287" height="1801" xmlns="http://www.w3.org/2000/svg" xmlns:xlink="http://www.w3.org/1999/xlink" xml:space="preserve" overflow="hidden"><g transform="translate(-311 -36)"><g><path d="M4.58333-2.52054e-06 4.58368 633.327-4.58298 633.327-4.58333 2.52054e-06ZM13.7503 628.744 0.000360892 656.244-13.7497 628.744Z" fill="#000000" fill-rule="nonzero" fill-opacity="1" transform="matrix(1 0 0 -1 496.5 890.744)"/><path d="M1.94576e-06-4.58333 827.183-4.58298 827.183 4.58368-1.94576e-06 4.58333ZM822.599-13.7497 850.099 0.000360892 822.599 13.7503Z" fill="#000000" fill-rule="nonzero" fill-opacity="1" transform="matrix(1 0 0 -1 492.5 888.5)"/><rect x="823" y="299" width="42.9999" height="43" fill="#00B050" fill-opacity="0.501961"/><rect x="900" y="795" width="44" height="44" fill="#00B050" fill-opacity="0.501961"/><path d="M789 580 811 537 833 580Z" fill="#4285F4" fill-rule="evenodd" fill-opacity="0.501961"/><rect x="575" y="416" width="44" height="44" fill="#00B050" fill-opacity="0.501961"/><rect x="658" y="438" width="44" height="43" fill="#00B050" fill-opacity="0.501961"/><path d="M844 532 866 489 888 532Z" fill="#4285F4" fill-rule="evenodd" fill-opacity="0.501961"/><rect x="598" y="675" width="42.9999" height="42.9999" fill="#00B050" fill-opacity="0.501961"/><path d="M767 663 788.5 620 810 663Z" fill="#4285F4" fill-rule="evenodd" fill-opacity="0.501961"/><rect x="1068" y="259" width="43" height="44" fill="#00B050" fill-opacity="0.501961"/><path d="M977 725 999 682 1021 725Z" fill="#4285F4" fill-rule="evenodd" fill-opacity="0.501961"/><rect x="913" y="291" width="42.9999" height="43" fill="#00B050" fill-opacity="0.501961"/><path d="M831 646 853 603 875 646Z" fill="#4285F4" fill-rule="evenodd" fill-opacity="0.501961"/><rect x="750" y="371" width="42.9999" height="43" fill="#00B050" fill-opacity="0.501961"/><path d="M927 639 949 596 971 639Z" fill="#4285F4" fill-rule="evenodd" fill-opacity="0.501961"/><rect x="1173" y="559" width="43" height="44" fill="#00B050" fill-opacity="0.501961"/><path d="M955 578 976.5 535 998 578Z" fill="#4285F4" fill-rule="evenodd" fill-opacity="0.501961"/><path d="M875 739 896.5 696 918 739Z" fill="#4285F4" fill-rule="evenodd" fill-opacity="0.501961"/><rect x="1057" y="766" width="44" height="42.9999" fill="#00B050" fill-opacity="0.501961"/><path d="M1039 654 1060.5 611 1082 654Z" fill="#4285F4" fill-rule="evenodd" fill-opacity="0.501961"/><rect x="1234" y="433" width="43" height="43" fill="#00B050" fill-opacity="0.501961"/><path d="M938 470 959.5 426 981 470Z" fill="#4285F4" fill-rule="evenodd" fill-opacity="0.501961"/><rect x="678" y="297" width="42.9999" height="43" fill="#00B050" fill-opacity="0.501961"/><rect x="1213" y="278" width="43" height="43" fill="#00B050" fill-opacity="0.501961"/><rect x="624" y="557" width="44" height="42.9999" fill="#00B050" fill-opacity="0.501961"/><rect x="1232" y="657" width="43" height="44" fill="#00B050" fill-opacity="0.501961"/><rect x="1184" y="725" width="43" height="44" fill="#00B050" fill-opacity="0.501961"/><rect x="1051" y="394" width="44" height="43" fill="#00B050" fill-opacity="0.501961"/><rect x="1130" y="374" width="43" height="44" fill="#00B050" fill-opacity="0.501961"/><rect x="706" y="760" width="44" height="44" fill="#00B050" fill-opacity="0.501961"/><rect x="607" y="798" width="42.9999" height="43.0003" fill="#00B050" fill-opacity="0.501961"/><rect x="776" y="720" width="44" height="44" fill="#00B050" fill-opacity="0.501961"/><rect x="1158" y="793" width="43" height="42.9999" fill="#00B050" fill-opacity="0.501961"/><path d="M4.58333-2.52054e-06 4.58368 633.327-4.58298 633.327-4.58333 2.52054e-06ZM13.7503 628.744 0.000360892 656.244-13.7497 628.744Z" fill="#000000" fill-rule="nonzero" fill-opacity="1" transform="matrix(1 0 0 -1 1571.5 890.744)"/><path d="M1.94576e-06-4.58333 827.183-4.58298 827.183 4.58368-1.94576e-06 4.58333ZM822.599-13.7497 850.099 0.000360892 822.599 13.7503Z" fill="#000000" fill-rule="nonzero" fill-opacity="1" transform="matrix(1 0 0 -1 1567.5 888.5)"/><rect x="1898" y="299" width="44" height="43" fill="#00B050" fill-opacity="0.501961"/><rect x="1976" y="795" width="44" height="44" fill="#00B050" fill-opacity="0.501961"/><path d="M1865 580 1887 537 1909 580Z" fill="#4285F4" fill-rule="evenodd" fill-opacity="0.501961"/><rect x="1651" y="416" width="43" height="44" fill="#00B050" fill-opacity="0.501961"/><rect x="1734" y="438" width="43" height="43" fill="#00B050" fill-opacity="0.501961"/><path d="M1920 532 1941.5 489 1963 532Z" fill="#4285F4" fill-rule="evenodd" fill-opacity="0.501961"/><rect x="1673" y="675" width="44" height="42.9999" fill="#00B050" fill-opacity="0.501961"/><path d="M1842 663 1864 620 1886 663Z" fill="#4285F4" fill-rule="evenodd" fill-opacity="0.501961"/><rect x="2144" y="259" width="43" height="44" fill="#00B050" fill-opacity="0.501961"/><path d="M2053 725 2074.5 682 2096 725Z" fill="#4285F4" fill-rule="evenodd" fill-opacity="0.501961"/><rect x="1989" y="291" width="43" height="43" fill="#00B050" fill-opacity="0.501961"/><path d="M1907 646 1928.5 603 1950 646Z" fill="#4285F4" fill-rule="evenodd" fill-opacity="0.501961"/><rect x="1825" y="371" width="44" height="43" fill="#00B050" fill-opacity="0.501961"/><path d="M2003 639 2024.5 596 2046 639Z" fill="#4285F4" fill-rule="evenodd" fill-opacity="0.501961"/><rect x="2249" y="559" width="43" height="44" fill="#00B050" fill-opacity="0.501961"/><path d="M2030 578 2052 535 2074 578Z" fill="#4285F4" fill-rule="evenodd" fill-opacity="0.501961"/><path d="M1950 739 1972 696 1994 739Z" fill="#4285F4" fill-rule="evenodd" fill-opacity="0.501961"/><rect x="2133" y="766" width="43" height="42.9999" fill="#00B050" fill-opacity="0.501961"/><path d="M2114 654 2136 611 2158 654Z" fill="#4285F4" fill-rule="evenodd" fill-opacity="0.501961"/><rect x="2310" y="433" width="43" height="43" fill="#00B050" fill-opacity="0.501961"/><path d="M2014 470 2035.5 426 2057 470Z" fill="#4285F4" fill-rule="evenodd" fill-opacity="0.501961"/><rect x="1753" y="297" width="44" height="43" fill="#00B050" fill-opacity="0.501961"/><rect x="2289" y="278" width="43" height="43" fill="#00B050" fill-opacity="0.501961"/><rect x="1700" y="557" width="43.0004" height="42.9999" fill="#00B050" fill-opacity="0.501961"/><rect x="2307" y="657" width="44" height="44" fill="#00B050" fill-opacity="0.501961"/><rect x="2260" y="725" width="43" height="44" fill="#00B050" fill-opacity="0.501961"/><rect x="2127" y="394" width="43" height="43" fill="#00B050" fill-opacity="0.501961"/><rect x="2205" y="374" width="44" height="44" fill="#00B050" fill-opacity="0.501961"/><rect x="1782" y="760" width="43" height="44" fill="#00B050" fill-opacity="0.501961"/><rect x="1683" y="798" width="43" height="43.0003" fill="#00B050" fill-opacity="0.501961"/><rect x="1852" y="720" width="43" height="44" fill="#00B050" fill-opacity="0.501961"/><rect x="2234" y="793" width="43" height="42.9999" fill="#00B050" fill-opacity="0.501961"/><path d="M4.58333-2.52054e-06 4.58368 633.327-4.58298 633.327-4.58333 2.52054e-06ZM13.7503 628.744 0.000360892 656.244-13.7497 628.744Z" fill="#000000" fill-rule="nonzero" fill-opacity="1" transform="matrix(1 0 0 -1 500.5 1665.74)"/><path d="M1.94576e-06-4.58333 827.183-4.58298 827.183 4.58368-1.94576e-06 4.58333ZM822.599-13.7497 850.099 0.000360892 822.599 13.7503Z" fill="#000000" fill-rule="nonzero" fill-opacity="1" transform="matrix(1 0 0 -1 496.5 1663.5)"/><rect x="827" y="1074" width="42.9999" height="43" fill="#00B050" fill-opacity="0.501961"/><rect x="904" y="1570" width="44" height="44" fill="#00B050" fill-opacity="0.501961"/><path d="M793 1355 815 1311 837 1355Z" fill="#4285F4" fill-rule="evenodd" fill-opacity="0.501961"/><rect x="579" y="1191" width="44" height="43" fill="#00B050" fill-opacity="0.501961"/><rect x="662" y="1213" width="44" height="43" fill="#00B050" fill-opacity="0.501961"/><path d="M848 1307 870 1263 892 1307Z" fill="#4285F4" fill-rule="evenodd" fill-opacity="0.501961"/><rect x="602" y="1450" width="42.9999" height="43" fill="#00B050" fill-opacity="0.501961"/><path d="M771 1438 792.5 1394 814 1438Z" fill="#4285F4" fill-rule="evenodd" fill-opacity="0.501961"/><rect x="1072" y="1034" width="43" height="43" fill="#00B050" fill-opacity="0.501961"/><path d="M981 1500 1003 1456 1025 1500Z" fill="#4285F4" fill-rule="evenodd" fill-opacity="0.501961"/><rect x="917" y="1065" width="42.9999" height="44" fill="#00B050" fill-opacity="0.501961"/><path d="M835 1421 857 1377 879 1421Z" fill="#4285F4" fill-rule="evenodd" fill-opacity="0.501961"/><rect x="754" y="1145" width="43.0003" height="44" fill="#00B050" fill-opacity="0.501961"/><path d="M931 1414 953 1370 975 1414Z" fill="#4285F4" fill-rule="evenodd" fill-opacity="0.501961"/><rect x="1177" y="1334" width="43" height="43" fill="#00B050" fill-opacity="0.501961"/><path d="M959 1353 980.5 1310 1002 1353Z" fill="#4285F4" fill-rule="evenodd" fill-opacity="0.501961"/><path d="M879 1514 900.5 1470 922 1514Z" fill="#4285F4" fill-rule="evenodd" fill-opacity="0.501961"/><rect x="1061" y="1540" width="44" height="44" fill="#00B050" fill-opacity="0.501961"/><path d="M1042 1429 1064 1385 1086 1429Z" fill="#4285F4" fill-rule="evenodd" fill-opacity="0.501961"/><rect x="1238" y="1207" width="43.0004" height="44" fill="#00B050" fill-opacity="0.501961"/><path d="M942 1244 963.5 1201 985 1244Z" fill="#4285F4" fill-rule="evenodd" fill-opacity="0.501961"/><rect x="682" y="1072" width="42.9999" height="43" fill="#00B050" fill-opacity="0.501961"/><rect x="1217" y="1052" width="43" height="44" fill="#00B050" fill-opacity="0.501961"/><rect x="628" y="1331" width="44" height="44" fill="#00B050" fill-opacity="0.501961"/><rect x="1236" y="1432" width="43" height="43" fill="#00B050" fill-opacity="0.501961"/><rect x="1188" y="1500" width="43" height="43" fill="#00B050" fill-opacity="0.501961"/><rect x="1055" y="1169" width="43" height="43" fill="#00B050" fill-opacity="0.501961"/><rect x="1133" y="1149" width="44" height="44" fill="#00B050" fill-opacity="0.501961"/><rect x="710" y="1535" width="44" height="44" fill="#00B050" fill-opacity="0.501961"/><rect x="611" y="1572" width="43.0003" height="44" fill="#00B050" fill-opacity="0.501961"/><rect x="780" y="1495" width="44" height="43" fill="#00B050" fill-opacity="0.501961"/><rect x="1162" y="1567" width="43" height="44" fill="#00B050" fill-opacity="0.501961"/><path d="M4.58333-2.52054e-06 4.58368 633.327-4.58298 633.327-4.58333 2.52054e-06ZM13.7503 628.744 0.000360892 656.244-13.7497 628.744Z" fill="#000000" fill-rule="nonzero" fill-opacity="1" transform="matrix(1 0 0 -1 1575.5 1665.74)"/><path d="M1.94576e-06-4.58333 827.183-4.58298 827.183 4.58368-1.94576e-06 4.58333ZM822.599-13.7497 850.099 0.000360892 822.599 13.7503Z" fill="#000000" fill-rule="nonzero" fill-opacity="1" transform="matrix(1 0 0 -1 1571.5 1663.5)"/><rect x="1902" y="1074" width="44" height="43" fill="#00B050" fill-opacity="0.501961"/><rect x="1980" y="1570" width="43" height="44" fill="#00B050" fill-opacity="0.501961"/><path d="M1869 1355 1890.5 1311 1912 1355Z" fill="#4285F4" fill-rule="evenodd" fill-opacity="0.501961"/><rect x="1655" y="1191" width="43" height="43" fill="#00B050" fill-opacity="0.501961"/><rect x="1738" y="1213" width="43" height="43" fill="#00B050" fill-opacity="0.501961"/><path d="M1924 1307 1945.5 1263 1967 1307Z" fill="#4285F4" fill-rule="evenodd" fill-opacity="0.501961"/><rect x="1677" y="1450" width="44" height="43" fill="#00B050" fill-opacity="0.501961"/><path d="M1846 1438 1868 1394 1890 1438Z" fill="#4285F4" fill-rule="evenodd" fill-opacity="0.501961"/><rect x="2148" y="1034" width="43" height="43" fill="#00B050" fill-opacity="0.501961"/><path d="M2057 1500 2078.5 1456 2100 1500Z" fill="#4285F4" fill-rule="evenodd" fill-opacity="0.501961"/><rect x="1992" y="1065" width="44" height="44" fill="#00B050" fill-opacity="0.501961"/><path d="M1911 1421 1932.5 1377 1954 1421Z" fill="#4285F4" fill-rule="evenodd" fill-opacity="0.501961"/><rect x="1829" y="1145" width="44" height="44" fill="#00B050" fill-opacity="0.501961"/><path d="M2007 1414 2028.5 1370 2050 1414Z" fill="#4285F4" fill-rule="evenodd" fill-opacity="0.501961"/><rect x="2253" y="1334" width="43" height="43" fill="#00B050" fill-opacity="0.501961"/><path d="M2034 1353 2056 1310 2078 1353Z" fill="#4285F4" fill-rule="evenodd" fill-opacity="0.501961"/><path d="M1954 1514 1976 1470 1998 1514Z" fill="#4285F4" fill-rule="evenodd" fill-opacity="0.501961"/><rect x="2137" y="1540" width="43" height="44" fill="#00B050" fill-opacity="0.501961"/><path d="M2118 1429 2140 1385 2162 1429Z" fill="#4285F4" fill-rule="evenodd" fill-opacity="0.501961"/><rect x="2314" y="1207" width="43" height="44" fill="#00B050" fill-opacity="0.501961"/><path d="M2018 1244 2039.5 1201 2061 1244Z" fill="#4285F4" fill-rule="evenodd" fill-opacity="0.501961"/><rect x="1757" y="1072" width="44" height="43" fill="#00B050" fill-opacity="0.501961"/><rect x="2293" y="1052" width="43" height="44" fill="#00B050" fill-opacity="0.501961"/><rect x="1704" y="1331" width="43" height="44" fill="#00B050" fill-opacity="0.501961"/><rect x="2311" y="1432" width="44" height="43" fill="#00B050" fill-opacity="0.501961"/><rect x="2264" y="1500" width="43" height="43" fill="#00B050" fill-opacity="0.501961"/><rect x="2131" y="1169" width="43" height="43" fill="#00B050" fill-opacity="0.501961"/><rect x="2209" y="1149" width="44" height="44" fill="#00B050" fill-opacity="0.501961"/><rect x="1786" y="1535" width="43" height="44" fill="#00B050" fill-opacity="0.501961"/><rect x="1686" y="1572" width="44" height="44" fill="#00B050" fill-opacity="0.501961"/><rect x="1856" y="1495" width="43" height="43" fill="#00B050" fill-opacity="0.501961"/><rect x="2237" y="1567" width="44" height="44" fill="#00B050" fill-opacity="0.501961"/><path d="M0 0 702.841 526.476" stroke="#00B050" stroke-width="9.16667" stroke-linecap="square" stroke-linejoin="round" stroke-miterlimit="10" stroke-dasharray="27.5 9.16667" stroke-opacity="1" fill="none" fill-rule="evenodd" transform="matrix(1 0 0 -1 463.5 755.976)"/><path d="M315.554 569.061 1020.84 38.5406 1162.45 226.796 457.161 757.317Z" fill="#00B050" fill-rule="nonzero" fill-opacity="0.25098"/><path d="M1922.5 259.5 2356.73 739.206" stroke="#00B050" stroke-width="9.16667" stroke-linecap="square" stroke-linejoin="round" stroke-miterlimit="10" stroke-dasharray="27.5 9.16667" stroke-opacity="1" fill="none" fill-rule="evenodd"/><path d="M2157.06 55.5685 2594.07 543.537 2361.12 752.167 1924.1 264.198Z" fill="#00B050" fill-rule="nonzero" fill-opacity="0.25098"/><path d="M0 0 488.251 460.001" stroke="#00B050" stroke-width="9.16667" stroke-linecap="square" stroke-linejoin="round" stroke-miterlimit="10" stroke-dasharray="27.5 9.16667" stroke-opacity="1" fill="none" fill-rule="evenodd" transform="matrix(-1 0 0 1 2430.75 1193.5)"/><path d="M2592.87 1345.41 2106.26 1814.73 1947.74 1650.37 2434.35 1181.05Z" fill="#00B050" fill-rule="nonzero" fill-opacity="0.25098"/><path d="M1095.5 1640.19 437.5 1256.5" stroke="#00B050" stroke-width="9.16667" stroke-linecap="square" stroke-linejoin="round" stroke-miterlimit="10" stroke-dasharray="27.5 9.16667" stroke-opacity="1" fill="none" fill-rule="evenodd"/><path d="M986.306 1833.48 322.936 1456.14 433.54 1261.69 1096.91 1639.04Z" fill="#00B050" fill-rule="nonzero" fill-opacity="0.25098"/></g></g></svg>