<svg width="2012" height="1393" xmlns="http://www.w3.org/2000/svg" xmlns:xlink="http://www.w3.org/1999/xlink" xml:space="preserve" overflow="hidden"><g transform="translate(-595 -110)"><g><path d="M1198.6 304.731C1280.16 158.717 1438.09 82.0118 1551.35 133.406 1597.24 154.231 1630.71 194.301 1646.42 247.204 1751.02 177.161 1864.16 201.723 1899.11 302.066 1905.22 319.612 1908.66 338.84 1909.3 359.151 1994.13 299.78 2087.86 317.003 2118.67 397.62 2127.19 419.933 2130.22 445.716 2127.52 472.988 2227.2 430.412 2316.88 479.118 2327.83 581.777 2332.44 624.924 2322.32 672.952 2299.23 717.627 2356.38 800.069 2326.21 940.299 2231.83 1030.84 2223.9 1038.45 2215.64 1045.57 2207.12 1052.15 2192.53 1204.9 2067.81 1351.44 1928.55 1379.44 1885.2 1388.16 1843.75 1384.47 1808.21 1368.74 1725.26 1486.17 1588.26 1531.57 1502.21 1470.14 1473.46 1449.62 1452.94 1418.64 1442.91 1380.64 1321.37 1492.38 1166.95 1495.75 1098 1388.15 1069.11 1343.06 1058.78 1283.12 1068.77 1218.55 912.799 1230.79 814.616 1097.2 849.473 920.17 849.912 917.939 850.372 915.707 850.852 913.473 778.73 878.539 763.905 774.489 817.74 681.071 846.435 631.278 890.611 592.218 938.494 574.302 913.703 490.067 963.769 378.055 1050.32 324.114 1100.25 292.995 1154.01 286.897 1195.06 307.694Z" stroke="#000000" stroke-width="9.16667" stroke-linecap="butt" stroke-linejoin="round" stroke-miterlimit="10" stroke-opacity="1" fill="none" fill-rule="evenodd"/><path d="M996.601 640.199C970.824 626.02 952.098 601.738 942.937 570.613M892.143 919.236C878.848 917.734 866.306 914.16 854.842 908.607M1072 1213.78C1075.08 1193.9 1080.04 1173.83 1086.82 1153.91M1489.31 1329.79C1475.98 1346.62 1461.44 1362.3 1445.93 1376.56M1856.54 1109.98C1885.81 1183.96 1867.59 1283.25 1809.7 1365.2M2208.57 1048.89C2180.21 1070.77 2149.42 1086.24 2118.62 1094.11M2302.23 713.668C2295.83 726.03 2288.52 738 2280.38 749.412M2079.18 498.624C2095.34 486.372 2112.4 476.369 2129.82 468.925M1876.37 388.143C1887.58 376.524 1899.69 366.137 1912.43 357.221M1646.47 246.834C1652.16 265.976 1655.43 286.528 1656.23 308.039M1177.9 347.542C1183.88 332.998 1190.81 318.688 1198.6 304.743" stroke="#000000" stroke-width="9.16667" stroke-linecap="butt" stroke-linejoin="round" stroke-miterlimit="10" stroke-opacity="1" fill="none" fill-rule="evenodd"/><rect x="596" y="470" width="132" height="732" fill="#4285F4" fill-opacity="0.501961"/><text fill="#FFFFFF" fill-opacity="1" font-family="Cambria Math,Cambria Math_MSFontService,sans-serif" font-style="normal" font-variant="normal" font-weight="400" font-stretch="normal" font-size="92" text-anchor="start" direction="ltr" writing-mode="lr-tb" unicode-bidi="normal" text-decoration="none" transform="matrix(1 0 0 1 635.227 867)">𝒙</text><path d="M2425 778.5C2425 729.07 2465.07 689 2514.5 689 2563.93 689 2604 729.07 2604 778.5 2604 827.929 2563.93 868 2514.5 868 2465.07 868 2425 827.929 2425 778.5Z" fill="#7A81FF" fill-rule="evenodd" fill-opacity="0.501961"/><text fill="#FFFFFF" fill-opacity="1" font-family="Cambria Math,Cambria Math_MSFontService,sans-serif" font-style="normal" font-variant="normal" font-weight="400" font-stretch="normal" font-size="92" text-anchor="start" direction="ltr" writing-mode="lr-tb" unicode-bidi="normal" text-decoration="none" transform="matrix(1 0 0 1 2486.32 810)">ℒ</text><path d="M1204 607C1204 557.294 1244.07 517 1293.5 517 1342.93 517 1383 557.294 1383 607 1383 656.706 1342.93 697 1293.5 697 1244.07 697 1204 656.706 1204 607Z" fill="#4285F4" fill-rule="evenodd" fill-opacity="0.4"/><text fill="#FFFFFF" fill-opacity="1" font-family="Cambria Math,Cambria Math_MSFontService,sans-serif" font-style="normal" font-variant="normal" font-weight="400" font-stretch="normal" font-size="92" text-anchor="start" direction="ltr" writing-mode="lr-tb" unicode-bidi="normal" text-decoration="none" transform="matrix(1 0 0 1 1263.34 638)">𝑢</text><text fill="#FFFFFF" fill-opacity="1" font-family="Cambria Math,Cambria Math_MSFontService,sans-serif" font-style="normal" font-variant="normal" font-weight="400" font-stretch="normal" font-size="67" text-anchor="start" direction="ltr" writing-mode="lr-tb" unicode-bidi="normal" text-decoration="none" transform="matrix(1 0 0 1 1313.92 657)">1</text><path d="M1204 828.5C1204 779.071 1244.07 739 1293.5 739 1342.93 739 1383 779.071 1383 828.5 1383 877.93 1342.93 918 1293.5 918 1244.07 918 1204 877.93 1204 828.5Z" fill="#0D5BDC" fill-rule="evenodd" fill-opacity="0.854902"/><text fill="#FFFFFF" fill-opacity="1" font-family="Cambria Math,Cambria Math_MSFontService,sans-serif" font-style="normal" font-variant="normal" font-weight="400" font-stretch="normal" font-size="92" text-anchor="start" direction="ltr" writing-mode="lr-tb" unicode-bidi="normal" text-decoration="none" transform="matrix(1 0 0 1 1263.34 860)">𝑢</text><text fill="#FFFFFF" fill-opacity="1" font-family="Cambria Math,Cambria Math_MSFontService,sans-serif" font-style="normal" font-variant="normal" font-weight="400" font-stretch="normal" font-size="67" text-anchor="start" direction="ltr" writing-mode="lr-tb" unicode-bidi="normal" text-decoration="none" transform="matrix(1 0 0 1 1316.05 878)">2</text><path d="M1204 1131C1204 1081.29 1244.07 1041 1293.5 1041 1342.93 1041 1383 1081.29 1383 1131 1383 1180.71 1342.93 1221 1293.5 1221 1244.07 1221 1204 1180.71 1204 1131Z" fill="#4285F4" fill-rule="evenodd" fill-opacity="0.74902"/><text fill="#FFFFFF" fill-opacity="1" font-family="Cambria Math,Cambria Math_MSFontService,sans-serif" font-style="normal" font-variant="normal" font-weight="400" font-stretch="normal" font-size="92" text-anchor="start" direction="ltr" writing-mode="lr-tb" unicode-bidi="normal" text-decoration="none" transform="matrix(1 0 0 1 1263.34 1162)">𝑢</text><text fill="#FFFFFF" fill-opacity="1" font-family="Cambria Math,Cambria Math_MSFontService,sans-serif" font-style="normal" font-variant="normal" font-weight="400" font-stretch="normal" font-size="67" text-anchor="start" direction="ltr" writing-mode="lr-tb" unicode-bidi="normal" text-decoration="none" transform="matrix(1 0 0 1 1316.05 1181)">𝑑</text><text fill="#000000" fill-opacity="1" font-family="Cambria Math,Cambria Math_MSFontService,sans-serif" font-style="normal" font-variant="normal" font-weight="400" font-stretch="normal" font-size="101" text-anchor="start" direction="ltr" writing-mode="lr-tb" unicode-bidi="normal" text-decoration="none" transform="matrix(1 0 0 1 1288.82 1013)">⋮</text><text fill="#000000" fill-opacity="1" font-family="Cambria Math,Cambria Math_MSFontService,sans-serif" font-style="normal" font-variant="normal" font-weight="400" font-stretch="normal" font-size="101" text-anchor="start" direction="ltr" writing-mode="lr-tb" unicode-bidi="normal" text-decoration="none" transform="matrix(1 0 0 1 1320.33 1013)"> </text><path d="M1650 829C1650 779.294 1690.07 739 1739.5 739 1788.93 739 1829 779.294 1829 829 1829 878.706 1788.93 919 1739.5 919 1690.07 919 1650 878.706 1650 829Z" fill="#0D5BDC" fill-rule="evenodd" fill-opacity="0.501961"/><text fill="#FFFFFF" fill-opacity="1" font-family="Cambria Math,Cambria Math_MSFontService,sans-serif" font-style="normal" font-variant="normal" font-weight="400" font-stretch="normal" font-size="92" text-anchor="start" direction="ltr" writing-mode="lr-tb" unicode-bidi="normal" text-decoration="none" transform="matrix(1 0 0 1 1713.36 860)">𝑣</text><path d="M1383.5 824.917 1599.69 824.917 1599.69 834.084 1383.5 834.083ZM1595.11 815.75 1622.61 829.5 1595.11 843.25Z" fill="#000000" fill-rule="nonzero" fill-opacity="1"/><path d="M1386.29 603.864 1607.22 773.442 1601.64 780.713 1380.71 611.136ZM1609.17 763.379 1622.61 791.031 1592.42 785.194Z" fill="#000000" fill-rule="nonzero" fill-opacity="1"/><path d="M3.38975-3.08488 227.075 242.707 220.296 248.876-3.38975 3.08488ZM230.77 233.147 239.11 262.74 210.431 251.656Z" fill="#000000" fill-rule="nonzero" fill-opacity="1" transform="matrix(1 0 0 -1 1383.5 1131.24)"/></g></g></svg>