<svg width="2961" height="1059" xmlns="http://www.w3.org/2000/svg" xmlns:xlink="http://www.w3.org/1999/xlink" xml:space="preserve" overflow="hidden"><g transform="translate(-128 -265)"><g><path d="M1012.69 358.221 1281.93 416.71 1137.53 620.972 1240.04 712.906 980.808 830.133 816.724 719.238 823.216 560.113 698.711 632.632 744.669 516.194 1012.69 358.221Z" fill="#00B050" fill-rule="evenodd" fill-opacity="0.25098"/><path d="M1116.86 678.232C1123.2 687.553 1120.79 700.248 1111.47 706.588 1102.14 712.928 1089.45 710.511 1083.11 701.191 1076.77 691.87 1079.19 679.175 1088.51 672.835 1097.83 666.495 1110.52 668.911 1116.86 678.232Z" fill="#000000" fill-rule="evenodd" fill-opacity="0.25098"/><path d="M1000.36 458.758C1004.79 465.271 1003.1 474.141 996.585 478.57 990.072 483 981.202 481.312 976.773 474.799 972.343 468.287 974.031 459.417 980.544 454.987 987.056 450.558 995.926 452.246 1000.36 458.758Z" fill="#000000" fill-rule="evenodd" fill-opacity="0.25098"/><path d="M1118.34 445.02C1122.77 451.533 1121.09 460.403 1114.57 464.832 1108.06 469.262 1099.19 467.574 1094.76 461.061 1090.33 454.549 1092.02 445.679 1098.53 441.249 1105.05 436.82 1113.92 438.508 1118.34 445.02Z" fill="#000000" fill-rule="evenodd" fill-opacity="0.25098"/><path d="M1007.62 396.8C1012.05 403.312 1010.37 412.182 1003.85 416.612 997.341 421.042 988.471 419.353 984.042 412.841 979.612 406.329 981.3 397.459 987.813 393.029 994.325 388.6 1003.19 390.288 1007.62 396.8Z" fill="#000000" fill-rule="evenodd" fill-opacity="0.25098"/><path d="M942.52 572.109C947.954 580.098 945.883 590.98 937.894 596.414 929.905 601.848 919.023 599.777 913.589 591.788 908.155 583.799 910.226 572.917 918.215 567.483 926.204 562.049 937.086 564.12 942.52 572.109Z" fill="#000000" fill-rule="evenodd" fill-opacity="0.25098"/><path d="M418.642 403.597 182.927 376.247 132.747 658.069 511.188 922.867 559.252 833.142 405.771 721.557 541.453 660.28 631.272 491.735 522.376 279.351 418.642 403.597Z" fill="#FF0000" fill-rule="evenodd" fill-opacity="0.25098"/><path d="M488.166 411.56C496.274 403.729 509.195 403.954 517.026 412.062 524.857 420.17 524.633 433.092 516.525 440.923 508.417 448.754 495.495 448.529 487.664 440.421 479.833 432.313 480.058 419.391 488.166 411.56Z" fill="#000000" fill-rule="evenodd" fill-opacity="0.25098"/><path d="M291.674 563.657C297.339 558.185 306.367 558.342 311.838 564.008 317.31 569.673 317.153 578.701 311.488 584.172 305.823 589.644 296.795 589.487 291.323 583.822 285.852 578.156 286.009 569.128 291.674 563.657Z" fill="#000000" fill-rule="evenodd" fill-opacity="0.25098"/><path d="M258.092 449.716C263.757 444.245 272.785 444.402 278.257 450.067 283.728 455.732 283.571 464.76 277.906 470.232 272.241 475.703 263.213 475.546 257.741 469.881 252.27 464.216 252.427 455.188 258.092 449.716Z" fill="#000000" fill-rule="evenodd" fill-opacity="0.25098"/><path d="M229.381 567.019C235.046 561.547 244.074 561.704 249.546 567.369 255.017 573.034 254.86 582.062 249.195 587.534 243.53 593.005 234.502 592.848 229.031 587.183 223.559 581.518 223.716 572.49 229.381 567.019Z" fill="#000000" fill-rule="evenodd" fill-opacity="0.25098"/><path d="M413.202 601.397C420.152 594.684 431.228 594.877 437.94 601.827 444.652 608.777 444.46 619.852 437.51 626.564 430.56 633.276 419.485 633.084 412.772 626.134 406.06 619.184 406.253 608.109 413.202 601.397Z" fill="#000000" fill-rule="evenodd" fill-opacity="0.25098"/><path d="M1657.66 871.457 1869.26 788.398 1949.35 348.278 1818.98 279.594 1716.95 428.095 1650.53 325.901 1435.47 325.791 1347.2 509.833 1506.97 500.753 1657.66 871.457Z" fill="#4285F4" fill-rule="evenodd" fill-opacity="0.25098"/><path d="M1469.47 432.598C1458.77 429.055 1452.97 417.508 1456.51 406.807 1460.05 396.106 1471.6 390.303 1482.3 393.846 1493 397.389 1498.81 408.936 1495.26 419.637 1491.72 430.338 1480.17 436.141 1469.47 432.598Z" fill="#000000" fill-rule="evenodd" fill-opacity="0.25098"/><path d="M1695.43 535.96C1687.96 533.485 1683.9 525.417 1686.38 517.94 1688.85 510.463 1696.92 506.409 1704.4 508.884 1711.88 511.359 1715.93 519.427 1713.45 526.904 1710.98 534.381 1702.91 538.435 1695.43 535.96Z" fill="#000000" fill-rule="evenodd" fill-opacity="0.25098"/><path d="M1610.13 618.624C1602.65 616.148 1598.6 608.081 1601.07 600.604 1603.55 593.127 1611.62 589.073 1619.09 591.548 1626.57 594.023 1630.62 602.091 1628.15 609.568 1625.67 617.045 1617.61 621.099 1610.13 618.624Z" fill="#000000" fill-rule="evenodd" fill-opacity="0.25098"/><path d="M1796.12 656.788C1788.64 654.312 1784.59 646.245 1787.06 638.768 1789.54 631.291 1797.61 627.237 1805.08 629.712 1812.56 632.187 1816.62 640.255 1814.14 647.732 1811.67 655.209 1803.6 659.263 1796.12 656.788Z" fill="#000000" fill-rule="evenodd" fill-opacity="0.25098"/><path d="M1773.09 531.635C1763.92 528.599 1758.95 518.701 1761.98 509.529 1765.02 500.356 1774.92 495.383 1784.09 498.419 1793.26 501.456 1798.24 511.354 1795.2 520.526 1792.16 529.698 1782.27 534.672 1773.09 531.635Z" fill="#000000" fill-rule="evenodd" fill-opacity="0.25098"/><text fill="#000000" fill-opacity="1" font-family="Calibri,Calibri_MSFontService,sans-serif" font-style="normal" font-variant="normal" font-weight="400" font-stretch="normal" font-size="64" text-anchor="start" direction="ltr" writing-mode="lr-tb" unicode-bidi="normal" text-decoration="none" transform="matrix(1 0 0 1 261.665 1048)">English</text><text fill="#000000" fill-opacity="1" font-family="Calibri,Calibri_MSFontService,sans-serif" font-style="normal" font-variant="normal" font-weight="400" font-stretch="normal" font-size="64" text-anchor="start" direction="ltr" writing-mode="lr-tb" unicode-bidi="normal" text-decoration="none" transform="matrix(1 0 0 1 914.875 1048)">Spanish</text><text fill="#000000" fill-opacity="1" font-family="Calibri,Calibri_MSFontService,sans-serif" font-style="normal" font-variant="normal" font-weight="400" font-stretch="normal" font-size="64" text-anchor="start" direction="ltr" writing-mode="lr-tb" unicode-bidi="normal" text-decoration="none" transform="matrix(1 0 0 1 1560.66 1048)">Japanese</text><path d="M2606.83 706.889 2417 507.218 2651.41 419.593 2618.33 286 2898.76 334.84 2972.1 518.71 2877.19 646.557 3021 656.612 2917.46 727 2606.83 706.889Z" fill="#00B050" fill-rule="evenodd" fill-opacity="0.25098"/><path d="M2701 384C2701 372.954 2710.18 364 2721.5 364 2732.82 364 2742 372.954 2742 384 2742 395.046 2732.82 404 2721.5 404 2710.18 404 2701 395.046 2701 384Z" fill="#000000" fill-rule="evenodd" fill-opacity="0.25098"/><path d="M2674 631C2674 623.268 2680.27 617 2688 617 2695.73 617 2702 623.268 2702 631 2702 638.732 2695.73 645 2688 645 2680.27 645 2674 638.732 2674 631Z" fill="#000000" fill-rule="evenodd" fill-opacity="0.25098"/><path d="M2569 576C2569 568.268 2575.27 562 2583 562 2590.73 562 2597 568.268 2597 576 2597 583.732 2590.73 590 2583 590 2575.27 590 2569 583.732 2569 576Z" fill="#000000" fill-rule="evenodd" fill-opacity="0.25098"/><path d="M2633 678C2633 670.268 2639.27 664 2647 664 2654.73 664 2661 670.268 2661 678 2661 685.732 2654.73 692 2647 692 2639.27 692 2633 685.732 2633 678Z" fill="#000000" fill-rule="evenodd" fill-opacity="0.25098"/><path d="M2785 569.5C2785 559.835 2792.83 552 2802.5 552 2812.17 552 2820 559.835 2820 569.5 2820 579.165 2812.17 587 2802.5 587 2792.83 587 2785 579.165 2785 569.5Z" fill="#000000" fill-rule="evenodd" fill-opacity="0.25098"/><path d="M2651.36 428.121 2468 578.847 2635.79 811 3089 722.643 3057.86 625.624 2871.04 658.541 2921.21 518.21 2862.4 336.299 2634.06 267 2651.36 428.121Z" fill="#FF0000" fill-rule="evenodd" fill-opacity="0.25098"/><path d="M2705 383.5C2705 372.178 2714.18 363 2725.5 363 2736.82 363 2746 372.178 2746 383.5 2746 394.822 2736.82 404 2725.5 404 2714.18 404 2705 394.822 2705 383.5Z" fill="#000000" fill-rule="evenodd" fill-opacity="0.25098"/><path d="M2678 631C2678 623.268 2684.49 617 2692.5 617 2700.51 617 2707 623.268 2707 631 2707 638.732 2700.51 645 2692.5 645 2684.49 645 2678 638.732 2678 631Z" fill="#000000" fill-rule="evenodd" fill-opacity="0.25098"/><path d="M2573 576C2573 568.268 2579.27 562 2587 562 2594.73 562 2601 568.268 2601 576 2601 583.732 2594.73 590 2587 590 2579.27 590 2573 583.732 2573 576Z" fill="#000000" fill-rule="evenodd" fill-opacity="0.25098"/><path d="M2637 678C2637 670.268 2643.49 664 2651.5 664 2659.51 664 2666 670.268 2666 678 2666 685.732 2659.51 692 2651.5 692 2643.49 692 2637 685.732 2637 678Z" fill="#000000" fill-rule="evenodd" fill-opacity="0.25098"/><path d="M2790 569.5C2790 559.835 2797.83 552 2807.5 552 2817.16 552 2825 559.835 2825 569.5 2825 579.165 2817.16 587 2807.5 587 2797.83 587 2790 579.165 2790 569.5Z" fill="#000000" fill-rule="evenodd" fill-opacity="0.25098"/><path d="M2344 706.973 2489.46 882 2932.76 819.614 2957 674.047 2783.84 623.792 2860.03 528.481 2792.49 323.994 2589.89 298 2648.77 447.033 2344 706.973Z" fill="#4285F4" fill-rule="evenodd" fill-opacity="0.25098"/><path d="M2702 390.5C2702 379.178 2711.18 370 2722.5 370 2733.82 370 2743 379.178 2743 390.5 2743 401.822 2733.82 411 2722.5 411 2711.18 411 2702 401.822 2702 390.5Z" fill="#000000" fill-rule="evenodd" fill-opacity="0.25098"/><path d="M2675 637C2675 629.268 2681.27 623 2689 623 2696.73 623 2703 629.268 2703 637 2703 644.732 2696.73 651 2689 651 2681.27 651 2675 644.732 2675 637Z" fill="#000000" fill-rule="evenodd" fill-opacity="0.25098"/><path d="M2569 582C2569 574.268 2575.49 568 2583.5 568 2591.51 568 2598 574.268 2598 582 2598 589.732 2591.51 596 2583.5 596 2575.49 596 2569 589.732 2569 582Z" fill="#000000" fill-rule="evenodd" fill-opacity="0.25098"/><path d="M2592 770.5C2592 762.492 2598.27 756 2606 756 2613.73 756 2620 762.492 2620 770.5 2620 778.508 2613.73 785 2606 785 2598.27 785 2592 778.508 2592 770.5Z" fill="#000000" fill-rule="evenodd" fill-opacity="0.25098"/><path d="M2703 709.5C2703 699.835 2710.83 692 2720.5 692 2730.17 692 2738 699.835 2738 709.5 2738 719.165 2730.17 727 2720.5 727 2710.83 727 2703 719.165 2703 709.5Z" fill="#000000" fill-rule="evenodd" fill-opacity="0.25098"/><path d="M2016 606.833 2225.22 606.834 2225.22 625.167 2016 625.167ZM2216.06 588.5 2271.06 616 2216.06 643.5Z" fill="#C00000" fill-rule="nonzero" fill-opacity="1"/><path d="M0 0 2.48114 846.354" stroke="#000000" stroke-width="6.875" stroke-linecap="butt" stroke-linejoin="round" stroke-miterlimit="10" stroke-opacity="1" fill="none" fill-rule="evenodd" transform="matrix(-1 0 0 1 2723.98 410.5)"/><text fill="#000000" fill-opacity="1" font-family="Calibri,Calibri_MSFontService,sans-serif" font-style="normal" font-variant="normal" font-weight="400" font-stretch="normal" font-size="64" text-anchor="start" direction="ltr" writing-mode="lr-tb" unicode-bidi="normal" text-decoration="none" transform="matrix(1 0 0 1 2425.09 1043)">cat</text><text fill="#000000" fill-opacity="1" font-family="Calibri,Calibri_MSFontService,sans-serif" font-style="normal" font-variant="normal" font-weight="400" font-stretch="normal" font-size="64" text-anchor="start" direction="ltr" writing-mode="lr-tb" unicode-bidi="normal" text-decoration="none" transform="matrix(1 0 0 1 2425.09 1158)">gato</text><text fill="#000000" fill-opacity="1" font-family="MS Gothic,MS Gothic_MSFontService,sans-serif" font-style="normal" font-variant="normal" font-weight="400" font-stretch="normal" font-size="64" text-anchor="start" direction="ltr" writing-mode="lr-tb" unicode-bidi="normal" text-decoration="none" transform="matrix(1 0 0 1 2425.09 1274)">猫</text><path d="M8.2392e-06-3.4375 127.652-3.43719 127.652 3.43781-8.2392e-06 3.4375ZM123.069-13.7497 150.569 0.000360892 123.069 13.7503Z" fill="#000000" fill-rule="nonzero" fill-opacity="1" transform="matrix(-1 0 0 1 2720.07 1021.5)"/><path d="M8.2392e-06-3.4375 127.652-3.43719 127.652 3.43781-8.2392e-06 3.4375ZM123.069-13.7497 150.569 0.000360892 123.069 13.7503Z" fill="#000000" fill-rule="nonzero" fill-opacity="1" transform="matrix(-1 0 0 1 2723.07 1139.5)"/><path d="M8.2392e-06-3.4375 127.652-3.43719 127.652 3.43781-8.2392e-06 3.4375ZM123.069-13.7497 150.569 0.000360892 123.069 13.7503Z" fill="#000000" fill-rule="nonzero" fill-opacity="1" transform="matrix(-1 0 0 1 2722.07 1257.5)"/></g></g></svg>