<svg width="2132" height="742" xmlns="http://www.w3.org/2000/svg" xmlns:xlink="http://www.w3.org/1999/xlink" xml:space="preserve" overflow="hidden"><g transform="translate(-352 -330)"><g><path d="M1835.57 464.672 1995.5 464.672 1995.5 598.506 1835.57 598.506Z" fill="#FF7879" fill-rule="evenodd" fill-opacity="0.25098"/><path d="M1995.5 464.672 2155.43 464.672 2155.43 598.506 1995.5 598.506Z" fill="#FF7879" fill-rule="evenodd" fill-opacity="0.25098"/><path d="M2155.43 464.672 2315.36 464.672 2315.36 598.506 2155.43 598.506Z" fill="#FF7879" fill-rule="evenodd" fill-opacity="0.25098"/><path d="M2315.36 464.672 2475.29 464.672 2475.29 598.506 2315.36 598.506Z" fill="#FF7879" fill-rule="evenodd" fill-opacity="1"/><path d="M1835.57 598.506 1995.5 598.506 1995.5 732.339 1835.57 732.339Z" fill="#FF7879" fill-rule="evenodd" fill-opacity="1"/><path d="M1995.5 598.506 2155.43 598.506 2155.43 732.339 1995.5 732.339Z" fill="#FF7879" fill-rule="evenodd" fill-opacity="0.25098"/><path d="M2155.43 598.506 2315.36 598.506 2315.36 732.339 2155.43 732.339Z" fill="#FF7879" fill-rule="evenodd" fill-opacity="0.25098"/><path d="M2315.36 598.506 2475.29 598.506 2475.29 732.339 2315.36 732.339Z" fill="#FF7879" fill-rule="evenodd" fill-opacity="0.25098"/><path d="M1835.57 732.339 1995.5 732.339 1995.5 866.172 1835.57 866.172Z" fill="#FF7879" fill-rule="evenodd" fill-opacity="1"/><path d="M1995.5 732.339 2155.43 732.339 2155.43 866.172 1995.5 866.172Z" fill="#FF7879" fill-rule="evenodd" fill-opacity="0.25098"/><path d="M2155.43 732.339 2315.36 732.339 2315.36 866.172 2155.43 866.172Z" fill="#FF7879" fill-rule="evenodd" fill-opacity="0.25098"/><path d="M2315.36 732.339 2475.29 732.339 2475.29 866.172 2315.36 866.172Z" fill="#FF7879" fill-rule="evenodd" fill-opacity="0.25098"/><path d="M1835.57 866.172 1995.5 866.172 1995.5 1000.01 1835.57 1000.01Z" fill="#FF7879" fill-rule="evenodd" fill-opacity="0.25098"/><path d="M1995.5 866.172 2155.43 866.172 2155.43 1000.01 1995.5 1000.01Z" fill="#FF7879" fill-rule="evenodd" fill-opacity="0.25098"/><path d="M2155.43 866.172 2315.36 866.172 2315.36 1000.01 2155.43 1000.01Z" fill="#FF7879" fill-rule="evenodd" fill-opacity="1"/><path d="M2315.36 866.172 2475.29 866.172 2475.29 1000.01 2315.36 1000.01Z" fill="#FF7879" fill-rule="evenodd" fill-opacity="0.25098"/><path d="M1995.5 462.381 1995.5 1002.3" stroke="#FFFFFF" stroke-width="4.58333" stroke-linecap="butt" stroke-linejoin="round" stroke-miterlimit="10" stroke-opacity="1" fill="none" fill-rule="evenodd"/><path d="M2155.43 462.381 2155.43 1002.3" stroke="#FFFFFF" stroke-width="4.58333" stroke-linecap="butt" stroke-linejoin="round" stroke-miterlimit="10" stroke-opacity="1" fill="none" fill-rule="evenodd"/><path d="M2315.36 462.381 2315.36 1002.3" stroke="#FFFFFF" stroke-width="4.58333" stroke-linecap="butt" stroke-linejoin="round" stroke-miterlimit="10" stroke-opacity="1" fill="none" fill-rule="evenodd"/><path d="M1833.28 598.506 2477.58 598.506" stroke="#FFFFFF" stroke-width="4.58333" stroke-linecap="butt" stroke-linejoin="round" stroke-miterlimit="10" stroke-opacity="1" fill="none" fill-rule="evenodd"/><path d="M1833.28 732.339 2477.58 732.339" stroke="#FFFFFF" stroke-width="4.58333" stroke-linecap="butt" stroke-linejoin="round" stroke-miterlimit="10" stroke-opacity="1" fill="none" fill-rule="evenodd"/><path d="M1833.28 866.172 2477.58 866.172" stroke="#FFFFFF" stroke-width="4.58333" stroke-linecap="butt" stroke-linejoin="round" stroke-miterlimit="10" stroke-opacity="1" fill="none" fill-rule="evenodd"/><path d="M1835.57 462.381 1835.57 1002.3" stroke="#FFFFFF" stroke-width="4.58333" stroke-linecap="butt" stroke-linejoin="round" stroke-miterlimit="10" stroke-opacity="1" fill="none" fill-rule="evenodd"/><path d="M2475.29 462.381 2475.29 1002.3" stroke="#FFFFFF" stroke-width="4.58333" stroke-linecap="butt" stroke-linejoin="round" stroke-miterlimit="10" stroke-opacity="1" fill="none" fill-rule="evenodd"/><path d="M1833.28 464.672 2477.58 464.672" stroke="#FFFFFF" stroke-width="4.58333" stroke-linecap="butt" stroke-linejoin="round" stroke-miterlimit="10" stroke-opacity="1" fill="none" fill-rule="evenodd"/><path d="M1833.28 1000.01 2477.58 1000.01" stroke="#FFFFFF" stroke-width="4.58333" stroke-linecap="butt" stroke-linejoin="round" stroke-miterlimit="10" stroke-opacity="1" fill="none" fill-rule="evenodd"/><text fill="#FFFFFF" fill-opacity="1" font-family="Arial,Arial_MSFontService,sans-serif" font-style="normal" font-variant="normal" font-weight="400" font-stretch="normal" font-size="64" text-anchor="start" direction="ltr" writing-mode="lr-tb" unicode-bidi="normal" text-decoration="none" transform="matrix(1 0 0 1 2377.56 555)">1</text><text fill="#FFFFFF" fill-opacity="1" font-family="Arial,Arial_MSFontService,sans-serif" font-style="normal" font-variant="normal" font-weight="400" font-stretch="normal" font-size="64" text-anchor="start" direction="ltr" writing-mode="lr-tb" unicode-bidi="normal" text-decoration="none" transform="matrix(1 0 0 1 2217.64 555)">0</text><text fill="#FFFFFF" fill-opacity="1" font-family="Arial,Arial_MSFontService,sans-serif" font-style="normal" font-variant="normal" font-weight="400" font-stretch="normal" font-size="64" text-anchor="start" direction="ltr" writing-mode="lr-tb" unicode-bidi="normal" text-decoration="none" transform="matrix(1 0 0 1 2057.71 555)">0</text><text fill="#FFFFFF" fill-opacity="1" font-family="Arial,Arial_MSFontService,sans-serif" font-style="normal" font-variant="normal" font-weight="400" font-stretch="normal" font-size="64" text-anchor="start" direction="ltr" writing-mode="lr-tb" unicode-bidi="normal" text-decoration="none" transform="matrix(1 0 0 1 1897.78 555)">0</text><text fill="#FFFFFF" fill-opacity="1" font-family="Arial,Arial_MSFontService,sans-serif" font-style="normal" font-variant="normal" font-weight="400" font-stretch="normal" font-size="64" text-anchor="start" direction="ltr" writing-mode="lr-tb" unicode-bidi="normal" text-decoration="none" transform="matrix(1 0 0 1 2377.56 689)">0</text><text fill="#FFFFFF" fill-opacity="1" font-family="Arial,Arial_MSFontService,sans-serif" font-style="normal" font-variant="normal" font-weight="400" font-stretch="normal" font-size="64" text-anchor="start" direction="ltr" writing-mode="lr-tb" unicode-bidi="normal" text-decoration="none" transform="matrix(1 0 0 1 2217.64 689)">0</text><text fill="#FFFFFF" fill-opacity="1" font-family="Arial,Arial_MSFontService,sans-serif" font-style="normal" font-variant="normal" font-weight="400" font-stretch="normal" font-size="64" text-anchor="start" direction="ltr" writing-mode="lr-tb" unicode-bidi="normal" text-decoration="none" transform="matrix(1 0 0 1 2057.71 689)">0</text><text fill="#FFFFFF" fill-opacity="1" font-family="Arial,Arial_MSFontService,sans-serif" font-style="normal" font-variant="normal" font-weight="400" font-stretch="normal" font-size="64" text-anchor="start" direction="ltr" writing-mode="lr-tb" unicode-bidi="normal" text-decoration="none" transform="matrix(1 0 0 1 1897.78 689)">1</text><text fill="#FFFFFF" fill-opacity="1" font-family="Arial,Arial_MSFontService,sans-serif" font-style="normal" font-variant="normal" font-weight="400" font-stretch="normal" font-size="64" text-anchor="start" direction="ltr" writing-mode="lr-tb" unicode-bidi="normal" text-decoration="none" transform="matrix(1 0 0 1 2377.56 823)">0</text><text fill="#FFFFFF" fill-opacity="1" font-family="Arial,Arial_MSFontService,sans-serif" font-style="normal" font-variant="normal" font-weight="400" font-stretch="normal" font-size="64" text-anchor="start" direction="ltr" writing-mode="lr-tb" unicode-bidi="normal" text-decoration="none" transform="matrix(1 0 0 1 2217.64 823)">0</text><text fill="#FFFFFF" fill-opacity="1" font-family="Arial,Arial_MSFontService,sans-serif" font-style="normal" font-variant="normal" font-weight="400" font-stretch="normal" font-size="64" text-anchor="start" direction="ltr" writing-mode="lr-tb" unicode-bidi="normal" text-decoration="none" transform="matrix(1 0 0 1 2057.71 823)">0</text><text fill="#FFFFFF" fill-opacity="1" font-family="Arial,Arial_MSFontService,sans-serif" font-style="normal" font-variant="normal" font-weight="400" font-stretch="normal" font-size="64" text-anchor="start" direction="ltr" writing-mode="lr-tb" unicode-bidi="normal" text-decoration="none" transform="matrix(1 0 0 1 1897.78 823)">1</text><text fill="#FFFFFF" fill-opacity="1" font-family="Arial,Arial_MSFontService,sans-serif" font-style="normal" font-variant="normal" font-weight="400" font-stretch="normal" font-size="64" text-anchor="start" direction="ltr" writing-mode="lr-tb" unicode-bidi="normal" text-decoration="none" transform="matrix(1 0 0 1 2377.56 957)">0</text><text fill="#FFFFFF" fill-opacity="1" font-family="Arial,Arial_MSFontService,sans-serif" font-style="normal" font-variant="normal" font-weight="400" font-stretch="normal" font-size="64" text-anchor="start" direction="ltr" writing-mode="lr-tb" unicode-bidi="normal" text-decoration="none" transform="matrix(1 0 0 1 2217.64 957)">1</text><text fill="#FFFFFF" fill-opacity="1" font-family="Arial,Arial_MSFontService,sans-serif" font-style="normal" font-variant="normal" font-weight="400" font-stretch="normal" font-size="64" text-anchor="start" direction="ltr" writing-mode="lr-tb" unicode-bidi="normal" text-decoration="none" transform="matrix(1 0 0 1 2057.71 957)">0</text><text fill="#FFFFFF" fill-opacity="1" font-family="Arial,Arial_MSFontService,sans-serif" font-style="normal" font-variant="normal" font-weight="400" font-stretch="normal" font-size="64" text-anchor="start" direction="ltr" writing-mode="lr-tb" unicode-bidi="normal" text-decoration="none" transform="matrix(1 0 0 1 1897.78 957)">0</text><path d="M707 604C707 578.595 727.595 558 753 558 778.405 558 799 578.595 799 604 799 629.405 778.405 650 753 650 727.595 650 707 629.405 707 604Z" fill="#0070C0" fill-rule="evenodd" fill-opacity="0.501961"/><text fill="#FFFFFF" fill-opacity="1" font-family="Calibri,Calibri_MSFontService,sans-serif" font-style="normal" font-variant="normal" font-weight="400" font-stretch="normal" font-size="64" text-anchor="start" direction="ltr" writing-mode="lr-tb" unicode-bidi="normal" text-decoration="none" transform="matrix(1 0 0 1 736.602 625)">1</text><path d="M364 926.5C364 900.819 384.595 880 410 880 435.405 880 456 900.819 456 926.5 456 952.181 435.405 973 410 973 384.595 973 364 952.181 364 926.5Z" fill="#0070C0" fill-rule="evenodd" fill-opacity="0.501961"/><text fill="#FFFFFF" fill-opacity="1" font-family="Calibri,Calibri_MSFontService,sans-serif" font-style="normal" font-variant="normal" font-weight="400" font-stretch="normal" font-size="64" text-anchor="start" direction="ltr" writing-mode="lr-tb" unicode-bidi="normal" text-decoration="none" transform="matrix(1 0 0 1 393.835 948)">0</text><path d="M609 968.5C609 942.819 629.819 922 655.5 922 681.181 922 702 942.819 702 968.5 702 994.181 681.181 1015 655.5 1015 629.819 1015 609 994.181 609 968.5Z" fill="#0070C0" fill-rule="evenodd" fill-opacity="0.501961"/><text fill="#FFFFFF" fill-opacity="1" font-family="Calibri,Calibri_MSFontService,sans-serif" font-style="normal" font-variant="normal" font-weight="400" font-stretch="normal" font-size="64" text-anchor="start" direction="ltr" writing-mode="lr-tb" unicode-bidi="normal" text-decoration="none" transform="matrix(1 0 0 1 639.261 990)">2</text><path d="M1143 565C1143 539.595 1163.82 519 1189.5 519 1215.18 519 1236 539.595 1236 565 1236 590.405 1215.18 611 1189.5 611 1163.82 611 1143 590.405 1143 565Z" fill="#0070C0" fill-rule="evenodd" fill-opacity="0.501961"/><text fill="#FFFFFF" fill-opacity="1" font-family="Calibri,Calibri_MSFontService,sans-serif" font-style="normal" font-variant="normal" font-weight="400" font-stretch="normal" font-size="64" text-anchor="start" direction="ltr" writing-mode="lr-tb" unicode-bidi="normal" text-decoration="none" transform="matrix(1 0 0 1 1173.36 586)">3</text><path d="M1372 888.5C1372 862.819 1392.59 842 1418 842 1443.41 842 1464 862.819 1464 888.5 1464 914.181 1443.41 935 1418 935 1392.59 935 1372 914.181 1372 888.5Z" fill="#0070C0" fill-rule="evenodd" fill-opacity="0.501961"/><text fill="#FFFFFF" fill-opacity="1" font-family="Calibri,Calibri_MSFontService,sans-serif" font-style="normal" font-variant="normal" font-weight="400" font-stretch="normal" font-size="64" text-anchor="start" direction="ltr" writing-mode="lr-tb" unicode-bidi="normal" text-decoration="none" transform="matrix(1 0 0 1 1401.87 910)">4</text><path d="M964 990.5C964 964.819 984.819 944 1010.5 944 1036.18 944 1057 964.819 1057 990.5 1057 1016.18 1036.18 1037 1010.5 1037 984.819 1037 964 1016.18 964 990.5Z" fill="#0070C0" fill-rule="evenodd" fill-opacity="0.501961"/><text fill="#FFFFFF" fill-opacity="1" font-family="Calibri,Calibri_MSFontService,sans-serif" font-style="normal" font-variant="normal" font-weight="400" font-stretch="normal" font-size="64" text-anchor="start" direction="ltr" writing-mode="lr-tb" unicode-bidi="normal" text-decoration="none" transform="matrix(1 0 0 1 994.194 1012)">6</text><path d="M974 765C974 739.595 994.819 719 1020.5 719 1046.18 719 1067 739.595 1067 765 1067 790.405 1046.18 811 1020.5 811 994.819 811 974 790.405 974 765Z" fill="#0070C0" fill-rule="evenodd" fill-opacity="0.501961"/><text fill="#FFFFFF" fill-opacity="1" font-family="Calibri,Calibri_MSFontService,sans-serif" font-style="normal" font-variant="normal" font-weight="400" font-stretch="normal" font-size="64" text-anchor="start" direction="ltr" writing-mode="lr-tb" unicode-bidi="normal" text-decoration="none" transform="matrix(1 0 0 1 1003.96 787)">7</text><path d="M1190.5 611.5 1386.32 856.411" stroke="#000000" stroke-width="4.58333" stroke-linecap="butt" stroke-linejoin="round" stroke-miterlimit="10" stroke-opacity="1" fill="none" fill-rule="evenodd"/><path d="M26.4358 23.0229 109.467 130.695 98.5783 139.092 15.5473 31.4196ZM8.85708 45.2604 0 0 41.5226 20.0706Z" fill="#FF7879" fill-rule="nonzero" fill-opacity="1" transform="matrix(-1 0 0 1 1157.02 597)"/><path d="M0 0 146.48 347.019" stroke="#000000" stroke-width="4.58333" stroke-linecap="butt" stroke-linejoin="round" stroke-miterlimit="10" stroke-opacity="1" fill="none" fill-rule="evenodd" transform="matrix(-1 0 0 1 1189.98 611.5)"/><path d="M0.775163-6.83116 310.921 28.3625 309.371 42.0248-0.775163 6.83116ZM305.64 13.925 344.302 39.0695 300.989 54.912Z" fill="#FF7879" fill-rule="nonzero" fill-opacity="1" transform="matrix(-1 0 0 1 1143.3 565)"/><path d="M955.167 718.826 795.126 609.68 802.873 598.32 962.914 707.466ZM964.982 692.233 987.44 732.514 941.74 726.312Z" fill="#FF7879" fill-rule="nonzero" fill-opacity="1"/><path d="M6.47405-2.31351 92.2474 237.712 79.2993 242.339-6.47405 2.31351ZM102.882 226.611 97.341 272.395 64.0378 240.492Z" fill="#FF7879" fill-rule="nonzero" fill-opacity="1" transform="matrix(1 0 0 -1 656 922.395)"/><path d="M0 0 310.078 243.642" stroke="#000000" stroke-width="4.58333" stroke-linecap="butt" stroke-linejoin="round" stroke-miterlimit="10" stroke-opacity="1" fill="none" fill-rule="evenodd" transform="matrix(1 0 0 -1 443.5 894.142)"/><path d="M0 0 285.781 170.962" stroke="#000000" stroke-width="4.58333" stroke-linecap="butt" stroke-linejoin="round" stroke-miterlimit="10" stroke-opacity="1" fill="none" fill-rule="evenodd" transform="matrix(-1 0 0 1 988.281 798.5)"/><path d="M1702 535.5C1702 509.819 1722.82 489 1748.5 489 1774.18 489 1795 509.819 1795 535.5 1795 561.181 1774.18 582 1748.5 582 1722.82 582 1702 561.181 1702 535.5Z" fill="#0070C0" fill-rule="evenodd" fill-opacity="0.501961"/><text fill="#FFFFFF" fill-opacity="1" font-family="Calibri,Calibri_MSFontService,sans-serif" font-style="normal" font-variant="normal" font-weight="400" font-stretch="normal" font-size="64" text-anchor="start" direction="ltr" writing-mode="lr-tb" unicode-bidi="normal" text-decoration="none" transform="matrix(1 0 0 1 1732.35 557)">1</text><path d="M2192 391.5C2192 365.819 2212.82 345 2238.5 345 2264.18 345 2285 365.819 2285 391.5 2285 417.181 2264.18 438 2238.5 438 2212.82 438 2192 417.181 2192 391.5Z" fill="#0070C0" fill-rule="evenodd" fill-opacity="0.501961"/><text fill="#FFFFFF" fill-opacity="1" font-family="Calibri,Calibri_MSFontService,sans-serif" font-style="normal" font-variant="normal" font-weight="400" font-stretch="normal" font-size="64" text-anchor="start" direction="ltr" writing-mode="lr-tb" unicode-bidi="normal" text-decoration="none" transform="matrix(1 0 0 1 2222.34 413)">3</text><path d="M1704 798.5C1704 772.819 1724.59 752 1750 752 1775.41 752 1796 772.819 1796 798.5 1796 824.181 1775.41 845 1750 845 1724.59 845 1704 824.181 1704 798.5Z" fill="#0070C0" fill-rule="evenodd" fill-opacity="0.501961"/><text fill="#FFFFFF" fill-opacity="1" font-family="Calibri,Calibri_MSFontService,sans-serif" font-style="normal" font-variant="normal" font-weight="400" font-stretch="normal" font-size="64" text-anchor="start" direction="ltr" writing-mode="lr-tb" unicode-bidi="normal" text-decoration="none" transform="matrix(1 0 0 1 1733.77 820)">3</text><path d="M1874 391.5C1874 365.819 1894.59 345 1920 345 1945.41 345 1966 365.819 1966 391.5 1966 417.181 1945.41 438 1920 438 1894.59 438 1874 417.181 1874 391.5Z" fill="#0070C0" fill-rule="evenodd" fill-opacity="0.501961"/><text fill="#FFFFFF" fill-opacity="1" font-family="Calibri,Calibri_MSFontService,sans-serif" font-style="normal" font-variant="normal" font-weight="400" font-stretch="normal" font-size="64" text-anchor="start" direction="ltr" writing-mode="lr-tb" unicode-bidi="normal" text-decoration="none" transform="matrix(1 0 0 1 1903.64 413)">1</text><path d="M1702 666.5C1702 640.819 1722.82 620 1748.5 620 1774.18 620 1795 640.819 1795 666.5 1795 692.181 1774.18 713 1748.5 713 1722.82 713 1702 692.181 1702 666.5Z" fill="#0070C0" fill-rule="evenodd" fill-opacity="0.501961"/><text fill="#FFFFFF" fill-opacity="1" font-family="Calibri,Calibri_MSFontService,sans-serif" font-style="normal" font-variant="normal" font-weight="400" font-stretch="normal" font-size="64" text-anchor="start" direction="ltr" writing-mode="lr-tb" unicode-bidi="normal" text-decoration="none" transform="matrix(1 0 0 1 1732.35 688)">2</text><path d="M2033 391.5C2033 365.819 2053.82 345 2079.5 345 2105.18 345 2126 365.819 2126 391.5 2126 417.181 2105.18 438 2079.5 438 2053.82 438 2033 417.181 2033 391.5Z" fill="#0070C0" fill-rule="evenodd" fill-opacity="0.501961"/><text fill="#FFFFFF" fill-opacity="1" font-family="Calibri,Calibri_MSFontService,sans-serif" font-style="normal" font-variant="normal" font-weight="400" font-stretch="normal" font-size="64" text-anchor="start" direction="ltr" writing-mode="lr-tb" unicode-bidi="normal" text-decoration="none" transform="matrix(1 0 0 1 2062.99 413)">2</text><path d="M2352 391.5C2352 365.819 2372.59 345 2398 345 2423.41 345 2444 365.819 2444 391.5 2444 417.181 2423.41 438 2398 438 2372.59 438 2352 417.181 2352 391.5Z" fill="#0070C0" fill-rule="evenodd" fill-opacity="0.501961"/><text fill="#FFFFFF" fill-opacity="1" font-family="Calibri,Calibri_MSFontService,sans-serif" font-style="normal" font-variant="normal" font-weight="400" font-stretch="normal" font-size="64" text-anchor="start" direction="ltr" writing-mode="lr-tb" unicode-bidi="normal" text-decoration="none" transform="matrix(1 0 0 1 2381.69 413)">7</text><path d="M1702 930C1702 904.595 1722.82 884 1748.5 884 1774.18 884 1795 904.595 1795 930 1795 955.405 1774.18 976 1748.5 976 1722.82 976 1702 955.405 1702 930Z" fill="#0070C0" fill-rule="evenodd" fill-opacity="0.501961"/><text fill="#FFFFFF" fill-opacity="1" font-family="Calibri,Calibri_MSFontService,sans-serif" font-style="normal" font-variant="normal" font-weight="400" font-stretch="normal" font-size="64" text-anchor="start" direction="ltr" writing-mode="lr-tb" unicode-bidi="normal" text-decoration="none" transform="matrix(1 0 0 1 1732.35 951)">7</text></g></g></svg>