<svg width="2856" height="596" xmlns="http://www.w3.org/2000/svg" xmlns:xlink="http://www.w3.org/1999/xlink" xml:space="preserve" overflow="hidden"><g transform="translate(-187 -568)"><g><rect x="193.5" y="581.5" width="576" height="575" stroke="#000000" stroke-width="9.16667" stroke-linecap="butt" stroke-linejoin="round" stroke-miterlimit="10" stroke-opacity="1" fill="none"/><rect x="355" y="581" width="414" height="576" fill="#00B050" fill-opacity="0.301961"/><rect x="0" y="0" width="164" height="575" fill="#0070C0" fill-opacity="0.301961" transform="matrix(-1 0 0 1 357 576)"/><path d="M354.5 585.5 354.5 1149.89" stroke="#FF0000" stroke-width="9.16667" stroke-linecap="butt" stroke-linejoin="round" stroke-miterlimit="10" stroke-dasharray="9.16667 9.16667" stroke-opacity="1" fill="none" fill-rule="evenodd"/><rect x="932.5" y="580.5" width="575" height="575" stroke="#000000" stroke-width="9.16667" stroke-linecap="butt" stroke-linejoin="round" stroke-miterlimit="10" stroke-opacity="1" fill="none"/><rect x="932" y="579" width="460" height="575" fill="#00B050" fill-opacity="0.301961"/><rect x="0" y="0" width="115" height="575" fill="#0070C0" fill-opacity="0.301961" transform="matrix(-1 0 0 1 1507 581)"/><path d="M1395.5 584.5 1395.5 1148.89" stroke="#FF0000" stroke-width="9.16667" stroke-linecap="butt" stroke-linejoin="round" stroke-miterlimit="10" stroke-dasharray="9.16667 9.16667" stroke-opacity="1" fill="none" fill-rule="evenodd"/><rect x="1669.5" y="576.5" width="575" height="575" stroke="#000000" stroke-width="9.16667" stroke-linecap="butt" stroke-linejoin="round" stroke-miterlimit="10" stroke-opacity="1" fill="none"/><rect x="1672" y="819" width="570" height="328" fill="#00B050" fill-opacity="0.301961"/><rect x="0" y="0" width="570" height="242" fill="#0070C0" fill-opacity="0.301961" transform="matrix(-1 0 0 1 2242 577)"/><path d="M2242.58 818.5 1669.5 818.5" stroke="#FF0000" stroke-width="9.16667" stroke-linecap="butt" stroke-linejoin="round" stroke-miterlimit="10" stroke-dasharray="9.16667 9.16667" stroke-opacity="1" fill="none" fill-rule="evenodd"/><rect x="2459.5" y="577.5" width="575" height="576" stroke="#000000" stroke-width="9.16667" stroke-linecap="butt" stroke-linejoin="round" stroke-miterlimit="10" stroke-opacity="1" fill="none"/><rect x="2623" y="578" width="414" height="575" fill="#00B050" fill-opacity="0.25098"/><rect x="0" y="0" width="164" height="576" fill="#0070C0" fill-opacity="0.25098" transform="matrix(-1 0 0 1 2623 572)"/><rect x="2459.5" y="578.5" width="575" height="576" stroke="#000000" stroke-width="9.16667" stroke-linecap="butt" stroke-linejoin="round" stroke-miterlimit="10" stroke-opacity="1" fill="none"/><rect x="2457" y="578" width="460" height="575" fill="#00B050" fill-opacity="0.101961"/><rect x="0" y="0" width="117" height="576" fill="#0070C0" fill-opacity="0.101961" transform="matrix(-1 0 0 1 3034 579)"/><rect x="2459.5" y="577.5" width="575" height="575" stroke="#000000" stroke-width="9.16667" stroke-linecap="butt" stroke-linejoin="round" stroke-miterlimit="10" stroke-opacity="1" fill="none"/><rect x="2462" y="827" width="570" height="322" fill="#00B050" fill-opacity="0.2"/><rect x="0" y="0" width="570" height="249" fill="#0070C0" fill-opacity="0.2" transform="matrix(-1 0 0 1 3032 578)"/><rect x="2459.5" y="577.5" width="576" height="575" stroke="#000000" stroke-width="9.16667" stroke-linecap="butt" stroke-linejoin="round" stroke-miterlimit="10" stroke-opacity="1" fill="none"/><rect x="2843.5" y="1018.5" width="37.0002" height="37.0002" stroke="#000000" stroke-width="4.58333" stroke-linecap="butt" stroke-linejoin="round" stroke-miterlimit="10" stroke-opacity="1" fill="#00B050" fill-opacity="1"/><path d="M2524.5 959.5 2546 922.5 2567.5 959.5Z" stroke="#000000" stroke-width="4.58333" stroke-linecap="butt" stroke-linejoin="round" stroke-miterlimit="10" stroke-opacity="1" fill="#4285F4" fill-rule="evenodd" fill-opacity="1"/><path d="M2830.5 750.5 2852 713.5 2873.5 750.5Z" stroke="#000000" stroke-width="4.58333" stroke-linecap="butt" stroke-linejoin="round" stroke-miterlimit="10" stroke-opacity="1" fill="#4285F4" fill-rule="evenodd" fill-opacity="1"/><rect x="2645.5" y="883.5" width="37.0002" height="37.0001" stroke="#000000" stroke-width="4.58333" stroke-linecap="butt" stroke-linejoin="round" stroke-miterlimit="10" stroke-opacity="1" fill="#00B050" fill-opacity="1"/><path d="M2668.5 758.5 2690 721.5 2711.5 758.5Z" stroke="#000000" stroke-width="4.58333" stroke-linecap="butt" stroke-linejoin="round" stroke-miterlimit="10" stroke-opacity="1" fill="#4285F4" fill-rule="evenodd" fill-opacity="1"/><path d="M2769.5 680.5 2791 643.5 2812.5 680.5Z" stroke="#000000" stroke-width="4.58333" stroke-linecap="butt" stroke-linejoin="round" stroke-miterlimit="10" stroke-opacity="1" fill="#4285F4" fill-rule="evenodd" fill-opacity="1"/><rect x="2711.5" y="1017.5" width="37.0002" height="38.0001" stroke="#000000" stroke-width="4.58333" stroke-linecap="butt" stroke-linejoin="round" stroke-miterlimit="10" stroke-opacity="1" fill="#00B050" fill-opacity="1"/><rect x="2963.5" y="919.5" width="37.0002" height="37.9998" stroke="#000000" stroke-width="4.58333" stroke-linecap="butt" stroke-linejoin="round" stroke-miterlimit="10" stroke-opacity="1" fill="#00B050" fill-opacity="1"/><rect x="2938.5" y="705.5" width="37.0002" height="37.0001" stroke="#000000" stroke-width="4.58333" stroke-linecap="butt" stroke-linejoin="round" stroke-miterlimit="10" stroke-opacity="1" fill="#00B050" fill-opacity="1"/><path d="M2560.5 1056.5 2582 1019.5 2603.5 1056.5Z" stroke="#000000" stroke-width="4.58333" stroke-linecap="butt" stroke-linejoin="round" stroke-miterlimit="10" stroke-opacity="1" fill="#4285F4" fill-rule="evenodd" fill-opacity="1"/><rect x="2780.5" y="949.5" width="36.9998" height="37.0001" stroke="#000000" stroke-width="4.58333" stroke-linecap="butt" stroke-linejoin="round" stroke-miterlimit="10" stroke-opacity="1" fill="#00B050" fill-opacity="1"/><text fill="#000000" fill-opacity="1" font-family="Cambria Math,Cambria Math_MSFontService,sans-serif" font-style="normal" font-variant="normal" font-weight="400" font-stretch="normal" font-size="147" text-anchor="start" direction="ltr" writing-mode="lr-tb" unicode-bidi="normal" text-decoration="none" transform="matrix(1 0 0 1 794.794 903)">+</text><text fill="#000000" fill-opacity="1" font-family="Cambria Math,Cambria Math_MSFontService,sans-serif" font-style="normal" font-variant="normal" font-weight="400" font-stretch="normal" font-size="147" text-anchor="start" direction="ltr" writing-mode="lr-tb" unicode-bidi="normal" text-decoration="none" transform="matrix(1 0 0 1 1535.59 904)">+</text><text fill="#000000" fill-opacity="1" font-family="Cambria Math,Cambria Math_MSFontService,sans-serif" font-style="normal" font-variant="normal" font-weight="400" font-stretch="normal" font-size="147" text-anchor="start" direction="ltr" writing-mode="lr-tb" unicode-bidi="normal" text-decoration="none" transform="matrix(1 0 0 1 2298.13 903)">=</text></g></g></svg>