<svg width="2090" height="866" xmlns="http://www.w3.org/2000/svg" xmlns:xlink="http://www.w3.org/1999/xlink" xml:space="preserve" overflow="hidden"><g transform="translate(-462 -385)"><g><path d="M4.58333-2.52054e-06 4.58368 633.327-4.58298 633.327-4.58333 2.52054e-06ZM13.7503 628.744 0.000360892 656.244-13.7497 628.744Z" fill="#000000" fill-rule="nonzero" fill-opacity="1" transform="matrix(1 0 0 -1 600.5 1123.74)"/><path d="M1.94576e-06-4.58333 827.183-4.58298 827.183 4.58368-1.94576e-06 4.58333ZM822.599-13.7497 850.099 0.000360892 822.599 13.7503Z" fill="#000000" fill-rule="nonzero" fill-opacity="1" transform="matrix(1 0 0 -1 594.5 1118.5)"/><rect x="932" y="527" width="42.9999" height="42.9999" fill="#00B050" fill-opacity="1"/><rect x="1097" y="797" width="44" height="44" fill="#00B050" fill-opacity="1"/><path d="M831 973 853 929 875 973Z" fill="#4285F4" fill-rule="evenodd" fill-opacity="1"/><rect x="1291" y="533" width="43" height="42.9999" fill="#00B050" fill-opacity="1"/><rect x="1209" y="658" width="43" height="42.9999" fill="#00B050" fill-opacity="1"/><path d="M930 952 951.5 908 973 952Z" fill="#4285F4" fill-rule="evenodd" fill-opacity="1"/><rect x="1334" y="651" width="43" height="44" fill="#00B050" fill-opacity="1"/><path d="M725 914 746.5 871 768 914Z" fill="#4285F4" fill-rule="evenodd" fill-opacity="1"/><rect x="1194" y="498" width="43.0004" height="43" fill="#00B050" fill-opacity="1"/><path d="M642 857 663.5 814 685 857Z" fill="#4285F4" fill-rule="evenodd" fill-opacity="1"/><rect x="972" y="644" width="42.9999" height="43.0003" fill="#00B050" fill-opacity="1"/><path d="M810 866 831.5 822 853 866Z" fill="#4285F4" fill-rule="evenodd" fill-opacity="1"/><rect x="876" y="673" width="44" height="42.9999" fill="#00B050" fill-opacity="1"/><path d="M853 786 874.5 743 896 786Z" fill="#4285F4" fill-rule="evenodd" fill-opacity="1"/><rect x="1237" y="840" width="43" height="44" fill="#00B050" fill-opacity="1"/><path d="M763 1065 784.5 1022 806 1065Z" fill="#4285F4" fill-rule="evenodd" fill-opacity="1"/><path d="M935 1055 957 1012 979 1055Z" fill="#4285F4" fill-rule="evenodd" fill-opacity="1"/><path d="M755 671 776.5 628 798 671Z" fill="#4285F4" fill-rule="evenodd" fill-opacity="1"/><rect x="1280" y="1014" width="44" height="43.9999" fill="#00B050" fill-opacity="1"/><path d="M1150 1035 1172 992 1194 1035Z" fill="#4285F4" fill-rule="evenodd" fill-opacity="1"/><rect x="1367" y="838" width="43" height="44" fill="#00B050" fill-opacity="1"/><path d="M985 813 1007 769 1029 813Z" fill="#4285F4" fill-rule="evenodd" fill-opacity="1"/><rect x="803" y="535" width="44" height="44" fill="#00B050" fill-opacity="1"/><text fill="#000000" fill-opacity="1" font-family="Cambria Math,Cambria Math_MSFontService,sans-serif" font-style="normal" font-variant="normal" font-weight="400" font-stretch="normal" font-size="73" text-anchor="start" direction="ltr" writing-mode="lr-tb" unicode-bidi="normal" text-decoration="none" transform="matrix(1 0 0 1 1331.16 1182)">ЁЭСе</text><text fill="#000000" fill-opacity="1" font-family="Cambria Math,Cambria Math_MSFontService,sans-serif" font-style="normal" font-variant="normal" font-weight="400" font-stretch="normal" font-size="54" text-anchor="start" direction="ltr" writing-mode="lr-tb" unicode-bidi="normal" text-decoration="none" transform="matrix(1 0 0 1 1367.71 1197)">1</text><text fill="#000000" fill-opacity="1" font-family="Cambria Math,Cambria Math_MSFontService,sans-serif" font-style="normal" font-variant="normal" font-weight="400" font-stretch="normal" font-size="73" text-anchor="start" direction="ltr" writing-mode="lr-tb" unicode-bidi="normal" text-decoration="none" transform="matrix(1 0 0 1 508.725 584)">ЁЭСе</text><text fill="#000000" fill-opacity="1" font-family="Cambria Math,Cambria Math_MSFontService,sans-serif" font-style="normal" font-variant="normal" font-weight="400" font-stretch="normal" font-size="54" text-anchor="start" direction="ltr" writing-mode="lr-tb" unicode-bidi="normal" text-decoration="none" transform="matrix(1 0 0 1 546.973 599)">2</text><path d="M1071.5 467.5 1071.5 1142.66" stroke="#FF0000" stroke-width="9.16667" stroke-linecap="butt" stroke-linejoin="round" stroke-miterlimit="10" stroke-dasharray="9.16667 9.16667" stroke-opacity="1" fill="none" fill-rule="evenodd"/><text fill="#FF0000" fill-opacity="1" font-family="Cambria Math,Cambria Math_MSFontService,sans-serif" font-style="normal" font-variant="normal" font-weight="400" font-stretch="normal" font-size="73" text-anchor="start" direction="ltr" writing-mode="lr-tb" unicode-bidi="normal" text-decoration="none" transform="matrix(1 0 0 1 1050.9 1213)">3</text><path d="M581.5 731.5 1437.84 731.5" stroke="#FF0000" stroke-width="9.16667" stroke-linecap="butt" stroke-linejoin="round" stroke-miterlimit="10" stroke-dasharray="9.16667 9.16667" stroke-opacity="1" fill="none" fill-rule="evenodd"/><text fill="#FF0000" fill-opacity="1" font-family="Cambria Math,Cambria Math_MSFontService,sans-serif" font-style="normal" font-variant="normal" font-weight="400" font-stretch="normal" font-size="73" text-anchor="start" direction="ltr" writing-mode="lr-tb" unicode-bidi="normal" text-decoration="none" transform="matrix(1 0 0 1 506.403 762)">2</text><path d="M3.24491-3.2369 251.061 245.192 244.571 251.666-3.24491 3.2369ZM254.313 235.473 264 264.654 234.844 254.895Z" fill="#FF0000" fill-rule="nonzero" fill-opacity="0.501961" transform="matrix(-1 0 0 1 2256.5 511.5)"/><path d="M2259.74 509.259 2507.54 757.055 2501.05 763.536 2253.26 515.741ZM2510.78 747.332 2520.5 776.5 2491.33 766.777Z" fill="#00B050" fill-rule="nonzero" fill-opacity="0.501961"/><path d="M3.24091-3.24091 152.036 145.555 145.555 152.036-3.24091 3.24091ZM155.277 135.832 165 165 135.832 155.277Z" fill="#FF0000" fill-rule="nonzero" fill-opacity="0.501961" transform="matrix(-1 0 0 1 1997.5 918.5)"/><path d="M2000.74 915.259 2149.54 1064.05 2143.05 1070.54 1994.26 921.741ZM2152.78 1054.33 2162.5 1083.5 2133.33 1073.78Z" fill="#00B050" fill-rule="nonzero" fill-opacity="0.501961"/><rect x="2498" y="825" width="43" height="44" fill="#00B050" fill-opacity="1"/><rect x="2141" y="1112" width="43" height="44" fill="#00B050" fill-opacity="1"/><path d="M1808 1158 1830 1115 1852 1158Z" fill="#4285F4" fill-rule="evenodd" fill-opacity="1"/><text fill="#000000" fill-opacity="1" font-family="Cambria Math,Cambria Math_MSFontService,sans-serif" font-style="normal" font-variant="normal" font-weight="400" font-stretch="normal" font-size="73" text-anchor="start" direction="ltr" writing-mode="lr-tb" unicode-bidi="normal" text-decoration="none" transform="matrix(1 0 0 1 2152.19 475)">ЁЭСе</text><text fill="#000000" fill-opacity="1" font-family="Cambria Math,Cambria Math_MSFontService,sans-serif" font-style="normal" font-variant="normal" font-weight="400" font-stretch="normal" font-size="54" text-anchor="start" direction="ltr" writing-mode="lr-tb" unicode-bidi="normal" text-decoration="none" transform="matrix(1 0 0 1 2188.74 490)">1</text><text fill="#000000" fill-opacity="1" font-family="Cambria Math,Cambria Math_MSFontService,sans-serif" font-style="normal" font-variant="normal" font-weight="400" font-stretch="normal" font-size="73" text-anchor="start" direction="ltr" writing-mode="lr-tb" unicode-bidi="normal" text-decoration="none" transform="matrix(1 0 0 1 2243.1 475)">тЙе</text><text fill="#000000" fill-opacity="1" font-family="Cambria Math,Cambria Math_MSFontService,sans-serif" font-style="normal" font-variant="normal" font-weight="400" font-stretch="normal" font-size="73" text-anchor="start" direction="ltr" writing-mode="lr-tb" unicode-bidi="normal" text-decoration="none" transform="matrix(1 0 0 1 2318.47 475)">3</text><text fill="#000000" fill-opacity="1" font-family="Cambria Math,Cambria Math_MSFontService,sans-serif" font-style="normal" font-variant="normal" font-weight="400" font-stretch="normal" font-size="73" text-anchor="start" direction="ltr" writing-mode="lr-tb" unicode-bidi="normal" text-decoration="none" transform="matrix(1 0 0 1 1887.33 871)">ЁЭСе</text><text fill="#000000" fill-opacity="1" font-family="Cambria Math,Cambria Math_MSFontService,sans-serif" font-style="normal" font-variant="normal" font-weight="400" font-stretch="normal" font-size="54" text-anchor="start" direction="ltr" writing-mode="lr-tb" unicode-bidi="normal" text-decoration="none" transform="matrix(1 0 0 1 1925.58 886)">2</text><text fill="#000000" fill-opacity="1" font-family="Cambria Math,Cambria Math_MSFontService,sans-serif" font-style="normal" font-variant="normal" font-weight="400" font-stretch="normal" font-size="73" text-anchor="start" direction="ltr" writing-mode="lr-tb" unicode-bidi="normal" text-decoration="none" transform="matrix(1 0 0 1 1979.94 871)">тЙе</text><text fill="#000000" fill-opacity="1" font-family="Cambria Math,Cambria Math_MSFontService,sans-serif" font-style="normal" font-variant="normal" font-weight="400" font-stretch="normal" font-size="73" text-anchor="start" direction="ltr" writing-mode="lr-tb" unicode-bidi="normal" text-decoration="none" transform="matrix(1 0 0 1 2055.31 871)">2</text></g></g></svg>