<svg width="2365" height="1133" xmlns="http://www.w3.org/2000/svg" xmlns:xlink="http://www.w3.org/1999/xlink" xml:space="preserve" overflow="hidden"><g transform="translate(-275 -407)"><g><path d="M372 666 491.346 789.407" stroke="#EF8600" stroke-width="18.3333" stroke-linecap="butt" stroke-linejoin="round" stroke-miterlimit="10" stroke-opacity="1" fill="none" fill-rule="evenodd"/><path d="M279 628C279 598.177 303.401 574 333.5 574 363.6 574 388 598.177 388 628 388 657.823 363.6 682 333.5 682 303.401 682 279 657.823 279 628Z" fill="#C00000" fill-rule="evenodd" fill-opacity="1"/><rect x="491.5" y="649.5" width="305" height="282" stroke="#9F5900" stroke-width="22.9167" stroke-linecap="butt" stroke-linejoin="round" stroke-miterlimit="10" stroke-opacity="1" fill="none"/><path d="M507.5 565.9C530.985 512.794 554.471 459.687 574.113 459.5 593.756 459.314 600.076 553.207 625.355 564.78 650.633 576.353 697.263 527.82 725.787 528.94 754.311 530.06 784.031 564.22 796.5 571.5" stroke="#FFCD8C" stroke-width="9.16667" stroke-linecap="butt" stroke-linejoin="round" stroke-miterlimit="10" stroke-opacity="1" fill="none" fill-rule="evenodd"/><path d="M1111.5 571.5C1151.53 570.754 1191.55 570.007 1218.73 543.511 1245.91 517.015 1259.31 414.201 1274.58 412.522 1289.84 410.842 1288.17 506.938 1310.32 533.435 1332.48 559.931 1369.99 565.716 1407.5 571.5" stroke="#FFCD8C" stroke-width="9.16667" stroke-linecap="butt" stroke-linejoin="round" stroke-miterlimit="10" stroke-opacity="1" fill="none" fill-rule="evenodd"/><path d="M2328.21 563.938C2397.16 559.727 2466.11 555.516 2507.2 531.035 2548.29 506.554 2559.5 417.078 2574.77 417.052 2590.04 417.026 2591.96 506.028 2598.82 530.878 2605.68 555.728 2612.9 559.896 2615.91 566.154" stroke="#FFCD8C" stroke-width="9.16667" stroke-linecap="butt" stroke-linejoin="round" stroke-miterlimit="10" stroke-opacity="1" fill="none" fill-rule="evenodd"/><path d="M1722.5 578.935C1737.76 554.4 1753.02 529.865 1792.84 519.595 1832.67 509.324 1923.66 506.662 1961.44 517.312 1999.22 527.963 2009.36 555.732 2019.5 583.5" stroke="#FFCD8C" stroke-width="9.16667" stroke-linecap="butt" stroke-linejoin="round" stroke-miterlimit="10" stroke-opacity="1" fill="none" fill-rule="evenodd"/><path d="M987 664 1106.35 787.408" stroke="#EF8600" stroke-width="18.3333" stroke-linecap="butt" stroke-linejoin="round" stroke-miterlimit="10" stroke-opacity="1" fill="none" fill-rule="evenodd"/><path d="M894 625.5C894 595.4 918.401 571 948.5 571 978.6 571 1003 595.4 1003 625.5 1003 655.599 978.6 680 948.5 680 918.401 680 894 655.599 894 625.5Z" fill="#C00000" fill-rule="evenodd" fill-opacity="1"/><rect x="1107.5" y="646.5" width="304" height="282" stroke="#9F5900" stroke-width="22.9167" stroke-linecap="butt" stroke-linejoin="round" stroke-miterlimit="10" stroke-opacity="1" fill="none"/><path d="M1595 664 1714.35 787.408" stroke="#EF8600" stroke-width="18.3333" stroke-linecap="butt" stroke-linejoin="round" stroke-miterlimit="10" stroke-opacity="1" fill="none" fill-rule="evenodd"/><path d="M1502 625.5C1502 595.4 1526.4 571 1556.5 571 1586.6 571 1611 595.4 1611 625.5 1611 655.599 1586.6 680 1556.5 680 1526.4 680 1502 655.599 1502 625.5Z" fill="#C00000" fill-rule="evenodd" fill-opacity="1"/><rect x="1714.5" y="646.5" width="305" height="282" stroke="#9F5900" stroke-width="22.9167" stroke-linecap="butt" stroke-linejoin="round" stroke-miterlimit="10" stroke-opacity="1" fill="none"/><path d="M2203 664 2322.35 787.408" stroke="#EF8600" stroke-width="18.3333" stroke-linecap="butt" stroke-linejoin="round" stroke-miterlimit="10" stroke-opacity="1" fill="none" fill-rule="evenodd"/><path d="M2110 625.5C2110 595.4 2134.4 571 2164.5 571 2194.6 571 2219 595.4 2219 625.5 2219 655.599 2194.6 680 2164.5 680 2134.4 680 2110 655.599 2110 625.5Z" fill="#C00000" fill-rule="evenodd" fill-opacity="1"/><rect x="2322.5" y="646.5" width="305" height="282" stroke="#9F5900" stroke-width="22.9167" stroke-linecap="butt" stroke-linejoin="round" stroke-miterlimit="10" stroke-opacity="1" fill="none"/><text fill="#FF0000" fill-opacity="0.529412" font-family="Calibri,Calibri_MSFontService,sans-serif" font-style="normal" font-variant="normal" font-weight="400" font-stretch="normal" font-size="73" text-anchor="start" direction="ltr" writing-mode="lr-tb" unicode-bidi="normal" text-decoration="none" transform="matrix(1 0 0 1 577.374 1033)">-</text><text fill="#FF0000" fill-opacity="0.529412" font-family="Calibri,Calibri_MSFontService,sans-serif" font-style="normal" font-variant="normal" font-weight="400" font-stretch="normal" font-size="73" text-anchor="start" direction="ltr" writing-mode="lr-tb" unicode-bidi="normal" text-decoration="none" transform="matrix(1 0 0 1 599.718 1033)">.53</text><text fill="#FF0000" fill-opacity="0.419608" font-family="Calibri,Calibri_MSFontService,sans-serif" font-style="normal" font-variant="normal" font-weight="400" font-stretch="normal" font-size="73" text-anchor="start" direction="ltr" writing-mode="lr-tb" unicode-bidi="normal" text-decoration="none" transform="matrix(1 0 0 1 577.374 1121)">-</text><text fill="#FF0000" fill-opacity="0.419608" font-family="Calibri,Calibri_MSFontService,sans-serif" font-style="normal" font-variant="normal" font-weight="400" font-stretch="normal" font-size="73" text-anchor="start" direction="ltr" writing-mode="lr-tb" unicode-bidi="normal" text-decoration="none" transform="matrix(1 0 0 1 599.718 1121)">.42</text><text fill="#00B050" fill-opacity="0.65098" font-family="Calibri,Calibri_MSFontService,sans-serif" font-style="normal" font-variant="normal" font-weight="400" font-stretch="normal" font-size="73" text-anchor="start" direction="ltr" writing-mode="lr-tb" unicode-bidi="normal" text-decoration="none" transform="matrix(1 0 0 1 577.374 1209)">+.65</text><text fill="#FF0000" fill-opacity="0.301961" font-family="Calibri,Calibri_MSFontService,sans-serif" font-style="normal" font-variant="normal" font-weight="400" font-stretch="normal" font-size="73" text-anchor="start" direction="ltr" writing-mode="lr-tb" unicode-bidi="normal" text-decoration="none" transform="matrix(1 0 0 1 1192.52 1033)">-</text><text fill="#FF0000" fill-opacity="0.301961" font-family="Calibri,Calibri_MSFontService,sans-serif" font-style="normal" font-variant="normal" font-weight="400" font-stretch="normal" font-size="73" text-anchor="start" direction="ltr" writing-mode="lr-tb" unicode-bidi="normal" text-decoration="none" transform="matrix(1 0 0 1 1214.86 1033)">.07</text><text fill="#FF0000" fill-opacity="0.270588" font-family="Calibri,Calibri_MSFontService,sans-serif" font-style="normal" font-variant="normal" font-weight="400" font-stretch="normal" font-size="73" text-anchor="start" direction="ltr" writing-mode="lr-tb" unicode-bidi="normal" text-decoration="none" transform="matrix(1 0 0 1 1192.52 1121)">-</text><text fill="#FF0000" fill-opacity="0.270588" font-family="Calibri,Calibri_MSFontService,sans-serif" font-style="normal" font-variant="normal" font-weight="400" font-stretch="normal" font-size="73" text-anchor="start" direction="ltr" writing-mode="lr-tb" unicode-bidi="normal" text-decoration="none" transform="matrix(1 0 0 1 1214.86 1121)">.04</text><text fill="#FF0000" fill-opacity="0.4" font-family="Calibri,Calibri_MSFontService,sans-serif" font-style="normal" font-variant="normal" font-weight="400" font-stretch="normal" font-size="73" text-anchor="start" direction="ltr" writing-mode="lr-tb" unicode-bidi="normal" text-decoration="none" transform="matrix(1 0 0 1 1192.52 1209)">-</text><text fill="#FF0000" fill-opacity="0.4" font-family="Calibri,Calibri_MSFontService,sans-serif" font-style="normal" font-variant="normal" font-weight="400" font-stretch="normal" font-size="73" text-anchor="start" direction="ltr" writing-mode="lr-tb" unicode-bidi="normal" text-decoration="none" transform="matrix(1 0 0 1 1214.86 1209)">.17</text><text fill="#00B050" fill-opacity="0.419608" font-family="Calibri,Calibri_MSFontService,sans-serif" font-style="normal" font-variant="normal" font-weight="400" font-stretch="normal" font-size="73" text-anchor="start" direction="ltr" writing-mode="lr-tb" unicode-bidi="normal" text-decoration="none" transform="matrix(1 0 0 1 1192.52 1297)">+.15</text><text fill="#FF0000" fill-opacity="0.8" font-family="Calibri,Calibri_MSFontService,sans-serif" font-style="normal" font-variant="normal" font-weight="400" font-stretch="normal" font-size="73" text-anchor="start" direction="ltr" writing-mode="lr-tb" unicode-bidi="normal" text-decoration="none" transform="matrix(1 0 0 1 1800.37 1033)">-</text><text fill="#FF0000" fill-opacity="0.8" font-family="Calibri,Calibri_MSFontService,sans-serif" font-style="normal" font-variant="normal" font-weight="400" font-stretch="normal" font-size="73" text-anchor="start" direction="ltr" writing-mode="lr-tb" unicode-bidi="normal" text-decoration="none" transform="matrix(1 0 0 1 1822.71 1033)">.80</text><text fill="#FF0000" fill-opacity="0.588235" font-family="Calibri,Calibri_MSFontService,sans-serif" font-style="normal" font-variant="normal" font-weight="400" font-stretch="normal" font-size="73" text-anchor="start" direction="ltr" writing-mode="lr-tb" unicode-bidi="normal" text-decoration="none" transform="matrix(1 0 0 1 1800.37 1121)">-</text><text fill="#FF0000" fill-opacity="0.588235" font-family="Calibri,Calibri_MSFontService,sans-serif" font-style="normal" font-variant="normal" font-weight="400" font-stretch="normal" font-size="73" text-anchor="start" direction="ltr" writing-mode="lr-tb" unicode-bidi="normal" text-decoration="none" transform="matrix(1 0 0 1 1822.71 1121)">.36</text><text fill="#00B050" fill-opacity="0.929412" font-family="Calibri,Calibri_MSFontService,sans-serif" font-style="normal" font-variant="normal" font-weight="400" font-stretch="normal" font-size="73" text-anchor="start" direction="ltr" writing-mode="lr-tb" unicode-bidi="normal" text-decoration="none" transform="matrix(1 0 0 1 1800.37 1209)">+.93</text><text fill="#00B050" fill-opacity="0.760784" font-family="Calibri,Calibri_MSFontService,sans-serif" font-style="normal" font-variant="normal" font-weight="400" font-stretch="normal" font-size="73" text-anchor="start" direction="ltr" writing-mode="lr-tb" unicode-bidi="normal" text-decoration="none" transform="matrix(1 0 0 1 2408.22 1033)">+.76</text><text fill="#00B050" fill-opacity="0.909804" font-family="Calibri,Calibri_MSFontService,sans-serif" font-style="normal" font-variant="normal" font-weight="400" font-stretch="normal" font-size="73" text-anchor="start" direction="ltr" writing-mode="lr-tb" unicode-bidi="normal" text-decoration="none" transform="matrix(1 0 0 1 2408.22 1121)">+.91</text><text fill="#00B050" fill-opacity="0.839216" font-family="Calibri,Calibri_MSFontService,sans-serif" font-style="normal" font-variant="normal" font-weight="400" font-stretch="normal" font-size="73" text-anchor="start" direction="ltr" writing-mode="lr-tb" unicode-bidi="normal" text-decoration="none" transform="matrix(1 0 0 1 2408.22 1209)">+.84</text><text fill="#00B050" fill-opacity="0.780392" font-family="Calibri,Calibri_MSFontService,sans-serif" font-style="normal" font-variant="normal" font-weight="400" font-stretch="normal" font-size="73" text-anchor="start" direction="ltr" writing-mode="lr-tb" unicode-bidi="normal" text-decoration="none" transform="matrix(1 0 0 1 2408.22 1297)">+.78</text><text fill="#00B050" fill-opacity="0.929412" font-family="Calibri,Calibri_MSFontService,sans-serif" font-style="normal" font-variant="normal" font-weight="400" font-stretch="normal" font-size="73" text-anchor="start" direction="ltr" writing-mode="lr-tb" unicode-bidi="normal" text-decoration="none" transform="matrix(1 0 0 1 2408.22 1385)">+.93</text><text fill="#00B050" fill-opacity="0.870588" font-family="Calibri,Calibri_MSFontService,sans-serif" font-style="normal" font-variant="normal" font-weight="400" font-stretch="normal" font-size="73" text-anchor="start" direction="ltr" writing-mode="lr-tb" unicode-bidi="normal" text-decoration="none" transform="matrix(1 0 0 1 2408.22 1473)">+.87</text></g></g></svg>