<svg width="2210" height="1173" xmlns="http://www.w3.org/2000/svg" xmlns:xlink="http://www.w3.org/1999/xlink" xml:space="preserve" overflow="hidden"><g transform="translate(-462 -275)"><g><rect x="472.5" y="418.5" width="719" height="1020" stroke="#000000" stroke-width="9.16667" stroke-linecap="butt" stroke-linejoin="round" stroke-miterlimit="10" stroke-opacity="1" fill="#00B050" fill-opacity="0.2"/><rect x="1191.5" y="418.5" width="719" height="1020" stroke="#000000" stroke-width="9.16667" stroke-linecap="butt" stroke-linejoin="round" stroke-miterlimit="10" stroke-opacity="1" fill="#FF0000" fill-opacity="0.2"/><text fill="#000000" fill-opacity="1" font-family="Calibri,Calibri_MSFontService,sans-serif" font-style="normal" font-variant="normal" font-weight="400" font-stretch="normal" font-size="55" text-anchor="start" direction="ltr" writing-mode="lr-tb" unicode-bidi="normal" text-decoration="none" transform="matrix(1 0 0 1 737.172 344)">Label 0</text><text fill="#000000" fill-opacity="1" font-family="Calibri,Calibri_MSFontService,sans-serif" font-style="normal" font-variant="normal" font-weight="400" font-stretch="normal" font-size="55" text-anchor="start" direction="ltr" writing-mode="lr-tb" unicode-bidi="normal" text-decoration="none" transform="matrix(1 0 0 1 1456.48 344)">Label 1</text><text fill="#000000" fill-opacity="1" font-family="Calibri,Calibri_MSFontService,sans-serif" font-style="normal" font-variant="normal" font-weight="400" font-stretch="normal" font-size="55" text-anchor="start" direction="ltr" writing-mode="lr-tb" unicode-bidi="normal" text-decoration="none" transform="matrix(1 0 0 1 1512.49 1389)">False Negative</text><text fill="#000000" fill-opacity="1" font-family="Calibri,Calibri_MSFontService,sans-serif" font-style="normal" font-variant="normal" font-weight="400" font-stretch="normal" font-size="55" text-anchor="start" direction="ltr" writing-mode="lr-tb" unicode-bidi="normal" text-decoration="none" transform="matrix(1 0 0 1 498.352 1396)">True Negative</text><path d="M749.5 927.5C749.5 679.524 950.524 478.5 1198.5 478.5 1446.48 478.5 1647.5 679.524 1647.5 927.5 1647.5 1175.48 1446.48 1376.5 1198.5 1376.5 950.524 1376.5 749.5 1175.48 749.5 927.5Z" stroke="#000000" stroke-width="9.16667" stroke-linecap="butt" stroke-linejoin="round" stroke-miterlimit="10" stroke-opacity="1" fill="#FFFFFF" fill-rule="evenodd" fill-opacity="1"/><path d="M750.5 928.5C750.5 680.524 951.748 479.5 1200 479.5 1448.25 479.5 1649.5 680.524 1649.5 928.5 1649.5 1176.48 1448.25 1377.5 1200 1377.5 951.748 1377.5 750.5 1176.48 750.5 928.5Z" stroke="#000000" stroke-width="9.16667" stroke-linecap="butt" stroke-linejoin="round" stroke-miterlimit="10" stroke-opacity="1" fill="none" fill-rule="evenodd"/><path d="M1190.84 1376.99C942.868 1375.24 743.264 1172.81 745.011 924.838 746.748 678.103 947.258 479 1194 479Z" fill="#FF0000" fill-rule="evenodd" fill-opacity="0.2"/><path d="M1194.66 479.011C1442.91 480.755 1642.74 683.188 1640.99 931.159 1639.25 1177.9 1438.52 1377 1191.5 1377Z" fill="#00B050" fill-rule="evenodd" fill-opacity="0.2"/><text fill="#000000" fill-opacity="1" font-family="Calibri,Calibri_MSFontService,sans-serif" font-style="normal" font-variant="normal" font-weight="400" font-stretch="normal" font-size="55" text-anchor="start" direction="ltr" writing-mode="lr-tb" unicode-bidi="normal" text-decoration="none" transform="matrix(1 0 0 1 1242.04 916)">True Positive</text><text fill="#000000" fill-opacity="1" font-family="Calibri,Calibri_MSFontService,sans-serif" font-style="normal" font-variant="normal" font-weight="400" font-stretch="normal" font-size="55" text-anchor="start" direction="ltr" writing-mode="lr-tb" unicode-bidi="normal" text-decoration="none" transform="matrix(1 0 0 1 786.382 916)">False Positive</text><path d="M1190.5 416.5 1191.22 1433.15" stroke="#000000" stroke-width="9.16667" stroke-linecap="butt" stroke-linejoin="round" stroke-miterlimit="10" stroke-opacity="1" fill="none" fill-rule="evenodd"/><rect x="1716" y="661" width="23" height="24.0001" fill="#00B050" fill-opacity="1"/><rect x="1770" y="803" width="24.0001" height="23.0001" fill="#00B050" fill-opacity="1"/><rect x="1627" y="483" width="23" height="23" fill="#00B050" fill-opacity="1"/><rect x="1704" y="1230" width="23" height="23" fill="#00B050" fill-opacity="1"/><rect x="1444" y="707" width="24.0001" height="23.0001" fill="#00B050" fill-opacity="1"/><rect x="1287" y="698" width="23" height="22.9997" fill="#00B050" fill-opacity="1"/><rect x="1277" y="795" width="23" height="23.0001" fill="#00B050" fill-opacity="1"/><rect x="1356" y="1063" width="23" height="23" fill="#00B050" fill-opacity="1"/><rect x="1447" y="1088" width="23" height="23" fill="#00B050" fill-opacity="1"/><rect x="1422" y="1383" width="24.0001" height="23" fill="#00B050" fill-opacity="1"/><rect x="1250" y="1205" width="24.0001" height="23" fill="#00B050" fill-opacity="1"/><rect x="1813" y="1039" width="23" height="23.9998" fill="#00B050" fill-opacity="1"/><rect x="1414" y="457" width="23" height="23" fill="#00B050" fill-opacity="1"/><rect x="1333" y="621" width="23" height="22.9997" fill="#00B050" fill-opacity="1"/><rect x="1499" y="823" width="23" height="23.0001" fill="#00B050" fill-opacity="1"/><rect x="1817" y="1253" width="23" height="23" fill="#00B050" fill-opacity="1"/><rect x="1650" y="1127" width="23" height="22.9996" fill="#00B050" fill-opacity="1"/><path d="M578 507 591 480 604 507Z" fill="#4285F4" fill-rule="evenodd" fill-opacity="1"/><path d="M588 711 601.5 685 615 711Z" fill="#4285F4" fill-rule="evenodd" fill-opacity="1"/><path d="M812 580 825.5 554 839 580Z" fill="#4285F4" fill-rule="evenodd" fill-opacity="1"/><path d="M911 796 924.5 770 938 796Z" fill="#4285F4" fill-rule="evenodd" fill-opacity="1"/><path d="M554 1083 567.5 1057 581 1083Z" fill="#4285F4" fill-rule="evenodd" fill-opacity="1"/><path d="M609 1138 622.5 1112 636 1138Z" fill="#4285F4" fill-rule="evenodd" fill-opacity="1"/><path d="M958 710 971.5 683 985 710Z" fill="#4285F4" fill-rule="evenodd" fill-opacity="1"/><path d="M1019 1083 1032 1057 1045 1083Z" fill="#4285F4" fill-rule="evenodd" fill-opacity="1"/><path d="M1068 820 1081.5 793 1095 820Z" fill="#4285F4" fill-rule="evenodd" fill-opacity="1"/><path d="M1085 657 1098 631 1111 657Z" fill="#4285F4" fill-rule="evenodd" fill-opacity="1"/><path d="M754 1300 767.5 1274 781 1300Z" fill="#4285F4" fill-rule="evenodd" fill-opacity="1"/><path d="M1024 1238 1037.5 1212 1051 1238Z" fill="#4285F4" fill-rule="evenodd" fill-opacity="1"/><path d="M859 1038 872.5 1011 886 1038Z" fill="#4285F4" fill-rule="evenodd" fill-opacity="1"/><path d="M1032 1008 1045.5 982 1059 1008Z" fill="#4285F4" fill-rule="evenodd" fill-opacity="1"/><path d="M589 914 602.5 887 616 914Z" fill="#4285F4" fill-rule="evenodd" fill-opacity="1"/><path d="M664 669 677.5 642 691 669Z" fill="#4285F4" fill-rule="evenodd" fill-opacity="1"/><path d="M934 483 947 456 960 483Z" fill="#4285F4" fill-rule="evenodd" fill-opacity="1"/><path d="M735 531 748.5 505 762 531Z" fill="#4285F4" fill-rule="evenodd" fill-opacity="1"/><path d="M663 848 676.5 822 690 848Z" fill="#4285F4" fill-rule="evenodd" fill-opacity="1"/><path d="M1096 1157 1109.5 1131 1123 1157Z" fill="#4285F4" fill-rule="evenodd" fill-opacity="1"/><text fill="#000000" fill-opacity="1" font-family="Calibri,Calibri_MSFontService,sans-serif" font-style="normal" font-variant="normal" font-weight="400" font-stretch="normal" font-size="64" text-anchor="start" direction="ltr" writing-mode="lr-tb" unicode-bidi="normal" text-decoration="none" transform="matrix(1 0 0 1 2150.62 567)">TPR = </text><rect x="2540.5" y="525.5" width="125" height="178" stroke="#000000" stroke-width="4.58333" stroke-linecap="butt" stroke-linejoin="round" stroke-miterlimit="10" stroke-opacity="1" fill="#FF0000" fill-opacity="0.2"/><path d="M2540.05 536.502C2583.13 536.805 2617.8 571.972 2617.5 615.049 2617.2 657.912 2582.36 692.5 2539.5 692.5Z" stroke="#000000" stroke-width="4.58333" stroke-linecap="butt" stroke-linejoin="round" stroke-miterlimit="10" stroke-opacity="1" fill="#FFFFFF" fill-rule="evenodd" fill-opacity="1"/><path d="M2540.55 536.502C2583.9 536.803 2618.8 571.969 2618.5 615.046 2618.2 657.91 2583.14 692.5 2540 692.5Z" stroke="#000000" stroke-width="4.58333" stroke-linecap="butt" stroke-linejoin="round" stroke-miterlimit="10" stroke-opacity="1" fill="#00B050" fill-rule="evenodd" fill-opacity="0.2"/><path d="M0 0 152.074 208.758" stroke="#000000" stroke-width="4.58333" stroke-linecap="butt" stroke-linejoin="round" stroke-miterlimit="10" stroke-opacity="1" fill="none" fill-rule="evenodd" transform="matrix(1 0 0 -1 2420.5 626.258)"/><path d="M2377.05 404.502C2420.13 404.809 2454.8 440.203 2454.5 483.556 2454.19 526.692 2419.36 561.5 2376.5 561.5Z" stroke="#000000" stroke-width="4.58333" stroke-linecap="butt" stroke-linejoin="round" stroke-miterlimit="10" stroke-opacity="1" fill="#00B050" fill-rule="evenodd" fill-opacity="0.2"/><text fill="#000000" fill-opacity="1" font-family="Calibri,Calibri_MSFontService,sans-serif" font-style="normal" font-variant="normal" font-weight="400" font-stretch="normal" font-size="64" text-anchor="start" direction="ltr" writing-mode="lr-tb" unicode-bidi="normal" text-decoration="none" transform="matrix(1 0 0 1 2152.93 925)">FPR = </text><rect x="2540.5" y="871.5" width="126" height="177" stroke="#000000" stroke-width="4.58333" stroke-linecap="butt" stroke-linejoin="round" stroke-miterlimit="10" stroke-opacity="1" fill="#00B050" fill-opacity="0.2"/><path d="M2665.95 1038.5C2622.87 1038.19 2588.2 1002.8 2588.5 959.444 2588.81 916.307 2623.64 881.5 2666.5 881.5Z" stroke="#000000" stroke-width="4.58333" stroke-linecap="butt" stroke-linejoin="round" stroke-miterlimit="10" stroke-opacity="1" fill="#FFFFFF" fill-rule="evenodd" fill-opacity="1"/><path d="M2665.45 1038.5C2622.09 1038.19 2587.2 1002.8 2587.5 959.447 2587.81 916.31 2622.86 881.5 2666 881.5Z" stroke="#000000" stroke-width="4.58333" stroke-linecap="butt" stroke-linejoin="round" stroke-miterlimit="10" stroke-opacity="1" fill="#FF0000" fill-rule="evenodd" fill-opacity="0.2"/><path d="M2435.95 919.498C2392.87 919.195 2358.2 884.028 2358.5 840.951 2358.8 798.088 2393.64 763.5 2436.5 763.5Z" stroke="#000000" stroke-width="4.58333" stroke-linecap="butt" stroke-linejoin="round" stroke-miterlimit="10" stroke-opacity="1" fill="#FF0000" fill-rule="evenodd" fill-opacity="0.2"/><text fill="#000000" fill-opacity="1" font-family="Calibri,Calibri_MSFontService,sans-serif" font-style="normal" font-variant="normal" font-weight="400" font-stretch="normal" font-size="64" text-anchor="start" direction="ltr" writing-mode="lr-tb" unicode-bidi="normal" text-decoration="none" transform="matrix(1 0 0 1 2016.31 1304)">Precision = </text><path d="M2588.55 1253.5C2631.91 1253.81 2666.8 1289.2 2666.5 1332.55 2666.19 1375.69 2631.14 1410.5 2588 1410.5Z" stroke="#000000" stroke-width="4.58333" stroke-linecap="butt" stroke-linejoin="round" stroke-miterlimit="10" stroke-opacity="1" fill="#00B050" fill-rule="evenodd" fill-opacity="0.2"/><path d="M2587.45 1410.5C2544.09 1410.19 2509.2 1374.8 2509.5 1331.45 2509.81 1288.31 2544.86 1253.5 2588 1253.5Z" stroke="#000000" stroke-width="4.58333" stroke-linecap="butt" stroke-linejoin="round" stroke-miterlimit="10" stroke-opacity="1" fill="#FF0000" fill-rule="evenodd" fill-opacity="0.2"/><path d="M0 0 152.074 208.758" stroke="#000000" stroke-width="4.58333" stroke-linecap="butt" stroke-linejoin="round" stroke-miterlimit="10" stroke-opacity="1" fill="none" fill-rule="evenodd" transform="matrix(1 0 0 -1 2414.5 997.258)"/><path d="M0 0 152.074 208.758" stroke="#000000" stroke-width="4.58333" stroke-linecap="butt" stroke-linejoin="round" stroke-miterlimit="10" stroke-opacity="1" fill="none" fill-rule="evenodd" transform="matrix(1 0 0 -1 2427.5 1361.26)"/><path d="M2375.05 1148.5C2418.13 1148.81 2452.8 1184.2 2452.5 1227.56 2452.19 1270.69 2417.36 1305.5 2374.5 1305.5Z" stroke="#000000" stroke-width="4.58333" stroke-linecap="butt" stroke-linejoin="round" stroke-miterlimit="10" stroke-opacity="1" fill="#00B050" fill-rule="evenodd" fill-opacity="0.2"/></g></g></svg>