<svg width="1526" height="637" xmlns="http://www.w3.org/2000/svg" xmlns:xlink="http://www.w3.org/1999/xlink" xml:space="preserve" overflow="hidden"><g transform="translate(-719 -527)"><g><path d="M721 694C721 602.873 794.873 529 886 529 977.127 529 1051 602.873 1051 694 1051 785.127 977.127 859 886 859 794.873 859 721 785.127 721 694Z" fill="#EF8600" fill-rule="evenodd" fill-opacity="0.501961"/><text fill="#FFFFFF" fill-opacity="1" font-family="Cambria Math,Cambria Math_MSFontService,sans-serif" font-style="normal" font-variant="normal" font-weight="400" font-stretch="normal" font-size="83" text-anchor="start" direction="ltr" writing-mode="lr-tb" unicode-bidi="normal" text-decoration="none" transform="matrix(1 0 0 1 832.354 724)">𝐸</text><text fill="#FFFFFF" fill-opacity="1" font-family="Cambria Math,Cambria Math_MSFontService,sans-serif" font-style="normal" font-variant="normal" font-weight="400" font-stretch="normal" font-size="60" text-anchor="start" direction="ltr" writing-mode="lr-tb" unicode-bidi="normal" text-decoration="none" transform="matrix(1 0 0 1 877.591 741)">1</text><path d="M843 928C843 836.873 916.873 763 1008 763 1099.13 763 1173 836.873 1173 928 1173 1019.13 1099.13 1093 1008 1093 916.873 1093 843 1019.13 843 928Z" fill="#7A81FF" fill-rule="evenodd" fill-opacity="0.501961"/><text fill="#FFFFFF" fill-opacity="1" font-family="Cambria Math,Cambria Math_MSFontService,sans-serif" font-style="normal" font-variant="normal" font-weight="400" font-stretch="normal" font-size="83" text-anchor="start" direction="ltr" writing-mode="lr-tb" unicode-bidi="normal" text-decoration="none" transform="matrix(1 0 0 1 953.75 959)">𝐸</text><text fill="#FFFFFF" fill-opacity="1" font-family="Cambria Math,Cambria Math_MSFontService,sans-serif" font-style="normal" font-variant="normal" font-weight="400" font-stretch="normal" font-size="60" text-anchor="start" direction="ltr" writing-mode="lr-tb" unicode-bidi="normal" text-decoration="none" transform="matrix(1 0 0 1 1000.89 975)">3</text><path d="M980 694C980 602.873 1053.87 529 1145 529 1236.13 529 1310 602.873 1310 694 1310 785.127 1236.13 859 1145 859 1053.87 859 980 785.127 980 694Z" fill="#00B050" fill-rule="evenodd" fill-opacity="0.501961"/><text fill="#FFFFFF" fill-opacity="1" font-family="Cambria Math,Cambria Math_MSFontService,sans-serif" font-style="normal" font-variant="normal" font-weight="400" font-stretch="normal" font-size="83" text-anchor="start" direction="ltr" writing-mode="lr-tb" unicode-bidi="normal" text-decoration="none" transform="matrix(1 0 0 1 1090.69 724)">𝐸</text><text fill="#FFFFFF" fill-opacity="1" font-family="Cambria Math,Cambria Math_MSFontService,sans-serif" font-style="normal" font-variant="normal" font-weight="400" font-stretch="normal" font-size="60" text-anchor="start" direction="ltr" writing-mode="lr-tb" unicode-bidi="normal" text-decoration="none" transform="matrix(1 0 0 1 1137.83 741)">2</text><path d="M1534 694C1534 602.873 1607.87 529 1699 529 1790.13 529 1864 602.873 1864 694 1864 785.127 1790.13 859 1699 859 1607.87 859 1534 785.127 1534 694Z" fill="#EF8600" fill-rule="evenodd" fill-opacity="0.501961"/><text fill="#FFFFFF" fill-opacity="1" font-family="Cambria Math,Cambria Math_MSFontService,sans-serif" font-style="normal" font-variant="normal" font-weight="400" font-stretch="normal" font-size="83" text-anchor="start" direction="ltr" writing-mode="lr-tb" unicode-bidi="normal" text-decoration="none" transform="matrix(1 0 0 1 1646.13 724)">𝐸</text><text fill="#FFFFFF" fill-opacity="1" font-family="Cambria Math,Cambria Math_MSFontService,sans-serif" font-style="normal" font-variant="normal" font-weight="400" font-stretch="normal" font-size="60" text-anchor="start" direction="ltr" writing-mode="lr-tb" unicode-bidi="normal" text-decoration="none" transform="matrix(1 0 0 1 1691.37 741)">1</text><path d="M1724 999C1724 907.873 1797.87 834 1889 834 1980.13 834 2054 907.873 2054 999 2054 1090.13 1980.13 1164 1889 1164 1797.87 1164 1724 1090.13 1724 999Z" fill="#7A81FF" fill-rule="evenodd" fill-opacity="0.501961"/><text fill="#FFFFFF" fill-opacity="1" font-family="Cambria Math,Cambria Math_MSFontService,sans-serif" font-style="normal" font-variant="normal" font-weight="400" font-stretch="normal" font-size="83" text-anchor="start" direction="ltr" writing-mode="lr-tb" unicode-bidi="normal" text-decoration="none" transform="matrix(1 0 0 1 1834.31 1030)">𝐸</text><text fill="#FFFFFF" fill-opacity="1" font-family="Cambria Math,Cambria Math_MSFontService,sans-serif" font-style="normal" font-variant="normal" font-weight="400" font-stretch="normal" font-size="60" text-anchor="start" direction="ltr" writing-mode="lr-tb" unicode-bidi="normal" text-decoration="none" transform="matrix(1 0 0 1 1881.45 1047)">3</text><path d="M1913 694C1913 602.873 1986.87 529 2078 529 2169.13 529 2243 602.873 2243 694 2243 785.127 2169.13 859 2078 859 1986.87 859 1913 785.127 1913 694Z" fill="#00B050" fill-rule="evenodd" fill-opacity="0.501961"/><text fill="#FFFFFF" fill-opacity="1" font-family="Cambria Math,Cambria Math_MSFontService,sans-serif" font-style="normal" font-variant="normal" font-weight="400" font-stretch="normal" font-size="83" text-anchor="start" direction="ltr" writing-mode="lr-tb" unicode-bidi="normal" text-decoration="none" transform="matrix(1 0 0 1 2023.44 724)">𝐸</text><text fill="#FFFFFF" fill-opacity="1" font-family="Cambria Math,Cambria Math_MSFontService,sans-serif" font-style="normal" font-variant="normal" font-weight="400" font-stretch="normal" font-size="60" text-anchor="start" direction="ltr" writing-mode="lr-tb" unicode-bidi="normal" text-decoration="none" transform="matrix(1 0 0 1 2070.58 741)">2</text></g></g></svg>