<svg width="2613" height="921" xmlns="http://www.w3.org/2000/svg" xmlns:xlink="http://www.w3.org/1999/xlink" xml:space="preserve" overflow="hidden"><defs><clipPath id="clip0"><rect x="334" y="467" width="2613" height="921"/></clipPath><clipPath id="clip1"><rect x="334" y="467" width="2613" height="921"/></clipPath><clipPath id="clip2"><rect x="1705" y="469" width="1238" height="917"/></clipPath><clipPath id="clip3"><rect x="1705" y="469" width="1238" height="917"/></clipPath><clipPath id="clip4"><rect x="1705" y="469" width="1238" height="917"/></clipPath><clipPath id="clip5"><rect x="1904" y="555" width="1022" height="692"/></clipPath></defs><g clip-path="url(#clip0)" transform="translate(-334 -467)"><g clip-path="url(#clip1)"><g clip-path="url(#clip2)"><g clip-path="url(#clip3)"><g clip-path="url(#clip4)"><path d="M0 915.64 1235.9 915.64 1235.9 0 0 0Z" fill="#FFFFFF" fill-rule="nonzero" fill-opacity="1" transform="matrix(1 0 0 1.00039 1706.05 470)"/><path d="M198.615 776.59 1219.46 776.59 1219.46 85.4584 198.615 85.4584Z" fill="#FFFFFF" fill-rule="nonzero" fill-opacity="1" transform="matrix(1 0 0 1.00039 1706.05 470)"/><path d="M0 0 0-13.6966" stroke="#000000" stroke-width="2.28277" stroke-linecap="butt" stroke-linejoin="round" stroke-miterlimit="4" stroke-opacity="1" fill="none" fill-rule="nonzero" transform="matrix(1 0 0 1.00039 1950.14 1246.9)"/><path d="M0 0 0 13.6966" stroke="#000000" stroke-width="2.28277" stroke-linecap="butt" stroke-linejoin="round" stroke-miterlimit="4" stroke-opacity="1" fill="none" fill-rule="nonzero" transform="matrix(1 0 0 1.00039 1950.14 555.492)"/><path d="M14.5099 1.56227C16.7879 1.56227 18.4905 2.81066 19.6176 5.30744 20.7494 7.80423 21.3154 11.5708 21.3154 16.6072 21.3154 21.6626 20.7494 25.4386 19.6176 27.9354 18.4905 30.4322 16.7879 31.6806 14.5099 31.6806 12.2366 31.6806 10.534 30.4322 9.40217 27.9354 8.27505 25.4386 7.71149 21.6626 7.71149 16.6072 7.71149 11.5708 8.27505 7.80423 9.40217 5.30744 10.534 2.81066 12.2366 1.56227 14.5099 1.56227ZM14.5099-0.649163C10.9002-0.649163 8.08006 0.865551 6.04935 3.89498 4.02339 6.92916 3.01041 11.1666 3.01041 16.6072 3.01041 22.062 4.02339 26.3042 6.04935 29.3336 8.08006 32.3678 10.9002 33.8849 14.5099 33.8849 18.1385 33.8849 20.9635 32.3678 22.9847 29.3336 25.0059 26.3042 26.0165 22.062 26.0165 16.6072 26.0165 11.1666 25.0059 6.92916 22.9847 3.89498 20.9635 0.865551 18.1385-0.649163 14.5099-0.649163Z" fill="#000000" fill-rule="nonzero" fill-opacity="1" transform="matrix(1 0 0 -1.00039 1935.61 1297.59)"/><path d="M0 0 0-13.6966" stroke="#000000" stroke-width="2.28277" stroke-linecap="butt" stroke-linejoin="round" stroke-miterlimit="4" stroke-opacity="1" fill="none" fill-rule="nonzero" transform="matrix(1 0 0 1.00039 2135.93 1246.9)"/><path d="M0 0 0 13.6966" stroke="#000000" stroke-width="2.28277" stroke-linecap="butt" stroke-linejoin="round" stroke-miterlimit="4" stroke-opacity="1" fill="none" fill-rule="nonzero" transform="matrix(1 0 0 1.00039 2135.93 555.492)"/><path d="M5.84247 25.3459 3.34569 25.3459 3.34569 31.274C4.93412 32.1253 6.53443 32.772 8.14664 33.2143 9.75885 33.6614 11.3378 33.8849 12.8834 33.8849 16.3456 33.8849 19.0802 33.0455 21.0871 31.3667 23.094 29.6879 24.0975 27.4075 24.0975 24.5255 24.0975 21.2678 21.8242 17.3728 17.2777 12.8406 16.921 12.4982 16.6523 12.239 16.4716 12.063L8.06817 3.65957 21.9574 3.65957 21.9574 7.76142 24.5683 7.76142 24.5683 0 3.09601 0 3.09601 2.43258 13.1973 12.5053C15.4277 14.7358 17.0185 16.7831 17.9697 18.6474 18.9208 20.5117 19.3964 22.471 19.3964 24.5255 19.3964 26.7655 18.8115 28.518 17.6415 29.783 16.4764 31.0481 14.8689 31.6806 12.8192 31.6806 10.6934 31.6806 9.05024 31.1527 7.88983 30.0969 6.73418 29.0411 6.05172 27.4575 5.84247 25.3459Z" fill="#000000" fill-rule="nonzero" fill-opacity="1" transform="matrix(1 0 0 -1.00039 2121.41 1297.59)"/><path d="M0 0 0-13.6966" stroke="#000000" stroke-width="2.28277" stroke-linecap="butt" stroke-linejoin="round" stroke-miterlimit="4" stroke-opacity="1" fill="none" fill-rule="nonzero" transform="matrix(1 0 0 1.00039 2321.73 1246.9)"/><path d="M0 0 0 13.6966" stroke="#000000" stroke-width="2.28277" stroke-linecap="butt" stroke-linejoin="round" stroke-miterlimit="4" stroke-opacity="1" fill="none" fill-rule="nonzero" transform="matrix(1 0 0 1.00039 2321.73 555.492)"/><path d="M15.9366 11.2783 15.9366 28.9841 4.57268 11.2783 15.9366 11.2783ZM25.7454 0 10.5864 0 10.5864 2.36124 15.9366 2.36124 15.9366 8.89568 1.40533 8.89568 1.40533 11.3283 15.9865 33.8849 20.3951 33.8849 20.3951 11.2783 26.7512 11.2783 26.7512 8.89568 20.3951 8.89568 20.3951 2.36124 25.7454 2.36124 25.7454 0Z" fill="#000000" fill-rule="nonzero" fill-opacity="1" transform="matrix(1 0 0 -1.00039 2307.2 1297.59)"/><path d="M0 0 0-13.6966" stroke="#000000" stroke-width="2.28277" stroke-linecap="butt" stroke-linejoin="round" stroke-miterlimit="4" stroke-opacity="1" fill="none" fill-rule="nonzero" transform="matrix(1 0 0 1.00039 2507.52 1246.9)"/><path d="M0 0 0 13.6966" stroke="#000000" stroke-width="2.28277" stroke-linecap="butt" stroke-linejoin="round" stroke-miterlimit="4" stroke-opacity="1" fill="none" fill-rule="nonzero" transform="matrix(1 0 0 1.00039 2507.52 555.492)"/><path d="M14.9379 1.56227C17.0304 1.56227 18.6403 2.33033 19.7674 3.86644 20.8993 5.40732 21.4652 7.61875 21.4652 10.5008 21.4652 13.3828 20.8993 15.5918 19.7674 17.1279 18.6403 18.6688 17.0304 19.4392 14.9379 19.4392 12.8121 19.4392 11.1903 18.695 10.0727 17.2064 8.95988 15.7226 8.40345 13.5754 8.40345 10.7647 8.40345 7.81136 8.96701 5.5381 10.0941 3.94492 11.226 2.35649 12.8406 1.56227 14.9379 1.56227ZM7.66869 18.3264C8.68167 19.4392 9.82543 20.2691 11.1 20.816 12.3793 21.3677 13.8227 21.6435 15.4301 21.6435 18.7401 21.6435 21.3582 20.6472 23.2843 18.6545 25.2104 16.6666 26.1734 13.9487 26.1734 10.5008 26.1734 7.12891 25.1366 4.42763 23.0631 2.39691 20.9896 0.366195 18.2218-0.649163 14.7595-0.649163 10.9977-0.649163 8.10622 0.751412 6.08501 3.55256 4.06381 6.35847 3.05321 10.3605 3.05321 15.5585 3.05321 21.3843 4.24928 25.8952 6.64144 29.0911 9.03359 32.287 12.4078 33.8849 16.7641 33.8849 17.9388 33.8849 19.1729 33.7731 20.4665 33.5496 21.76 33.3261 23.0822 32.9932 24.4328 32.5509L24.4328 27.0651 21.9146 27.0651C21.7339 28.5632 21.1608 29.7069 20.1954 30.4964 19.23 31.2859 17.9293 31.6806 16.2933 31.6806 13.4113 31.6806 11.2641 30.5868 9.85159 28.3991 8.43912 26.2162 7.71149 22.8586 7.66869 18.3264Z" fill="#000000" fill-rule="nonzero" fill-opacity="1" transform="matrix(1 0 0 -1.00039 2493 1297.59)"/><path d="M0 0 0-13.6966" stroke="#000000" stroke-width="2.28277" stroke-linecap="butt" stroke-linejoin="round" stroke-miterlimit="4" stroke-opacity="1" fill="none" fill-rule="nonzero" transform="matrix(1 0 0 1.00039 2693.32 1246.9)"/><path d="M0 0 0 13.6966" stroke="#000000" stroke-width="2.28277" stroke-linecap="butt" stroke-linejoin="round" stroke-miterlimit="4" stroke-opacity="1" fill="none" fill-rule="nonzero" transform="matrix(1 0 0 1.00039 2693.32 555.492)"/><path d="M21.2654 9.09542C21.2654 11.4733 20.6734 13.3185 19.4892 14.6311 18.3097 15.9485 16.65 16.6072 14.5099 16.6072 12.3698 16.6072 10.71 15.9485 9.53057 14.6311 8.35114 13.3185 7.76142 11.4733 7.76142 9.09542 7.76142 6.70326 8.35114 4.84851 9.53057 3.53116 10.71 2.21857 12.3698 1.56227 14.5099 1.56227 16.65 1.56227 18.3097 2.21857 19.4892 3.53116 20.6734 4.84851 21.2654 6.70326 21.2654 9.09542ZM20.3523 25.2603C20.3523 27.2815 19.8387 28.8557 18.8115 29.9828 17.789 31.1147 16.3551 31.6806 14.5099 31.6806 12.6837 31.6806 11.2545 31.1147 10.2225 29.9828 9.19054 28.8557 8.67453 27.2815 8.67453 25.2603 8.67453 23.2248 9.19054 21.6412 10.2225 20.5093 11.2545 19.3822 12.6837 18.8186 14.5099 18.8186 16.3551 18.8186 17.789 19.3822 18.8115 20.5093 19.8387 21.6412 20.3523 23.2248 20.3523 25.2603ZM17.9483 17.72C20.4736 17.3824 22.4425 16.4502 23.855 14.9236 25.2674 13.4018 25.9737 11.459 25.9737 9.09542 25.9737 5.97563 24.9845 3.57159 23.0061 1.88329 21.0277 0.194987 18.1956-0.649163 14.5099-0.649163 10.8432-0.649163 8.01586 0.194987 6.02794 1.88329 4.04479 3.57159 3.05321 5.97563 3.05321 9.09542 3.05321 11.459 3.75944 13.4018 5.17191 14.9236 6.58437 16.4502 8.56039 17.3824 11.1 17.72 8.85525 18.1243 7.13366 18.9755 5.93521 20.2739 4.74151 21.577 4.14466 23.2391 4.14466 25.2603 4.14466 27.933 5.0649 30.0375 6.90539 31.5736 8.75063 33.1145 11.2855 33.8849 14.5099 33.8849 17.739 33.8849 20.2739 33.1145 22.1144 31.5736 23.9596 30.0375 24.8822 27.933 24.8822 25.2603 24.8822 23.2391 24.283 21.577 23.0845 20.2739 21.8861 18.9755 20.174 18.1243 17.9483 17.72Z" fill="#000000" fill-rule="nonzero" fill-opacity="1" transform="matrix(1 0 0 -1.00039 2678.79 1297.59)"/><path d="M0 0 0-13.6966" stroke="#000000" stroke-width="2.28277" stroke-linecap="butt" stroke-linejoin="round" stroke-miterlimit="4" stroke-opacity="1" fill="none" fill-rule="nonzero" transform="matrix(1 0 0 1.00039 2879.11 1246.9)"/><path d="M0 0 0 13.6966" stroke="#000000" stroke-width="2.28277" stroke-linecap="butt" stroke-linejoin="round" stroke-miterlimit="4" stroke-opacity="1" fill="none" fill-rule="nonzero" transform="matrix(1 0 0 1.00039 2879.11 555.492)"/><path d="M6.4845 0 6.4845 2.36124 12.2842 2.36124 12.2842 30.0541 5.57139 25.7026 5.57139 28.6274 13.6895 33.8849 16.7641 33.8849 16.7641 2.36124 22.5638 2.36124 22.5638 0 6.4845 0Z" fill="#000000" fill-rule="nonzero" fill-opacity="1" transform="matrix(1 0 0 -1.00039 2850.06 1297.59)"/><path d="M14.5099 1.56227C16.7879 1.56227 18.4905 2.81066 19.6176 5.30744 20.7494 7.80423 21.3154 11.5708 21.3154 16.6072 21.3154 21.6626 20.7494 25.4386 19.6176 27.9354 18.4905 30.4322 16.7879 31.6806 14.5099 31.6806 12.2366 31.6806 10.534 30.4322 9.40217 27.9354 8.27505 25.4386 7.71149 21.6626 7.71149 16.6072 7.71149 11.5708 8.27505 7.80423 9.40217 5.30744 10.534 2.81066 12.2366 1.56227 14.5099 1.56227ZM14.5099-0.649163C10.9002-0.649163 8.08006 0.865551 6.04935 3.89498 4.02339 6.92916 3.01041 11.1666 3.01041 16.6072 3.01041 22.062 4.02339 26.3042 6.04935 29.3336 8.08006 32.3678 10.9002 33.8849 14.5099 33.8849 18.1385 33.8849 20.9635 32.3678 22.9847 29.3336 25.0059 26.3042 26.0165 22.062 26.0165 16.6072 26.0165 11.1666 25.0059 6.92916 22.9847 3.89498 20.9635 0.865551 18.1385-0.649163 14.5099-0.649163Z" fill="#000000" fill-rule="nonzero" fill-opacity="1" transform="matrix(1 0 0 -1.00039 2879.11 1297.59)"/><path d="M0 0 0-6.84832" stroke="#000000" stroke-width="2.28277" stroke-linecap="butt" stroke-linejoin="round" stroke-miterlimit="4" stroke-opacity="1" fill="none" fill-rule="nonzero" transform="matrix(1 0 0 1.00039 1996.59 1246.9)"/><path d="M0 0 0 6.84832" stroke="#000000" stroke-width="2.28277" stroke-linecap="butt" stroke-linejoin="round" stroke-miterlimit="4" stroke-opacity="1" fill="none" fill-rule="nonzero" transform="matrix(1 0 0 1.00039 1996.59 555.492)"/><path d="M0 0 0-6.84832" stroke="#000000" stroke-width="2.28277" stroke-linecap="butt" stroke-linejoin="round" stroke-miterlimit="4" stroke-opacity="1" fill="none" fill-rule="nonzero" transform="matrix(1 0 0 1.00039 2043.04 1246.9)"/><path d="M0 0 0 6.84832" stroke="#000000" stroke-width="2.28277" stroke-linecap="butt" stroke-linejoin="round" stroke-miterlimit="4" stroke-opacity="1" fill="none" fill-rule="nonzero" transform="matrix(1 0 0 1.00039 2043.04 555.492)"/><path d="M0 0 0-6.84832" stroke="#000000" stroke-width="2.28277" stroke-linecap="butt" stroke-linejoin="round" stroke-miterlimit="4" stroke-opacity="1" fill="none" fill-rule="nonzero" transform="matrix(1 0 0 1.00039 2089.48 1246.9)"/><path d="M0 0 0 6.84832" stroke="#000000" stroke-width="2.28277" stroke-linecap="butt" stroke-linejoin="round" stroke-miterlimit="4" stroke-opacity="1" fill="none" fill-rule="nonzero" transform="matrix(1 0 0 1.00039 2089.48 555.492)"/><path d="M0 0 0-6.84832" stroke="#000000" stroke-width="2.28277" stroke-linecap="butt" stroke-linejoin="round" stroke-miterlimit="4" stroke-opacity="1" fill="none" fill-rule="nonzero" transform="matrix(1 0 0 1.00039 2182.38 1246.9)"/><path d="M0 0 0 6.84832" stroke="#000000" stroke-width="2.28277" stroke-linecap="butt" stroke-linejoin="round" stroke-miterlimit="4" stroke-opacity="1" fill="none" fill-rule="nonzero" transform="matrix(1 0 0 1.00039 2182.38 555.492)"/><path d="M0 0 0-6.84832" stroke="#000000" stroke-width="2.28277" stroke-linecap="butt" stroke-linejoin="round" stroke-miterlimit="4" stroke-opacity="1" fill="none" fill-rule="nonzero" transform="matrix(1 0 0 1.00039 2228.83 1246.9)"/><path d="M0 0 0 6.84832" stroke="#000000" stroke-width="2.28277" stroke-linecap="butt" stroke-linejoin="round" stroke-miterlimit="4" stroke-opacity="1" fill="none" fill-rule="nonzero" transform="matrix(1 0 0 1.00039 2228.83 555.492)"/><path d="M0 0 0-6.84832" stroke="#000000" stroke-width="2.28277" stroke-linecap="butt" stroke-linejoin="round" stroke-miterlimit="4" stroke-opacity="1" fill="none" fill-rule="nonzero" transform="matrix(1 0 0 1.00039 2275.28 1246.9)"/><path d="M0 0 0 6.84832" stroke="#000000" stroke-width="2.28277" stroke-linecap="butt" stroke-linejoin="round" stroke-miterlimit="4" stroke-opacity="1" fill="none" fill-rule="nonzero" transform="matrix(1 0 0 1.00039 2275.28 555.492)"/><path d="M0 0 0-6.84832" stroke="#000000" stroke-width="2.28277" stroke-linecap="butt" stroke-linejoin="round" stroke-miterlimit="4" stroke-opacity="1" fill="none" fill-rule="nonzero" transform="matrix(1 0 0 1.00039 2368.18 1246.9)"/><path d="M0 0 0 6.84832" stroke="#000000" stroke-width="2.28277" stroke-linecap="butt" stroke-linejoin="round" stroke-miterlimit="4" stroke-opacity="1" fill="none" fill-rule="nonzero" transform="matrix(1 0 0 1.00039 2368.18 555.492)"/><path d="M0 0 0-6.84832" stroke="#000000" stroke-width="2.28277" stroke-linecap="butt" stroke-linejoin="round" stroke-miterlimit="4" stroke-opacity="1" fill="none" fill-rule="nonzero" transform="matrix(1 0 0 1.00039 2414.63 1246.9)"/><path d="M0 0 0 6.84832" stroke="#000000" stroke-width="2.28277" stroke-linecap="butt" stroke-linejoin="round" stroke-miterlimit="4" stroke-opacity="1" fill="none" fill-rule="nonzero" transform="matrix(1 0 0 1.00039 2414.63 555.492)"/><path d="M0 0 0-6.84832" stroke="#000000" stroke-width="2.28277" stroke-linecap="butt" stroke-linejoin="round" stroke-miterlimit="4" stroke-opacity="1" fill="none" fill-rule="nonzero" transform="matrix(1 0 0 1.00039 2461.07 1246.9)"/><path d="M0 0 0 6.84832" stroke="#000000" stroke-width="2.28277" stroke-linecap="butt" stroke-linejoin="round" stroke-miterlimit="4" stroke-opacity="1" fill="none" fill-rule="nonzero" transform="matrix(1 0 0 1.00039 2461.07 555.492)"/><path d="M0 0 0-6.84832" stroke="#000000" stroke-width="2.28277" stroke-linecap="butt" stroke-linejoin="round" stroke-miterlimit="4" stroke-opacity="1" fill="none" fill-rule="nonzero" transform="matrix(1 0 0 1.00039 2553.97 1246.9)"/><path d="M0 0 0 6.84832" stroke="#000000" stroke-width="2.28277" stroke-linecap="butt" stroke-linejoin="round" stroke-miterlimit="4" stroke-opacity="1" fill="none" fill-rule="nonzero" transform="matrix(1 0 0 1.00039 2553.97 555.492)"/><path d="M0 0 0-6.84832" stroke="#000000" stroke-width="2.28277" stroke-linecap="butt" stroke-linejoin="round" stroke-miterlimit="4" stroke-opacity="1" fill="none" fill-rule="nonzero" transform="matrix(1 0 0 1.00039 2600.42 1246.9)"/><path d="M0 0 0 6.84832" stroke="#000000" stroke-width="2.28277" stroke-linecap="butt" stroke-linejoin="round" stroke-miterlimit="4" stroke-opacity="1" fill="none" fill-rule="nonzero" transform="matrix(1 0 0 1.00039 2600.42 555.492)"/><path d="M0 0 0-6.84832" stroke="#000000" stroke-width="2.28277" stroke-linecap="butt" stroke-linejoin="round" stroke-miterlimit="4" stroke-opacity="1" fill="none" fill-rule="nonzero" transform="matrix(1 0 0 1.00039 2646.87 1246.9)"/><path d="M0 0 0 6.84832" stroke="#000000" stroke-width="2.28277" stroke-linecap="butt" stroke-linejoin="round" stroke-miterlimit="4" stroke-opacity="1" fill="none" fill-rule="nonzero" transform="matrix(1 0 0 1.00039 2646.87 555.492)"/><path d="M0 0 0-6.84832" stroke="#000000" stroke-width="2.28277" stroke-linecap="butt" stroke-linejoin="round" stroke-miterlimit="4" stroke-opacity="1" fill="none" fill-rule="nonzero" transform="matrix(1 0 0 1.00039 2739.77 1246.9)"/><path d="M0 0 0 6.84832" stroke="#000000" stroke-width="2.28277" stroke-linecap="butt" stroke-linejoin="round" stroke-miterlimit="4" stroke-opacity="1" fill="none" fill-rule="nonzero" transform="matrix(1 0 0 1.00039 2739.77 555.492)"/><path d="M0 0 0-6.84832" stroke="#000000" stroke-width="2.28277" stroke-linecap="butt" stroke-linejoin="round" stroke-miterlimit="4" stroke-opacity="1" fill="none" fill-rule="nonzero" transform="matrix(1 0 0 1.00039 2786.21 1246.9)"/><path d="M0 0 0 6.84832" stroke="#000000" stroke-width="2.28277" stroke-linecap="butt" stroke-linejoin="round" stroke-miterlimit="4" stroke-opacity="1" fill="none" fill-rule="nonzero" transform="matrix(1 0 0 1.00039 2786.21 555.492)"/><path d="M0 0 0-6.84832" stroke="#000000" stroke-width="2.28277" stroke-linecap="butt" stroke-linejoin="round" stroke-miterlimit="4" stroke-opacity="1" fill="none" fill-rule="nonzero" transform="matrix(1 0 0 1.00039 2832.66 1246.9)"/><path d="M0 0 0 6.84832" stroke="#000000" stroke-width="2.28277" stroke-linecap="butt" stroke-linejoin="round" stroke-miterlimit="4" stroke-opacity="1" fill="none" fill-rule="nonzero" transform="matrix(1 0 0 1.00039 2832.66 555.492)"/><path d="M22.7635 22.5138 21.8932 18.1266 19.3964 17.5702C19.4678 18.8923 19.0374 19.8934 18.1052 20.5735 17.1683 21.244 16.0008 21.5793 14.6026 21.5793 13.2044 21.5793 11.918 21.2155 10.7433 20.4879 9.55435 19.746 8.86476 18.8685 8.67453 17.8556 8.42248 16.5477 8.84574 15.5157 9.94433 14.7595 11.0572 13.9844 12.6028 13.5968 14.5812 13.5968L15.6513 13.5968 15.2018 11.2569 13.1545 11.2569C11.1618 11.2569 9.42357 10.7813 7.93977 9.83019 6.43694 8.86476 5.52859 7.57119 5.21471 5.94947 4.97692 4.70346 5.40018 3.61201 6.4845 2.67512 7.57357 1.72397 8.94086 1.24839 10.5864 1.24839 12.3127 1.24839 13.8774 1.64074 15.2803 2.42545 16.688 3.2149 17.613 4.36818 18.0553 5.88527L20.3523 5.32885 19.4606 0.734767C17.7818 0.20212 16.1102-0.199743 14.4457-0.470822 12.8097-0.737145 11.421-0.870307 10.2796-0.870307 7.35005-0.870307 4.98643-0.282969 3.18875 0.891708 1.4196 2.08065 0.751412 3.78322 1.18419 5.99941 1.62647 8.32974 2.67988 10.068 4.3444 11.2141 5.22422 11.7943 6.79362 12.2319 9.05262 12.5267L5.90667 14.2887C4.80809 14.9117 4.44427 16.1673 4.81522 18.0553 5.18617 19.9719 6.19677 21.4367 7.84703 22.4496 9.49728 23.4436 11.7777 23.9406 14.6882 23.9406 15.4919 23.9406 16.6452 23.8217 18.148 23.5839 19.6461 23.3318 21.1846 22.9751 22.7635 22.5138Z" fill="#000000" fill-rule="nonzero" fill-opacity="1" transform="matrix(1 0 0 -1.00039 2402.76 1359.8)"/><path d="M0 0 13.6966 0" stroke="#000000" stroke-width="2.28277" stroke-linecap="butt" stroke-linejoin="round" stroke-miterlimit="4" stroke-opacity="1" fill="none" fill-rule="nonzero" transform="matrix(1 0 0 1.00039 1904.67 1246.9)"/><path d="M0 0-13.6966 0" stroke="#000000" stroke-width="2.28277" stroke-linecap="butt" stroke-linejoin="round" stroke-miterlimit="4" stroke-opacity="1" fill="none" fill-rule="nonzero" transform="matrix(1 0 0 1.00039 2925.51 1246.9)"/><path d="M14.5099 1.56227C16.7879 1.56227 18.4905 2.81066 19.6176 5.30744 20.7494 7.80423 21.3154 11.5708 21.3154 16.6072 21.3154 21.6626 20.7494 25.4386 19.6176 27.9354 18.4905 30.4322 16.7879 31.6806 14.5099 31.6806 12.2366 31.6806 10.534 30.4322 9.40217 27.9354 8.27505 25.4386 7.71149 21.6626 7.71149 16.6072 7.71149 11.5708 8.27505 7.80423 9.40217 5.30744 10.534 2.81066 12.2366 1.56227 14.5099 1.56227ZM14.5099-0.649163C10.9002-0.649163 8.08006 0.865551 6.04935 3.89498 4.02339 6.92916 3.01041 11.1666 3.01041 16.6072 3.01041 22.062 4.02339 26.3042 6.04935 29.3336 8.08006 32.3678 10.9002 33.8849 14.5099 33.8849 18.1385 33.8849 20.9635 32.3678 22.9847 29.3336 25.0059 26.3042 26.0165 22.062 26.0165 16.6072 26.0165 11.1666 25.0059 6.92916 22.9847 3.89498 20.9635 0.865551 18.1385-0.649163 14.5099-0.649163Z" fill="#000000" fill-rule="nonzero" fill-opacity="1" transform="matrix(1 0 0 -1.00039 1816.08 1264.25)"/><path d="M4.3016 2.31844C4.3016 3.1507 4.58457 3.85693 5.1505 4.43714 5.71644 5.01734 6.42267 5.30744 7.2692 5.30744 8.08719 5.30744 8.78392 5.01734 9.35936 4.43714 9.93957 3.85693 10.2297 3.1507 10.2297 2.31844 10.2297 1.50045 9.93957 0.801348 9.35936 0.221144 8.78392-0.359061 8.08719-0.649163 7.2692-0.649163 6.42267-0.649163 5.71644-0.363817 5.1505 0.206876 4.58457 0.782325 4.3016 1.48618 4.3016 2.31844Z" fill="#000000" fill-rule="nonzero" fill-opacity="1" transform="matrix(1 0 0 -1.00039 1845.13 1264.25)"/><path d="M14.5099 1.56227C16.7879 1.56227 18.4905 2.81066 19.6176 5.30744 20.7494 7.80423 21.3154 11.5708 21.3154 16.6072 21.3154 21.6626 20.7494 25.4386 19.6176 27.9354 18.4905 30.4322 16.7879 31.6806 14.5099 31.6806 12.2366 31.6806 10.534 30.4322 9.40217 27.9354 8.27505 25.4386 7.71149 21.6626 7.71149 16.6072 7.71149 11.5708 8.27505 7.80423 9.40217 5.30744 10.534 2.81066 12.2366 1.56227 14.5099 1.56227ZM14.5099-0.649163C10.9002-0.649163 8.08006 0.865551 6.04935 3.89498 4.02339 6.92916 3.01041 11.1666 3.01041 16.6072 3.01041 22.062 4.02339 26.3042 6.04935 29.3336 8.08006 32.3678 10.9002 33.8849 14.5099 33.8849 18.1385 33.8849 20.9635 32.3678 22.9847 29.3336 25.0059 26.3042 26.0165 22.062 26.0165 16.6072 26.0165 11.1666 25.0059 6.92916 22.9847 3.89498 20.9635 0.865551 18.1385-0.649163 14.5099-0.649163Z" fill="#000000" fill-rule="nonzero" fill-opacity="1" transform="matrix(1 0 0 -1.00039 1859.64 1264.25)"/><path d="M0 0 13.6966 0" stroke="#000000" stroke-width="2.28277" stroke-linecap="butt" stroke-linejoin="round" stroke-miterlimit="4" stroke-opacity="1" fill="none" fill-rule="nonzero" transform="matrix(1 0 0 1.00039 1904.67 1108.62)"/><path d="M0 0-13.6966 0" stroke="#000000" stroke-width="2.28277" stroke-linecap="butt" stroke-linejoin="round" stroke-miterlimit="4" stroke-opacity="1" fill="none" fill-rule="nonzero" transform="matrix(1 0 0 1.00039 2925.51 1108.62)"/><path d="M14.5099 1.56227C16.7879 1.56227 18.4905 2.81066 19.6176 5.30744 20.7494 7.80423 21.3154 11.5708 21.3154 16.6072 21.3154 21.6626 20.7494 25.4386 19.6176 27.9354 18.4905 30.4322 16.7879 31.6806 14.5099 31.6806 12.2366 31.6806 10.534 30.4322 9.40217 27.9354 8.27505 25.4386 7.71149 21.6626 7.71149 16.6072 7.71149 11.5708 8.27505 7.80423 9.40217 5.30744 10.534 2.81066 12.2366 1.56227 14.5099 1.56227ZM14.5099-0.649163C10.9002-0.649163 8.08006 0.865551 6.04935 3.89498 4.02339 6.92916 3.01041 11.1666 3.01041 16.6072 3.01041 22.062 4.02339 26.3042 6.04935 29.3336 8.08006 32.3678 10.9002 33.8849 14.5099 33.8849 18.1385 33.8849 20.9635 32.3678 22.9847 29.3336 25.0059 26.3042 26.0165 22.062 26.0165 16.6072 26.0165 11.1666 25.0059 6.92916 22.9847 3.89498 20.9635 0.865551 18.1385-0.649163 14.5099-0.649163Z" fill="#000000" fill-rule="nonzero" fill-opacity="1" transform="matrix(1 0 0 -1.00039 1816.08 1125.97)"/><path d="M4.3016 2.31844C4.3016 3.1507 4.58457 3.85693 5.1505 4.43714 5.71644 5.01734 6.42267 5.30744 7.2692 5.30744 8.08719 5.30744 8.78392 5.01734 9.35936 4.43714 9.93957 3.85693 10.2297 3.1507 10.2297 2.31844 10.2297 1.50045 9.93957 0.801348 9.35936 0.221144 8.78392-0.359061 8.08719-0.649163 7.2692-0.649163 6.42267-0.649163 5.71644-0.363817 5.1505 0.206876 4.58457 0.782325 4.3016 1.48618 4.3016 2.31844Z" fill="#000000" fill-rule="nonzero" fill-opacity="1" transform="matrix(1 0 0 -1.00039 1845.13 1125.97)"/><path d="M5.84247 25.3459 3.34569 25.3459 3.34569 31.274C4.93412 32.1253 6.53443 32.772 8.14664 33.2143 9.75885 33.6614 11.3378 33.8849 12.8834 33.8849 16.3456 33.8849 19.0802 33.0455 21.0871 31.3667 23.094 29.6879 24.0975 27.4075 24.0975 24.5255 24.0975 21.2678 21.8242 17.3728 17.2777 12.8406 16.921 12.4982 16.6523 12.239 16.4716 12.063L8.06817 3.65957 21.9574 3.65957 21.9574 7.76142 24.5683 7.76142 24.5683 0 3.09601 0 3.09601 2.43258 13.1973 12.5053C15.4277 14.7358 17.0185 16.7831 17.9697 18.6474 18.9208 20.5117 19.3964 22.471 19.3964 24.5255 19.3964 26.7655 18.8115 28.518 17.6415 29.783 16.4764 31.0481 14.8689 31.6806 12.8192 31.6806 10.6934 31.6806 9.05024 31.1527 7.88983 30.0969 6.73418 29.0411 6.05172 27.4575 5.84247 25.3459Z" fill="#000000" fill-rule="nonzero" fill-opacity="1" transform="matrix(1 0 0 -1.00039 1859.64 1125.97)"/><path d="M0 0 13.6966 0" stroke="#000000" stroke-width="2.28277" stroke-linecap="butt" stroke-linejoin="round" stroke-miterlimit="4" stroke-opacity="1" fill="none" fill-rule="nonzero" transform="matrix(1 0 0 1.00039 1904.67 970.334)"/><path d="M0 0-13.6966 0" stroke="#000000" stroke-width="2.28277" stroke-linecap="butt" stroke-linejoin="round" stroke-miterlimit="4" stroke-opacity="1" fill="none" fill-rule="nonzero" transform="matrix(1 0 0 1.00039 2925.51 970.334)"/><path d="M14.5099 1.56227C16.7879 1.56227 18.4905 2.81066 19.6176 5.30744 20.7494 7.80423 21.3154 11.5708 21.3154 16.6072 21.3154 21.6626 20.7494 25.4386 19.6176 27.9354 18.4905 30.4322 16.7879 31.6806 14.5099 31.6806 12.2366 31.6806 10.534 30.4322 9.40217 27.9354 8.27505 25.4386 7.71149 21.6626 7.71149 16.6072 7.71149 11.5708 8.27505 7.80423 9.40217 5.30744 10.534 2.81066 12.2366 1.56227 14.5099 1.56227ZM14.5099-0.649163C10.9002-0.649163 8.08006 0.865551 6.04935 3.89498 4.02339 6.92916 3.01041 11.1666 3.01041 16.6072 3.01041 22.062 4.02339 26.3042 6.04935 29.3336 8.08006 32.3678 10.9002 33.8849 14.5099 33.8849 18.1385 33.8849 20.9635 32.3678 22.9847 29.3336 25.0059 26.3042 26.0165 22.062 26.0165 16.6072 26.0165 11.1666 25.0059 6.92916 22.9847 3.89498 20.9635 0.865551 18.1385-0.649163 14.5099-0.649163Z" fill="#000000" fill-rule="nonzero" fill-opacity="1" transform="matrix(1 0 0 -1.00039 1816.08 987.687)"/><path d="M4.3016 2.31844C4.3016 3.1507 4.58457 3.85693 5.1505 4.43714 5.71644 5.01734 6.42267 5.30744 7.2692 5.30744 8.08719 5.30744 8.78392 5.01734 9.35936 4.43714 9.93957 3.85693 10.2297 3.1507 10.2297 2.31844 10.2297 1.50045 9.93957 0.801348 9.35936 0.221144 8.78392-0.359061 8.08719-0.649163 7.2692-0.649163 6.42267-0.649163 5.71644-0.363817 5.1505 0.206876 4.58457 0.782325 4.3016 1.48618 4.3016 2.31844Z" fill="#000000" fill-rule="nonzero" fill-opacity="1" transform="matrix(1 0 0 -1.00039 1845.13 987.687)"/><path d="M15.9366 11.2783 15.9366 28.9841 4.57268 11.2783 15.9366 11.2783ZM25.7454 0 10.5864 0 10.5864 2.36124 15.9366 2.36124 15.9366 8.89568 1.40533 8.89568 1.40533 11.3283 15.9865 33.8849 20.3951 33.8849 20.3951 11.2783 26.7512 11.2783 26.7512 8.89568 20.3951 8.89568 20.3951 2.36124 25.7454 2.36124 25.7454 0Z" fill="#000000" fill-rule="nonzero" fill-opacity="1" transform="matrix(1 0 0 -1.00039 1859.64 987.687)"/><path d="M0 0 13.6966 0" stroke="#000000" stroke-width="2.28277" stroke-linecap="butt" stroke-linejoin="round" stroke-miterlimit="4" stroke-opacity="1" fill="none" fill-rule="nonzero" transform="matrix(1 0 0 1.00039 1904.67 832.054)"/><path d="M0 0-13.6966 0" stroke="#000000" stroke-width="2.28277" stroke-linecap="butt" stroke-linejoin="round" stroke-miterlimit="4" stroke-opacity="1" fill="none" fill-rule="nonzero" transform="matrix(1 0 0 1.00039 2925.51 832.054)"/><path d="M14.5099 1.56227C16.7879 1.56227 18.4905 2.81066 19.6176 5.30744 20.7494 7.80423 21.3154 11.5708 21.3154 16.6072 21.3154 21.6626 20.7494 25.4386 19.6176 27.9354 18.4905 30.4322 16.7879 31.6806 14.5099 31.6806 12.2366 31.6806 10.534 30.4322 9.40217 27.9354 8.27505 25.4386 7.71149 21.6626 7.71149 16.6072 7.71149 11.5708 8.27505 7.80423 9.40217 5.30744 10.534 2.81066 12.2366 1.56227 14.5099 1.56227ZM14.5099-0.649163C10.9002-0.649163 8.08006 0.865551 6.04935 3.89498 4.02339 6.92916 3.01041 11.1666 3.01041 16.6072 3.01041 22.062 4.02339 26.3042 6.04935 29.3336 8.08006 32.3678 10.9002 33.8849 14.5099 33.8849 18.1385 33.8849 20.9635 32.3678 22.9847 29.3336 25.0059 26.3042 26.0165 22.062 26.0165 16.6072 26.0165 11.1666 25.0059 6.92916 22.9847 3.89498 20.9635 0.865551 18.1385-0.649163 14.5099-0.649163Z" fill="#000000" fill-rule="nonzero" fill-opacity="1" transform="matrix(1 0 0 -1.00039 1816.08 849.406)"/><path d="M4.3016 2.31844C4.3016 3.1507 4.58457 3.85693 5.1505 4.43714 5.71644 5.01734 6.42267 5.30744 7.2692 5.30744 8.08719 5.30744 8.78392 5.01734 9.35936 4.43714 9.93957 3.85693 10.2297 3.1507 10.2297 2.31844 10.2297 1.50045 9.93957 0.801348 9.35936 0.221144 8.78392-0.359061 8.08719-0.649163 7.2692-0.649163 6.42267-0.649163 5.71644-0.363817 5.1505 0.206876 4.58457 0.782325 4.3016 1.48618 4.3016 2.31844Z" fill="#000000" fill-rule="nonzero" fill-opacity="1" transform="matrix(1 0 0 -1.00039 1845.13 849.406)"/><path d="M14.9379 1.56227C17.0304 1.56227 18.6403 2.33033 19.7674 3.86644 20.8993 5.40732 21.4652 7.61875 21.4652 10.5008 21.4652 13.3828 20.8993 15.5918 19.7674 17.1279 18.6403 18.6688 17.0304 19.4392 14.9379 19.4392 12.8121 19.4392 11.1903 18.695 10.0727 17.2064 8.95988 15.7226 8.40345 13.5754 8.40345 10.7647 8.40345 7.81136 8.96701 5.5381 10.0941 3.94492 11.226 2.35649 12.8406 1.56227 14.9379 1.56227ZM7.66869 18.3264C8.68167 19.4392 9.82543 20.2691 11.1 20.816 12.3793 21.3677 13.8227 21.6435 15.4301 21.6435 18.7401 21.6435 21.3582 20.6472 23.2843 18.6545 25.2104 16.6666 26.1734 13.9487 26.1734 10.5008 26.1734 7.12891 25.1366 4.42763 23.0631 2.39691 20.9896 0.366195 18.2218-0.649163 14.7595-0.649163 10.9977-0.649163 8.10622 0.751412 6.08501 3.55256 4.06381 6.35847 3.05321 10.3605 3.05321 15.5585 3.05321 21.3843 4.24928 25.8952 6.64144 29.0911 9.03359 32.287 12.4078 33.8849 16.7641 33.8849 17.9388 33.8849 19.1729 33.7731 20.4665 33.5496 21.76 33.3261 23.0822 32.9932 24.4328 32.5509L24.4328 27.0651 21.9146 27.0651C21.7339 28.5632 21.1608 29.7069 20.1954 30.4964 19.23 31.2859 17.9293 31.6806 16.2933 31.6806 13.4113 31.6806 11.2641 30.5868 9.85159 28.3991 8.43912 26.2162 7.71149 22.8586 7.66869 18.3264Z" fill="#000000" fill-rule="nonzero" fill-opacity="1" transform="matrix(1 0 0 -1.00039 1859.64 849.406)"/><path d="M0 0 13.6966 0" stroke="#000000" stroke-width="2.28277" stroke-linecap="butt" stroke-linejoin="round" stroke-miterlimit="4" stroke-opacity="1" fill="none" fill-rule="nonzero" transform="matrix(1 0 0 1.00039 1904.67 693.773)"/><path d="M0 0-13.6966 0" stroke="#000000" stroke-width="2.28277" stroke-linecap="butt" stroke-linejoin="round" stroke-miterlimit="4" stroke-opacity="1" fill="none" fill-rule="nonzero" transform="matrix(1 0 0 1.00039 2925.51 693.773)"/><path d="M14.5099 1.56227C16.7879 1.56227 18.4905 2.81066 19.6176 5.30744 20.7494 7.80423 21.3154 11.5708 21.3154 16.6072 21.3154 21.6626 20.7494 25.4386 19.6176 27.9354 18.4905 30.4322 16.7879 31.6806 14.5099 31.6806 12.2366 31.6806 10.534 30.4322 9.40217 27.9354 8.27505 25.4386 7.71149 21.6626 7.71149 16.6072 7.71149 11.5708 8.27505 7.80423 9.40217 5.30744 10.534 2.81066 12.2366 1.56227 14.5099 1.56227ZM14.5099-0.649163C10.9002-0.649163 8.08006 0.865551 6.04935 3.89498 4.02339 6.92916 3.01041 11.1666 3.01041 16.6072 3.01041 22.062 4.02339 26.3042 6.04935 29.3336 8.08006 32.3678 10.9002 33.8849 14.5099 33.8849 18.1385 33.8849 20.9635 32.3678 22.9847 29.3336 25.0059 26.3042 26.0165 22.062 26.0165 16.6072 26.0165 11.1666 25.0059 6.92916 22.9847 3.89498 20.9635 0.865551 18.1385-0.649163 14.5099-0.649163Z" fill="#000000" fill-rule="nonzero" fill-opacity="1" transform="matrix(1 0 0 -1.00039 1816.08 711.125)"/><path d="M4.3016 2.31844C4.3016 3.1507 4.58457 3.85693 5.1505 4.43714 5.71644 5.01734 6.42267 5.30744 7.2692 5.30744 8.08719 5.30744 8.78392 5.01734 9.35936 4.43714 9.93957 3.85693 10.2297 3.1507 10.2297 2.31844 10.2297 1.50045 9.93957 0.801348 9.35936 0.221144 8.78392-0.359061 8.08719-0.649163 7.2692-0.649163 6.42267-0.649163 5.71644-0.363817 5.1505 0.206876 4.58457 0.782325 4.3016 1.48618 4.3016 2.31844Z" fill="#000000" fill-rule="nonzero" fill-opacity="1" transform="matrix(1 0 0 -1.00039 1845.13 711.125)"/><path d="M21.2654 9.09542C21.2654 11.4733 20.6734 13.3185 19.4892 14.6311 18.3097 15.9485 16.65 16.6072 14.5099 16.6072 12.3698 16.6072 10.71 15.9485 9.53057 14.6311 8.35114 13.3185 7.76142 11.4733 7.76142 9.09542 7.76142 6.70326 8.35114 4.84851 9.53057 3.53116 10.71 2.21857 12.3698 1.56227 14.5099 1.56227 16.65 1.56227 18.3097 2.21857 19.4892 3.53116 20.6734 4.84851 21.2654 6.70326 21.2654 9.09542ZM20.3523 25.2603C20.3523 27.2815 19.8387 28.8557 18.8115 29.9828 17.789 31.1147 16.3551 31.6806 14.5099 31.6806 12.6837 31.6806 11.2545 31.1147 10.2225 29.9828 9.19054 28.8557 8.67453 27.2815 8.67453 25.2603 8.67453 23.2248 9.19054 21.6412 10.2225 20.5093 11.2545 19.3822 12.6837 18.8186 14.5099 18.8186 16.3551 18.8186 17.789 19.3822 18.8115 20.5093 19.8387 21.6412 20.3523 23.2248 20.3523 25.2603ZM17.9483 17.72C20.4736 17.3824 22.4425 16.4502 23.855 14.9236 25.2674 13.4018 25.9737 11.459 25.9737 9.09542 25.9737 5.97563 24.9845 3.57159 23.0061 1.88329 21.0277 0.194987 18.1956-0.649163 14.5099-0.649163 10.8432-0.649163 8.01586 0.194987 6.02794 1.88329 4.04479 3.57159 3.05321 5.97563 3.05321 9.09542 3.05321 11.459 3.75944 13.4018 5.17191 14.9236 6.58437 16.4502 8.56039 17.3824 11.1 17.72 8.85525 18.1243 7.13366 18.9755 5.93521 20.2739 4.74151 21.577 4.14466 23.2391 4.14466 25.2603 4.14466 27.933 5.0649 30.0375 6.90539 31.5736 8.75063 33.1145 11.2855 33.8849 14.5099 33.8849 17.739 33.8849 20.2739 33.1145 22.1144 31.5736 23.9596 30.0375 24.8822 27.933 24.8822 25.2603 24.8822 23.2391 24.283 21.577 23.0845 20.2739 21.8861 18.9755 20.174 18.1243 17.9483 17.72Z" fill="#000000" fill-rule="nonzero" fill-opacity="1" transform="matrix(1 0 0 -1.00039 1859.64 711.125)"/><path d="M0 0 13.6966 0" stroke="#000000" stroke-width="2.28277" stroke-linecap="butt" stroke-linejoin="round" stroke-miterlimit="4" stroke-opacity="1" fill="none" fill-rule="nonzero" transform="matrix(1 0 0 1.00039 1904.67 555.492)"/><path d="M0 0-13.6966 0" stroke="#000000" stroke-width="2.28277" stroke-linecap="butt" stroke-linejoin="round" stroke-miterlimit="4" stroke-opacity="1" fill="none" fill-rule="nonzero" transform="matrix(1 0 0 1.00039 2925.51 555.492)"/><path d="M6.4845 0 6.4845 2.36124 12.2842 2.36124 12.2842 30.0541 5.57139 25.7026 5.57139 28.6274 13.6895 33.8849 16.7641 33.8849 16.7641 2.36124 22.5638 2.36124 22.5638 0 6.4845 0Z" fill="#000000" fill-rule="nonzero" fill-opacity="1" transform="matrix(1 0 0 -1.00039 1816.08 572.844)"/><path d="M4.3016 2.31844C4.3016 3.1507 4.58457 3.85693 5.1505 4.43714 5.71644 5.01734 6.42267 5.30744 7.2692 5.30744 8.08719 5.30744 8.78392 5.01734 9.35936 4.43714 9.93957 3.85693 10.2297 3.1507 10.2297 2.31844 10.2297 1.50045 9.93957 0.801348 9.35936 0.221144 8.78392-0.359061 8.08719-0.649163 7.2692-0.649163 6.42267-0.649163 5.71644-0.363817 5.1505 0.206876 4.58457 0.782325 4.3016 1.48618 4.3016 2.31844Z" fill="#000000" fill-rule="nonzero" fill-opacity="1" transform="matrix(1 0 0 -1.00039 1845.13 572.844)"/><path d="M14.5099 1.56227C16.7879 1.56227 18.4905 2.81066 19.6176 5.30744 20.7494 7.80423 21.3154 11.5708 21.3154 16.6072 21.3154 21.6626 20.7494 25.4386 19.6176 27.9354 18.4905 30.4322 16.7879 31.6806 14.5099 31.6806 12.2366 31.6806 10.534 30.4322 9.40217 27.9354 8.27505 25.4386 7.71149 21.6626 7.71149 16.6072 7.71149 11.5708 8.27505 7.80423 9.40217 5.30744 10.534 2.81066 12.2366 1.56227 14.5099 1.56227ZM14.5099-0.649163C10.9002-0.649163 8.08006 0.865551 6.04935 3.89498 4.02339 6.92916 3.01041 11.1666 3.01041 16.6072 3.01041 22.062 4.02339 26.3042 6.04935 29.3336 8.08006 32.3678 10.9002 33.8849 14.5099 33.8849 18.1385 33.8849 20.9635 32.3678 22.9847 29.3336 25.0059 26.3042 26.0165 22.062 26.0165 16.6072 26.0165 11.1666 25.0059 6.92916 22.9847 3.89498 20.9635 0.865551 18.1385-0.649163 14.5099-0.649163Z" fill="#000000" fill-rule="nonzero" fill-opacity="1" transform="matrix(1 0 0 -1.00039 1859.64 572.844)"/><path d="M0 0 6.84832 0" stroke="#000000" stroke-width="2.28277" stroke-linecap="butt" stroke-linejoin="round" stroke-miterlimit="4" stroke-opacity="1" fill="none" fill-rule="nonzero" transform="matrix(1 0 0 1.00039 1904.67 1212.33)"/><path d="M0 0-6.84832 0" stroke="#000000" stroke-width="2.28277" stroke-linecap="butt" stroke-linejoin="round" stroke-miterlimit="4" stroke-opacity="1" fill="none" fill-rule="nonzero" transform="matrix(1 0 0 1.00039 2925.51 1212.33)"/><path d="M0 0 6.84832 0" stroke="#000000" stroke-width="2.28277" stroke-linecap="butt" stroke-linejoin="round" stroke-miterlimit="4" stroke-opacity="1" fill="none" fill-rule="nonzero" transform="matrix(1 0 0 1.00039 1904.67 1177.76)"/><path d="M0 0-6.84832 0" stroke="#000000" stroke-width="2.28277" stroke-linecap="butt" stroke-linejoin="round" stroke-miterlimit="4" stroke-opacity="1" fill="none" fill-rule="nonzero" transform="matrix(1 0 0 1.00039 2925.51 1177.76)"/><path d="M0 0 6.84832 0" stroke="#000000" stroke-width="2.28277" stroke-linecap="butt" stroke-linejoin="round" stroke-miterlimit="4" stroke-opacity="1" fill="none" fill-rule="nonzero" transform="matrix(1 0 0 1.00039 1904.67 1143.19)"/><path d="M0 0-6.84832 0" stroke="#000000" stroke-width="2.28277" stroke-linecap="butt" stroke-linejoin="round" stroke-miterlimit="4" stroke-opacity="1" fill="none" fill-rule="nonzero" transform="matrix(1 0 0 1.00039 2925.51 1143.19)"/><path d="M0 0 6.84832 0" stroke="#000000" stroke-width="2.28277" stroke-linecap="butt" stroke-linejoin="round" stroke-miterlimit="4" stroke-opacity="1" fill="none" fill-rule="nonzero" transform="matrix(1 0 0 1.00039 1904.67 1074.04)"/><path d="M0 0-6.84832 0" stroke="#000000" stroke-width="2.28277" stroke-linecap="butt" stroke-linejoin="round" stroke-miterlimit="4" stroke-opacity="1" fill="none" fill-rule="nonzero" transform="matrix(1 0 0 1.00039 2925.51 1074.04)"/><path d="M0 0 6.84832 0" stroke="#000000" stroke-width="2.28277" stroke-linecap="butt" stroke-linejoin="round" stroke-miterlimit="4" stroke-opacity="1" fill="none" fill-rule="nonzero" transform="matrix(1 0 0 1.00039 1904.67 1039.47)"/><path d="M0 0-6.84832 0" stroke="#000000" stroke-width="2.28277" stroke-linecap="butt" stroke-linejoin="round" stroke-miterlimit="4" stroke-opacity="1" fill="none" fill-rule="nonzero" transform="matrix(1 0 0 1.00039 2925.51 1039.47)"/><path d="M0 0 6.84832 0" stroke="#000000" stroke-width="2.28277" stroke-linecap="butt" stroke-linejoin="round" stroke-miterlimit="4" stroke-opacity="1" fill="none" fill-rule="nonzero" transform="matrix(1 0 0 1.00039 1904.67 1004.9)"/><path d="M0 0-6.84832 0" stroke="#000000" stroke-width="2.28277" stroke-linecap="butt" stroke-linejoin="round" stroke-miterlimit="4" stroke-opacity="1" fill="none" fill-rule="nonzero" transform="matrix(1 0 0 1.00039 2925.51 1004.9)"/><path d="M0 0 6.84832 0" stroke="#000000" stroke-width="2.28277" stroke-linecap="butt" stroke-linejoin="round" stroke-miterlimit="4" stroke-opacity="1" fill="none" fill-rule="nonzero" transform="matrix(1 0 0 1.00039 1904.67 935.764)"/><path d="M0 0-6.84832 0" stroke="#000000" stroke-width="2.28277" stroke-linecap="butt" stroke-linejoin="round" stroke-miterlimit="4" stroke-opacity="1" fill="none" fill-rule="nonzero" transform="matrix(1 0 0 1.00039 2925.51 935.764)"/><path d="M0 0 6.84832 0" stroke="#000000" stroke-width="2.28277" stroke-linecap="butt" stroke-linejoin="round" stroke-miterlimit="4" stroke-opacity="1" fill="none" fill-rule="nonzero" transform="matrix(1 0 0 1.00039 1904.67 901.194)"/><path d="M0 0-6.84832 0" stroke="#000000" stroke-width="2.28277" stroke-linecap="butt" stroke-linejoin="round" stroke-miterlimit="4" stroke-opacity="1" fill="none" fill-rule="nonzero" transform="matrix(1 0 0 1.00039 2925.51 901.194)"/><path d="M0 0 6.84832 0" stroke="#000000" stroke-width="2.28277" stroke-linecap="butt" stroke-linejoin="round" stroke-miterlimit="4" stroke-opacity="1" fill="none" fill-rule="nonzero" transform="matrix(1 0 0 1.00039 1904.67 866.624)"/><path d="M0 0-6.84832 0" stroke="#000000" stroke-width="2.28277" stroke-linecap="butt" stroke-linejoin="round" stroke-miterlimit="4" stroke-opacity="1" fill="none" fill-rule="nonzero" transform="matrix(1 0 0 1.00039 2925.51 866.624)"/><path d="M0 0 6.84832 0" stroke="#000000" stroke-width="2.28277" stroke-linecap="butt" stroke-linejoin="round" stroke-miterlimit="4" stroke-opacity="1" fill="none" fill-rule="nonzero" transform="matrix(1 0 0 1.00039 1904.67 797.483)"/><path d="M0 0-6.84832 0" stroke="#000000" stroke-width="2.28277" stroke-linecap="butt" stroke-linejoin="round" stroke-miterlimit="4" stroke-opacity="1" fill="none" fill-rule="nonzero" transform="matrix(1 0 0 1.00039 2925.51 797.483)"/><path d="M0 0 6.84832 0" stroke="#000000" stroke-width="2.28277" stroke-linecap="butt" stroke-linejoin="round" stroke-miterlimit="4" stroke-opacity="1" fill="none" fill-rule="nonzero" transform="matrix(1 0 0 1.00039 1904.67 762.913)"/><path d="M0 0-6.84832 0" stroke="#000000" stroke-width="2.28277" stroke-linecap="butt" stroke-linejoin="round" stroke-miterlimit="4" stroke-opacity="1" fill="none" fill-rule="nonzero" transform="matrix(1 0 0 1.00039 2925.51 762.913)"/><path d="M0 0 6.84832 0" stroke="#000000" stroke-width="2.28277" stroke-linecap="butt" stroke-linejoin="round" stroke-miterlimit="4" stroke-opacity="1" fill="none" fill-rule="nonzero" transform="matrix(1 0 0 1.00039 1904.67 728.343)"/><path d="M0 0-6.84832 0" stroke="#000000" stroke-width="2.28277" stroke-linecap="butt" stroke-linejoin="round" stroke-miterlimit="4" stroke-opacity="1" fill="none" fill-rule="nonzero" transform="matrix(1 0 0 1.00039 2925.51 728.343)"/><path d="M0 0 6.84832 0" stroke="#000000" stroke-width="2.28277" stroke-linecap="butt" stroke-linejoin="round" stroke-miterlimit="4" stroke-opacity="1" fill="none" fill-rule="nonzero" transform="matrix(1 0 0 1.00039 1904.67 659.203)"/><path d="M0 0-6.84832 0" stroke="#000000" stroke-width="2.28277" stroke-linecap="butt" stroke-linejoin="round" stroke-miterlimit="4" stroke-opacity="1" fill="none" fill-rule="nonzero" transform="matrix(1 0 0 1.00039 2925.51 659.203)"/><path d="M0 0 6.84832 0" stroke="#000000" stroke-width="2.28277" stroke-linecap="butt" stroke-linejoin="round" stroke-miterlimit="4" stroke-opacity="1" fill="none" fill-rule="nonzero" transform="matrix(1 0 0 1.00039 1904.67 624.632)"/><path d="M0 0-6.84832 0" stroke="#000000" stroke-width="2.28277" stroke-linecap="butt" stroke-linejoin="round" stroke-miterlimit="4" stroke-opacity="1" fill="none" fill-rule="nonzero" transform="matrix(1 0 0 1.00039 2925.51 624.632)"/><path d="M0 0 6.84832 0" stroke="#000000" stroke-width="2.28277" stroke-linecap="butt" stroke-linejoin="round" stroke-miterlimit="4" stroke-opacity="1" fill="none" fill-rule="nonzero" transform="matrix(1 0 0 1.00039 1904.67 590.062)"/><path d="M0 0-6.84832 0" stroke="#000000" stroke-width="2.28277" stroke-linecap="butt" stroke-linejoin="round" stroke-miterlimit="4" stroke-opacity="1" fill="none" fill-rule="nonzero" transform="matrix(1 0 0 1.00039 2925.51 590.062)"/><path d="M11.2783 16.9424 17.1636 16.9424C19.3798 16.9424 21.0657 17.5393 22.2214 18.733 23.3818 19.9315 23.962 21.6602 23.962 23.9192 23.962 26.1924 23.3818 27.9235 22.2214 29.1125 21.0657 30.3014 19.3798 30.8959 17.1636 30.8959L11.2783 30.8959 11.2783 16.9424ZM2.51818 0 2.51818 2.36124 6.75558 2.36124 6.75558 30.8959 2.51818 30.8959 2.51818 33.2857 18.255 33.2857C21.5841 33.2857 24.2212 32.4415 26.1663 30.7532 28.1161 29.0649 29.0911 26.7869 29.0911 23.9192 29.0911 21.0657 28.1161 18.7924 26.1663 17.0994 24.2212 15.4063 21.5841 14.5598 18.255 14.5598L11.2783 14.5598 11.2783 2.36124 16.4288 2.36124 16.4288 0 2.51818 0Z" fill="#000000" fill-rule="nonzero" fill-opacity="1" transform="matrix(6.12323e-17 -1.00039 -1 -6.12564e-17 1767.24 1152.17)"/><path d="M21.8219 23.7408 21.8219 17.8128 19.4606 17.8128C19.3893 18.9874 19.0635 19.8649 18.4833 20.4451 17.9031 21.0253 17.0542 21.3154 15.9366 21.3154 13.9154 21.3154 12.365 20.6163 11.2855 19.2181 10.2106 17.8199 9.67325 15.813 9.67325 13.1973L9.67325 2.36124 14.4243 2.36124 14.4243 0 1.87615 0 1.87615 2.36124 5.57139 2.36124 5.57139 21.3582 1.64788 21.3582 1.64788 23.698 9.67325 23.698 9.67325 19.482C10.477 21.1323 11.509 22.3545 12.7693 23.1487 14.0343 23.9477 15.5752 24.3472 17.3919 24.3472 18.0577 24.3472 18.7592 24.2949 19.4963 24.1902 20.2334 24.0856 21.0086 23.9358 21.8219 23.7408Z" fill="#000000" fill-rule="nonzero" fill-opacity="1" transform="matrix(6.12323e-17 -1.00039 -1 -6.12564e-17 1767.24 1121.44)"/><path d="M14.5598-7.11226C10.9454-5.49054 8.2156-2.92242 6.37036 0.592094 4.52988 4.10661 3.60963 8.50095 3.60963 13.7751 3.60963 19.0683 4.52988 23.4721 6.37036 26.9866 8.2156 30.5012 10.9454 33.0693 14.5598 34.691L14.5598 32.501C12.2675 30.9268 10.6244 28.7082 9.63044 25.8453 8.63649 22.987 8.13951 18.9637 8.13951 13.7751 8.13951 8.60557 8.63649 4.58932 9.63044 1.72635 10.6244-1.13187 12.2675-3.35044 14.5598-4.92936L14.5598-7.11226Z" fill="#000000" fill-rule="nonzero" fill-opacity="1" transform="matrix(6.12323e-17 -1.00039 -1 -6.12564e-17 1767.24 1099.6)"/><path d="M9.4949 34.8907 9.4949-10.7647 5.88527-10.7647 5.88527 34.8907 9.4949 34.8907Z" fill="#000000" fill-rule="nonzero" fill-opacity="1" transform="matrix(6.12323e-17 -1.00039 -1 -6.12564e-17 1767.24 1081.79)"/><path d="M-18.0767 34.0204-4.75102 34.0204-4.75102 30.7176-18.0767 30.7176-18.0767 34.0204Z" fill="#000000" fill-rule="nonzero" fill-opacity="1" transform="matrix(6.12323e-17 -1.00039 -1 -6.12564e-17 1758.97 1034.7)"/><path d="M14.6668 14.2459 4.21599 2.36124 8.51759 2.36124 8.06817 0-2.9462 0-2.49678 2.36124 1.34113 2.36124 13.6467 16.3432 6.75558 30.8959 3.18875 30.8959 3.65957 33.2857 16.8568 33.2857 16.386 30.8959 12.4625 30.8959 17.5203 20.174 26.9296 30.8959 22.6494 30.8959 23.1202 33.2857 34.0204 33.2857 33.5496 30.8959 29.8044 30.8959 18.5261 18.0767 25.9737 2.36124 29.5405 2.36124 29.0697 0 15.8724 0 16.3218 2.36124 20.2881 2.36124 14.6668 14.2459Z" fill="#000000" fill-rule="nonzero" fill-opacity="1" transform="matrix(6.12323e-17 -1.00039 -1 -6.12564e-17 1767.24 1066.4)"/><path d="M4.83662 16.1149 33.4141 16.1149 33.4141 12.5053 4.83662 12.5053 4.83662 16.1149Z" fill="#000000" fill-rule="nonzero" fill-opacity="1" transform="matrix(6.12323e-17 -1.00039 -1 -6.12564e-17 1767.24 1025.22)"/><path d="M30.3181 29.8116 29.9043 28.1209 15.3374 28.1209 12.1914 16.1649 25.0677 16.1649 24.5612 14.4742 11.7349 14.4742 8.31072 1.69068 24.5612 1.69068 24.1974 0 0.777569 0 8.76727 29.8116 30.3181 29.8116ZM13.6538 28.1209 10.087 28.1209 2.9676 1.69068 6.62004 1.69068 13.6538 28.1209Z" fill="#000000" fill-rule="nonzero" fill-opacity="1" transform="matrix(6.12323e-17 -1.00039 -1 -6.12564e-17 1767.24 978.289)"/><path d="M3.92351 34.691 14.2887 34.691 14.2887 32.3226 8.18231 32.3226 8.18231-3.65957 14.2887-3.65957 14.2887-6.02081 3.92351-6.02081 3.92351 34.691Z" fill="#000000" fill-rule="nonzero" fill-opacity="1" transform="matrix(6.12323e-17 -1.00039 -1 -6.12564e-17 1767.24 949.104)"/><path d="M-18.0767 34.0204-4.75102 34.0204-4.75102 30.7176-18.0767 30.7176-18.0767 34.0204Z" fill="#000000" fill-rule="nonzero" fill-opacity="1" transform="matrix(6.12323e-17 -1.00039 -1 -6.12564e-17 1758.97 899.592)"/><path d="M14.6668 14.2459 4.21599 2.36124 8.51759 2.36124 8.06817 0-2.9462 0-2.49678 2.36124 1.34113 2.36124 13.6467 16.3432 6.75558 30.8959 3.18875 30.8959 3.65957 33.2857 16.8568 33.2857 16.386 30.8959 12.4625 30.8959 17.5203 20.174 26.9296 30.8959 22.6494 30.8959 23.1202 33.2857 34.0204 33.2857 33.5496 30.8959 29.8044 30.8959 18.5261 18.0767 25.9737 2.36124 29.5405 2.36124 29.0697 0 15.8724 0 16.3218 2.36124 20.2881 2.36124 14.6668 14.2459Z" fill="#000000" fill-rule="nonzero" fill-opacity="1" transform="matrix(6.12323e-17 -1.00039 -1 -6.12564e-17 1767.24 931.285)"/><path d="M13.8892 34.691 13.8892-6.02081 3.52403-6.02081 3.52403-3.65957 9.63044-3.65957 9.63044 32.3226 3.52403 32.3226 3.52403 34.691 13.8892 34.691Z" fill="#000000" fill-rule="nonzero" fill-opacity="1" transform="matrix(6.12323e-17 -1.00039 -1 -6.12564e-17 1767.24 898.77)"/><path d="M9.4949 34.8907 9.4949-10.7647 5.88527-10.7647 5.88527 34.8907 9.4949 34.8907Z" fill="#000000" fill-rule="nonzero" fill-opacity="1" transform="matrix(6.12323e-17 -1.00039 -1 -6.12564e-17 1767.24 880.951)"/><path d="M33.4141 3.48123 33.4141 0 4.83662 0 4.83662 3.48123 33.4141 3.48123ZM4.83662 22.8705 4.83662 26.5729 33.4141 18.3906 33.4141 14.6026 4.83662 6.39889 4.83662 10.1013 28.3563 16.4716 4.83662 22.8705Z" fill="#000000" fill-rule="nonzero" fill-opacity="1" transform="matrix(6.12323e-17 -1.00039 -1 -6.12564e-17 1767.24 856.901)"/><path d="M22.7635 22.5138 21.8932 18.1266 19.3964 17.5702C19.4678 18.8923 19.0374 19.8934 18.1052 20.5735 17.1683 21.244 16.0008 21.5793 14.6026 21.5793 13.2044 21.5793 11.918 21.2155 10.7433 20.4879 9.55435 19.746 8.86476 18.8685 8.67453 17.8556 8.42248 16.5477 8.84574 15.5157 9.94433 14.7595 11.0572 13.9844 12.6028 13.5968 14.5812 13.5968L15.6513 13.5968 15.2018 11.2569 13.1545 11.2569C11.1618 11.2569 9.42357 10.7813 7.93977 9.83019 6.43694 8.86476 5.52859 7.57119 5.21471 5.94947 4.97692 4.70346 5.40018 3.61201 6.4845 2.67512 7.57357 1.72397 8.94086 1.24839 10.5864 1.24839 12.3127 1.24839 13.8774 1.64074 15.2803 2.42545 16.688 3.2149 17.613 4.36818 18.0553 5.88527L20.3523 5.32885 19.4606 0.734767C17.7818 0.20212 16.1102-0.199743 14.4457-0.470822 12.8097-0.737145 11.421-0.870307 10.2796-0.870307 7.35005-0.870307 4.98643-0.282969 3.18875 0.891708 1.4196 2.08065 0.751412 3.78322 1.18419 5.99941 1.62647 8.32974 2.67988 10.068 4.3444 11.2141 5.22422 11.7943 6.79362 12.2319 9.05262 12.5267L5.90667 14.2887C4.80809 14.9117 4.44427 16.1673 4.81522 18.0553 5.18617 19.9719 6.19677 21.4367 7.84703 22.4496 9.49728 23.4436 11.7777 23.9406 14.6882 23.9406 15.4919 23.9406 16.6452 23.8217 18.148 23.5839 19.6461 23.3318 21.1846 22.9751 22.7635 22.5138Z" fill="#000000" fill-rule="nonzero" fill-opacity="1" transform="matrix(6.12323e-17 -1.00039 -1 -6.12564e-17 1767.24 809.97)"/><path d="M4.83662 15.851C4.83662 16.6833 5.12197 17.3847 5.69266 17.9554 6.26811 18.5309 6.9791 18.8186 7.82563 18.8186 8.64362 18.8186 9.34272 18.5285 9.92292 17.9483 10.5031 17.3681 10.7932 16.669 10.7932 15.851 10.7932 15.0187 10.5031 14.3149 9.92292 13.7394 9.34272 13.1687 8.64362 12.8834 7.82563 12.8834 6.9791 12.8834 6.26811 13.1664 5.69266 13.7323 5.12197 14.2982 4.83662 15.0045 4.83662 15.851Z" fill="#000000" fill-rule="nonzero" fill-opacity="1" transform="matrix(6.12323e-17 -1.00039 -1 -6.12564e-17 1767.24 776.798)"/><path d="M5.75758 22.6258 2.99614 22.6258 3.32571 24.2837 8.95845 24.2837 6.96103 13.997C7.72005 15.0389 8.58227 15.8063 9.54769 16.299 10.5164 16.795 11.6417 17.043 12.9233 17.043 14.9607 17.043 16.4688 16.2357 17.4475 14.6212 18.0933 13.5592 18.4163 12.2858 18.4163 10.8011 18.4163 10.0188 18.3264 9.18649 18.1466 8.3043 17.6373 5.70098 16.582 3.59037 14.9807 1.97246 13.3794 0.354543 11.5584-0.454414 9.51773-0.454414 8.23938-0.454414 7.21237-0.208065 6.4367 0.284633 5.66104 0.78066 5.09676 1.54967 4.74389 2.59166L4.24453 0 1.37323 0 5.75758 22.6258ZM5.69766 7.47536C5.5312 6.65309 5.44798 5.91404 5.44798 5.25822 5.44798 4.31277 5.61443 3.52712 5.94733 2.90126 6.50661 1.8626 7.51531 1.34327 8.97343 1.34327 10.4415 1.34327 11.6666 1.93084 12.6487 3.106 13.6308 4.28115 14.3465 6.01392 14.7959 8.3043 15.0023 9.35294 15.1055 10.2884 15.1055 11.1107 15.1055 12.0694 14.9607 12.8651 14.6711 13.4976 14.1484 14.6628 13.1497 15.2453 11.675 15.2453 10.2168 15.2453 9.0034 14.7194 8.03464 13.6674 7.06922 12.6187 6.39343 11.1007 6.00726 9.11325L5.69766 7.47536Z" fill="#000000" fill-rule="nonzero" fill-opacity="1" transform="matrix(6.12323e-17 -1.00039 -1 -6.12564e-17 1746.77 752.503)"/><path d="M3.38564 11.2805 23.3899 11.2805 23.3899 8.75372 3.38564 8.75372 3.38564 11.2805Z" fill="#000000" fill-rule="nonzero" fill-opacity="1" transform="matrix(6.12323e-17 -1.00039 -1 -6.12564e-17 1746.77 725.974)"/><path d="M11.61 2.59166C10.2252 0.560944 8.41582-0.454414 6.18203-0.454414 4.35106-0.454414 2.97117 0.164788 2.04237 1.40319 1.39986 2.27873 1.07861 3.34069 1.07861 4.58909 1.07861 5.1184 1.1352 5.67935 1.24839 6.27192 1.95748 9.94385 3.59037 12.7269 6.14708 14.6212 8.32094 16.2357 10.7245 17.043 13.3578 17.043 15.1255 17.043 16.3123 16.8916 16.9182 16.5886L14.0119 1.65287 16.4788 1.65287 16.1692 0 11.1107 0 11.61 2.59166ZM4.10471 4.68396C4.10471 2.45683 5.18165 1.34327 7.33554 1.34327 8.64719 1.34327 9.74744 1.86593 10.6363 2.91125 11.5251 3.95657 12.1677 5.47794 12.5638 7.47536L14.0119 14.9957C14.0119 15.2986 13.5958 15.4501 12.7635 15.4501 10.7661 15.4501 8.99341 14.6694 7.4454 13.1081 5.90406 11.5368 4.85874 9.32631 4.30945 6.47665 4.17295 5.81084 4.10471 5.21328 4.10471 4.68396Z" fill="#000000" fill-rule="nonzero" fill-opacity="1" transform="matrix(6.12323e-17 -1.00039 -1 -6.12564e-17 1746.77 693.122)"/><path d="M19.8743 28.3231 9.61781-5.38346 8.85078-5.38346 4.63639 8.32042C4.50143 8.75953 4.3484 9.07604 4.17732 9.26993 4.00813 9.46573 3.78382 9.56363 3.50438 9.56363 3.08998 9.56363 2.67652 9.3992 2.26402 9.07034L2.04446 9.43532 5.03559 11.7336 5.49182 11.7336 9.63492-1.71655 9.70905-1.71655 18.8336 28.3231 19.8743 28.3231Z" fill="#000000" fill-rule="nonzero" fill-opacity="1" transform="matrix(6.12323e-17 -1.00039 -1 -6.12564e-17 1791.68 747.479)"/><path d="M4.08973 17.7421 2.34198 17.7421 2.34198 21.8918C3.45388 22.4877 4.5741 22.9404 5.70265 23.25 6.83119 23.563 7.93644 23.7194 9.01838 23.7194 11.4419 23.7194 13.3561 23.1319 14.761 21.9567 16.1658 20.7815 16.8683 19.1853 16.8683 17.1679 16.8683 14.8875 15.277 12.161 12.0944 8.98841 11.8447 8.74872 11.6566 8.56729 11.5301 8.44412L5.64772 2.5617 15.3702 2.5617 15.3702 5.433 17.1978 5.433 17.1978 0 2.16721 0 2.16721 1.70281 9.23809 8.75372C10.7994 10.315 11.913 11.7482 12.5788 13.0532 13.2446 14.3582 13.5775 15.7297 13.5775 17.1679 13.5775 18.7358 13.168 19.9626 12.3491 20.8481 11.5335 21.7337 10.4083 22.1764 8.97343 22.1764 7.48535 22.1764 6.33517 21.8069 5.52288 21.0678 4.71392 20.3288 4.23621 19.2202 4.08973 17.7421Z" fill="#000000" fill-rule="nonzero" fill-opacity="1" transform="matrix(6.12323e-17 -1.00039 -1 -6.12564e-17 1797.25 724.178)"/><path d="M2.2471 0 5.14836 14.9208 2.4019 14.9208 2.7165 16.5886 8.33426 16.5886 7.76998 13.6374C8.51902 14.7626 9.37125 15.6115 10.3267 16.1841 11.2855 16.7567 12.3274 17.043 13.4527 17.043 15.2836 17.043 16.532 16.517 17.1978 15.4651 17.594 14.8292 17.7921 13.982 17.7921 12.9233 17.7921 12.2242 17.7022 11.4336 17.5224 10.5514L15.7946 1.65287 18.3513 1.65287 18.0417 0 12.5938 0 14.4664 9.64257C14.6728 10.7145 14.776 11.61 14.776 12.3291 14.776 12.9616 14.6927 13.461 14.5263 13.8272 14.1734 14.5762 13.3678 14.9507 12.1094 14.9507 10.7778 14.9507 9.6692 14.463 8.78368 13.4876 7.90148 12.5155 7.27729 11.099 6.91109 9.23809L5.1184 0 2.2471 0Z" fill="#000000" fill-rule="nonzero" fill-opacity="1" transform="matrix(6.12323e-17 -1.00039 -1 -6.12564e-17 1797.25 703.837)"/><path d="M3.23155-7.11226 3.23155-4.92936C5.51908-3.35044 7.16457-1.13187 8.16804 1.72635 9.17151 4.58932 9.67325 8.60557 9.67325 13.7751 9.67325 18.9637 9.17151 22.987 8.16804 25.8453 7.16457 28.7082 5.51908 30.9268 3.23155 32.501L3.23155 34.691C6.86021 33.0693 9.59478 30.5012 11.4353 26.9866 13.2805 23.4721 14.2031 19.0683 14.2031 13.7751 14.2031 8.50095 13.2805 4.10661 11.4353 0.592094 9.59478-2.92242 6.86021-5.49054 3.23155-7.11226Z" fill="#000000" fill-rule="nonzero" fill-opacity="1" transform="matrix(6.12323e-17 -1.00039 -1 -6.12564e-17 1767.24 668.352)"/><path d="M399.509 9.04691 399.509 11.9004 477.92 11.9004 477.92 9.04691 399.509 9.04691Z" fill="#000000" fill-rule="nonzero" fill-opacity="1" transform="matrix(6.12323e-17 -1.00039 -1 -6.12564e-17 1767.68 1152.17)"/><path d="M423.828 2.19859 423.828 4.19602 472.734 4.19602 472.734 2.19859 423.828 2.19859Z" fill="#000000" fill-rule="nonzero" fill-opacity="1" transform="matrix(6.12323e-17 -1.00039 -1 -6.12564e-17 1767.68 1152.17)"/><g clip-path="url(#clip5)"><path d="M293.744-4.56554 301.263 128.578 310.637 281.31 320.011 413.152 329.385 520.543 338.759 603.401 348.134 664.121 357.508 706.468 366.882 734.616 376.256 752.467 385.63 763.28 395.005 769.539 404.379 773.004 413.753 774.839 423.127 775.769 432.501 776.221 441.875 776.431 451.25 776.524 460.624 776.564 469.998 776.58 479.372 776.587 488.746 776.589 498.121 776.59 507.495 776.59 516.869 776.59 526.243 776.59 535.617 776.59 544.992 776.59 554.366 776.59 563.74 776.59 573.114 776.59 582.488 776.59 591.862 776.59 601.237 776.59 610.611 776.59 619.985 776.59 629.359 776.59 638.733 776.59 648.108 776.59 657.482 776.59 666.856 776.59 676.23 776.59 685.604 776.59 694.979 776.59 704.353 776.59 713.727 776.59 723.101 776.59 732.475 776.59 741.849 776.59 751.224 776.59 760.598 776.59 769.972 776.59 779.346 776.59 788.72 776.59 798.095 776.59 807.469 776.59 816.843 776.59 826.217 776.59 835.591 776.59 844.965 776.59 854.34 776.59 863.714 776.59 873.088 776.59 882.462 776.59 891.836 776.59 901.211 776.59 910.585 776.59 919.959 776.59 929.333 776.59 938.707 776.59 948.081 776.59 957.456 776.59 966.83 776.59 976.204 776.59 985.578 776.59 994.952 776.59 1004.33 776.59 1013.7 776.59 1023.07 776.59 1032.45 776.59 1041.82 776.59 1051.2 776.59 1060.57 776.59 1069.95 776.59 1079.32 776.59 1088.69 776.59 1098.07 776.59 1107.44 776.59 1116.82 776.59 1126.19 776.59 1135.57 776.59 1144.94 776.59 1154.31 776.59 1163.69 776.59 1173.06 776.59" stroke="#0000FF" stroke-width="9.13109" stroke-linecap="square" stroke-linejoin="round" stroke-miterlimit="4" stroke-opacity="1" fill="none" fill-rule="nonzero" transform="matrix(1 0 0 1.00039 1706.05 470)"/></g><path d="M198.615 776.59 198.615 85.4584" stroke="#000000" stroke-width="2.28277" stroke-linecap="square" stroke-linejoin="miter" stroke-miterlimit="4" stroke-opacity="1" fill="none" fill-rule="nonzero" transform="matrix(1 0 0 1.00039 1706.05 470)"/><path d="M1219.46 776.59 1219.46 85.4584" stroke="#000000" stroke-width="2.28277" stroke-linecap="square" stroke-linejoin="miter" stroke-miterlimit="4" stroke-opacity="1" fill="none" fill-rule="nonzero" transform="matrix(1 0 0 1.00039 1706.05 470)"/><path d="M198.615 776.59 1219.46 776.59" stroke="#000000" stroke-width="2.28277" stroke-linecap="square" stroke-linejoin="miter" stroke-miterlimit="4" stroke-opacity="1" fill="none" fill-rule="nonzero" transform="matrix(1 0 0 1.00039 1706.05 470)"/><path d="M198.615 85.4584 1219.46 85.4584" stroke="#000000" stroke-width="2.28277" stroke-linecap="square" stroke-linejoin="miter" stroke-miterlimit="4" stroke-opacity="1" fill="none" fill-rule="nonzero" transform="matrix(1 0 0 1.00039 1706.05 470)"/><path d="M3.02182 0 3.02182 2.83349 8.10669 2.83349 8.10669 37.0751 3.02182 37.0751 3.02182 39.9428 18.6189 39.9428 18.6189 37.0751 13.534 37.0751 13.534 23.2757 34.2416 23.2757 34.2416 37.0751 29.1567 37.0751 29.1567 39.9428 44.7537 39.9428 44.7537 37.0751 39.6689 37.0751 39.6689 2.83349 44.7537 2.83349 44.7537 0 29.1567 0 29.1567 2.83349 34.2416 2.83349 34.2416 20.0142 13.534 20.0142 13.534 2.83349 18.6189 2.83349 18.6189 0 3.02182 0Z" fill="#000000" fill-rule="nonzero" fill-opacity="1" transform="matrix(1 0 0 -1.00039 2106.25 528.088)"/><path d="M16.4788 1.87473C19.1211 1.87473 21.1128 2.91624 22.4539 4.99927 23.8008 7.08801 24.4742 10.1669 24.4742 14.2359 24.4742 18.2993 23.8008 21.3696 22.4539 23.4469 21.1128 25.5242 19.1211 26.5629 16.4788 26.5629 13.8422 26.5629 11.8504 25.5242 10.5036 23.4469 9.15677 21.3696 8.48335 18.2993 8.48335 14.2359 8.48335 10.1669 9.15962 7.08801 10.5122 4.99927 11.8704 2.91624 13.8593 1.87473 16.4788 1.87473ZM16.4788-0.778996C12.3412-0.778996 9.0141 0.590667 6.49734 3.32999 3.98629 6.06932 2.73077 9.70463 2.73077 14.2359 2.73077 18.7615 3.98344 22.3883 6.48878 25.1162 8.99412 27.8498 12.3241 29.2166 16.4788 29.2166 20.6334 29.2166 23.9634 27.8498 26.4687 25.1162 28.9741 22.3883 30.2268 18.7615 30.2268 14.2359 30.2268 9.70463 28.9741 6.06932 26.4687 3.32999 23.9634 0.590667 20.6334-0.778996 16.4788-0.778996Z" fill="#000000" fill-rule="nonzero" fill-opacity="1" transform="matrix(1 0 0 -1.00039 2154.03 528.088)"/><path d="M29.696 13.6966 8.48335 13.6966 8.48335 13.4826C8.48335 9.64756 9.20528 6.75415 10.6491 4.80238 12.093 2.85061 14.2245 1.87473 17.0437 1.87473 19.201 1.87473 20.9701 2.43971 22.3512 3.56968 23.7323 4.70536 24.6996 6.38605 25.2532 8.61176L29.2166 8.61176C28.4291 5.49007 26.9767 3.14452 24.8594 1.57511 22.7478 0.00570693 19.9714-0.778996 16.5301-0.778996 12.3755-0.778996 9.03692 0.590667 6.51446 3.32999 3.992 6.06932 2.73077 9.70463 2.73077 14.2359 2.73077 18.7273 3.96917 22.3455 6.44598 25.0905 8.92849 27.8413 12.1843 29.2166 16.2134 29.2166 20.5107 29.2166 23.8093 27.8898 26.1092 25.236 28.4091 22.588 29.6047 18.7416 29.696 13.6966ZM23.8921 16.5301C23.7836 19.8516 23.0817 22.354 21.7862 24.0376 20.4964 25.7211 18.6388 26.5629 16.2134 26.5629 13.9477 26.5629 12.1643 25.7154 10.8631 24.0205 9.56196 22.3255 8.7687 19.8287 8.48335 16.5301L23.8921 16.5301Z" fill="#000000" fill-rule="nonzero" fill-opacity="1" transform="matrix(1 0 0 -1.00039 2187.01 528.088)"/><path d="M23.5668 34.9093 20.973 34.9093C20.9558 36.2504 20.5763 37.2663 19.8344 37.9568 19.0982 38.653 18.0253 39.0012 16.6157 39.0012 14.7781 39.0012 13.4826 38.4961 12.7293 37.486 11.9817 36.4815 11.6079 34.6867 11.6079 32.1015L11.6079 28.4376 19.5519 28.4376 19.5519 25.5785 11.6079 25.5785 11.6079 2.83349 17.9255 2.83349 17.9255 0 1.97745 0 1.97745 2.83349 6.68567 2.83349 6.68567 25.5785 1.97745 25.5785 1.97745 28.4376 6.68567 28.4376 6.68567 31.9988C6.68567 35.1718 7.51032 37.5687 9.15962 39.1895 10.8089 40.816 13.2315 41.6292 16.4274 41.6292 17.6201 41.6292 18.8129 41.5208 20.0056 41.3039 21.2041 41.0928 22.3911 40.7617 23.5668 40.3109L23.5668 34.9093Z" fill="#000000" fill-rule="nonzero" fill-opacity="1" transform="matrix(1 0 0 -1.00039 2219.44 528.088)"/><path d="M23.5668 34.9093 20.973 34.9093C20.9558 36.2504 20.5763 37.2663 19.8344 37.9568 19.0982 38.653 18.0253 39.0012 16.6157 39.0012 14.7781 39.0012 13.4826 38.4961 12.7293 37.486 11.9817 36.4815 11.6079 34.6867 11.6079 32.1015L11.6079 28.4376 19.5519 28.4376 19.5519 25.5785 11.6079 25.5785 11.6079 2.83349 17.9255 2.83349 17.9255 0 1.97745 0 1.97745 2.83349 6.68567 2.83349 6.68567 25.5785 1.97745 25.5785 1.97745 28.4376 6.68567 28.4376 6.68567 31.9988C6.68567 35.1718 7.51032 37.5687 9.15962 39.1895 10.8089 40.816 13.2315 41.6292 16.4274 41.6292 17.6201 41.6292 18.8129 41.5208 20.0056 41.3039 21.2041 41.0928 22.3911 40.7617 23.5668 40.3109L23.5668 34.9093Z" fill="#000000" fill-rule="nonzero" fill-opacity="1" transform="matrix(1 0 0 -1.00039 2239.71 528.088)"/><path d="M28.7544 2.83349 33.4626 2.83349 33.4626 0 23.8321 0 23.8321 4.44284C22.8734 2.65658 21.6492 1.33828 20.1597 0.487943 18.6702-0.356683 16.8269-0.778996 14.6297-0.778996 11.1371-0.778996 8.28076 0.607788 6.06076 3.38136 3.84076 6.15492 2.73077 9.77312 2.73077 14.2359 2.73077 18.6931 3.83506 22.3027 6.04364 25.0648 8.25793 27.8327 11.12 29.2166 14.6297 29.2166 16.8269 29.2166 18.6702 28.7915 20.1597 27.9411 21.6492 27.0965 22.8734 25.7811 23.8321 23.9948L23.8321 38.7871 19.1838 38.7871 19.1838 41.6292 28.7544 41.6292 28.7544 2.83349ZM23.8321 12.8149 23.8321 15.6227C23.8321 19.0298 23.1758 21.6321 21.8632 23.4298 20.5564 25.2332 18.656 26.1349 16.162 26.1349 13.6281 26.1349 11.7135 25.1362 10.418 23.1387 9.12823 21.1413 8.48335 18.1737 8.48335 14.2359 8.48335 10.3096 9.12823 7.33911 10.418 5.32457 11.7135 3.31002 13.6281 2.30275 16.162 2.30275 18.656 2.30275 20.5564 3.19873 21.8632 4.99071 23.1758 6.78269 23.8321 9.39075 23.8321 12.8149Z" fill="#000000" fill-rule="nonzero" fill-opacity="1" transform="matrix(1 0 0 -1.00039 2259.99 528.088)"/><path d="M5.32457 37.2634C5.32457 38.0852 5.62133 38.7986 6.21485 39.4035 6.81407 40.0084 7.53315 40.3109 8.37207 40.3109 9.19386 40.3109 9.90152 40.0084 10.495 39.4035 11.0943 38.7986 11.3939 38.0852 11.3939 37.2634 11.3939 36.4245 11.1 35.7111 10.5122 35.1233 9.92435 34.5355 9.21099 34.2416 8.37207 34.2416 7.53315 34.2416 6.81407 34.5355 6.21485 35.1233 5.62133 35.7111 5.32457 36.4245 5.32457 37.2634ZM11.6079 2.83349 16.2647 2.83349 16.2647 0 1.97745 0 1.97745 2.83349 6.68567 2.83349 6.68567 25.5785 1.97745 25.5785 1.97745 28.4376 11.6079 28.4376 11.6079 2.83349Z" fill="#000000" fill-rule="nonzero" fill-opacity="1" transform="matrix(1 0 0 -1.00039 2295.06 528.088)"/><path d="M2.25138 0 2.25138 2.83349 6.68567 2.83349 6.68567 25.5785 1.97745 25.5785 1.97745 28.4376 11.6079 28.4376 11.6079 23.3784C12.521 25.3074 13.7023 26.7626 15.1519 27.7442 16.6072 28.7258 18.2993 29.2166 20.2282 29.2166 23.367 29.2166 25.6755 28.3149 27.1536 26.5115 28.6317 24.7082 29.3707 21.9003 29.3707 18.0881L29.3707 2.83349 33.7622 2.83349 33.7622 0 20.1683 0 20.1683 2.83349 24.4228 2.83349 24.4228 16.5301C24.4228 20.0114 23.9948 22.3968 23.1387 23.6866 22.2827 24.9821 20.7761 25.6298 18.6189 25.6298 16.3361 25.6298 14.5955 24.7938 13.397 23.1216 12.2043 21.4552 11.6079 19.0269 11.6079 15.8367L11.6079 2.83349 15.8881 2.83349 15.8881 0 2.25138 0Z" fill="#000000" fill-rule="nonzero" fill-opacity="1" transform="matrix(1 0 0 -1.00039 2312.58 528.088)"/><path d="M28.7544 25.5785 28.7544 0.616348C28.7544-3.46981 27.6301-6.62289 25.3816-8.84289 23.1387-11.0629 19.94-12.1729 15.7854-12.1729 13.9135-12.1729 12.1215-12.0017 10.4094-11.6593 8.69736-11.3225 7.05662-10.8146 5.48721-10.1355L5.48721-4.17747 8.05533-4.17747C8.37492-6.03223 9.13109-7.38762 10.3238-8.24366 11.5223-9.0997 13.2344-9.52772 15.4601-9.52772 18.3535-9.52772 20.4708-8.71163 21.8119-7.07945 23.1587-5.44726 23.8321-2.882 23.8321 0.616348L23.8321 4.44284C22.8734 2.65658 21.6492 1.33828 20.1597 0.487943 18.6702-0.356683 16.8269-0.778996 14.6297-0.778996 11.1371-0.778996 8.28076 0.607788 6.06076 3.38136 3.84076 6.15492 2.73077 9.77312 2.73077 14.2359 2.73077 18.6931 3.83506 22.3027 6.04364 25.0648 8.25793 27.8327 11.12 29.2166 14.6297 29.2166 16.8269 29.2166 18.6702 28.7915 20.1597 27.9411 21.6492 27.0965 22.8734 25.7811 23.8321 23.9948L23.8321 28.4376 33.4626 28.4376 33.4626 25.5785 28.7544 25.5785ZM23.8321 15.6227C23.8321 19.0298 23.1758 21.6321 21.8632 23.4298 20.5564 25.2332 18.656 26.1349 16.162 26.1349 13.6281 26.1349 11.7135 25.1362 10.418 23.1387 9.12823 21.1413 8.48335 18.1737 8.48335 14.2359 8.48335 10.3096 9.12823 7.33911 10.418 5.32457 11.7135 3.31002 13.6281 2.30275 16.162 2.30275 18.656 2.30275 20.5564 3.19873 21.8632 4.99071 23.1758 6.78269 23.8321 9.39075 23.8321 12.8149L23.8321 15.6227Z" fill="#000000" fill-rule="nonzero" fill-opacity="1" transform="matrix(1 0 0 -1.00039 2347.87 528.088)"/><path d="M9.63044 39.9428 9.63044 25.0905 5.37593 25.0905 5.37593 39.9428 9.63044 39.9428Z" fill="#000000" fill-rule="nonzero" fill-opacity="1" transform="matrix(1 0 0 -1.00039 2382.94 528.088)"/><path d="M3.07318 1.57511 3.07318 8.20942 5.91523 8.20942C5.98372 6.09215 6.64572 4.50562 7.90124 3.44984 9.16248 2.39976 11.0229 1.87473 13.4826 1.87473 15.6969 1.87473 17.3833 2.28848 18.5418 3.11598 19.7003 3.94349 20.2796 5.15336 20.2796 6.74559 20.2796 7.9897 19.8544 8.99412 19.0041 9.75885 18.1595 10.5293 16.3732 11.3511 13.6453 12.2242L10.0841 13.4313C7.64158 14.2131 5.87243 15.1918 4.7767 16.3675 3.68097 17.5488 3.1331 19.0497 3.1331 20.8702 3.1331 23.4726 4.08616 25.5128 5.99228 26.9909 7.89839 28.4747 10.5378 29.2166 13.9106 29.2166 15.4116 29.2166 16.9895 29.0197 18.6445 28.626 20.3053 28.2322 22.0173 27.6615 23.7808 26.9139L23.7808 20.7076 20.9473 20.7076C20.8731 22.5452 20.2282 23.9805 19.0126 25.0135 17.8028 26.0464 16.1563 26.5629 14.0733 26.5629 12.0017 26.5629 10.4351 26.1977 9.37363 25.4672 8.31214 24.7367 7.7814 23.641 7.7814 22.18 7.7814 20.9815 8.18374 20.0199 8.98841 19.2951 9.79309 18.5761 11.3996 17.8427 13.8079 17.0951L17.7115 15.8881C20.4051 15.0492 22.3426 14.002 23.524 12.7464 24.711 11.4909 25.3045 9.87299 25.3045 7.89268 25.3045 5.19901 24.2744 3.07889 22.2142 1.53231 20.154-0.00856039 17.3148-0.778996 13.6966-0.778996 11.859-0.778996 10.067-0.582107 8.3207-0.188329 6.57438 0.205449 4.82521 0.793263 3.07318 1.57511Z" fill="#000000" fill-rule="nonzero" fill-opacity="1" transform="matrix(1 0 0 -1.00039 2398 528.088)"/><path d="M13.534 2.83349 18.6189 2.83349 18.6189 0 3.02182 0 3.02182 2.83349 8.10669 2.83349 8.10669 37.0751 3.02182 37.0751 3.02182 39.9428 18.6189 39.9428 18.6189 37.0751 13.534 37.0751 13.534 2.83349Z" fill="#000000" fill-rule="nonzero" fill-opacity="1" transform="matrix(1 0 0 -1.00039 2443.53 528.088)"/><path d="M2.25138 0 2.25138 2.83349 6.68567 2.83349 6.68567 25.5785 1.97745 25.5785 1.97745 28.4376 11.6079 28.4376 11.6079 23.3784C12.521 25.3074 13.7023 26.7626 15.1519 27.7442 16.6072 28.7258 18.2993 29.2166 20.2282 29.2166 23.367 29.2166 25.6755 28.3149 27.1536 26.5115 28.6317 24.7082 29.3707 21.9003 29.3707 18.0881L29.3707 2.83349 33.7622 2.83349 33.7622 0 20.1683 0 20.1683 2.83349 24.4228 2.83349 24.4228 16.5301C24.4228 20.0114 23.9948 22.3968 23.1387 23.6866 22.2827 24.9821 20.7761 25.6298 18.6189 25.6298 16.3361 25.6298 14.5955 24.7938 13.397 23.1216 12.2043 21.4552 11.6079 19.0269 11.6079 15.8367L11.6079 2.83349 15.8881 2.83349 15.8881 0 2.25138 0Z" fill="#000000" fill-rule="nonzero" fill-opacity="1" transform="matrix(1 0 0 -1.00039 2465.17 528.088)"/><path d="M29.696 13.6966 8.48335 13.6966 8.48335 13.4826C8.48335 9.64756 9.20528 6.75415 10.6491 4.80238 12.093 2.85061 14.2245 1.87473 17.0437 1.87473 19.201 1.87473 20.9701 2.43971 22.3512 3.56968 23.7323 4.70536 24.6996 6.38605 25.2532 8.61176L29.2166 8.61176C28.4291 5.49007 26.9767 3.14452 24.8594 1.57511 22.7478 0.00570693 19.9714-0.778996 16.5301-0.778996 12.3755-0.778996 9.03692 0.590667 6.51446 3.32999 3.992 6.06932 2.73077 9.70463 2.73077 14.2359 2.73077 18.7273 3.96917 22.3455 6.44598 25.0905 8.92849 27.8413 12.1843 29.2166 16.2134 29.2166 20.5107 29.2166 23.8093 27.8898 26.1092 25.236 28.4091 22.588 29.6047 18.7416 29.696 13.6966ZM23.8921 16.5301C23.7836 19.8516 23.0817 22.354 21.7862 24.0376 20.4964 25.7211 18.6388 26.5629 16.2134 26.5629 13.9477 26.5629 12.1643 25.7154 10.8631 24.0205 9.56196 22.3255 8.7687 19.8287 8.48335 16.5301L23.8921 16.5301Z" fill="#000000" fill-rule="nonzero" fill-opacity="1" transform="matrix(1 0 0 -1.00039 2500.46 528.088)"/><path d="M28.7544 25.5785 28.7544-8.53471 33.4626-8.53471 33.4626-11.3939 19.1838-11.3939 19.1838-8.53471 23.8321-8.53471 23.8321 4.44284C22.8734 2.65658 21.6492 1.33828 20.1597 0.487943 18.6702-0.356683 16.8269-0.778996 14.6297-0.778996 11.1371-0.778996 8.28076 0.607788 6.06076 3.38136 3.84076 6.15492 2.73077 9.77312 2.73077 14.2359 2.73077 18.6931 3.83506 22.3027 6.04364 25.0648 8.25793 27.8327 11.12 29.2166 14.6297 29.2166 16.8269 29.2166 18.6702 28.7915 20.1597 27.9411 21.6492 27.0965 22.8734 25.7811 23.8321 23.9948L23.8321 28.4376 33.4626 28.4376 33.4626 25.5785 28.7544 25.5785ZM23.8321 15.6227C23.8321 19.0298 23.1758 21.6321 21.8632 23.4298 20.5564 25.2332 18.656 26.1349 16.162 26.1349 13.6281 26.1349 11.7135 25.1362 10.418 23.1387 9.12823 21.1413 8.48335 18.1737 8.48335 14.2359 8.48335 10.3096 9.12823 7.33911 10.418 5.32457 11.7135 3.31002 13.6281 2.30275 16.162 2.30275 18.656 2.30275 20.5564 3.19873 21.8632 4.99071 23.1758 6.78269 23.8321 9.39075 23.8321 12.8149L23.8321 15.6227Z" fill="#000000" fill-rule="nonzero" fill-opacity="1" transform="matrix(1 0 0 -1.00039 2532.88 528.088)"/><path d="M19.3979 28.4376 28.6003 28.4376 28.6003 2.83349 33.2486 2.83349 33.2486 0 23.6781 0 23.6781 5.03351C22.7649 3.13881 21.5865 1.69496 20.1426 0.701952 18.6988-0.285346 17.0238-0.778996 15.1177-0.778996 11.9617-0.778996 9.639 0.116992 8.1495 1.90897 6.65999 3.70665 5.91523 6.52017 5.91523 10.3495L5.91523 25.5785 1.47239 25.5785 1.47239 28.4376 10.8631 28.4376 10.8631 11.8818C10.8631 8.41772 11.2855 6.04364 12.1301 4.75958 12.9804 3.47552 14.4927 2.83349 16.6671 2.83349 18.9499 2.83349 20.6876 3.67241 21.8804 5.35025 23.0788 7.02808 23.6781 9.46209 23.6781 12.6523L23.6781 25.5785 19.3979 25.5785 19.3979 28.4376Z" fill="#000000" fill-rule="nonzero" fill-opacity="1" transform="matrix(1 0 0 -1.00039 2567.95 528.088)"/><path d="M21.8033 8.93705 21.8033 14.955 15.4601 14.955C13.0175 14.955 11.197 14.4271 9.99854 13.3713 8.80579 12.3213 8.20942 10.7091 8.20942 8.53471 8.20942 6.55441 8.81435 4.985 10.0242 3.8265 11.2398 2.66799 12.8834 2.08874 14.955 2.08874 17.0038 2.08874 18.656 2.72221 19.9115 3.98914 21.1727 5.25608 21.8033 6.90539 21.8033 8.93705ZM26.7256 17.7628 26.7256 2.83349 31.1085 2.83349 31.1085 0 21.8033 0 21.8033 3.07318C20.7133 1.75488 19.4549 0.781849 18.0282 0.154087 16.6015-0.467968 14.935-0.778996 13.0289-0.778996 9.87299-0.778996 7.36765 0.0599228 5.51289 1.73776 3.65814 3.4156 2.73077 5.68125 2.73077 8.53471 2.73077 11.4795 3.79225 13.7623 5.91523 15.383 8.03821 17.0038 11.0343 17.8142 14.9036 17.8142L21.8033 17.8142 21.8033 19.766C21.8033 21.9289 21.147 23.601 19.8344 24.7823 18.5275 25.9694 16.6871 26.5629 14.313 26.5629 12.3498 26.5629 10.789 26.1178 9.63044 25.2275 8.47194 24.3372 7.75001 23.016 7.46466 21.264L4.92223 21.264 4.92223 27.0166C6.63431 27.7471 8.29788 28.295 9.91294 28.6602 11.528 29.0312 13.1003 29.2166 14.6297 29.2166 18.5732 29.2166 21.575 28.2379 23.6353 26.2804 25.6955 24.3286 26.7256 21.4894 26.7256 17.7628Z" fill="#000000" fill-rule="nonzero" fill-opacity="1" transform="matrix(1 0 0 -1.00039 2603.24 528.088)"/><path d="M11.2398 2.83349 15.8881 2.83349 15.8881 0 1.57511 0 1.57511 2.83349 6.31757 2.83349 6.31757 38.7871 1.57511 38.7871 1.57511 41.6292 11.2398 41.6292 11.2398 2.83349Z" fill="#000000" fill-rule="nonzero" fill-opacity="1" transform="matrix(1 0 0 -1.00039 2635.9 528.088)"/><path d="M5.32457 37.2634C5.32457 38.0852 5.62133 38.7986 6.21485 39.4035 6.81407 40.0084 7.53315 40.3109 8.37207 40.3109 9.19386 40.3109 9.90152 40.0084 10.495 39.4035 11.0943 38.7986 11.3939 38.0852 11.3939 37.2634 11.3939 36.4245 11.1 35.7111 10.5122 35.1233 9.92435 34.5355 9.21099 34.2416 8.37207 34.2416 7.53315 34.2416 6.81407 34.5355 6.21485 35.1233 5.62133 35.7111 5.32457 36.4245 5.32457 37.2634ZM11.6079 2.83349 16.2647 2.83349 16.2647 0 1.97745 0 1.97745 2.83349 6.68567 2.83349 6.68567 25.5785 1.97745 25.5785 1.97745 28.4376 11.6079 28.4376 11.6079 2.83349Z" fill="#000000" fill-rule="nonzero" fill-opacity="1" transform="matrix(1 0 0 -1.00039 2653.42 528.088)"/><path d="M5.91523 25.5785 1.57511 25.5785 1.57511 28.4376 5.91523 28.4376 5.91523 37.2634 10.8631 37.2634 10.8631 28.4376 20.1169 28.4376 20.1169 25.5785 10.8631 25.5785 10.8631 7.51603C10.8631 5.1077 11.0943 3.56398 11.5565 2.88485 12.0188 2.21144 12.8748 1.87473 14.1247 1.87473 15.4087 1.87473 16.3446 2.25138 16.9325 3.0047 17.5203 3.76372 17.8342 4.99071 17.8741 6.68567L21.5893 6.68567C21.4466 4.10043 20.7418 2.20858 19.4749 1.01013 18.208-0.182622 16.2819-0.778996 13.6966-0.778996 10.8603-0.778996 8.8543-0.151234 7.67867 1.10429 6.50305 2.36552 5.91523 4.50277 5.91523 7.51603L5.91523 25.5785Z" fill="#000000" fill-rule="nonzero" fill-opacity="1" transform="matrix(1 0 0 -1.00039 2670.94 528.088)"/><path d="M11.8219-5.21328 13.6966-0.479382 3.07318 25.5785-0.162648 25.5785-0.162648 28.4376 12.9176 28.4376 12.9176 25.5785 8.37207 25.5785 16.376 6.01796 24.3714 25.5785 20.1169 25.5785 20.1169 28.4376 30.7917 28.4376 30.7917 25.5785 27.6073 25.5785 14.5784-6.4203C13.6881-8.63459 12.6979-10.1469 11.6079-10.9573 10.5236-11.7677 8.99127-12.1729 7.01096-12.1729 6.17204-12.1729 5.3103-12.1015 4.42572-11.9589 3.54686-11.8162 2.65943-11.6107 1.76344-11.3425L1.76344-5.91523 4.2802-5.91523C4.38863-7.1251 4.6968-7.99256 5.20472-8.51759 5.71264-9.04834 6.50019-9.31371 7.56739-9.31371 8.54898-9.31371 9.33939-9.03978 9.93862-8.49191 10.5378-7.94975 11.1656-6.85688 11.8219-5.21328Z" fill="#000000" fill-rule="nonzero" fill-opacity="1" transform="matrix(1 0 0 -1.00039 2692.96 528.088)"/></g></g></g><path d="M390.415 923.917 1435.02 923.917 1435.02 933.084 390.415 933.083ZM395 942.25 367.5 928.5 395 914.75ZM1430.43 914.75 1457.93 928.5 1430.43 942.25Z" fill="#000000" fill-rule="nonzero" fill-opacity="1"/><text fill="#000000" fill-opacity="1" font-family="Cambria Math,Cambria Math_MSFontService,sans-serif" font-style="normal" font-variant="normal" font-weight="400" font-stretch="normal" font-size="64" text-anchor="start" direction="ltr" writing-mode="lr-tb" unicode-bidi="normal" text-decoration="none" transform="matrix(1 0 0 1 831.87 1040)"></text><text fill="#000000" fill-opacity="1" font-family="Cambria Math,Cambria Math_MSFontService,sans-serif" font-style="normal" font-variant="normal" font-weight="400" font-stretch="normal" font-size="64" text-anchor="start" direction="ltr" writing-mode="lr-tb" unicode-bidi="normal" text-decoration="none" transform="matrix(1 0 0 1 872.547 1040)">[</text><text fill="#000000" fill-opacity="1" font-family="Cambria Math,Cambria Math_MSFontService,sans-serif" font-style="normal" font-variant="normal" font-weight="400" font-stretch="normal" font-size="64" text-anchor="start" direction="ltr" writing-mode="lr-tb" unicode-bidi="normal" text-decoration="none" transform="matrix(1 0 0 1 894.891 1040)"></text><path d="M27.5312-37.4062 0-37.4062 0-40.7187 27.5312-40.7187Z" fill="#000000" fill-rule="nonzero" fill-opacity="1" transform="matrix(1 0 0 1 907.541 1027)"/><text fill="#000000" fill-opacity="0" font-family="Arial,Arial_MSFontService,sans-serif" font-size="3.3125" direction="ltr" writing-mode="lr-tb" y="-37.8203"></text><text fill="#000000" fill-opacity="1" font-family="Cambria Math,Cambria Math_MSFontService,sans-serif" font-style="normal" font-variant="normal" font-weight="400" font-stretch="normal" font-size="64" text-anchor="start" direction="ltr" writing-mode="lr-tb" unicode-bidi="normal" text-decoration="none" transform="matrix(1 0 0 1 937.699 1040)">]</text><path d="M896.5 912.5 896.5 945.5" stroke="#000000" stroke-width="9.16667" stroke-linecap="butt" stroke-linejoin="round" stroke-miterlimit="10" stroke-opacity="1" fill="none" fill-rule="evenodd"/><text fill="#000000" fill-opacity="1" font-family="Cambria Math,Cambria Math_MSFontService,sans-serif" font-style="normal" font-variant="normal" font-weight="400" font-stretch="normal" font-size="64" text-anchor="start" direction="ltr" writing-mode="lr-tb" unicode-bidi="normal" text-decoration="none" transform="matrix(1 0 0 1 1063.89 826)">+</text><text fill="#000000" fill-opacity="1" font-family="Cambria Math,Cambria Math_MSFontService,sans-serif" font-style="normal" font-variant="normal" font-weight="400" font-stretch="normal" font-size="64" text-anchor="start" direction="ltr" writing-mode="lr-tb" unicode-bidi="normal" text-decoration="none" transform="matrix(1 0 0 1 1112.01 826)"></text><text fill="#000000" fill-opacity="1" font-family="Cambria Math,Cambria Math_MSFontService,sans-serif" font-style="normal" font-variant="normal" font-weight="400" font-stretch="normal" font-size="64" text-anchor="start" direction="ltr" writing-mode="lr-tb" unicode-bidi="normal" text-decoration="none" transform="matrix(1 0 0 1 1154.55 778)"></text><text fill="#000000" fill-opacity="1" font-family="Cambria Math,Cambria Math_MSFontService,sans-serif" font-style="normal" font-variant="normal" font-weight="400" font-stretch="normal" font-size="64" text-anchor="start" direction="ltr" writing-mode="lr-tb" unicode-bidi="normal" text-decoration="none" transform="matrix(1 0 0 1 1204.6 778)"></text><text fill="#000000" fill-opacity="1" font-family="Cambria Math,Cambria Math_MSFontService,sans-serif" font-style="normal" font-variant="normal" font-weight="400" font-stretch="normal" font-size="64" text-anchor="start" direction="ltr" writing-mode="lr-tb" unicode-bidi="normal" text-decoration="none" transform="matrix(1 0 0 1 1266.98 778)"></text><path d="M1214.07 822.433 1250.57 822.433 1287.07 822.433 1287.07 826.433 1250.57 826.433 1217.36 826.433 1217.36 826.823 1211.7 826.823 1194.89 884.26 1191.86 884.26 1178.92 856.448 1173.64 858.792 1172.67 856.448 1182.92 851.76 1193.95 876.01 1209.39 822.667 1214.07 822.667Z" fill="#000000" fill-rule="evenodd" fill-opacity="1"/><text fill="#000000" fill-opacity="1" font-family="Cambria Math,Cambria Math_MSFontService,sans-serif" font-style="normal" font-variant="normal" font-weight="400" font-stretch="normal" font-size="64" text-anchor="start" direction="ltr" writing-mode="lr-tb" unicode-bidi="normal" text-decoration="none" transform="matrix(1 0 0 1 1213.72 879)">2</text><path d="M1154.07 806.433 1204.07 806.433 1254.07 806.433 1304.07 806.433 1304.07 810.433 1254.07 810.433 1204.07 810.433 1154.07 810.433Z" fill="#000000" fill-rule="evenodd" fill-opacity="1"/><path d="M1208.5 912.5 1208.5 945.5" stroke="#000000" stroke-width="9.16667" stroke-linecap="butt" stroke-linejoin="round" stroke-miterlimit="10" stroke-opacity="1" fill="none" fill-rule="evenodd"/><rect x="1211" y="900" width="248" height="61.0002" fill="#4285F4" fill-opacity="0.501961"/><path d="M625.5 914.5 625.5 947.5" stroke="#000000" stroke-width="9.16667" stroke-linecap="butt" stroke-linejoin="round" stroke-miterlimit="10" stroke-opacity="1" fill="none" fill-rule="evenodd"/><rect x="378" y="900" width="247" height="59.0001" fill="#4285F4" fill-opacity="0.501961"/><text fill="#000000" fill-opacity="1" font-family="Cambria Math,Cambria Math_MSFontService,sans-serif" font-style="normal" font-variant="normal" font-weight="400" font-stretch="normal" font-size="64" text-anchor="start" direction="ltr" writing-mode="lr-tb" unicode-bidi="normal" text-decoration="none" transform="matrix(1 0 0 1 505 824)"></text><text fill="#000000" fill-opacity="1" font-family="Cambria Math,Cambria Math_MSFontService,sans-serif" font-style="normal" font-variant="normal" font-weight="400" font-stretch="normal" font-size="64" text-anchor="start" direction="ltr" writing-mode="lr-tb" unicode-bidi="normal" text-decoration="none" transform="matrix(1 0 0 1 553.125 824)"></text><text fill="#000000" fill-opacity="1" font-family="Cambria Math,Cambria Math_MSFontService,sans-serif" font-style="normal" font-variant="normal" font-weight="400" font-stretch="normal" font-size="64" text-anchor="start" direction="ltr" writing-mode="lr-tb" unicode-bidi="normal" text-decoration="none" transform="matrix(1 0 0 1 595.659 776)"></text><text fill="#000000" fill-opacity="1" font-family="Cambria Math,Cambria Math_MSFontService,sans-serif" font-style="normal" font-variant="normal" font-weight="400" font-stretch="normal" font-size="64" text-anchor="start" direction="ltr" writing-mode="lr-tb" unicode-bidi="normal" text-decoration="none" transform="matrix(1 0 0 1 645.709 776)"></text><text fill="#000000" fill-opacity="1" font-family="Cambria Math,Cambria Math_MSFontService,sans-serif" font-style="normal" font-variant="normal" font-weight="400" font-stretch="normal" font-size="64" text-anchor="start" direction="ltr" writing-mode="lr-tb" unicode-bidi="normal" text-decoration="none" transform="matrix(1 0 0 1 708.088 776)"></text><path d="M655.178 820.398 691.678 820.398 728.178 820.398 728.178 824.398 691.678 824.398 658.467 824.398 658.467 824.787 652.811 824.787 635.998 882.225 632.967 882.225 620.03 854.412 614.748 856.756 613.78 854.412 624.03 849.725 635.061 873.975 650.498 820.631 655.178 820.631Z" fill="#000000" fill-rule="evenodd" fill-opacity="1"/><text fill="#000000" fill-opacity="1" font-family="Cambria Math,Cambria Math_MSFontService,sans-serif" font-style="normal" font-variant="normal" font-weight="400" font-stretch="normal" font-size="64" text-anchor="start" direction="ltr" writing-mode="lr-tb" unicode-bidi="normal" text-decoration="none" transform="matrix(1 0 0 1 654.83 877)">2</text><path d="M595.178 804.398 645.178 804.398 695.178 804.398 745.178 804.398 745.178 808.398 695.178 808.398 645.178 808.398 595.178 808.398Z" fill="#000000" fill-rule="evenodd" fill-opacity="1"/></g></g></svg>