<svg width="2631" height="922" xmlns="http://www.w3.org/2000/svg" xmlns:xlink="http://www.w3.org/1999/xlink" xml:space="preserve" overflow="hidden"><defs><clipPath id="clip0"><rect x="302" y="462" width="2631" height="922"/></clipPath><clipPath id="clip1"><rect x="302" y="462" width="2631" height="922"/></clipPath><clipPath id="clip2"><rect x="1694" y="466" width="1238" height="917"/></clipPath><clipPath id="clip3"><rect x="1694" y="466" width="1238" height="917"/></clipPath><clipPath id="clip4"><rect x="1694" y="466" width="1238" height="917"/></clipPath><clipPath id="clip5"><rect x="1862" y="551" width="1053" height="693"/></clipPath></defs><g clip-path="url(#clip0)" transform="translate(-302 -462)"><g clip-path="url(#clip1)"><path d="M367.5 923.917 1435.02 923.917 1435.02 933.084 367.5 933.083ZM1430.43 914.75 1457.93 928.5 1430.43 942.25Z" fill="#000000" fill-rule="nonzero" fill-opacity="1"/><text fill="#000000" fill-opacity="1" font-family="Cambria Math,Cambria Math_MSFontService,sans-serif" font-style="normal" font-variant="normal" font-weight="400" font-stretch="normal" font-size="64" text-anchor="start" direction="ltr" writing-mode="lr-tb" unicode-bidi="normal" text-decoration="none" transform="matrix(1 0 0 1 691.178 1040)">𝔼</text><text fill="#000000" fill-opacity="1" font-family="Cambria Math,Cambria Math_MSFontService,sans-serif" font-style="normal" font-variant="normal" font-weight="400" font-stretch="normal" font-size="64" text-anchor="start" direction="ltr" writing-mode="lr-tb" unicode-bidi="normal" text-decoration="none" transform="matrix(1 0 0 1 731.855 1040)">[</text><text fill="#000000" fill-opacity="1" font-family="Cambria Math,Cambria Math_MSFontService,sans-serif" font-style="normal" font-variant="normal" font-weight="400" font-stretch="normal" font-size="64" text-anchor="start" direction="ltr" writing-mode="lr-tb" unicode-bidi="normal" text-decoration="none" transform="matrix(1 0 0 1 754.199 1040)">𝑋</text><text fill="#000000" fill-opacity="1" font-family="Cambria Math,Cambria Math_MSFontService,sans-serif" font-style="normal" font-variant="normal" font-weight="400" font-stretch="normal" font-size="64" text-anchor="start" direction="ltr" writing-mode="lr-tb" unicode-bidi="normal" text-decoration="none" transform="matrix(1 0 0 1 797.007 1040)">]</text><path d="M755.5 912.5 755.5 945.5" stroke="#000000" stroke-width="9.16667" stroke-linecap="butt" stroke-linejoin="round" stroke-miterlimit="10" stroke-opacity="1" fill="none" fill-rule="evenodd"/><path d="M368.5 912.5 368.5 945.5" stroke="#000000" stroke-width="9.16667" stroke-linecap="butt" stroke-linejoin="round" stroke-miterlimit="10" stroke-opacity="1" fill="none" fill-rule="evenodd"/><text fill="#000000" fill-opacity="1" font-family="Cambria Math,Cambria Math_MSFontService,sans-serif" font-style="normal" font-variant="normal" font-weight="400" font-stretch="normal" font-size="64" text-anchor="start" direction="ltr" writing-mode="lr-tb" unicode-bidi="normal" text-decoration="none" transform="matrix(1 0 0 1 349.371 863)">0</text><text fill="#000000" fill-opacity="1" font-family="Cambria Math,Cambria Math_MSFontService,sans-serif" font-style="normal" font-variant="normal" font-weight="400" font-stretch="normal" font-size="64" text-anchor="start" direction="ltr" writing-mode="lr-tb" unicode-bidi="normal" text-decoration="none" transform="matrix(1 0 0 1 1029.28 863)">𝜖</text><text fill="#000000" fill-opacity="1" font-family="Cambria Math,Cambria Math_MSFontService,sans-serif" font-style="normal" font-variant="normal" font-weight="400" font-stretch="normal" font-size="64" text-anchor="start" direction="ltr" writing-mode="lr-tb" unicode-bidi="normal" text-decoration="none" transform="matrix(1 0 0 1 1075.37 863)">⋅</text><text fill="#000000" fill-opacity="1" font-family="Cambria Math,Cambria Math_MSFontService,sans-serif" font-style="normal" font-variant="normal" font-weight="400" font-stretch="normal" font-size="64" text-anchor="start" direction="ltr" writing-mode="lr-tb" unicode-bidi="normal" text-decoration="none" transform="matrix(1 0 0 1 1107.95 863)">𝔼</text><text fill="#000000" fill-opacity="1" font-family="Cambria Math,Cambria Math_MSFontService,sans-serif" font-style="normal" font-variant="normal" font-weight="400" font-stretch="normal" font-size="64" text-anchor="start" direction="ltr" writing-mode="lr-tb" unicode-bidi="normal" text-decoration="none" transform="matrix(1 0 0 1 1148.63 863)">[</text><text fill="#000000" fill-opacity="1" font-family="Cambria Math,Cambria Math_MSFontService,sans-serif" font-style="normal" font-variant="normal" font-weight="400" font-stretch="normal" font-size="64" text-anchor="start" direction="ltr" writing-mode="lr-tb" unicode-bidi="normal" text-decoration="none" transform="matrix(1 0 0 1 1170.97 863)">𝑋</text><text fill="#000000" fill-opacity="1" font-family="Cambria Math,Cambria Math_MSFontService,sans-serif" font-style="normal" font-variant="normal" font-weight="400" font-stretch="normal" font-size="64" text-anchor="start" direction="ltr" writing-mode="lr-tb" unicode-bidi="normal" text-decoration="none" transform="matrix(1 0 0 1 1213.78 863)">]</text><path d="M1108.5 912.5 1108.5 945.5" stroke="#000000" stroke-width="9.16667" stroke-linecap="butt" stroke-linejoin="round" stroke-miterlimit="10" stroke-opacity="1" fill="none" fill-rule="evenodd"/><g clip-path="url(#clip2)"><g clip-path="url(#clip3)"><g clip-path="url(#clip4)"><path d="M0 915.64 1235.98 915.64 1235.98 0 0 0Z" fill="#FFFFFF" fill-rule="nonzero" fill-opacity="1" transform="matrix(1 0 0 1.00149 1695.01 466)"/><path d="M167.47 776.591 1219.55 776.591 1219.55 85.4585 167.47 85.4585Z" fill="#FFFFFF" fill-rule="nonzero" fill-opacity="1" transform="matrix(1 0 0 1.00149 1695.01 466)"/><path d="M0 0 0-13.6967" stroke="#000000" stroke-width="2.28278" stroke-linecap="butt" stroke-linejoin="round" stroke-miterlimit="4" stroke-opacity="1" fill="none" fill-rule="nonzero" transform="matrix(1 0 0 1.00149 1909.34 1243.74)"/><path d="M0 0 0 13.6967" stroke="#000000" stroke-width="2.28278" stroke-linecap="butt" stroke-linejoin="round" stroke-miterlimit="4" stroke-opacity="1" fill="none" fill-rule="nonzero" transform="matrix(1 0 0 1.00149 1909.34 551.586)"/><path d="M14.5099 1.56227C16.7879 1.56227 18.4905 2.81067 19.6176 5.30745 20.7495 7.80424 21.3154 11.5708 21.3154 16.6072 21.3154 21.6626 20.7495 25.4387 19.6176 27.9355 18.4905 30.4323 16.7879 31.6807 14.5099 31.6807 12.2366 31.6807 10.5341 30.4323 9.40218 27.9355 8.27506 25.4387 7.7115 21.6626 7.7115 16.6072 7.7115 11.5708 8.27506 7.80424 9.40218 5.30745 10.5341 2.81067 12.2366 1.56227 14.5099 1.56227ZM14.5099-0.649164C10.9003-0.649164 8.0801 0.86555 6.04936 3.89499 4.02339 6.92917 3.01041 11.1666 3.01041 16.6072 3.01041 22.0621 4.02339 26.3042 6.04936 29.3337 8.0801 32.3678 10.9003 33.885 14.5099 33.885 18.1386 33.885 20.9635 32.3678 22.9847 29.3337 25.0059 26.3042 26.0165 22.0621 26.0165 16.6072 26.0165 11.1666 25.0059 6.92917 22.9847 3.89499 20.9635 0.86555 18.1386-0.649164 14.5099-0.649164Z" fill="#000000" fill-rule="nonzero" fill-opacity="1" transform="matrix(1 0 0 -1.00149 1894.82 1294.49)"/><path d="M0 0 0-13.6967" stroke="#000000" stroke-width="2.28278" stroke-linecap="butt" stroke-linejoin="round" stroke-miterlimit="4" stroke-opacity="1" fill="none" fill-rule="nonzero" transform="matrix(1 0 0 1.00149 2100.82 1243.74)"/><path d="M0 0 0 13.6967" stroke="#000000" stroke-width="2.28278" stroke-linecap="butt" stroke-linejoin="round" stroke-miterlimit="4" stroke-opacity="1" fill="none" fill-rule="nonzero" transform="matrix(1 0 0 1.00149 2100.82 551.586)"/><path d="M5.84248 25.3459 3.34569 25.3459 3.34569 31.274C4.93413 32.1253 6.53445 32.7721 8.14666 33.2144 9.75887 33.6615 11.3378 33.885 12.8834 33.885 16.3456 33.885 19.0802 33.0455 21.0871 31.3668 23.0941 29.688 24.0976 27.4076 24.0976 24.5256 24.0976 21.2678 21.8243 17.3729 17.2778 12.8406 16.9211 12.4982 16.6524 12.239 16.4717 12.063L8.06819 3.65958 21.9575 3.65958 21.9575 7.76144 24.5684 7.76144 24.5684 0 3.09601 0 3.09601 2.43258 13.1973 12.5053C15.4278 14.7358 17.0186 16.7832 17.9697 18.6474 18.9209 20.5117 19.3965 22.4711 19.3965 24.5256 19.3965 26.7655 18.8115 28.5181 17.6416 29.7831 16.4764 31.0481 14.8689 31.6807 12.8192 31.6807 10.6934 31.6807 9.05028 31.1528 7.88984 30.097 6.73419 29.0412 6.05173 27.4575 5.84248 25.3459Z" fill="#000000" fill-rule="nonzero" fill-opacity="1" transform="matrix(1 0 0 -1.00149 2086.3 1294.49)"/><path d="M0 0 0-13.6967" stroke="#000000" stroke-width="2.28278" stroke-linecap="butt" stroke-linejoin="round" stroke-miterlimit="4" stroke-opacity="1" fill="none" fill-rule="nonzero" transform="matrix(1 0 0 1.00149 2292.3 1243.74)"/><path d="M0 0 0 13.6967" stroke="#000000" stroke-width="2.28278" stroke-linecap="butt" stroke-linejoin="round" stroke-miterlimit="4" stroke-opacity="1" fill="none" fill-rule="nonzero" transform="matrix(1 0 0 1.00149 2292.3 551.586)"/><path d="M15.9366 11.2783 15.9366 28.9841 4.57269 11.2783 15.9366 11.2783ZM25.7454 0 10.5864 0 10.5864 2.36125 15.9366 2.36125 15.9366 8.89569 1.40533 8.89569 1.40533 11.3283 15.9866 33.885 20.3952 33.885 20.3952 11.2783 26.7513 11.2783 26.7513 8.89569 20.3952 8.89569 20.3952 2.36125 25.7454 2.36125 25.7454 0Z" fill="#000000" fill-rule="nonzero" fill-opacity="1" transform="matrix(1 0 0 -1.00149 2277.77 1294.49)"/><path d="M0 0 0-13.6967" stroke="#000000" stroke-width="2.28278" stroke-linecap="butt" stroke-linejoin="round" stroke-miterlimit="4" stroke-opacity="1" fill="none" fill-rule="nonzero" transform="matrix(1 0 0 1.00149 2483.78 1243.74)"/><path d="M0 0 0 13.6967" stroke="#000000" stroke-width="2.28278" stroke-linecap="butt" stroke-linejoin="round" stroke-miterlimit="4" stroke-opacity="1" fill="none" fill-rule="nonzero" transform="matrix(1 0 0 1.00149 2483.78 551.586)"/><path d="M14.9379 1.56227C17.0304 1.56227 18.6403 2.33034 19.7674 3.86645 20.8993 5.40733 21.4652 7.61877 21.4652 10.5008 21.4652 13.3828 20.8993 15.5919 19.7674 17.128 18.6403 18.6688 17.0304 19.4393 14.9379 19.4393 12.8121 19.4393 11.1904 18.695 10.0727 17.2064 8.9599 15.7226 8.40347 13.5754 8.40347 10.7647 8.40347 7.81137 8.96703 5.53811 10.0942 3.94492 11.2261 2.35649 12.8406 1.56227 14.9379 1.56227ZM7.6687 18.3264C8.68168 19.4393 9.82542 20.2691 11.1 20.8161 12.3793 21.3677 13.8227 21.6436 15.4301 21.6436 18.7402 21.6436 21.3582 20.6472 23.2843 18.6546 25.2104 16.6666 26.1735 13.9487 26.1735 10.5008 26.1735 7.12892 25.1367 4.42764 23.0632 2.39691 20.9896 0.366195 18.2218-0.649164 14.7596-0.649164 10.9978-0.649164 8.10621 0.751411 6.08502 3.55257 4.06382 6.35848 3.05321 10.3605 3.05321 15.5585 3.05321 21.3844 4.24929 25.8952 6.64145 29.0911 9.03359 32.287 12.4078 33.885 16.7641 33.885 17.9388 33.885 19.173 33.7732 20.4665 33.5497 21.7601 33.3262 23.0822 32.9932 24.4328 32.551L24.4328 27.0652 21.9146 27.0652C21.734 28.5632 21.1608 29.707 20.1954 30.4965 19.23 31.2859 17.9293 31.6807 16.2933 31.6807 13.4113 31.6807 11.2641 30.5868 9.85161 28.3992 8.43914 26.2163 7.7115 22.8587 7.6687 18.3264Z" fill="#000000" fill-rule="nonzero" fill-opacity="1" transform="matrix(1 0 0 -1.00149 2469.25 1294.49)"/><path d="M0 0 0-13.6967" stroke="#000000" stroke-width="2.28278" stroke-linecap="butt" stroke-linejoin="round" stroke-miterlimit="4" stroke-opacity="1" fill="none" fill-rule="nonzero" transform="matrix(1 0 0 1.00149 2675.26 1243.74)"/><path d="M0 0 0 13.6967" stroke="#000000" stroke-width="2.28278" stroke-linecap="butt" stroke-linejoin="round" stroke-miterlimit="4" stroke-opacity="1" fill="none" fill-rule="nonzero" transform="matrix(1 0 0 1.00149 2675.26 551.586)"/><path d="M21.2655 9.09544C21.2655 11.4733 20.6734 13.3186 19.4892 14.6312 18.3098 15.9485 16.65 16.6072 14.5099 16.6072 12.3698 16.6072 10.71 15.9485 9.53059 14.6312 8.35118 13.3186 7.76144 11.4733 7.76144 9.09544 7.76144 6.70328 8.35118 4.84852 9.53059 3.53117 10.71 2.21857 12.3698 1.56227 14.5099 1.56227 16.65 1.56227 18.3098 2.21857 19.4892 3.53117 20.6734 4.84852 21.2655 6.70328 21.2655 9.09544ZM20.3524 25.2603C20.3524 27.2815 19.8388 28.8557 18.8115 29.9828 17.789 31.1147 16.3552 31.6807 14.5099 31.6807 12.6837 31.6807 11.2546 31.1147 10.2226 29.9828 9.19053 28.8557 8.67455 27.2815 8.67455 25.2603 8.67455 23.2249 9.19053 21.6412 10.2226 20.5093 11.2546 19.3822 12.6837 18.8186 14.5099 18.8186 16.3552 18.8186 17.789 19.3822 18.8115 20.5093 19.8388 21.6412 20.3524 23.2249 20.3524 25.2603ZM17.9483 17.72C20.4736 17.3824 22.4425 16.4503 23.855 14.9236 25.2675 13.4018 25.9737 11.459 25.9737 9.09544 25.9737 5.97564 24.9845 3.5716 23.0061 1.88329 21.0277 0.194987 18.1957-0.649164 14.5099-0.649164 10.8432-0.649164 8.0159 0.194987 6.02796 1.88329 4.04479 3.5716 3.05321 5.97564 3.05321 9.09544 3.05321 11.459 3.75945 13.4018 5.17191 14.9236 6.58438 16.4503 8.56041 17.3824 11.1 17.72 8.85524 18.1243 7.13368 18.9756 5.93522 20.2739 4.74152 21.577 4.14467 23.2392 4.14467 25.2603 4.14467 27.9331 5.06491 30.0376 6.9054 31.5736 8.75067 33.1145 11.2855 33.885 14.5099 33.885 17.7391 33.885 20.2739 33.1145 22.1144 31.5736 23.9597 30.0376 24.8823 27.9331 24.8823 25.2603 24.8823 23.2392 24.283 21.577 23.0846 20.2739 21.8861 18.9756 20.174 18.1243 17.9483 17.72Z" fill="#000000" fill-rule="nonzero" fill-opacity="1" transform="matrix(1 0 0 -1.00149 2660.73 1294.49)"/><path d="M0 0 0-13.6967" stroke="#000000" stroke-width="2.28278" stroke-linecap="butt" stroke-linejoin="round" stroke-miterlimit="4" stroke-opacity="1" fill="none" fill-rule="nonzero" transform="matrix(1 0 0 1.00149 2866.73 1243.74)"/><path d="M0 0 0 13.6967" stroke="#000000" stroke-width="2.28278" stroke-linecap="butt" stroke-linejoin="round" stroke-miterlimit="4" stroke-opacity="1" fill="none" fill-rule="nonzero" transform="matrix(1 0 0 1.00149 2866.73 551.586)"/><path d="M6.48451 0 6.48451 2.36125 12.2842 2.36125 12.2842 30.0542 5.5714 25.7026 5.5714 28.6274 13.6895 33.885 16.7641 33.885 16.7641 2.36125 22.5638 2.36125 22.5638 0 6.48451 0Z" fill="#000000" fill-rule="nonzero" fill-opacity="1" transform="matrix(1 0 0 -1.00149 2837.68 1294.49)"/><path d="M14.5099 1.56227C16.7879 1.56227 18.4905 2.81067 19.6176 5.30745 20.7495 7.80424 21.3154 11.5708 21.3154 16.6072 21.3154 21.6626 20.7495 25.4387 19.6176 27.9355 18.4905 30.4323 16.7879 31.6807 14.5099 31.6807 12.2366 31.6807 10.5341 30.4323 9.40218 27.9355 8.27506 25.4387 7.7115 21.6626 7.7115 16.6072 7.7115 11.5708 8.27506 7.80424 9.40218 5.30745 10.5341 2.81067 12.2366 1.56227 14.5099 1.56227ZM14.5099-0.649164C10.9003-0.649164 8.0801 0.86555 6.04936 3.89499 4.02339 6.92917 3.01041 11.1666 3.01041 16.6072 3.01041 22.0621 4.02339 26.3042 6.04936 29.3337 8.0801 32.3678 10.9003 33.885 14.5099 33.885 18.1386 33.885 20.9635 32.3678 22.9847 29.3337 25.0059 26.3042 26.0165 22.0621 26.0165 16.6072 26.0165 11.1666 25.0059 6.92917 22.9847 3.89499 20.9635 0.86555 18.1386-0.649164 14.5099-0.649164Z" fill="#000000" fill-rule="nonzero" fill-opacity="1" transform="matrix(1 0 0 -1.00149 2866.73 1294.49)"/><path d="M0 0 0-6.84833" stroke="#000000" stroke-width="2.28278" stroke-linecap="butt" stroke-linejoin="round" stroke-miterlimit="4" stroke-opacity="1" fill="none" fill-rule="nonzero" transform="matrix(1 0 0 1.00149 1957.21 1243.74)"/><path d="M0 0 0 6.84833" stroke="#000000" stroke-width="2.28278" stroke-linecap="butt" stroke-linejoin="round" stroke-miterlimit="4" stroke-opacity="1" fill="none" fill-rule="nonzero" transform="matrix(1 0 0 1.00149 1957.21 551.586)"/><path d="M0 0 0-6.84833" stroke="#000000" stroke-width="2.28278" stroke-linecap="butt" stroke-linejoin="round" stroke-miterlimit="4" stroke-opacity="1" fill="none" fill-rule="nonzero" transform="matrix(1 0 0 1.00149 2005.08 1243.74)"/><path d="M0 0 0 6.84833" stroke="#000000" stroke-width="2.28278" stroke-linecap="butt" stroke-linejoin="round" stroke-miterlimit="4" stroke-opacity="1" fill="none" fill-rule="nonzero" transform="matrix(1 0 0 1.00149 2005.08 551.586)"/><path d="M0 0 0-6.84833" stroke="#000000" stroke-width="2.28278" stroke-linecap="butt" stroke-linejoin="round" stroke-miterlimit="4" stroke-opacity="1" fill="none" fill-rule="nonzero" transform="matrix(1 0 0 1.00149 2052.95 1243.74)"/><path d="M0 0 0 6.84833" stroke="#000000" stroke-width="2.28278" stroke-linecap="butt" stroke-linejoin="round" stroke-miterlimit="4" stroke-opacity="1" fill="none" fill-rule="nonzero" transform="matrix(1 0 0 1.00149 2052.95 551.586)"/><path d="M0 0 0-6.84833" stroke="#000000" stroke-width="2.28278" stroke-linecap="butt" stroke-linejoin="round" stroke-miterlimit="4" stroke-opacity="1" fill="none" fill-rule="nonzero" transform="matrix(1 0 0 1.00149 2148.69 1243.74)"/><path d="M0 0 0 6.84833" stroke="#000000" stroke-width="2.28278" stroke-linecap="butt" stroke-linejoin="round" stroke-miterlimit="4" stroke-opacity="1" fill="none" fill-rule="nonzero" transform="matrix(1 0 0 1.00149 2148.69 551.586)"/><path d="M0 0 0-6.84833" stroke="#000000" stroke-width="2.28278" stroke-linecap="butt" stroke-linejoin="round" stroke-miterlimit="4" stroke-opacity="1" fill="none" fill-rule="nonzero" transform="matrix(1 0 0 1.00149 2196.56 1243.74)"/><path d="M0 0 0 6.84833" stroke="#000000" stroke-width="2.28278" stroke-linecap="butt" stroke-linejoin="round" stroke-miterlimit="4" stroke-opacity="1" fill="none" fill-rule="nonzero" transform="matrix(1 0 0 1.00149 2196.56 551.586)"/><path d="M0 0 0-6.84833" stroke="#000000" stroke-width="2.28278" stroke-linecap="butt" stroke-linejoin="round" stroke-miterlimit="4" stroke-opacity="1" fill="none" fill-rule="nonzero" transform="matrix(1 0 0 1.00149 2244.43 1243.74)"/><path d="M0 0 0 6.84833" stroke="#000000" stroke-width="2.28278" stroke-linecap="butt" stroke-linejoin="round" stroke-miterlimit="4" stroke-opacity="1" fill="none" fill-rule="nonzero" transform="matrix(1 0 0 1.00149 2244.43 551.586)"/><path d="M0 0 0-6.84833" stroke="#000000" stroke-width="2.28278" stroke-linecap="butt" stroke-linejoin="round" stroke-miterlimit="4" stroke-opacity="1" fill="none" fill-rule="nonzero" transform="matrix(1 0 0 1.00149 2340.17 1243.74)"/><path d="M0 0 0 6.84833" stroke="#000000" stroke-width="2.28278" stroke-linecap="butt" stroke-linejoin="round" stroke-miterlimit="4" stroke-opacity="1" fill="none" fill-rule="nonzero" transform="matrix(1 0 0 1.00149 2340.17 551.586)"/><path d="M0 0 0-6.84833" stroke="#000000" stroke-width="2.28278" stroke-linecap="butt" stroke-linejoin="round" stroke-miterlimit="4" stroke-opacity="1" fill="none" fill-rule="nonzero" transform="matrix(1 0 0 1.00149 2388.04 1243.74)"/><path d="M0 0 0 6.84833" stroke="#000000" stroke-width="2.28278" stroke-linecap="butt" stroke-linejoin="round" stroke-miterlimit="4" stroke-opacity="1" fill="none" fill-rule="nonzero" transform="matrix(1 0 0 1.00149 2388.04 551.586)"/><path d="M0 0 0-6.84833" stroke="#000000" stroke-width="2.28278" stroke-linecap="butt" stroke-linejoin="round" stroke-miterlimit="4" stroke-opacity="1" fill="none" fill-rule="nonzero" transform="matrix(1 0 0 1.00149 2435.91 1243.74)"/><path d="M0 0 0 6.84833" stroke="#000000" stroke-width="2.28278" stroke-linecap="butt" stroke-linejoin="round" stroke-miterlimit="4" stroke-opacity="1" fill="none" fill-rule="nonzero" transform="matrix(1 0 0 1.00149 2435.91 551.586)"/><path d="M0 0 0-6.84833" stroke="#000000" stroke-width="2.28278" stroke-linecap="butt" stroke-linejoin="round" stroke-miterlimit="4" stroke-opacity="1" fill="none" fill-rule="nonzero" transform="matrix(1 0 0 1.00149 2531.65 1243.74)"/><path d="M0 0 0 6.84833" stroke="#000000" stroke-width="2.28278" stroke-linecap="butt" stroke-linejoin="round" stroke-miterlimit="4" stroke-opacity="1" fill="none" fill-rule="nonzero" transform="matrix(1 0 0 1.00149 2531.65 551.586)"/><path d="M0 0 0-6.84833" stroke="#000000" stroke-width="2.28278" stroke-linecap="butt" stroke-linejoin="round" stroke-miterlimit="4" stroke-opacity="1" fill="none" fill-rule="nonzero" transform="matrix(1 0 0 1.00149 2579.52 1243.74)"/><path d="M0 0 0 6.84833" stroke="#000000" stroke-width="2.28278" stroke-linecap="butt" stroke-linejoin="round" stroke-miterlimit="4" stroke-opacity="1" fill="none" fill-rule="nonzero" transform="matrix(1 0 0 1.00149 2579.52 551.586)"/><path d="M0 0 0-6.84833" stroke="#000000" stroke-width="2.28278" stroke-linecap="butt" stroke-linejoin="round" stroke-miterlimit="4" stroke-opacity="1" fill="none" fill-rule="nonzero" transform="matrix(1 0 0 1.00149 2627.39 1243.74)"/><path d="M0 0 0 6.84833" stroke="#000000" stroke-width="2.28278" stroke-linecap="butt" stroke-linejoin="round" stroke-miterlimit="4" stroke-opacity="1" fill="none" fill-rule="nonzero" transform="matrix(1 0 0 1.00149 2627.39 551.586)"/><path d="M0 0 0-6.84833" stroke="#000000" stroke-width="2.28278" stroke-linecap="butt" stroke-linejoin="round" stroke-miterlimit="4" stroke-opacity="1" fill="none" fill-rule="nonzero" transform="matrix(1 0 0 1.00149 2723.13 1243.74)"/><path d="M0 0 0 6.84833" stroke="#000000" stroke-width="2.28278" stroke-linecap="butt" stroke-linejoin="round" stroke-miterlimit="4" stroke-opacity="1" fill="none" fill-rule="nonzero" transform="matrix(1 0 0 1.00149 2723.13 551.586)"/><path d="M0 0 0-6.84833" stroke="#000000" stroke-width="2.28278" stroke-linecap="butt" stroke-linejoin="round" stroke-miterlimit="4" stroke-opacity="1" fill="none" fill-rule="nonzero" transform="matrix(1 0 0 1.00149 2770.99 1243.74)"/><path d="M0 0 0 6.84833" stroke="#000000" stroke-width="2.28278" stroke-linecap="butt" stroke-linejoin="round" stroke-miterlimit="4" stroke-opacity="1" fill="none" fill-rule="nonzero" transform="matrix(1 0 0 1.00149 2770.99 551.586)"/><path d="M0 0 0-6.84833" stroke="#000000" stroke-width="2.28278" stroke-linecap="butt" stroke-linejoin="round" stroke-miterlimit="4" stroke-opacity="1" fill="none" fill-rule="nonzero" transform="matrix(1 0 0 1.00149 2818.86 1243.74)"/><path d="M0 0 0 6.84833" stroke="#000000" stroke-width="2.28278" stroke-linecap="butt" stroke-linejoin="round" stroke-miterlimit="4" stroke-opacity="1" fill="none" fill-rule="nonzero" transform="matrix(1 0 0 1.00149 2818.86 551.586)"/><path d="M22.7636 22.5139 21.8932 18.1267 19.3965 17.5702C19.4678 18.8923 19.0374 19.8935 18.1053 20.5735 17.1684 21.2441 16.0008 21.5794 14.6026 21.5794 13.2044 21.5794 11.918 21.2155 10.7433 20.4879 9.55435 19.746 8.8648 18.8686 8.67455 17.8556 8.42252 16.5478 8.84576 15.5157 9.94434 14.7596 11.0572 13.9844 12.6028 13.5968 14.5812 13.5968L15.6513 13.5968 15.2019 11.2569 13.1545 11.2569C11.1618 11.2569 9.42358 10.7813 7.93978 9.8302 6.43695 8.8648 5.5286 7.57118 5.21472 5.94949 4.97693 4.70347 5.40019 3.61202 6.48451 2.67513 7.57361 1.72397 8.94085 1.24839 10.5864 1.24839 12.3127 1.24839 13.8774 1.64075 15.2803 2.42545 16.688 3.21491 17.613 4.36819 18.0553 5.88528L20.3524 5.32886 19.4607 0.734769C17.7819 0.202121 16.1102-0.199743 14.4457-0.470823 12.8097-0.737144 11.421-0.870308 10.2796-0.870308 7.35004-0.870308 4.98644-0.282969 3.18875 0.891709 1.4196 2.08066 0.751411 3.78322 1.18419 5.99942 1.62648 8.32978 2.67989 10.068 4.34441 11.2141 5.22423 11.7943 6.79363 12.2319 9.05263 12.5267L5.90668 14.2888C4.8081 14.9117 4.44428 16.1673 4.81523 18.0553 5.18618 19.9719 6.19679 21.4367 7.84704 22.4497 9.49728 23.4436 11.7777 23.9406 14.6882 23.9406 15.492 23.9406 16.6452 23.8217 18.1481 23.5839 19.6461 23.3319 21.1847 22.9752 22.7636 22.5139Z" fill="#000000" fill-rule="nonzero" fill-opacity="1" transform="matrix(1 0 0 -1.00149 2376.19 1356.78)"/><path d="M0 0 13.6967 0" stroke="#000000" stroke-width="2.28278" stroke-linecap="butt" stroke-linejoin="round" stroke-miterlimit="4" stroke-opacity="1" fill="none" fill-rule="nonzero" transform="matrix(1 0 0 1.00149 1862.48 1243.74)"/><path d="M0 0-13.6967 0" stroke="#000000" stroke-width="2.28278" stroke-linecap="butt" stroke-linejoin="round" stroke-miterlimit="4" stroke-opacity="1" fill="none" fill-rule="nonzero" transform="matrix(1 0 0 1.00149 2914.55 1243.74)"/><path d="M14.5099 1.56227C16.7879 1.56227 18.4905 2.81067 19.6176 5.30745 20.7495 7.80424 21.3154 11.5708 21.3154 16.6072 21.3154 21.6626 20.7495 25.4387 19.6176 27.9355 18.4905 30.4323 16.7879 31.6807 14.5099 31.6807 12.2366 31.6807 10.5341 30.4323 9.40218 27.9355 8.27506 25.4387 7.7115 21.6626 7.7115 16.6072 7.7115 11.5708 8.27506 7.80424 9.40218 5.30745 10.5341 2.81067 12.2366 1.56227 14.5099 1.56227ZM14.5099-0.649164C10.9003-0.649164 8.0801 0.86555 6.04936 3.89499 4.02339 6.92917 3.01041 11.1666 3.01041 16.6072 3.01041 22.0621 4.02339 26.3042 6.04936 29.3337 8.0801 32.3678 10.9003 33.885 14.5099 33.885 18.1386 33.885 20.9635 32.3678 22.9847 29.3337 25.0059 26.3042 26.0165 22.0621 26.0165 16.6072 26.0165 11.1666 25.0059 6.92917 22.9847 3.89499 20.9635 0.86555 18.1386-0.649164 14.5099-0.649164Z" fill="#000000" fill-rule="nonzero" fill-opacity="1" transform="matrix(1 0 0 -1.00149 1773.89 1261.12)"/><path d="M4.30161 2.31844C4.30161 3.15071 4.58458 3.85694 5.15051 4.43715 5.71645 5.01735 6.42268 5.30745 7.26922 5.30745 8.08723 5.30745 8.78391 5.01735 9.35938 4.43715 9.93956 3.85694 10.2297 3.15071 10.2297 2.31844 10.2297 1.50045 9.93956 0.801347 9.35938 0.221144 8.78391-0.359061 8.08723-0.649164 7.26922-0.649164 6.42268-0.649164 5.71645-0.363817 5.15051 0.206877 4.58458 0.782329 4.30161 1.48618 4.30161 2.31844Z" fill="#000000" fill-rule="nonzero" fill-opacity="1" transform="matrix(1 0 0 -1.00149 1802.94 1261.12)"/><path d="M14.5099 1.56227C16.7879 1.56227 18.4905 2.81067 19.6176 5.30745 20.7495 7.80424 21.3154 11.5708 21.3154 16.6072 21.3154 21.6626 20.7495 25.4387 19.6176 27.9355 18.4905 30.4323 16.7879 31.6807 14.5099 31.6807 12.2366 31.6807 10.5341 30.4323 9.40218 27.9355 8.27506 25.4387 7.7115 21.6626 7.7115 16.6072 7.7115 11.5708 8.27506 7.80424 9.40218 5.30745 10.5341 2.81067 12.2366 1.56227 14.5099 1.56227ZM14.5099-0.649164C10.9003-0.649164 8.0801 0.86555 6.04936 3.89499 4.02339 6.92917 3.01041 11.1666 3.01041 16.6072 3.01041 22.0621 4.02339 26.3042 6.04936 29.3337 8.0801 32.3678 10.9003 33.885 14.5099 33.885 18.1386 33.885 20.9635 32.3678 22.9847 29.3337 25.0059 26.3042 26.0165 22.0621 26.0165 16.6072 26.0165 11.1666 25.0059 6.92917 22.9847 3.89499 20.9635 0.86555 18.1386-0.649164 14.5099-0.649164Z" fill="#000000" fill-rule="nonzero" fill-opacity="1" transform="matrix(1 0 0 -1.00149 1817.45 1261.12)"/><path d="M0 0 13.6967 0" stroke="#000000" stroke-width="2.28278" stroke-linecap="butt" stroke-linejoin="round" stroke-miterlimit="4" stroke-opacity="1" fill="none" fill-rule="nonzero" transform="matrix(1 0 0 1.00149 1862.48 1105.31)"/><path d="M0 0-13.6967 0" stroke="#000000" stroke-width="2.28278" stroke-linecap="butt" stroke-linejoin="round" stroke-miterlimit="4" stroke-opacity="1" fill="none" fill-rule="nonzero" transform="matrix(1 0 0 1.00149 2914.55 1105.31)"/><path d="M14.5099 1.56227C16.7879 1.56227 18.4905 2.81067 19.6176 5.30745 20.7495 7.80424 21.3154 11.5708 21.3154 16.6072 21.3154 21.6626 20.7495 25.4387 19.6176 27.9355 18.4905 30.4323 16.7879 31.6807 14.5099 31.6807 12.2366 31.6807 10.5341 30.4323 9.40218 27.9355 8.27506 25.4387 7.7115 21.6626 7.7115 16.6072 7.7115 11.5708 8.27506 7.80424 9.40218 5.30745 10.5341 2.81067 12.2366 1.56227 14.5099 1.56227ZM14.5099-0.649164C10.9003-0.649164 8.0801 0.86555 6.04936 3.89499 4.02339 6.92917 3.01041 11.1666 3.01041 16.6072 3.01041 22.0621 4.02339 26.3042 6.04936 29.3337 8.0801 32.3678 10.9003 33.885 14.5099 33.885 18.1386 33.885 20.9635 32.3678 22.9847 29.3337 25.0059 26.3042 26.0165 22.0621 26.0165 16.6072 26.0165 11.1666 25.0059 6.92917 22.9847 3.89499 20.9635 0.86555 18.1386-0.649164 14.5099-0.649164Z" fill="#000000" fill-rule="nonzero" fill-opacity="1" transform="matrix(1 0 0 -1.00149 1773.89 1122.68)"/><path d="M4.30161 2.31844C4.30161 3.15071 4.58458 3.85694 5.15051 4.43715 5.71645 5.01735 6.42268 5.30745 7.26922 5.30745 8.08723 5.30745 8.78391 5.01735 9.35938 4.43715 9.93956 3.85694 10.2297 3.15071 10.2297 2.31844 10.2297 1.50045 9.93956 0.801347 9.35938 0.221144 8.78391-0.359061 8.08723-0.649164 7.26922-0.649164 6.42268-0.649164 5.71645-0.363817 5.15051 0.206877 4.58458 0.782329 4.30161 1.48618 4.30161 2.31844Z" fill="#000000" fill-rule="nonzero" fill-opacity="1" transform="matrix(1 0 0 -1.00149 1802.94 1122.68)"/><path d="M5.84248 25.3459 3.34569 25.3459 3.34569 31.274C4.93413 32.1253 6.53445 32.7721 8.14666 33.2144 9.75887 33.6615 11.3378 33.885 12.8834 33.885 16.3456 33.885 19.0802 33.0455 21.0871 31.3668 23.0941 29.688 24.0976 27.4076 24.0976 24.5256 24.0976 21.2678 21.8243 17.3729 17.2778 12.8406 16.9211 12.4982 16.6524 12.239 16.4717 12.063L8.06819 3.65958 21.9575 3.65958 21.9575 7.76144 24.5684 7.76144 24.5684 0 3.09601 0 3.09601 2.43258 13.1973 12.5053C15.4278 14.7358 17.0186 16.7832 17.9697 18.6474 18.9209 20.5117 19.3965 22.4711 19.3965 24.5256 19.3965 26.7655 18.8115 28.5181 17.6416 29.7831 16.4764 31.0481 14.8689 31.6807 12.8192 31.6807 10.6934 31.6807 9.05028 31.1528 7.88984 30.097 6.73419 29.0412 6.05173 27.4575 5.84248 25.3459Z" fill="#000000" fill-rule="nonzero" fill-opacity="1" transform="matrix(1 0 0 -1.00149 1817.45 1122.68)"/><path d="M0 0 13.6967 0" stroke="#000000" stroke-width="2.28278" stroke-linecap="butt" stroke-linejoin="round" stroke-miterlimit="4" stroke-opacity="1" fill="none" fill-rule="nonzero" transform="matrix(1 0 0 1.00149 1862.48 966.881)"/><path d="M0 0-13.6967 0" stroke="#000000" stroke-width="2.28278" stroke-linecap="butt" stroke-linejoin="round" stroke-miterlimit="4" stroke-opacity="1" fill="none" fill-rule="nonzero" transform="matrix(1 0 0 1.00149 2914.55 966.881)"/><path d="M14.5099 1.56227C16.7879 1.56227 18.4905 2.81067 19.6176 5.30745 20.7495 7.80424 21.3154 11.5708 21.3154 16.6072 21.3154 21.6626 20.7495 25.4387 19.6176 27.9355 18.4905 30.4323 16.7879 31.6807 14.5099 31.6807 12.2366 31.6807 10.5341 30.4323 9.40218 27.9355 8.27506 25.4387 7.7115 21.6626 7.7115 16.6072 7.7115 11.5708 8.27506 7.80424 9.40218 5.30745 10.5341 2.81067 12.2366 1.56227 14.5099 1.56227ZM14.5099-0.649164C10.9003-0.649164 8.0801 0.86555 6.04936 3.89499 4.02339 6.92917 3.01041 11.1666 3.01041 16.6072 3.01041 22.0621 4.02339 26.3042 6.04936 29.3337 8.0801 32.3678 10.9003 33.885 14.5099 33.885 18.1386 33.885 20.9635 32.3678 22.9847 29.3337 25.0059 26.3042 26.0165 22.0621 26.0165 16.6072 26.0165 11.1666 25.0059 6.92917 22.9847 3.89499 20.9635 0.86555 18.1386-0.649164 14.5099-0.649164Z" fill="#000000" fill-rule="nonzero" fill-opacity="1" transform="matrix(1 0 0 -1.00149 1773.89 984.251)"/><path d="M4.30161 2.31844C4.30161 3.15071 4.58458 3.85694 5.15051 4.43715 5.71645 5.01735 6.42268 5.30745 7.26922 5.30745 8.08723 5.30745 8.78391 5.01735 9.35938 4.43715 9.93956 3.85694 10.2297 3.15071 10.2297 2.31844 10.2297 1.50045 9.93956 0.801347 9.35938 0.221144 8.78391-0.359061 8.08723-0.649164 7.26922-0.649164 6.42268-0.649164 5.71645-0.363817 5.15051 0.206877 4.58458 0.782329 4.30161 1.48618 4.30161 2.31844Z" fill="#000000" fill-rule="nonzero" fill-opacity="1" transform="matrix(1 0 0 -1.00149 1802.94 984.251)"/><path d="M15.9366 11.2783 15.9366 28.9841 4.57269 11.2783 15.9366 11.2783ZM25.7454 0 10.5864 0 10.5864 2.36125 15.9366 2.36125 15.9366 8.89569 1.40533 8.89569 1.40533 11.3283 15.9866 33.885 20.3952 33.885 20.3952 11.2783 26.7513 11.2783 26.7513 8.89569 20.3952 8.89569 20.3952 2.36125 25.7454 2.36125 25.7454 0Z" fill="#000000" fill-rule="nonzero" fill-opacity="1" transform="matrix(1 0 0 -1.00149 1817.45 984.251)"/><path d="M0 0 13.6967 0" stroke="#000000" stroke-width="2.28278" stroke-linecap="butt" stroke-linejoin="round" stroke-miterlimit="4" stroke-opacity="1" fill="none" fill-rule="nonzero" transform="matrix(1 0 0 1.00149 1862.48 828.449)"/><path d="M0 0-13.6967 0" stroke="#000000" stroke-width="2.28278" stroke-linecap="butt" stroke-linejoin="round" stroke-miterlimit="4" stroke-opacity="1" fill="none" fill-rule="nonzero" transform="matrix(1 0 0 1.00149 2914.55 828.449)"/><path d="M14.5099 1.56227C16.7879 1.56227 18.4905 2.81067 19.6176 5.30745 20.7495 7.80424 21.3154 11.5708 21.3154 16.6072 21.3154 21.6626 20.7495 25.4387 19.6176 27.9355 18.4905 30.4323 16.7879 31.6807 14.5099 31.6807 12.2366 31.6807 10.5341 30.4323 9.40218 27.9355 8.27506 25.4387 7.7115 21.6626 7.7115 16.6072 7.7115 11.5708 8.27506 7.80424 9.40218 5.30745 10.5341 2.81067 12.2366 1.56227 14.5099 1.56227ZM14.5099-0.649164C10.9003-0.649164 8.0801 0.86555 6.04936 3.89499 4.02339 6.92917 3.01041 11.1666 3.01041 16.6072 3.01041 22.0621 4.02339 26.3042 6.04936 29.3337 8.0801 32.3678 10.9003 33.885 14.5099 33.885 18.1386 33.885 20.9635 32.3678 22.9847 29.3337 25.0059 26.3042 26.0165 22.0621 26.0165 16.6072 26.0165 11.1666 25.0059 6.92917 22.9847 3.89499 20.9635 0.86555 18.1386-0.649164 14.5099-0.649164Z" fill="#000000" fill-rule="nonzero" fill-opacity="1" transform="matrix(1 0 0 -1.00149 1773.89 845.821)"/><path d="M4.30161 2.31844C4.30161 3.15071 4.58458 3.85694 5.15051 4.43715 5.71645 5.01735 6.42268 5.30745 7.26922 5.30745 8.08723 5.30745 8.78391 5.01735 9.35938 4.43715 9.93956 3.85694 10.2297 3.15071 10.2297 2.31844 10.2297 1.50045 9.93956 0.801347 9.35938 0.221144 8.78391-0.359061 8.08723-0.649164 7.26922-0.649164 6.42268-0.649164 5.71645-0.363817 5.15051 0.206877 4.58458 0.782329 4.30161 1.48618 4.30161 2.31844Z" fill="#000000" fill-rule="nonzero" fill-opacity="1" transform="matrix(1 0 0 -1.00149 1802.94 845.821)"/><path d="M14.9379 1.56227C17.0304 1.56227 18.6403 2.33034 19.7674 3.86645 20.8993 5.40733 21.4652 7.61877 21.4652 10.5008 21.4652 13.3828 20.8993 15.5919 19.7674 17.128 18.6403 18.6688 17.0304 19.4393 14.9379 19.4393 12.8121 19.4393 11.1904 18.695 10.0727 17.2064 8.9599 15.7226 8.40347 13.5754 8.40347 10.7647 8.40347 7.81137 8.96703 5.53811 10.0942 3.94492 11.2261 2.35649 12.8406 1.56227 14.9379 1.56227ZM7.6687 18.3264C8.68168 19.4393 9.82542 20.2691 11.1 20.8161 12.3793 21.3677 13.8227 21.6436 15.4301 21.6436 18.7402 21.6436 21.3582 20.6472 23.2843 18.6546 25.2104 16.6666 26.1735 13.9487 26.1735 10.5008 26.1735 7.12892 25.1367 4.42764 23.0632 2.39691 20.9896 0.366195 18.2218-0.649164 14.7596-0.649164 10.9978-0.649164 8.10621 0.751411 6.08502 3.55257 4.06382 6.35848 3.05321 10.3605 3.05321 15.5585 3.05321 21.3844 4.24929 25.8952 6.64145 29.0911 9.03359 32.287 12.4078 33.885 16.7641 33.885 17.9388 33.885 19.173 33.7732 20.4665 33.5497 21.7601 33.3262 23.0822 32.9932 24.4328 32.551L24.4328 27.0652 21.9146 27.0652C21.734 28.5632 21.1608 29.707 20.1954 30.4965 19.23 31.2859 17.9293 31.6807 16.2933 31.6807 13.4113 31.6807 11.2641 30.5868 9.85161 28.3992 8.43914 26.2163 7.7115 22.8587 7.6687 18.3264Z" fill="#000000" fill-rule="nonzero" fill-opacity="1" transform="matrix(1 0 0 -1.00149 1817.45 845.821)"/><path d="M0 0 13.6967 0" stroke="#000000" stroke-width="2.28278" stroke-linecap="butt" stroke-linejoin="round" stroke-miterlimit="4" stroke-opacity="1" fill="none" fill-rule="nonzero" transform="matrix(1 0 0 1.00149 1862.48 690.018)"/><path d="M0 0-13.6967 0" stroke="#000000" stroke-width="2.28278" stroke-linecap="butt" stroke-linejoin="round" stroke-miterlimit="4" stroke-opacity="1" fill="none" fill-rule="nonzero" transform="matrix(1 0 0 1.00149 2914.55 690.018)"/><path d="M14.5099 1.56227C16.7879 1.56227 18.4905 2.81067 19.6176 5.30745 20.7495 7.80424 21.3154 11.5708 21.3154 16.6072 21.3154 21.6626 20.7495 25.4387 19.6176 27.9355 18.4905 30.4323 16.7879 31.6807 14.5099 31.6807 12.2366 31.6807 10.5341 30.4323 9.40218 27.9355 8.27506 25.4387 7.7115 21.6626 7.7115 16.6072 7.7115 11.5708 8.27506 7.80424 9.40218 5.30745 10.5341 2.81067 12.2366 1.56227 14.5099 1.56227ZM14.5099-0.649164C10.9003-0.649164 8.0801 0.86555 6.04936 3.89499 4.02339 6.92917 3.01041 11.1666 3.01041 16.6072 3.01041 22.0621 4.02339 26.3042 6.04936 29.3337 8.0801 32.3678 10.9003 33.885 14.5099 33.885 18.1386 33.885 20.9635 32.3678 22.9847 29.3337 25.0059 26.3042 26.0165 22.0621 26.0165 16.6072 26.0165 11.1666 25.0059 6.92917 22.9847 3.89499 20.9635 0.86555 18.1386-0.649164 14.5099-0.649164Z" fill="#000000" fill-rule="nonzero" fill-opacity="1" transform="matrix(1 0 0 -1.00149 1773.89 707.389)"/><path d="M4.30161 2.31844C4.30161 3.15071 4.58458 3.85694 5.15051 4.43715 5.71645 5.01735 6.42268 5.30745 7.26922 5.30745 8.08723 5.30745 8.78391 5.01735 9.35938 4.43715 9.93956 3.85694 10.2297 3.15071 10.2297 2.31844 10.2297 1.50045 9.93956 0.801347 9.35938 0.221144 8.78391-0.359061 8.08723-0.649164 7.26922-0.649164 6.42268-0.649164 5.71645-0.363817 5.15051 0.206877 4.58458 0.782329 4.30161 1.48618 4.30161 2.31844Z" fill="#000000" fill-rule="nonzero" fill-opacity="1" transform="matrix(1 0 0 -1.00149 1802.94 707.389)"/><path d="M21.2655 9.09544C21.2655 11.4733 20.6734 13.3186 19.4892 14.6312 18.3098 15.9485 16.65 16.6072 14.5099 16.6072 12.3698 16.6072 10.71 15.9485 9.53059 14.6312 8.35118 13.3186 7.76144 11.4733 7.76144 9.09544 7.76144 6.70328 8.35118 4.84852 9.53059 3.53117 10.71 2.21857 12.3698 1.56227 14.5099 1.56227 16.65 1.56227 18.3098 2.21857 19.4892 3.53117 20.6734 4.84852 21.2655 6.70328 21.2655 9.09544ZM20.3524 25.2603C20.3524 27.2815 19.8388 28.8557 18.8115 29.9828 17.789 31.1147 16.3552 31.6807 14.5099 31.6807 12.6837 31.6807 11.2546 31.1147 10.2226 29.9828 9.19053 28.8557 8.67455 27.2815 8.67455 25.2603 8.67455 23.2249 9.19053 21.6412 10.2226 20.5093 11.2546 19.3822 12.6837 18.8186 14.5099 18.8186 16.3552 18.8186 17.789 19.3822 18.8115 20.5093 19.8388 21.6412 20.3524 23.2249 20.3524 25.2603ZM17.9483 17.72C20.4736 17.3824 22.4425 16.4503 23.855 14.9236 25.2675 13.4018 25.9737 11.459 25.9737 9.09544 25.9737 5.97564 24.9845 3.5716 23.0061 1.88329 21.0277 0.194987 18.1957-0.649164 14.5099-0.649164 10.8432-0.649164 8.0159 0.194987 6.02796 1.88329 4.04479 3.5716 3.05321 5.97564 3.05321 9.09544 3.05321 11.459 3.75945 13.4018 5.17191 14.9236 6.58438 16.4503 8.56041 17.3824 11.1 17.72 8.85524 18.1243 7.13368 18.9756 5.93522 20.2739 4.74152 21.577 4.14467 23.2392 4.14467 25.2603 4.14467 27.9331 5.06491 30.0376 6.9054 31.5736 8.75067 33.1145 11.2855 33.885 14.5099 33.885 17.7391 33.885 20.2739 33.1145 22.1144 31.5736 23.9597 30.0376 24.8823 27.9331 24.8823 25.2603 24.8823 23.2392 24.283 21.577 23.0846 20.2739 21.8861 18.9756 20.174 18.1243 17.9483 17.72Z" fill="#000000" fill-rule="nonzero" fill-opacity="1" transform="matrix(1 0 0 -1.00149 1817.45 707.389)"/><path d="M0 0 13.6967 0" stroke="#000000" stroke-width="2.28278" stroke-linecap="butt" stroke-linejoin="round" stroke-miterlimit="4" stroke-opacity="1" fill="none" fill-rule="nonzero" transform="matrix(1 0 0 1.00149 1862.48 551.586)"/><path d="M0 0-13.6967 0" stroke="#000000" stroke-width="2.28278" stroke-linecap="butt" stroke-linejoin="round" stroke-miterlimit="4" stroke-opacity="1" fill="none" fill-rule="nonzero" transform="matrix(1 0 0 1.00149 2914.55 551.586)"/><path d="M6.48451 0 6.48451 2.36125 12.2842 2.36125 12.2842 30.0542 5.5714 25.7026 5.5714 28.6274 13.6895 33.885 16.7641 33.885 16.7641 2.36125 22.5638 2.36125 22.5638 0 6.48451 0Z" fill="#000000" fill-rule="nonzero" fill-opacity="1" transform="matrix(1 0 0 -1.00149 1773.89 568.957)"/><path d="M4.30161 2.31844C4.30161 3.15071 4.58458 3.85694 5.15051 4.43715 5.71645 5.01735 6.42268 5.30745 7.26922 5.30745 8.08723 5.30745 8.78391 5.01735 9.35938 4.43715 9.93956 3.85694 10.2297 3.15071 10.2297 2.31844 10.2297 1.50045 9.93956 0.801347 9.35938 0.221144 8.78391-0.359061 8.08723-0.649164 7.26922-0.649164 6.42268-0.649164 5.71645-0.363817 5.15051 0.206877 4.58458 0.782329 4.30161 1.48618 4.30161 2.31844Z" fill="#000000" fill-rule="nonzero" fill-opacity="1" transform="matrix(1 0 0 -1.00149 1802.94 568.957)"/><path d="M14.5099 1.56227C16.7879 1.56227 18.4905 2.81067 19.6176 5.30745 20.7495 7.80424 21.3154 11.5708 21.3154 16.6072 21.3154 21.6626 20.7495 25.4387 19.6176 27.9355 18.4905 30.4323 16.7879 31.6807 14.5099 31.6807 12.2366 31.6807 10.5341 30.4323 9.40218 27.9355 8.27506 25.4387 7.7115 21.6626 7.7115 16.6072 7.7115 11.5708 8.27506 7.80424 9.40218 5.30745 10.5341 2.81067 12.2366 1.56227 14.5099 1.56227ZM14.5099-0.649164C10.9003-0.649164 8.0801 0.86555 6.04936 3.89499 4.02339 6.92917 3.01041 11.1666 3.01041 16.6072 3.01041 22.0621 4.02339 26.3042 6.04936 29.3337 8.0801 32.3678 10.9003 33.885 14.5099 33.885 18.1386 33.885 20.9635 32.3678 22.9847 29.3337 25.0059 26.3042 26.0165 22.0621 26.0165 16.6072 26.0165 11.1666 25.0059 6.92917 22.9847 3.89499 20.9635 0.86555 18.1386-0.649164 14.5099-0.649164Z" fill="#000000" fill-rule="nonzero" fill-opacity="1" transform="matrix(1 0 0 -1.00149 1817.45 568.957)"/><path d="M0 0 6.84833 0" stroke="#000000" stroke-width="2.28278" stroke-linecap="butt" stroke-linejoin="round" stroke-miterlimit="4" stroke-opacity="1" fill="none" fill-rule="nonzero" transform="matrix(1 0 0 1.00149 1862.48 1209.14)"/><path d="M0 0-6.84833 0" stroke="#000000" stroke-width="2.28278" stroke-linecap="butt" stroke-linejoin="round" stroke-miterlimit="4" stroke-opacity="1" fill="none" fill-rule="nonzero" transform="matrix(1 0 0 1.00149 2914.55 1209.14)"/><path d="M0 0 6.84833 0" stroke="#000000" stroke-width="2.28278" stroke-linecap="butt" stroke-linejoin="round" stroke-miterlimit="4" stroke-opacity="1" fill="none" fill-rule="nonzero" transform="matrix(1 0 0 1.00149 1862.48 1174.53)"/><path d="M0 0-6.84833 0" stroke="#000000" stroke-width="2.28278" stroke-linecap="butt" stroke-linejoin="round" stroke-miterlimit="4" stroke-opacity="1" fill="none" fill-rule="nonzero" transform="matrix(1 0 0 1.00149 2914.55 1174.53)"/><path d="M0 0 6.84833 0" stroke="#000000" stroke-width="2.28278" stroke-linecap="butt" stroke-linejoin="round" stroke-miterlimit="4" stroke-opacity="1" fill="none" fill-rule="nonzero" transform="matrix(1 0 0 1.00149 1862.48 1139.92)"/><path d="M0 0-6.84833 0" stroke="#000000" stroke-width="2.28278" stroke-linecap="butt" stroke-linejoin="round" stroke-miterlimit="4" stroke-opacity="1" fill="none" fill-rule="nonzero" transform="matrix(1 0 0 1.00149 2914.55 1139.92)"/><path d="M0 0 6.84833 0" stroke="#000000" stroke-width="2.28278" stroke-linecap="butt" stroke-linejoin="round" stroke-miterlimit="4" stroke-opacity="1" fill="none" fill-rule="nonzero" transform="matrix(1 0 0 1.00149 1862.48 1070.7)"/><path d="M0 0-6.84833 0" stroke="#000000" stroke-width="2.28278" stroke-linecap="butt" stroke-linejoin="round" stroke-miterlimit="4" stroke-opacity="1" fill="none" fill-rule="nonzero" transform="matrix(1 0 0 1.00149 2914.55 1070.7)"/><path d="M0 0 6.84833 0" stroke="#000000" stroke-width="2.28278" stroke-linecap="butt" stroke-linejoin="round" stroke-miterlimit="4" stroke-opacity="1" fill="none" fill-rule="nonzero" transform="matrix(1 0 0 1.00149 1862.48 1036.1)"/><path d="M0 0-6.84833 0" stroke="#000000" stroke-width="2.28278" stroke-linecap="butt" stroke-linejoin="round" stroke-miterlimit="4" stroke-opacity="1" fill="none" fill-rule="nonzero" transform="matrix(1 0 0 1.00149 2914.55 1036.1)"/><path d="M0 0 6.84833 0" stroke="#000000" stroke-width="2.28278" stroke-linecap="butt" stroke-linejoin="round" stroke-miterlimit="4" stroke-opacity="1" fill="none" fill-rule="nonzero" transform="matrix(1 0 0 1.00149 1862.48 1001.49)"/><path d="M0 0-6.84833 0" stroke="#000000" stroke-width="2.28278" stroke-linecap="butt" stroke-linejoin="round" stroke-miterlimit="4" stroke-opacity="1" fill="none" fill-rule="nonzero" transform="matrix(1 0 0 1.00149 2914.55 1001.49)"/><path d="M0 0 6.84833 0" stroke="#000000" stroke-width="2.28278" stroke-linecap="butt" stroke-linejoin="round" stroke-miterlimit="4" stroke-opacity="1" fill="none" fill-rule="nonzero" transform="matrix(1 0 0 1.00149 1862.48 932.273)"/><path d="M0 0-6.84833 0" stroke="#000000" stroke-width="2.28278" stroke-linecap="butt" stroke-linejoin="round" stroke-miterlimit="4" stroke-opacity="1" fill="none" fill-rule="nonzero" transform="matrix(1 0 0 1.00149 2914.55 932.273)"/><path d="M0 0 6.84833 0" stroke="#000000" stroke-width="2.28278" stroke-linecap="butt" stroke-linejoin="round" stroke-miterlimit="4" stroke-opacity="1" fill="none" fill-rule="nonzero" transform="matrix(1 0 0 1.00149 1862.48 897.665)"/><path d="M0 0-6.84833 0" stroke="#000000" stroke-width="2.28278" stroke-linecap="butt" stroke-linejoin="round" stroke-miterlimit="4" stroke-opacity="1" fill="none" fill-rule="nonzero" transform="matrix(1 0 0 1.00149 2914.55 897.665)"/><path d="M0 0 6.84833 0" stroke="#000000" stroke-width="2.28278" stroke-linecap="butt" stroke-linejoin="round" stroke-miterlimit="4" stroke-opacity="1" fill="none" fill-rule="nonzero" transform="matrix(1 0 0 1.00149 1862.48 863.057)"/><path d="M0 0-6.84833 0" stroke="#000000" stroke-width="2.28278" stroke-linecap="butt" stroke-linejoin="round" stroke-miterlimit="4" stroke-opacity="1" fill="none" fill-rule="nonzero" transform="matrix(1 0 0 1.00149 2914.55 863.057)"/><path d="M0 0 6.84833 0" stroke="#000000" stroke-width="2.28278" stroke-linecap="butt" stroke-linejoin="round" stroke-miterlimit="4" stroke-opacity="1" fill="none" fill-rule="nonzero" transform="matrix(1 0 0 1.00149 1862.48 793.841)"/><path d="M0 0-6.84833 0" stroke="#000000" stroke-width="2.28278" stroke-linecap="butt" stroke-linejoin="round" stroke-miterlimit="4" stroke-opacity="1" fill="none" fill-rule="nonzero" transform="matrix(1 0 0 1.00149 2914.55 793.841)"/><path d="M0 0 6.84833 0" stroke="#000000" stroke-width="2.28278" stroke-linecap="butt" stroke-linejoin="round" stroke-miterlimit="4" stroke-opacity="1" fill="none" fill-rule="nonzero" transform="matrix(1 0 0 1.00149 1862.48 759.233)"/><path d="M0 0-6.84833 0" stroke="#000000" stroke-width="2.28278" stroke-linecap="butt" stroke-linejoin="round" stroke-miterlimit="4" stroke-opacity="1" fill="none" fill-rule="nonzero" transform="matrix(1 0 0 1.00149 2914.55 759.233)"/><path d="M0 0 6.84833 0" stroke="#000000" stroke-width="2.28278" stroke-linecap="butt" stroke-linejoin="round" stroke-miterlimit="4" stroke-opacity="1" fill="none" fill-rule="nonzero" transform="matrix(1 0 0 1.00149 1862.48 724.625)"/><path d="M0 0-6.84833 0" stroke="#000000" stroke-width="2.28278" stroke-linecap="butt" stroke-linejoin="round" stroke-miterlimit="4" stroke-opacity="1" fill="none" fill-rule="nonzero" transform="matrix(1 0 0 1.00149 2914.55 724.625)"/><path d="M0 0 6.84833 0" stroke="#000000" stroke-width="2.28278" stroke-linecap="butt" stroke-linejoin="round" stroke-miterlimit="4" stroke-opacity="1" fill="none" fill-rule="nonzero" transform="matrix(1 0 0 1.00149 1862.48 655.409)"/><path d="M0 0-6.84833 0" stroke="#000000" stroke-width="2.28278" stroke-linecap="butt" stroke-linejoin="round" stroke-miterlimit="4" stroke-opacity="1" fill="none" fill-rule="nonzero" transform="matrix(1 0 0 1.00149 2914.55 655.409)"/><path d="M0 0 6.84833 0" stroke="#000000" stroke-width="2.28278" stroke-linecap="butt" stroke-linejoin="round" stroke-miterlimit="4" stroke-opacity="1" fill="none" fill-rule="nonzero" transform="matrix(1 0 0 1.00149 1862.48 620.802)"/><path d="M0 0-6.84833 0" stroke="#000000" stroke-width="2.28278" stroke-linecap="butt" stroke-linejoin="round" stroke-miterlimit="4" stroke-opacity="1" fill="none" fill-rule="nonzero" transform="matrix(1 0 0 1.00149 2914.55 620.802)"/><path d="M0 0 6.84833 0" stroke="#000000" stroke-width="2.28278" stroke-linecap="butt" stroke-linejoin="round" stroke-miterlimit="4" stroke-opacity="1" fill="none" fill-rule="nonzero" transform="matrix(1 0 0 1.00149 1862.48 586.194)"/><path d="M0 0-6.84833 0" stroke="#000000" stroke-width="2.28278" stroke-linecap="butt" stroke-linejoin="round" stroke-miterlimit="4" stroke-opacity="1" fill="none" fill-rule="nonzero" transform="matrix(1 0 0 1.00149 2914.55 586.194)"/><path d="M11.2783 16.9425 17.1636 16.9425C19.3798 16.9425 21.0657 17.5394 22.2214 18.733 23.3818 19.9315 23.962 21.6602 23.962 23.9192 23.962 26.1925 23.3818 27.9236 22.2214 29.1125 21.0657 30.3015 19.3798 30.8959 17.1636 30.8959L11.2783 30.8959 11.2783 16.9425ZM2.51819 0 2.51819 2.36125 6.75559 2.36125 6.75559 30.8959 2.51819 30.8959 2.51819 33.2857 18.2551 33.2857C21.5841 33.2857 24.2212 32.4416 26.1663 30.7533 28.1162 29.0649 29.0911 26.787 29.0911 23.9192 29.0911 21.0657 28.1162 18.7925 26.1663 17.0994 24.2212 15.4064 21.5841 14.5598 18.2551 14.5598L11.2783 14.5598 11.2783 2.36125 16.4289 2.36125 16.4289 0 2.51819 0Z" fill="#000000" fill-rule="nonzero" fill-opacity="1" transform="matrix(6.12323e-17 -1.00149 -1 -6.13233e-17 1746.13 1063.41)"/><path d="M21.8219 23.7409 21.8219 17.8128 19.4607 17.8128C19.3893 18.9875 19.0635 19.8649 18.4834 20.4451 17.9032 21.0253 17.0543 21.3154 15.9366 21.3154 13.9154 21.3154 12.365 20.6163 11.2855 19.2181 10.2106 17.8199 9.67326 15.813 9.67326 13.1973L9.67326 2.36125 14.4243 2.36125 14.4243 0 1.87616 0 1.87616 2.36125 5.5714 2.36125 5.5714 21.3582 1.64788 21.3582 1.64788 23.6981 9.67326 23.6981 9.67326 19.4821C10.477 21.1323 11.509 22.3546 12.7693 23.1488 14.0343 23.9477 15.5752 24.3472 17.3919 24.3472 18.0577 24.3472 18.7592 24.2949 19.4963 24.1903 20.2335 24.0856 21.0087 23.9358 21.8219 23.7409Z" fill="#000000" fill-rule="nonzero" fill-opacity="1" transform="matrix(6.12323e-17 -1.00149 -1 -6.13233e-17 1746.13 1032.65)"/><path d="M14.5598-7.11227C10.9454-5.49055 8.21564-2.92243 6.37037 0.592095 4.52988 4.10662 3.60964 8.50099 3.60964 13.7751 3.60964 19.0683 4.52988 23.4721 6.37037 26.9867 8.21564 30.5012 10.9454 33.0694 14.5598 34.6911L14.5598 32.501C12.2676 30.9268 10.6244 28.7083 9.63046 25.8453 8.63653 22.9871 8.13952 18.9637 8.13952 13.7751 8.13952 8.60557 8.63653 4.58933 9.63046 1.72635 10.6244-1.13188 12.2676-3.35045 14.5598-4.92937L14.5598-7.11227Z" fill="#000000" fill-rule="nonzero" fill-opacity="1" transform="matrix(6.12323e-17 -1.00149 -1 -6.13233e-17 1746.13 1010.79)"/><path d="M14.6668 14.2459 4.216 2.36125 8.51761 2.36125 8.06819 0-2.94621 0-2.49679 2.36125 1.34113 2.36125 13.6467 16.3433 6.75559 30.8959 3.18875 30.8959 3.65958 33.2857 16.8569 33.2857 16.3861 30.8959 12.4625 30.8959 17.5203 20.174 26.9296 30.8959 22.6494 30.8959 23.1202 33.2857 34.0205 33.2857 33.5497 30.8959 29.8045 30.8959 18.5262 18.0767 25.9737 2.36125 29.5406 2.36125 29.0697 0 15.8724 0 16.3218 2.36125 20.2882 2.36125 14.6668 14.2459Z" fill="#000000" fill-rule="nonzero" fill-opacity="1" transform="matrix(6.12323e-17 -1.00149 -1 -6.13233e-17 1746.13 992.951)"/><path d="M33.4141 3.48123 33.4141 0 4.83663 0 4.83663 3.48123 33.4141 3.48123ZM4.83663 22.8706 4.83663 26.5729 33.4141 18.3906 33.4141 14.6026 4.83663 6.39891 4.83663 10.1013 28.3564 16.4717 4.83663 22.8706Z" fill="#000000" fill-rule="nonzero" fill-opacity="1" transform="matrix(6.12323e-17 -1.00149 -1 -6.13233e-17 1746.13 951.729)"/><path d="M22.7636 22.5139 21.8932 18.1267 19.3965 17.5702C19.4678 18.8923 19.0374 19.8935 18.1053 20.5735 17.1684 21.2441 16.0008 21.5794 14.6026 21.5794 13.2044 21.5794 11.918 21.2155 10.7433 20.4879 9.55435 19.746 8.8648 18.8686 8.67455 17.8556 8.42252 16.5478 8.84576 15.5157 9.94434 14.7596 11.0572 13.9844 12.6028 13.5968 14.5812 13.5968L15.6513 13.5968 15.2019 11.2569 13.1545 11.2569C11.1618 11.2569 9.42358 10.7813 7.93978 9.8302 6.43695 8.8648 5.5286 7.57118 5.21472 5.94949 4.97693 4.70347 5.40019 3.61202 6.48451 2.67513 7.57361 1.72397 8.94085 1.24839 10.5864 1.24839 12.3127 1.24839 13.8774 1.64075 15.2803 2.42545 16.688 3.21491 17.613 4.36819 18.0553 5.88528L20.3524 5.32886 19.4607 0.734769C17.7819 0.202121 16.1102-0.199743 14.4457-0.470823 12.8097-0.737144 11.421-0.870308 10.2796-0.870308 7.35004-0.870308 4.98644-0.282969 3.18875 0.891709 1.4196 2.08066 0.751411 3.78322 1.18419 5.99942 1.62648 8.32978 2.67989 10.068 4.34441 11.2141 5.22423 11.7943 6.79363 12.2319 9.05263 12.5267L5.90668 14.2888C4.8081 14.9117 4.44428 16.1673 4.81523 18.0553 5.18618 19.9719 6.19679 21.4367 7.84704 22.4497 9.49728 23.4436 11.7777 23.9406 14.6882 23.9406 15.492 23.9406 16.6452 23.8217 18.1481 23.5839 19.6461 23.3319 21.1847 22.9752 22.7636 22.5139Z" fill="#000000" fill-rule="nonzero" fill-opacity="1" transform="matrix(6.12323e-17 -1.00149 -1 -6.13233e-17 1746.13 904.747)"/><path d="M4.83663 15.851C4.83663 16.6833 5.12198 17.3848 5.69267 17.9555 6.26813 18.5309 6.97911 18.8186 7.82564 18.8186 8.64366 18.8186 9.34276 18.5285 9.92294 17.9483 10.5031 17.3681 10.7933 16.669 10.7933 15.851 10.7933 15.0187 10.5031 14.3149 9.92294 13.7395 9.34276 13.1688 8.64366 12.8834 7.82564 12.8834 6.97911 12.8834 6.26813 13.1664 5.69267 13.7323 5.12198 14.2982 4.83663 15.0045 4.83663 15.851Z" fill="#000000" fill-rule="nonzero" fill-opacity="1" transform="matrix(6.12323e-17 -1.00149 -1 -6.13233e-17 1746.13 871.539)"/><path d="M30.3181 29.8116 29.9044 28.1209 15.3374 28.1209 12.1915 16.1649 25.0677 16.1649 24.5612 14.4742 11.7349 14.4742 8.31073 1.69068 24.5612 1.69068 24.1974 0 0.777571 0 8.76729 29.8116 30.3181 29.8116ZM13.6539 28.1209 10.087 28.1209 2.96761 1.69068 6.62005 1.69068 13.6539 28.1209Z" fill="#000000" fill-rule="nonzero" fill-opacity="1" transform="matrix(6.12323e-17 -1.00149 -1 -6.13233e-17 1746.13 847.218)"/><path d="M3.92352 34.6911 14.2888 34.6911 14.2888 32.3227 8.18233 32.3227 8.18233-3.65958 14.2888-3.65958 14.2888-6.02082 3.92352-6.02082 3.92352 34.6911Z" fill="#000000" fill-rule="nonzero" fill-opacity="1" transform="matrix(6.12323e-17 -1.00149 -1 -6.13233e-17 1746.13 818)"/><path d="M14.6668 14.2459 4.216 2.36125 8.51761 2.36125 8.06819 0-2.94621 0-2.49679 2.36125 1.34113 2.36125 13.6467 16.3433 6.75559 30.8959 3.18875 30.8959 3.65958 33.2857 16.8569 33.2857 16.3861 30.8959 12.4625 30.8959 17.5203 20.174 26.9296 30.8959 22.6494 30.8959 23.1202 33.2857 34.0205 33.2857 33.5497 30.8959 29.8045 30.8959 18.5262 18.0767 25.9737 2.36125 29.5406 2.36125 29.0697 0 15.8724 0 16.3218 2.36125 20.2882 2.36125 14.6668 14.2459Z" fill="#000000" fill-rule="nonzero" fill-opacity="1" transform="matrix(6.12323e-17 -1.00149 -1 -6.13233e-17 1746.13 800.162)"/><path d="M13.8893 34.6911 13.8893-6.02082 3.52404-6.02082 3.52404-3.65958 9.63046-3.65958 9.63046 32.3227 3.52404 32.3227 3.52404 34.6911 13.8893 34.6911Z" fill="#000000" fill-rule="nonzero" fill-opacity="1" transform="matrix(6.12323e-17 -1.00149 -1 -6.13233e-17 1746.13 767.611)"/><path d="M3.23155-7.11227 3.23155-4.92937C5.51909-3.35045 7.16456-1.13188 8.16806 1.72635 9.17155 4.58933 9.67326 8.60557 9.67326 13.7751 9.67326 18.9637 9.17155 22.9871 8.16806 25.8453 7.16456 28.7083 5.51909 30.9268 3.23155 32.501L3.23155 34.6911C6.86022 33.0694 9.59479 30.5012 11.4353 26.9867 13.2806 23.4721 14.2031 19.0683 14.2031 13.7751 14.2031 8.50099 13.2806 4.10662 11.4353 0.592095 9.59479-2.92243 6.86022-5.49055 3.23155-7.11227Z" fill="#000000" fill-rule="nonzero" fill-opacity="1" transform="matrix(6.12323e-17 -1.00149 -1 -6.13233e-17 1746.13 749.772)"/><g clip-path="url(#clip5)"><path d="M299.284-4.56555 302.24 23.8724 311.901 98.4059 321.562 159.509 331.223 210.511 340.884 253.726 350.544 290.811 360.206 322.984 369.866 351.16 379.528 376.04 389.188 398.171 398.849 417.985 408.51 435.827 418.171 451.978 427.832 466.668 437.493 480.086 447.154 492.386 456.815 503.713 466.476 514.168 476.137 523.851 485.798 532.846 495.458 541.223 505.119 549.04 514.78 556.358 524.44 563.22 534.101 569.667 543.762 575.734 553.423 581.455 563.083 586.861 572.744 591.974 582.405 596.823 592.07 601.42 601.731 605.789 611.391 609.944 621.052 613.902 630.713 617.678 640.373 621.28 650.034 624.723 659.695 628.019 669.356 631.174 679.016 634.196 688.677 637.095 698.338 639.88 707.998 642.556 717.659 645.131 727.32 647.605 736.981 649.989 746.641 652.29 756.302 654.504 765.963 656.641 775.623 658.704 785.284 660.699 794.945 662.631 804.61 664.493 814.271 666.301 823.932 668.045 833.592 669.739 843.253 671.383 852.914 672.971 862.574 674.519 872.235 676.017 881.896 677.473 891.557 678.888 901.217 680.263 910.878 681.596 920.539 682.897 930.199 684.162 939.86 685.39 949.521 686.591 959.181 687.759 968.842 688.896 978.503 690.006 988.164 691.083 997.824 692.138 1007.49 693.17 1017.15 694.169 1026.81 695.151 1036.47 696.11 1046.13 697.041 1055.79 697.954 1065.45 698.849 1075.11 699.721 1084.78 700.575 1094.44 701.41 1104.1 702.228 1113.76 703.027 1123.42 703.807 1133.08 704.57 1142.74 705.323 1152.4 706.054 1162.06 706.775 1171.72 707.478" stroke="#0000FF" stroke-width="9.1311" stroke-linecap="square" stroke-linejoin="round" stroke-miterlimit="4" stroke-opacity="1" fill="none" fill-rule="nonzero" transform="matrix(1 0 0 1.00149 1695.01 466)"/></g><path d="M167.47 776.591 167.47 85.4585" stroke="#000000" stroke-width="2.28278" stroke-linecap="square" stroke-linejoin="miter" stroke-miterlimit="4" stroke-opacity="1" fill="none" fill-rule="nonzero" transform="matrix(1 0 0 1.00149 1695.01 466)"/><path d="M1219.55 776.591 1219.55 85.4585" stroke="#000000" stroke-width="2.28278" stroke-linecap="square" stroke-linejoin="miter" stroke-miterlimit="4" stroke-opacity="1" fill="none" fill-rule="nonzero" transform="matrix(1 0 0 1.00149 1695.01 466)"/><path d="M167.47 776.591 1219.55 776.591" stroke="#000000" stroke-width="2.28278" stroke-linecap="square" stroke-linejoin="miter" stroke-miterlimit="4" stroke-opacity="1" fill="none" fill-rule="nonzero" transform="matrix(1 0 0 1.00149 1695.01 466)"/><path d="M167.47 85.4585 1219.55 85.4585" stroke="#000000" stroke-width="2.28278" stroke-linecap="square" stroke-linejoin="miter" stroke-miterlimit="4" stroke-opacity="1" fill="none" fill-rule="nonzero" transform="matrix(1 0 0 1.00149 1695.01 466)"/><path d="M3.02183 0 3.02183 2.8335 8.10671 2.8335 8.10671 37.0751 2.73077 37.0751 2.73077 39.9429 14.3644 39.9429 28.3863 11.5052 42.3997 39.9429 53.3142 39.9429 53.3142 37.0751 47.9897 37.0751 47.9897 2.8335 53.1002 2.8335 53.1002 0 37.4775 0 37.4775 2.8335 42.5624 2.8335 42.5624 33.7109 28.8657 5.85532 25.0906 5.85532 11.3939 33.7109 11.3939 2.8335 16.4788 2.8335 16.4788 0 3.02183 0Z" fill="#000000" fill-rule="nonzero" fill-opacity="1" transform="matrix(1 0 0 -1.00149 2111.99 524.152)"/><path d="M21.8034 8.93707 21.8034 14.955 15.4601 14.955C13.0176 14.955 11.197 14.4271 9.99856 13.3714 8.80584 12.3213 8.20943 10.7091 8.20943 8.53473 8.20943 6.55442 8.8144 4.98501 10.0242 3.8265 11.2398 2.668 12.8834 2.08874 14.955 2.08874 17.0038 2.08874 18.656 2.72221 19.9115 3.98915 21.1727 5.25609 21.8034 6.9054 21.8034 8.93707ZM26.7256 17.7629 26.7256 2.8335 31.1085 2.8335 31.1085 0 21.8034 0 21.8034 3.07319C20.7134 1.75488 19.455 0.781851 18.0282 0.154087 16.6015-0.467969 14.9351-0.778997 13.0289-0.778997 9.87298-0.778997 7.36766 0.0599229 5.5129 1.73776 3.65815 3.4156 2.73077 5.68126 2.73077 8.53473 2.73077 11.4795 3.79226 13.7623 5.91524 15.3831 8.03823 17.0038 11.0344 17.8142 14.9037 17.8142L21.8034 17.8142 21.8034 19.766C21.8034 21.9289 21.147 23.6011 19.8345 24.7824 18.5276 25.9695 16.6871 26.563 14.313 26.563 12.3498 26.563 10.7889 26.1178 9.63046 25.2275 8.47196 24.3372 7.75002 23.0161 7.46468 21.2641L4.92224 21.2641 4.92224 27.0167C6.63432 27.7471 8.29789 28.295 9.91296 28.6603 11.528 29.0312 13.1003 29.2167 14.6297 29.2167 18.5733 29.2167 21.5751 28.238 23.6353 26.2805 25.6955 24.3287 26.7256 21.4895 26.7256 17.7629Z" fill="#000000" fill-rule="nonzero" fill-opacity="1" transform="matrix(1 0 0 -1.00149 2168.08 524.152)"/><path d="M26.1863 28.489 26.1863 21.3753 23.3528 21.3753C23.2672 22.785 22.8762 23.8379 22.18 24.5341 21.4838 25.2304 20.4651 25.5785 19.124 25.5785 16.6985 25.5785 14.838 24.7396 13.5426 23.0617 12.2528 21.3839 11.6079 18.9756 11.6079 15.8368L11.6079 2.8335 17.3092 2.8335 17.3092 0 2.25139 0 2.25139 2.8335 6.68568 2.8335 6.68568 25.6299 1.97745 25.6299 1.97745 28.4377 11.6079 28.4377 11.6079 23.3785C12.5724 25.3588 13.8108 26.8255 15.3231 27.7785 16.8412 28.7373 18.6902 29.2167 20.8703 29.2167 21.6692 29.2167 22.5111 29.1539 23.3956 29.0284 24.2801 28.9028 25.2104 28.723 26.1863 28.489Z" fill="#000000" fill-rule="nonzero" fill-opacity="1" transform="matrix(1 0 0 -1.00149 2200.75 524.152)"/><path d="M15.6741 0 1.87473 0 1.87473 2.8335 6.31758 2.8335 6.31758 38.7872 1.57512 38.7872 1.57512 41.6293 11.2398 41.6293 11.2398 14.527 23.2244 25.5785 19.124 25.5785 19.124 28.4377 31.9988 28.4377 31.9988 25.5785 27.1279 25.5785 18.6703 17.7629 29.4821 2.8335 33.5739 2.8335 33.5739 0 19.552 0 19.552 2.8335 23.6182 2.8335 15.1177 14.527 11.2398 10.9145 11.2398 2.8335 15.6741 2.8335 15.6741 0Z" fill="#000000" fill-rule="nonzero" fill-opacity="1" transform="matrix(1 0 0 -1.00149 2226.94 524.152)"/><path d="M16.4788 1.87473C19.1211 1.87473 21.1128 2.91625 22.454 4.99928 23.8008 7.08802 24.4742 10.1669 24.4742 14.236 24.4742 18.2993 23.8008 21.3696 22.454 23.447 21.1128 25.5243 19.1211 26.563 16.4788 26.563 13.8422 26.563 11.8504 25.5243 10.5036 23.447 9.15681 21.3696 8.48337 18.2993 8.48337 14.236 8.48337 10.1669 9.15964 7.08802 10.5122 4.99928 11.8705 2.91625 13.8593 1.87473 16.4788 1.87473ZM16.4788-0.778997C12.3413-0.778997 9.01411 0.590668 6.49735 3.33 3.9863 6.06933 2.73077 9.70468 2.73077 14.236 2.73077 18.7616 3.98344 22.3883 6.48879 25.1162 8.99417 27.8498 12.3242 29.2167 16.4788 29.2167 20.6334 29.2167 23.9634 27.8498 26.4688 25.1162 28.9742 22.3883 30.2268 18.7616 30.2268 14.236 30.2268 9.70468 28.9742 6.06933 26.4688 3.33 23.9634 0.590668 20.6334-0.778997 16.4788-0.778997Z" fill="#000000" fill-rule="nonzero" fill-opacity="1" transform="matrix(1 0 0 -1.00149 2260.13 524.152)"/><path d="M13.534 0 3.07319 25.5785-0.162648 25.5785-0.162648 28.4377 12.9177 28.4377 12.9177 25.5785 8.37208 25.5785 16.3761 6.01797 24.3715 25.5785 20.117 25.5785 20.117 28.4377 30.7918 28.4377 30.7918 25.5785 27.6073 25.5785 17.1465 0 13.534 0Z" fill="#000000" fill-rule="nonzero" fill-opacity="1" transform="matrix(1 0 0 -1.00149 2293.12 524.152)"/><path d="M9.63046 39.9429 9.63046 25.0906 5.37594 25.0906 5.37594 39.9429 9.63046 39.9429Z" fill="#000000" fill-rule="nonzero" fill-opacity="1" transform="matrix(1 0 0 -1.00149 2324.07 524.152)"/><path d="M3.07319 1.57512 3.07319 8.20943 5.91524 8.20943C5.98373 6.09216 6.64573 4.50563 7.90126 3.44985 9.16246 2.39977 11.023 1.87473 13.4826 1.87473 15.697 1.87473 17.3834 2.28848 18.5418 3.11599 19.7003 3.9435 20.2796 5.15337 20.2796 6.7456 20.2796 7.98971 19.8544 8.99417 19.0041 9.75887 18.1595 10.5293 16.3732 11.3511 13.6453 12.2243L10.0842 13.4313C7.6416 14.2131 5.87244 15.1919 4.77671 16.3675 3.68098 17.5488 3.13311 19.0497 3.13311 20.8703 3.13311 23.4726 4.08617 25.5128 5.99229 26.991 7.89841 28.4748 10.5379 29.2167 13.9107 29.2167 15.4116 29.2167 16.9896 29.0198 18.6446 28.626 20.3053 28.2322 22.0174 27.6615 23.7808 26.9139L23.7808 20.7076 20.9473 20.7076C20.8731 22.5453 20.2283 23.9805 19.0127 25.0135 17.8028 26.0465 16.1563 26.563 14.0733 26.563 12.0017 26.563 10.4351 26.1977 9.37365 25.4672 8.31216 24.7368 7.78141 23.641 7.78141 22.18 7.78141 20.9816 8.18375 20.02 8.98843 19.2952 9.79311 18.5761 11.3996 17.8427 13.8079 17.0951L17.7115 15.8881C20.4052 15.0492 22.3427 14.002 23.524 12.7465 24.7111 11.4909 25.3046 9.87298 25.3046 7.8927 25.3046 5.19902 24.2745 3.0789 22.2143 1.53231 20.154-0.00856041 17.3149-0.778997 13.6967-0.778997 11.859-0.778997 10.067-0.582108 8.32072-0.188329 6.5744 0.20545 4.82522 0.793265 3.07319 1.57512Z" fill="#000000" fill-rule="nonzero" fill-opacity="1" transform="matrix(1 0 0 -1.00149 2339.13 524.152)"/><path d="M13.534 2.8335 18.6189 2.8335 18.6189 0 3.02183 0 3.02183 2.8335 8.10671 2.8335 8.10671 37.0751 3.02183 37.0751 3.02183 39.9429 18.6189 39.9429 18.6189 37.0751 13.534 37.0751 13.534 2.8335Z" fill="#000000" fill-rule="nonzero" fill-opacity="1" transform="matrix(1 0 0 -1.00149 2384.66 524.152)"/><path d="M2.25139 0 2.25139 2.8335 6.68568 2.8335 6.68568 25.5785 1.97745 25.5785 1.97745 28.4377 11.6079 28.4377 11.6079 23.3785C12.5211 25.3074 13.7024 26.7627 15.1519 27.7443 16.6072 28.7259 18.2993 29.2167 20.2283 29.2167 23.3671 29.2167 25.6755 28.315 27.1536 26.5116 28.6317 24.7082 29.3708 21.9004 29.3708 18.0881L29.3708 2.8335 33.7623 2.8335 33.7623 0 20.1683 0 20.1683 2.8335 24.4229 2.8335 24.4229 16.5302C24.4229 20.0114 23.9948 22.3969 23.1388 23.6867 22.2827 24.9821 20.7761 25.6299 18.6189 25.6299 16.3361 25.6299 14.5955 24.7938 13.397 23.1217 12.2043 21.4552 11.6079 19.027 11.6079 15.8368L11.6079 2.8335 15.8881 2.8335 15.8881 0 2.25139 0Z" fill="#000000" fill-rule="nonzero" fill-opacity="1" transform="matrix(1 0 0 -1.00149 2406.3 524.152)"/><path d="M29.6961 13.6967 8.48337 13.6967 8.48337 13.4826C8.48337 9.64758 9.20527 6.75416 10.6492 4.80239 12.093 2.85062 14.2246 1.87473 17.0438 1.87473 19.201 1.87473 20.9702 2.43972 22.3512 3.56969 23.7323 4.70538 24.6996 6.38607 25.2532 8.61177L29.2167 8.61177C28.4291 5.49007 26.9767 3.14452 24.8594 1.57512 22.7478 0.00570694 19.9714-0.778997 16.5302-0.778997 12.3755-0.778997 9.03697 0.590668 6.51447 3.33 3.992 6.06933 2.73077 9.70468 2.73077 14.236 2.73077 18.7274 3.96918 22.3455 6.44599 25.0906 8.92851 27.8413 12.1843 29.2167 16.2134 29.2167 20.5107 29.2167 23.8093 27.8898 26.1093 25.2361 28.4092 22.5881 29.6047 18.7416 29.6961 13.6967ZM23.8921 16.5302C23.7836 19.8516 23.0817 22.3541 21.7862 24.0376 20.4964 25.7212 18.6388 26.563 16.2134 26.563 13.9477 26.563 12.1643 25.7155 10.8632 24.0205 9.56198 22.3256 8.76869 19.8287 8.48337 16.5302L23.8921 16.5302Z" fill="#000000" fill-rule="nonzero" fill-opacity="1" transform="matrix(1 0 0 -1.00149 2441.59 524.152)"/><path d="M28.7544 25.5785 28.7544-8.53473 33.4626-8.53473 33.4626-11.3939 19.1839-11.3939 19.1839-8.53473 23.8322-8.53473 23.8322 4.44285C22.8734 2.65658 21.6493 1.33827 20.1598 0.487943 18.6703-0.356684 16.8269-0.778997 14.6297-0.778997 11.1371-0.778997 8.28077 0.607789 6.06077 3.38136 3.84077 6.15494 2.73077 9.77316 2.73077 14.236 2.73077 18.6931 3.83506 22.3027 6.04365 25.0649 8.25795 27.8327 11.12 29.2167 14.6297 29.2167 16.8269 29.2167 18.6703 28.7915 20.1598 27.9412 21.6493 27.0965 22.8734 25.7811 23.8322 23.9948L23.8322 28.4377 33.4626 28.4377 33.4626 25.5785 28.7544 25.5785ZM23.8322 15.6227C23.8322 19.0298 23.1759 21.6322 21.8633 23.4298 20.5564 25.2333 18.656 26.1349 16.1621 26.1349 13.6282 26.1349 11.7135 25.1362 10.418 23.1388 9.12822 21.1414 8.48337 18.1738 8.48337 14.236 8.48337 10.3096 9.12822 7.33912 10.418 5.32458 11.7135 3.31003 13.6282 2.30275 16.1621 2.30275 18.656 2.30275 20.5564 3.19874 21.8633 4.99072 23.1759 6.7827 23.8322 9.39077 23.8322 12.8149L23.8322 15.6227Z" fill="#000000" fill-rule="nonzero" fill-opacity="1" transform="matrix(1 0 0 -1.00149 2474.01 524.152)"/><path d="M19.3979 28.4377 28.6003 28.4377 28.6003 2.8335 33.2486 2.8335 33.2486 0 23.6781 0 23.6781 5.03352C22.765 3.13882 21.5865 1.69496 20.1426 0.701954 18.6988-0.285347 17.0238-0.778997 15.1177-0.778997 11.9617-0.778997 9.63902 0.116993 8.14951 1.90897 6.66 3.70666 5.91524 6.52018 5.91524 10.3495L5.91524 25.5785 1.47239 25.5785 1.47239 28.4377 10.8632 28.4377 10.8632 11.8819C10.8632 8.41773 11.2854 6.04365 12.1301 4.75959 12.9804 3.47553 14.4928 2.8335 16.6671 2.8335 18.9499 2.8335 20.6877 3.67242 21.8804 5.35026 23.0789 7.0281 23.6781 9.46208 23.6781 12.6523L23.6781 25.5785 19.3979 25.5785 19.3979 28.4377Z" fill="#000000" fill-rule="nonzero" fill-opacity="1" transform="matrix(1 0 0 -1.00149 2509.08 524.152)"/><path d="M21.8034 8.93707 21.8034 14.955 15.4601 14.955C13.0176 14.955 11.197 14.4271 9.99856 13.3714 8.80584 12.3213 8.20943 10.7091 8.20943 8.53473 8.20943 6.55442 8.8144 4.98501 10.0242 3.8265 11.2398 2.668 12.8834 2.08874 14.955 2.08874 17.0038 2.08874 18.656 2.72221 19.9115 3.98915 21.1727 5.25609 21.8034 6.9054 21.8034 8.93707ZM26.7256 17.7629 26.7256 2.8335 31.1085 2.8335 31.1085 0 21.8034 0 21.8034 3.07319C20.7134 1.75488 19.455 0.781851 18.0282 0.154087 16.6015-0.467969 14.9351-0.778997 13.0289-0.778997 9.87298-0.778997 7.36766 0.0599229 5.5129 1.73776 3.65815 3.4156 2.73077 5.68126 2.73077 8.53473 2.73077 11.4795 3.79226 13.7623 5.91524 15.3831 8.03823 17.0038 11.0344 17.8142 14.9037 17.8142L21.8034 17.8142 21.8034 19.766C21.8034 21.9289 21.147 23.6011 19.8345 24.7824 18.5276 25.9695 16.6871 26.563 14.313 26.563 12.3498 26.563 10.7889 26.1178 9.63046 25.2275 8.47196 24.3372 7.75002 23.0161 7.46468 21.2641L4.92224 21.2641 4.92224 27.0167C6.63432 27.7471 8.29789 28.295 9.91296 28.6603 11.528 29.0312 13.1003 29.2167 14.6297 29.2167 18.5733 29.2167 21.5751 28.238 23.6353 26.2805 25.6955 24.3287 26.7256 21.4895 26.7256 17.7629Z" fill="#000000" fill-rule="nonzero" fill-opacity="1" transform="matrix(1 0 0 -1.00149 2544.37 524.152)"/><path d="M11.2398 2.8335 15.8881 2.8335 15.8881 0 1.57512 0 1.57512 2.8335 6.31758 2.8335 6.31758 38.7872 1.57512 38.7872 1.57512 41.6293 11.2398 41.6293 11.2398 2.8335Z" fill="#000000" fill-rule="nonzero" fill-opacity="1" transform="matrix(1 0 0 -1.00149 2577.03 524.152)"/><path d="M5.32458 37.2635C5.32458 38.0853 5.62134 38.7986 6.21486 39.4036 6.81409 40.0085 7.53316 40.311 8.37208 40.311 9.19388 40.311 9.90157 40.0085 10.4951 39.4036 11.0943 38.7986 11.3939 38.0853 11.3939 37.2635 11.3939 36.4245 11.1 35.7112 10.5122 35.1234 9.92434 34.5355 9.211 34.2416 8.37208 34.2416 7.53316 34.2416 6.81409 34.5355 6.21486 35.1234 5.62134 35.7112 5.32458 36.4245 5.32458 37.2635ZM11.6079 2.8335 16.2648 2.8335 16.2648 0 1.97745 0 1.97745 2.8335 6.68568 2.8335 6.68568 25.5785 1.97745 25.5785 1.97745 28.4377 11.6079 28.4377 11.6079 2.8335Z" fill="#000000" fill-rule="nonzero" fill-opacity="1" transform="matrix(1 0 0 -1.00149 2594.55 524.152)"/><path d="M5.91524 25.5785 1.57512 25.5785 1.57512 28.4377 5.91524 28.4377 5.91524 37.2635 10.8632 37.2635 10.8632 28.4377 20.117 28.4377 20.117 25.5785 10.8632 25.5785 10.8632 7.51604C10.8632 5.10771 11.0943 3.56398 11.5566 2.88486 12.0188 2.21144 12.8749 1.87473 14.1247 1.87473 15.4087 1.87473 16.3446 2.25139 16.9325 3.0047 17.5203 3.76373 17.8342 4.99072 17.8741 6.68568L21.5894 6.68568C21.4467 4.10044 20.7419 2.20859 19.4749 1.01013 18.208-0.182622 16.2819-0.778997 13.6967-0.778997 10.8603-0.778997 8.85429-0.151234 7.67869 1.10429 6.50306 2.36552 5.91524 4.50278 5.91524 7.51604L5.91524 25.5785Z" fill="#000000" fill-rule="nonzero" fill-opacity="1" transform="matrix(1 0 0 -1.00149 2612.07 524.152)"/><path d="M11.8219-5.21329 13.6967-0.479383 3.07319 25.5785-0.162648 25.5785-0.162648 28.4377 12.9177 28.4377 12.9177 25.5785 8.37208 25.5785 16.3761 6.01797 24.3715 25.5785 20.117 25.5785 20.117 28.4377 30.7918 28.4377 30.7918 25.5785 27.6073 25.5785 14.5784-6.42031C13.6881-8.63463 12.6979-10.1469 11.6079-10.9573 10.5236-11.7677 8.99126-12.1729 7.01098-12.1729 6.17206-12.1729 5.31031-12.1016 4.42573-11.9589 3.54686-11.8162 2.65944-11.6107 1.76344-11.3425L1.76344-5.91524 4.28021-5.91524C4.38864-7.12511 4.69682-7.99257 5.20473-8.51761 5.71264-9.04835 6.5002-9.31373 7.5674-9.31373 8.549-9.31373 9.33941-9.03979 9.93864-8.49193 10.5379-7.94977 11.1656-6.85689 11.8219-5.21329Z" fill="#000000" fill-rule="nonzero" fill-opacity="1" transform="matrix(1 0 0 -1.00149 2634.09 524.152)"/></g></g></g><rect x="1108" y="900" width="353" height="61.0002" fill="#4285F4" fill-opacity="0.501961"/></g></g></svg>