<svg width="2645" height="921" xmlns="http://www.w3.org/2000/svg" xmlns:xlink="http://www.w3.org/1999/xlink" xml:space="preserve" overflow="hidden"><defs><clipPath id="clip0"><rect x="279" y="476" width="2645" height="921"/></clipPath><clipPath id="clip1"><rect x="279" y="476" width="2645" height="921"/></clipPath><clipPath id="clip2"><rect x="1688" y="477" width="1234" height="917"/></clipPath><clipPath id="clip3"><rect x="1688" y="477" width="1234" height="917"/></clipPath><clipPath id="clip4"><rect x="1688" y="477" width="1234" height="917"/></clipPath><clipPath id="clip5"><rect x="1875" y="562" width="1031" height="693"/></clipPath></defs><g clip-path="url(#clip0)" transform="translate(-279 -476)"><g clip-path="url(#clip1)"><path d="M390.415 923.917 1435.02 923.917 1435.02 933.084 390.415 933.083ZM395 942.25 367.5 928.5 395 914.75ZM1430.43 914.75 1457.93 928.5 1430.43 942.25Z" fill="#000000" fill-rule="nonzero" fill-opacity="1"/><text fill="#000000" fill-opacity="1" font-family="Cambria Math,Cambria Math_MSFontService,sans-serif" font-style="normal" font-variant="normal" font-weight="400" font-stretch="normal" font-size="64" text-anchor="start" direction="ltr" writing-mode="lr-tb" unicode-bidi="normal" text-decoration="none" transform="matrix(1 0 0 1 831.87 1040)">ğ”¼</text><text fill="#000000" fill-opacity="1" font-family="Cambria Math,Cambria Math_MSFontService,sans-serif" font-style="normal" font-variant="normal" font-weight="400" font-stretch="normal" font-size="64" text-anchor="start" direction="ltr" writing-mode="lr-tb" unicode-bidi="normal" text-decoration="none" transform="matrix(1 0 0 1 872.547 1040)">[</text><text fill="#000000" fill-opacity="1" font-family="Cambria Math,Cambria Math_MSFontService,sans-serif" font-style="normal" font-variant="normal" font-weight="400" font-stretch="normal" font-size="64" text-anchor="start" direction="ltr" writing-mode="lr-tb" unicode-bidi="normal" text-decoration="none" transform="matrix(1 0 0 1 894.891 1040)">ğ‘‹</text><text fill="#000000" fill-opacity="1" font-family="Cambria Math,Cambria Math_MSFontService,sans-serif" font-style="normal" font-variant="normal" font-weight="400" font-stretch="normal" font-size="64" text-anchor="start" direction="ltr" writing-mode="lr-tb" unicode-bidi="normal" text-decoration="none" transform="matrix(1 0 0 1 937.699 1040)">]</text><path d="M896.5 912.5 896.5 945.5" stroke="#000000" stroke-width="9.16667" stroke-linecap="butt" stroke-linejoin="round" stroke-miterlimit="10" stroke-opacity="1" fill="none" fill-rule="evenodd"/><text fill="#000000" fill-opacity="1" font-family="Cambria Math,Cambria Math_MSFontService,sans-serif" font-style="normal" font-variant="normal" font-weight="400" font-stretch="normal" font-size="64" text-anchor="start" direction="ltr" writing-mode="lr-tb" unicode-bidi="normal" text-decoration="none" transform="matrix(1 0 0 1 1048.13 836)">+</text><text fill="#000000" fill-opacity="1" font-family="Cambria Math,Cambria Math_MSFontService,sans-serif" font-style="normal" font-variant="normal" font-weight="400" font-stretch="normal" font-size="64" text-anchor="start" direction="ltr" writing-mode="lr-tb" unicode-bidi="normal" text-decoration="none" transform="matrix(1 0 0 1 1096.25 836)">ğœ–</text><path d="M1169.21 775.484 1177.96 775.484 1177.96 775.607 1271.77 775.607 1367.77 775.607 1367.77 779.607 1271.77 779.607 1177.96 779.607 1177.96 779.641 1171.71 779.641 1151.4 854.953 1148.36 854.953 1135.43 827.141 1130.15 829.484 1129.18 827.141 1139.43 822.453 1150.24 846.578Z" fill="#000000" fill-rule="evenodd" fill-opacity="1"/><text fill="#000000" fill-opacity="1" font-family="Cambria Math,Cambria Math_MSFontService,sans-serif" font-style="normal" font-variant="normal" font-weight="400" font-stretch="normal" font-size="64" text-anchor="start" direction="ltr" writing-mode="lr-tb" unicode-bidi="normal" text-decoration="none" transform="matrix(1 0 0 1 1175.73 836)">Var</text><text fill="#000000" fill-opacity="1" font-family="Cambria Math,Cambria Math_MSFontService,sans-serif" font-style="normal" font-variant="normal" font-weight="400" font-stretch="normal" font-size="64" text-anchor="start" direction="ltr" writing-mode="lr-tb" unicode-bidi="normal" text-decoration="none" transform="matrix(1 0 0 1 1272.55 836)">(</text><text fill="#000000" fill-opacity="1" font-family="Cambria Math,Cambria Math_MSFontService,sans-serif" font-style="normal" font-variant="normal" font-weight="400" font-stretch="normal" font-size="64" text-anchor="start" direction="ltr" writing-mode="lr-tb" unicode-bidi="normal" text-decoration="none" transform="matrix(1 0 0 1 1298.9 836)">ğ‘‹</text><text fill="#000000" fill-opacity="1" font-family="Cambria Math,Cambria Math_MSFontService,sans-serif" font-style="normal" font-variant="normal" font-weight="400" font-stretch="normal" font-size="64" text-anchor="start" direction="ltr" writing-mode="lr-tb" unicode-bidi="normal" text-decoration="none" transform="matrix(1 0 0 1 1341.71 836)">)</text><path d="M1208.5 912.5 1208.5 945.5" stroke="#000000" stroke-width="9.16667" stroke-linecap="butt" stroke-linejoin="round" stroke-miterlimit="10" stroke-opacity="1" fill="none" fill-rule="evenodd"/><rect x="1211" y="900" width="248" height="61.0002" fill="#4285F4" fill-opacity="0.501961"/><g clip-path="url(#clip2)"><g clip-path="url(#clip3)"><g clip-path="url(#clip4)"><path d="M0 917 1232.58 917 1232.58 0 0 0Z" fill="#FFFFFF" fill-rule="nonzero" fill-opacity="1" transform="matrix(1.00002 0 0 1 1689.2 477)"/><path d="M186.108 777.745 1216.12 777.745 1216.12 85.5854 186.108 85.5854Z" fill="#FFFFFF" fill-rule="nonzero" fill-opacity="1" transform="matrix(1.00002 0 0 1 1689.2 477)"/><path d="M0 0 0-13.717" stroke="#000000" stroke-width="2.28617" stroke-linecap="butt" stroke-linejoin="round" stroke-miterlimit="4" stroke-opacity="1" fill="none" fill-rule="nonzero" transform="matrix(1.00002 0 0 1 1921.19 1254.74)"/><path d="M0 0 0 13.717" stroke="#000000" stroke-width="2.28617" stroke-linecap="butt" stroke-linejoin="round" stroke-miterlimit="4" stroke-opacity="1" fill="none" fill-rule="nonzero" transform="matrix(1.00002 0 0 1 1921.19 562.586)"/><path d="M14.5314 1.5646C16.8128 1.5646 18.518 2.81484 19.6467 5.31534 20.7803 7.81583 21.3471 11.588 21.3471 16.6319 21.3471 21.6948 20.7803 25.4765 19.6467 27.977 18.518 30.4775 16.8128 31.7277 14.5314 31.7277 12.2548 31.7277 10.5497 30.4775 9.41615 27.977 8.28735 25.4765 7.72296 21.6948 7.72296 16.6319 7.72296 11.588 8.28735 7.81583 9.41615 5.31534 10.5497 2.81484 12.2548 1.5646 14.5314 1.5646ZM14.5314-0.650129C10.9164-0.650129 8.0921 0.866836 6.05834 3.90077 4.02937 6.93947 3.01488 11.1831 3.01488 16.6319 3.01488 22.0949 4.02937 26.3433 6.05834 29.3772 8.0921 32.4159 10.9164 33.9353 14.5314 33.9353 18.1655 33.9353 20.9947 32.4159 23.0188 29.3772 25.043 26.3433 26.0552 22.0949 26.0552 16.6319 26.0552 11.1831 25.043 6.93947 23.0188 3.90077 20.9947 0.866836 18.1655-0.650129 14.5314-0.650129Z" fill="#000000" fill-rule="nonzero" fill-opacity="1" transform="matrix(1.00002 0 0 -1 1906.64 1305.49)"/><path d="M0 0 0-13.717" stroke="#000000" stroke-width="2.28617" stroke-linecap="butt" stroke-linejoin="round" stroke-miterlimit="4" stroke-opacity="1" fill="none" fill-rule="nonzero" transform="matrix(1.00002 0 0 1 2108.66 1254.74)"/><path d="M0 0 0 13.717" stroke="#000000" stroke-width="2.28617" stroke-linecap="butt" stroke-linejoin="round" stroke-miterlimit="4" stroke-opacity="1" fill="none" fill-rule="nonzero" transform="matrix(1.00002 0 0 1 2108.66 562.586)"/><path d="M5.85116 25.3836 3.35066 25.3836 3.35066 31.3205C4.94146 32.173 6.54415 32.8208 8.15876 33.2637 9.77336 33.7115 11.3546 33.9353 12.9026 33.9353 16.3699 33.9353 19.1086 33.0946 21.1185 31.4134 23.1284 29.7321 24.1333 27.4483 24.1333 24.562 24.1333 21.2994 21.8567 17.3987 17.3034 12.8597 16.9462 12.5168 16.6771 12.2572 16.4961 12.081L8.08017 3.66501 21.9901 3.66501 21.9901 7.77297 24.6049 7.77297 24.6049 0 3.10061 0 3.10061 2.4362 13.2169 12.5239C15.4507 14.7577 17.0439 16.8081 17.9964 18.6751 18.949 20.5421 19.4253 22.5045 19.4253 24.562 19.4253 26.8053 18.8394 28.5604 17.6678 29.8273 16.5009 31.0942 14.891 31.7277 12.8383 31.7277 10.7093 31.7277 9.06372 31.199 7.90156 30.1417 6.74419 29.0843 6.06072 27.4983 5.85116 25.3836Z" fill="#000000" fill-rule="nonzero" fill-opacity="1" transform="matrix(1.00002 0 0 -1 2094.11 1305.49)"/><path d="M0 0 0-13.717" stroke="#000000" stroke-width="2.28617" stroke-linecap="butt" stroke-linejoin="round" stroke-miterlimit="4" stroke-opacity="1" fill="none" fill-rule="nonzero" transform="matrix(1.00002 0 0 1 2296.12 1254.74)"/><path d="M0 0 0 13.717" stroke="#000000" stroke-width="2.28617" stroke-linecap="butt" stroke-linejoin="round" stroke-miterlimit="4" stroke-opacity="1" fill="none" fill-rule="nonzero" transform="matrix(1.00002 0 0 1 2296.12 562.586)"/><path d="M15.9603 11.2951 15.9603 29.0272 4.57948 11.2951 15.9603 11.2951ZM25.7837 0 10.6021 0 10.6021 2.36475 15.9603 2.36475 15.9603 8.90891 1.40742 8.90891 1.40742 11.3451 16.0103 33.9353 20.4255 33.9353 20.4255 11.2951 26.791 11.2951 26.791 8.90891 20.4255 8.90891 20.4255 2.36475 25.7837 2.36475 25.7837 0Z" fill="#000000" fill-rule="nonzero" fill-opacity="1" transform="matrix(1.00002 0 0 -1 2281.58 1305.49)"/><path d="M0 0 0-13.717" stroke="#000000" stroke-width="2.28617" stroke-linecap="butt" stroke-linejoin="round" stroke-miterlimit="4" stroke-opacity="1" fill="none" fill-rule="nonzero" transform="matrix(1.00002 0 0 1 2483.59 1254.74)"/><path d="M0 0 0 13.717" stroke="#000000" stroke-width="2.28617" stroke-linecap="butt" stroke-linejoin="round" stroke-miterlimit="4" stroke-opacity="1" fill="none" fill-rule="nonzero" transform="matrix(1.00002 0 0 1 2483.59 562.586)"/><path d="M14.9601 1.5646C17.0557 1.5646 18.668 2.3338 19.7968 3.87219 20.9304 5.41536 21.4971 7.63008 21.4971 10.5164 21.4971 13.4027 20.9304 15.615 19.7968 17.1534 18.668 18.6966 17.0557 19.4681 14.9601 19.4681 12.8311 19.4681 11.207 18.7228 10.0877 17.232 8.9732 15.746 8.41595 13.5955 8.41595 10.7807 8.41595 7.82298 8.98035 5.54633 10.1091 3.95078 11.2427 2.35999 12.8597 1.5646 14.9601 1.5646ZM7.68009 18.3536C8.69458 19.4681 9.84002 20.2992 11.1165 20.847 12.3977 21.3995 13.8432 21.6757 15.4531 21.6757 18.768 21.6757 21.3899 20.6779 23.3189 18.6823 25.2479 16.6914 26.2123 13.9694 26.2123 10.5164 26.2123 7.13951 25.1741 4.43421 23.0974 2.40048 21.0208 0.366739 18.2488-0.650129 14.7815-0.650129 11.0141-0.650129 8.11825 0.752527 6.09406 3.55785 4.06986 6.36792 3.05775 10.3758 3.05775 15.5817 3.05775 21.4162 4.25561 25.9337 6.65132 29.1343 9.047 32.335 12.4262 33.9353 16.789 33.9353 17.9655 33.9353 19.2014 33.8233 20.4969 33.5995 21.7924 33.3757 23.1165 33.0423 24.4691 32.5993L24.4691 27.1054 21.9472 27.1054C21.7662 28.6057 21.1923 29.7511 20.2254 30.5418 19.2586 31.3324 17.9559 31.7277 16.3175 31.7277 13.4312 31.7277 11.2808 30.6323 9.86624 28.4413 8.45167 26.2552 7.72296 22.8926 7.68009 18.3536Z" fill="#000000" fill-rule="nonzero" fill-opacity="1" transform="matrix(1.00002 0 0 -1 2469.04 1305.49)"/><path d="M0 0 0-13.717" stroke="#000000" stroke-width="2.28617" stroke-linecap="butt" stroke-linejoin="round" stroke-miterlimit="4" stroke-opacity="1" fill="none" fill-rule="nonzero" transform="matrix(1.00002 0 0 1 2671.06 1254.74)"/><path d="M0 0 0 13.717" stroke="#000000" stroke-width="2.28617" stroke-linecap="butt" stroke-linejoin="round" stroke-miterlimit="4" stroke-opacity="1" fill="none" fill-rule="nonzero" transform="matrix(1.00002 0 0 1 2671.06 562.586)"/><path d="M21.2971 9.10895C21.2971 11.4903 20.7041 13.3384 19.5181 14.6529 18.337 15.9722 16.6747 16.6319 14.5314 16.6319 12.3882 16.6319 10.7259 15.9722 9.54475 14.6529 8.36358 13.3384 7.77297 11.4903 7.77297 9.10895 7.77297 6.71324 8.36358 4.85573 9.54475 3.53641 10.7259 2.22187 12.3882 1.5646 14.5314 1.5646 16.6747 1.5646 18.337 2.22187 19.5181 3.53641 20.7041 4.85573 21.2971 6.71324 21.2971 9.10895ZM20.3826 25.2979C20.3826 27.3221 19.8682 28.8986 18.8394 30.0274 17.8155 31.161 16.3795 31.7277 14.5314 31.7277 12.7025 31.7277 11.2713 31.161 10.2377 30.0274 9.20418 28.8986 8.68743 27.3221 8.68743 25.2979 8.68743 23.2594 9.20418 21.6734 10.2377 20.5398 11.2713 19.411 12.7025 18.8466 14.5314 18.8466 16.3795 18.8466 17.8155 19.411 18.8394 20.5398 19.8682 21.6734 20.3826 23.2594 20.3826 25.2979ZM17.975 17.7464C20.5041 17.4082 22.4759 16.4747 23.8904 14.9458 25.305 13.4217 26.0123 11.4761 26.0123 9.10895 26.0123 5.98452 25.0216 3.5769 23.0403 1.88609 21.059 0.195276 18.2227-0.650129 14.5314-0.650129 10.8593-0.650129 8.0278 0.195276 6.03691 1.88609 4.0508 3.5769 3.05775 5.98452 3.05775 9.10895 3.05775 11.4761 3.76503 13.4217 5.1796 14.9458 6.59416 16.4747 8.57312 17.4082 11.1165 17.7464 8.8684 18.1512 7.14427 19.0038 5.94403 20.304 4.74856 21.6091 4.15082 23.2737 4.15082 25.2979 4.15082 27.9746 5.07243 30.0822 6.91565 31.6205 8.76366 33.1637 11.3022 33.9353 14.5314 33.9353 17.7654 33.9353 20.304 33.1637 22.1472 31.6205 23.9952 30.0822 24.9192 27.9746 24.9192 25.2979 24.9192 23.2737 24.3191 21.6091 23.1189 20.304 21.9186 19.0038 20.204 18.1512 17.975 17.7464Z" fill="#000000" fill-rule="nonzero" fill-opacity="1" transform="matrix(1.00002 0 0 -1 2656.51 1305.49)"/><path d="M0 0 0-13.717" stroke="#000000" stroke-width="2.28617" stroke-linecap="butt" stroke-linejoin="round" stroke-miterlimit="4" stroke-opacity="1" fill="none" fill-rule="nonzero" transform="matrix(1.00002 0 0 1 2858.53 1254.74)"/><path d="M0 0 0 13.717" stroke="#000000" stroke-width="2.28617" stroke-linecap="butt" stroke-linejoin="round" stroke-miterlimit="4" stroke-opacity="1" fill="none" fill-rule="nonzero" transform="matrix(1.00002 0 0 1 2858.53 562.586)"/><path d="M6.49414 0 6.49414 2.36475 12.3024 2.36475 12.3024 30.0988 5.57968 25.7408 5.57968 28.67 13.7099 33.9353 16.789 33.9353 16.789 2.36475 22.5973 2.36475 22.5973 0 6.49414 0Z" fill="#000000" fill-rule="nonzero" fill-opacity="1" transform="matrix(1.00002 0 0 -1 2829.43 1305.49)"/><path d="M14.5314 1.5646C16.8128 1.5646 18.518 2.81484 19.6467 5.31534 20.7803 7.81583 21.3471 11.588 21.3471 16.6319 21.3471 21.6948 20.7803 25.4765 19.6467 27.977 18.518 30.4775 16.8128 31.7277 14.5314 31.7277 12.2548 31.7277 10.5497 30.4775 9.41615 27.977 8.28735 25.4765 7.72296 21.6948 7.72296 16.6319 7.72296 11.588 8.28735 7.81583 9.41615 5.31534 10.5497 2.81484 12.2548 1.5646 14.5314 1.5646ZM14.5314-0.650129C10.9164-0.650129 8.0921 0.866836 6.05834 3.90077 4.02937 6.93947 3.01488 11.1831 3.01488 16.6319 3.01488 22.0949 4.02937 26.3433 6.05834 29.3772 8.0921 32.4159 10.9164 33.9353 14.5314 33.9353 18.1655 33.9353 20.9947 32.4159 23.0188 29.3772 25.043 26.3433 26.0552 22.0949 26.0552 16.6319 26.0552 11.1831 25.043 6.93947 23.0188 3.90077 20.9947 0.866836 18.1655-0.650129 14.5314-0.650129Z" fill="#000000" fill-rule="nonzero" fill-opacity="1" transform="matrix(1.00002 0 0 -1 2858.52 1305.49)"/><path d="M0 0 0-6.8585" stroke="#000000" stroke-width="2.28617" stroke-linecap="butt" stroke-linejoin="round" stroke-miterlimit="4" stroke-opacity="1" fill="none" fill-rule="nonzero" transform="matrix(1.00002 0 0 1 1968.06 1254.74)"/><path d="M0 0 0 6.8585" stroke="#000000" stroke-width="2.28617" stroke-linecap="butt" stroke-linejoin="round" stroke-miterlimit="4" stroke-opacity="1" fill="none" fill-rule="nonzero" transform="matrix(1.00002 0 0 1 1968.06 562.586)"/><path d="M0 0 0-6.8585" stroke="#000000" stroke-width="2.28617" stroke-linecap="butt" stroke-linejoin="round" stroke-miterlimit="4" stroke-opacity="1" fill="none" fill-rule="nonzero" transform="matrix(1.00002 0 0 1 2014.92 1254.74)"/><path d="M0 0 0 6.8585" stroke="#000000" stroke-width="2.28617" stroke-linecap="butt" stroke-linejoin="round" stroke-miterlimit="4" stroke-opacity="1" fill="none" fill-rule="nonzero" transform="matrix(1.00002 0 0 1 2014.92 562.586)"/><path d="M0 0 0-6.8585" stroke="#000000" stroke-width="2.28617" stroke-linecap="butt" stroke-linejoin="round" stroke-miterlimit="4" stroke-opacity="1" fill="none" fill-rule="nonzero" transform="matrix(1.00002 0 0 1 2061.79 1254.74)"/><path d="M0 0 0 6.8585" stroke="#000000" stroke-width="2.28617" stroke-linecap="butt" stroke-linejoin="round" stroke-miterlimit="4" stroke-opacity="1" fill="none" fill-rule="nonzero" transform="matrix(1.00002 0 0 1 2061.79 562.586)"/><path d="M0 0 0-6.8585" stroke="#000000" stroke-width="2.28617" stroke-linecap="butt" stroke-linejoin="round" stroke-miterlimit="4" stroke-opacity="1" fill="none" fill-rule="nonzero" transform="matrix(1.00002 0 0 1 2155.53 1254.74)"/><path d="M0 0 0 6.8585" stroke="#000000" stroke-width="2.28617" stroke-linecap="butt" stroke-linejoin="round" stroke-miterlimit="4" stroke-opacity="1" fill="none" fill-rule="nonzero" transform="matrix(1.00002 0 0 1 2155.53 562.586)"/><path d="M0 0 0-6.8585" stroke="#000000" stroke-width="2.28617" stroke-linecap="butt" stroke-linejoin="round" stroke-miterlimit="4" stroke-opacity="1" fill="none" fill-rule="nonzero" transform="matrix(1.00002 0 0 1 2202.39 1254.74)"/><path d="M0 0 0 6.8585" stroke="#000000" stroke-width="2.28617" stroke-linecap="butt" stroke-linejoin="round" stroke-miterlimit="4" stroke-opacity="1" fill="none" fill-rule="nonzero" transform="matrix(1.00002 0 0 1 2202.39 562.586)"/><path d="M0 0 0-6.8585" stroke="#000000" stroke-width="2.28617" stroke-linecap="butt" stroke-linejoin="round" stroke-miterlimit="4" stroke-opacity="1" fill="none" fill-rule="nonzero" transform="matrix(1.00002 0 0 1 2249.26 1254.74)"/><path d="M0 0 0 6.8585" stroke="#000000" stroke-width="2.28617" stroke-linecap="butt" stroke-linejoin="round" stroke-miterlimit="4" stroke-opacity="1" fill="none" fill-rule="nonzero" transform="matrix(1.00002 0 0 1 2249.26 562.586)"/><path d="M0 0 0-6.8585" stroke="#000000" stroke-width="2.28617" stroke-linecap="butt" stroke-linejoin="round" stroke-miterlimit="4" stroke-opacity="1" fill="none" fill-rule="nonzero" transform="matrix(1.00002 0 0 1 2342.99 1254.74)"/><path d="M0 0 0 6.8585" stroke="#000000" stroke-width="2.28617" stroke-linecap="butt" stroke-linejoin="round" stroke-miterlimit="4" stroke-opacity="1" fill="none" fill-rule="nonzero" transform="matrix(1.00002 0 0 1 2342.99 562.586)"/><path d="M0 0 0-6.8585" stroke="#000000" stroke-width="2.28617" stroke-linecap="butt" stroke-linejoin="round" stroke-miterlimit="4" stroke-opacity="1" fill="none" fill-rule="nonzero" transform="matrix(1.00002 0 0 1 2389.86 1254.74)"/><path d="M0 0 0 6.8585" stroke="#000000" stroke-width="2.28617" stroke-linecap="butt" stroke-linejoin="round" stroke-miterlimit="4" stroke-opacity="1" fill="none" fill-rule="nonzero" transform="matrix(1.00002 0 0 1 2389.86 562.586)"/><path d="M0 0 0-6.8585" stroke="#000000" stroke-width="2.28617" stroke-linecap="butt" stroke-linejoin="round" stroke-miterlimit="4" stroke-opacity="1" fill="none" fill-rule="nonzero" transform="matrix(1.00002 0 0 1 2436.72 1254.74)"/><path d="M0 0 0 6.8585" stroke="#000000" stroke-width="2.28617" stroke-linecap="butt" stroke-linejoin="round" stroke-miterlimit="4" stroke-opacity="1" fill="none" fill-rule="nonzero" transform="matrix(1.00002 0 0 1 2436.72 562.586)"/><path d="M0 0 0-6.8585" stroke="#000000" stroke-width="2.28617" stroke-linecap="butt" stroke-linejoin="round" stroke-miterlimit="4" stroke-opacity="1" fill="none" fill-rule="nonzero" transform="matrix(1.00002 0 0 1 2530.46 1254.74)"/><path d="M0 0 0 6.8585" stroke="#000000" stroke-width="2.28617" stroke-linecap="butt" stroke-linejoin="round" stroke-miterlimit="4" stroke-opacity="1" fill="none" fill-rule="nonzero" transform="matrix(1.00002 0 0 1 2530.46 562.586)"/><path d="M0 0 0-6.8585" stroke="#000000" stroke-width="2.28617" stroke-linecap="butt" stroke-linejoin="round" stroke-miterlimit="4" stroke-opacity="1" fill="none" fill-rule="nonzero" transform="matrix(1.00002 0 0 1 2577.32 1254.74)"/><path d="M0 0 0 6.8585" stroke="#000000" stroke-width="2.28617" stroke-linecap="butt" stroke-linejoin="round" stroke-miterlimit="4" stroke-opacity="1" fill="none" fill-rule="nonzero" transform="matrix(1.00002 0 0 1 2577.32 562.586)"/><path d="M0 0 0-6.8585" stroke="#000000" stroke-width="2.28617" stroke-linecap="butt" stroke-linejoin="round" stroke-miterlimit="4" stroke-opacity="1" fill="none" fill-rule="nonzero" transform="matrix(1.00002 0 0 1 2624.19 1254.74)"/><path d="M0 0 0 6.8585" stroke="#000000" stroke-width="2.28617" stroke-linecap="butt" stroke-linejoin="round" stroke-miterlimit="4" stroke-opacity="1" fill="none" fill-rule="nonzero" transform="matrix(1.00002 0 0 1 2624.19 562.586)"/><path d="M0 0 0-6.8585" stroke="#000000" stroke-width="2.28617" stroke-linecap="butt" stroke-linejoin="round" stroke-miterlimit="4" stroke-opacity="1" fill="none" fill-rule="nonzero" transform="matrix(1.00002 0 0 1 2717.92 1254.74)"/><path d="M0 0 0 6.8585" stroke="#000000" stroke-width="2.28617" stroke-linecap="butt" stroke-linejoin="round" stroke-miterlimit="4" stroke-opacity="1" fill="none" fill-rule="nonzero" transform="matrix(1.00002 0 0 1 2717.92 562.586)"/><path d="M0 0 0-6.8585" stroke="#000000" stroke-width="2.28617" stroke-linecap="butt" stroke-linejoin="round" stroke-miterlimit="4" stroke-opacity="1" fill="none" fill-rule="nonzero" transform="matrix(1.00002 0 0 1 2764.79 1254.74)"/><path d="M0 0 0 6.8585" stroke="#000000" stroke-width="2.28617" stroke-linecap="butt" stroke-linejoin="round" stroke-miterlimit="4" stroke-opacity="1" fill="none" fill-rule="nonzero" transform="matrix(1.00002 0 0 1 2764.79 562.586)"/><path d="M0 0 0-6.8585" stroke="#000000" stroke-width="2.28617" stroke-linecap="butt" stroke-linejoin="round" stroke-miterlimit="4" stroke-opacity="1" fill="none" fill-rule="nonzero" transform="matrix(1.00002 0 0 1 2811.66 1254.74)"/><path d="M0 0 0 6.8585" stroke="#000000" stroke-width="2.28617" stroke-linecap="butt" stroke-linejoin="round" stroke-miterlimit="4" stroke-opacity="1" fill="none" fill-rule="nonzero" transform="matrix(1.00002 0 0 1 2811.66 562.586)"/><path d="M22.7974 22.5473 21.9258 18.1536 19.4253 17.5963C19.4967 18.9204 19.0657 19.923 18.1322 20.6041 17.1939 21.2756 16.0246 21.6114 14.6243 21.6114 13.224 21.6114 11.9357 21.2471 10.7593 20.5183 9.56854 19.7753 8.87797 18.8966 8.68743 17.8821 8.43503 16.5723 8.8589 15.5388 9.95911 14.7815 11.0736 14.0051 12.6216 13.617 14.6029 13.617L15.6745 13.617 15.2244 11.2737 13.174 11.2737C11.1784 11.2737 9.43758 10.7974 7.95157 9.84481 6.44651 8.87797 5.53681 7.58243 5.22246 5.95832 4.98432 4.71045 5.40821 3.61738 6.49414 2.6791 7.58486 1.72653 8.95413 1.25025 10.6021 1.25025 12.331 1.25025 13.898 1.64318 15.303 2.42905 16.7128 3.21969 17.6392 4.37467 18.0821 5.89402L20.3826 5.33677 19.4896 0.73586C17.8083 0.202421 16.1341-0.20004 14.4671-0.471522 12.8288-0.738239 11.438-0.871601 10.2949-0.871601 7.36096-0.871601 4.99385-0.28339 3.19349 0.893034 1.42171 2.08375 0.752527 3.78884 1.18595 6.00833 1.62889 8.34215 2.68387 10.0829 4.35086 11.2308 5.23199 11.8118 6.80373 12.2501 9.06608 12.5453L5.91546 14.31C4.81524 14.9339 4.45088 16.1913 4.82238 18.0821 5.19388 20.0016 6.20599 21.4685 7.8587 22.483 9.51138 23.4784 11.7952 23.9762 14.7101 23.9762 15.515 23.9762 16.6699 23.8571 18.175 23.619 19.6753 23.3666 21.2161 23.0093 22.7974 22.5473Z" fill="#000000" fill-rule="nonzero" fill-opacity="1" transform="matrix(1.00002 0 0 -1 2377.98 1367.78)"/><path d="M0 0 13.717 0" stroke="#000000" stroke-width="2.28617" stroke-linecap="butt" stroke-linejoin="round" stroke-miterlimit="4" stroke-opacity="1" fill="none" fill-rule="nonzero" transform="matrix(1.00002 0 0 1 1875.31 1254.74)"/><path d="M0 0-13.717 0" stroke="#000000" stroke-width="2.28617" stroke-linecap="butt" stroke-linejoin="round" stroke-miterlimit="4" stroke-opacity="1" fill="none" fill-rule="nonzero" transform="matrix(1.00002 0 0 1 2905.34 1254.74)"/><path d="M14.5314 1.5646C16.8128 1.5646 18.518 2.81484 19.6467 5.31534 20.7803 7.81583 21.3471 11.588 21.3471 16.6319 21.3471 21.6948 20.7803 25.4765 19.6467 27.977 18.518 30.4775 16.8128 31.7277 14.5314 31.7277 12.2548 31.7277 10.5497 30.4775 9.41615 27.977 8.28735 25.4765 7.72296 21.6948 7.72296 16.6319 7.72296 11.588 8.28735 7.81583 9.41615 5.31534 10.5497 2.81484 12.2548 1.5646 14.5314 1.5646ZM14.5314-0.650129C10.9164-0.650129 8.0921 0.866836 6.05834 3.90077 4.02937 6.93947 3.01488 11.1831 3.01488 16.6319 3.01488 22.0949 4.02937 26.3433 6.05834 29.3772 8.0921 32.4159 10.9164 33.9353 14.5314 33.9353 18.1655 33.9353 20.9947 32.4159 23.0188 29.3772 25.043 26.3433 26.0552 22.0949 26.0552 16.6319 26.0552 11.1831 25.043 6.93947 23.0188 3.90077 20.9947 0.866836 18.1655-0.650129 14.5314-0.650129Z" fill="#000000" fill-rule="nonzero" fill-opacity="1" transform="matrix(1.00002 0 0 -1 1786.59 1272.12)"/><path d="M4.308 2.32189C4.308 3.15539 4.59139 3.86267 5.15816 4.44374 5.72494 5.0248 6.43222 5.31534 7.28001 5.31534 8.09925 5.31534 8.79696 5.0248 9.37328 4.44374 9.95433 3.86267 10.2449 3.15539 10.2449 2.32189 10.2449 1.50268 9.95433 0.802537 9.37328 0.221472 8.79696-0.359595 8.09925-0.650129 7.28001-0.650129 6.43222-0.650129 5.72494-0.364358 5.15816 0.207184 4.59139 0.783491 4.308 1.48839 4.308 2.32189Z" fill="#000000" fill-rule="nonzero" fill-opacity="1" transform="matrix(1.00002 0 0 -1 1815.68 1272.12)"/><path d="M14.5314 1.5646C16.8128 1.5646 18.518 2.81484 19.6467 5.31534 20.7803 7.81583 21.3471 11.588 21.3471 16.6319 21.3471 21.6948 20.7803 25.4765 19.6467 27.977 18.518 30.4775 16.8128 31.7277 14.5314 31.7277 12.2548 31.7277 10.5497 30.4775 9.41615 27.977 8.28735 25.4765 7.72296 21.6948 7.72296 16.6319 7.72296 11.588 8.28735 7.81583 9.41615 5.31534 10.5497 2.81484 12.2548 1.5646 14.5314 1.5646ZM14.5314-0.650129C10.9164-0.650129 8.0921 0.866836 6.05834 3.90077 4.02937 6.93947 3.01488 11.1831 3.01488 16.6319 3.01488 22.0949 4.02937 26.3433 6.05834 29.3772 8.0921 32.4159 10.9164 33.9353 14.5314 33.9353 18.1655 33.9353 20.9947 32.4159 23.0188 29.3772 25.043 26.3433 26.0552 22.0949 26.0552 16.6319 26.0552 11.1831 25.043 6.93947 23.0188 3.90077 20.9947 0.866836 18.1655-0.650129 14.5314-0.650129Z" fill="#000000" fill-rule="nonzero" fill-opacity="1" transform="matrix(1.00002 0 0 -1 1830.21 1272.12)"/><path d="M0 0 13.717 0" stroke="#000000" stroke-width="2.28617" stroke-linecap="butt" stroke-linejoin="round" stroke-miterlimit="4" stroke-opacity="1" fill="none" fill-rule="nonzero" transform="matrix(1.00002 0 0 1 1875.31 1116.31)"/><path d="M0 0-13.717 0" stroke="#000000" stroke-width="2.28617" stroke-linecap="butt" stroke-linejoin="round" stroke-miterlimit="4" stroke-opacity="1" fill="none" fill-rule="nonzero" transform="matrix(1.00002 0 0 1 2905.34 1116.31)"/><path d="M14.5314 1.5646C16.8128 1.5646 18.518 2.81484 19.6467 5.31534 20.7803 7.81583 21.3471 11.588 21.3471 16.6319 21.3471 21.6948 20.7803 25.4765 19.6467 27.977 18.518 30.4775 16.8128 31.7277 14.5314 31.7277 12.2548 31.7277 10.5497 30.4775 9.41615 27.977 8.28735 25.4765 7.72296 21.6948 7.72296 16.6319 7.72296 11.588 8.28735 7.81583 9.41615 5.31534 10.5497 2.81484 12.2548 1.5646 14.5314 1.5646ZM14.5314-0.650129C10.9164-0.650129 8.0921 0.866836 6.05834 3.90077 4.02937 6.93947 3.01488 11.1831 3.01488 16.6319 3.01488 22.0949 4.02937 26.3433 6.05834 29.3772 8.0921 32.4159 10.9164 33.9353 14.5314 33.9353 18.1655 33.9353 20.9947 32.4159 23.0188 29.3772 25.043 26.3433 26.0552 22.0949 26.0552 16.6319 26.0552 11.1831 25.043 6.93947 23.0188 3.90077 20.9947 0.866836 18.1655-0.650129 14.5314-0.650129Z" fill="#000000" fill-rule="nonzero" fill-opacity="1" transform="matrix(1.00002 0 0 -1 1786.59 1133.68)"/><path d="M4.308 2.32189C4.308 3.15539 4.59139 3.86267 5.15816 4.44374 5.72494 5.0248 6.43222 5.31534 7.28001 5.31534 8.09925 5.31534 8.79696 5.0248 9.37328 4.44374 9.95433 3.86267 10.2449 3.15539 10.2449 2.32189 10.2449 1.50268 9.95433 0.802537 9.37328 0.221472 8.79696-0.359595 8.09925-0.650129 7.28001-0.650129 6.43222-0.650129 5.72494-0.364358 5.15816 0.207184 4.59139 0.783491 4.308 1.48839 4.308 2.32189Z" fill="#000000" fill-rule="nonzero" fill-opacity="1" transform="matrix(1.00002 0 0 -1 1815.68 1133.68)"/><path d="M5.85116 25.3836 3.35066 25.3836 3.35066 31.3205C4.94146 32.173 6.54415 32.8208 8.15876 33.2637 9.77336 33.7115 11.3546 33.9353 12.9026 33.9353 16.3699 33.9353 19.1086 33.0946 21.1185 31.4134 23.1284 29.7321 24.1333 27.4483 24.1333 24.562 24.1333 21.2994 21.8567 17.3987 17.3034 12.8597 16.9462 12.5168 16.6771 12.2572 16.4961 12.081L8.08017 3.66501 21.9901 3.66501 21.9901 7.77297 24.6049 7.77297 24.6049 0 3.10061 0 3.10061 2.4362 13.2169 12.5239C15.4507 14.7577 17.0439 16.8081 17.9964 18.6751 18.949 20.5421 19.4253 22.5045 19.4253 24.562 19.4253 26.8053 18.8394 28.5604 17.6678 29.8273 16.5009 31.0942 14.891 31.7277 12.8383 31.7277 10.7093 31.7277 9.06372 31.199 7.90156 30.1417 6.74419 29.0843 6.06072 27.4983 5.85116 25.3836Z" fill="#000000" fill-rule="nonzero" fill-opacity="1" transform="matrix(1.00002 0 0 -1 1830.21 1133.68)"/><path d="M0 0 13.717 0" stroke="#000000" stroke-width="2.28617" stroke-linecap="butt" stroke-linejoin="round" stroke-miterlimit="4" stroke-opacity="1" fill="none" fill-rule="nonzero" transform="matrix(1.00002 0 0 1 1875.31 977.881)"/><path d="M0 0-13.717 0" stroke="#000000" stroke-width="2.28617" stroke-linecap="butt" stroke-linejoin="round" stroke-miterlimit="4" stroke-opacity="1" fill="none" fill-rule="nonzero" transform="matrix(1.00002 0 0 1 2905.34 977.881)"/><path d="M14.5314 1.5646C16.8128 1.5646 18.518 2.81484 19.6467 5.31534 20.7803 7.81583 21.3471 11.588 21.3471 16.6319 21.3471 21.6948 20.7803 25.4765 19.6467 27.977 18.518 30.4775 16.8128 31.7277 14.5314 31.7277 12.2548 31.7277 10.5497 30.4775 9.41615 27.977 8.28735 25.4765 7.72296 21.6948 7.72296 16.6319 7.72296 11.588 8.28735 7.81583 9.41615 5.31534 10.5497 2.81484 12.2548 1.5646 14.5314 1.5646ZM14.5314-0.650129C10.9164-0.650129 8.0921 0.866836 6.05834 3.90077 4.02937 6.93947 3.01488 11.1831 3.01488 16.6319 3.01488 22.0949 4.02937 26.3433 6.05834 29.3772 8.0921 32.4159 10.9164 33.9353 14.5314 33.9353 18.1655 33.9353 20.9947 32.4159 23.0188 29.3772 25.043 26.3433 26.0552 22.0949 26.0552 16.6319 26.0552 11.1831 25.043 6.93947 23.0188 3.90077 20.9947 0.866836 18.1655-0.650129 14.5314-0.650129Z" fill="#000000" fill-rule="nonzero" fill-opacity="1" transform="matrix(1.00002 0 0 -1 1786.59 995.251)"/><path d="M4.308 2.32189C4.308 3.15539 4.59139 3.86267 5.15816 4.44374 5.72494 5.0248 6.43222 5.31534 7.28001 5.31534 8.09925 5.31534 8.79696 5.0248 9.37328 4.44374 9.95433 3.86267 10.2449 3.15539 10.2449 2.32189 10.2449 1.50268 9.95433 0.802537 9.37328 0.221472 8.79696-0.359595 8.09925-0.650129 7.28001-0.650129 6.43222-0.650129 5.72494-0.364358 5.15816 0.207184 4.59139 0.783491 4.308 1.48839 4.308 2.32189Z" fill="#000000" fill-rule="nonzero" fill-opacity="1" transform="matrix(1.00002 0 0 -1 1815.68 995.251)"/><path d="M15.9603 11.2951 15.9603 29.0272 4.57948 11.2951 15.9603 11.2951ZM25.7837 0 10.6021 0 10.6021 2.36475 15.9603 2.36475 15.9603 8.90891 1.40742 8.90891 1.40742 11.3451 16.0103 33.9353 20.4255 33.9353 20.4255 11.2951 26.791 11.2951 26.791 8.90891 20.4255 8.90891 20.4255 2.36475 25.7837 2.36475 25.7837 0Z" fill="#000000" fill-rule="nonzero" fill-opacity="1" transform="matrix(1.00002 0 0 -1 1830.21 995.251)"/><path d="M0 0 13.717 0" stroke="#000000" stroke-width="2.28617" stroke-linecap="butt" stroke-linejoin="round" stroke-miterlimit="4" stroke-opacity="1" fill="none" fill-rule="nonzero" transform="matrix(1.00002 0 0 1 1875.31 839.449)"/><path d="M0 0-13.717 0" stroke="#000000" stroke-width="2.28617" stroke-linecap="butt" stroke-linejoin="round" stroke-miterlimit="4" stroke-opacity="1" fill="none" fill-rule="nonzero" transform="matrix(1.00002 0 0 1 2905.34 839.449)"/><path d="M14.5314 1.5646C16.8128 1.5646 18.518 2.81484 19.6467 5.31534 20.7803 7.81583 21.3471 11.588 21.3471 16.6319 21.3471 21.6948 20.7803 25.4765 19.6467 27.977 18.518 30.4775 16.8128 31.7277 14.5314 31.7277 12.2548 31.7277 10.5497 30.4775 9.41615 27.977 8.28735 25.4765 7.72296 21.6948 7.72296 16.6319 7.72296 11.588 8.28735 7.81583 9.41615 5.31534 10.5497 2.81484 12.2548 1.5646 14.5314 1.5646ZM14.5314-0.650129C10.9164-0.650129 8.0921 0.866836 6.05834 3.90077 4.02937 6.93947 3.01488 11.1831 3.01488 16.6319 3.01488 22.0949 4.02937 26.3433 6.05834 29.3772 8.0921 32.4159 10.9164 33.9353 14.5314 33.9353 18.1655 33.9353 20.9947 32.4159 23.0188 29.3772 25.043 26.3433 26.0552 22.0949 26.0552 16.6319 26.0552 11.1831 25.043 6.93947 23.0188 3.90077 20.9947 0.866836 18.1655-0.650129 14.5314-0.650129Z" fill="#000000" fill-rule="nonzero" fill-opacity="1" transform="matrix(1.00002 0 0 -1 1786.59 856.821)"/><path d="M4.308 2.32189C4.308 3.15539 4.59139 3.86267 5.15816 4.44374 5.72494 5.0248 6.43222 5.31534 7.28001 5.31534 8.09925 5.31534 8.79696 5.0248 9.37328 4.44374 9.95433 3.86267 10.2449 3.15539 10.2449 2.32189 10.2449 1.50268 9.95433 0.802537 9.37328 0.221472 8.79696-0.359595 8.09925-0.650129 7.28001-0.650129 6.43222-0.650129 5.72494-0.364358 5.15816 0.207184 4.59139 0.783491 4.308 1.48839 4.308 2.32189Z" fill="#000000" fill-rule="nonzero" fill-opacity="1" transform="matrix(1.00002 0 0 -1 1815.68 856.821)"/><path d="M14.9601 1.5646C17.0557 1.5646 18.668 2.3338 19.7968 3.87219 20.9304 5.41536 21.4971 7.63008 21.4971 10.5164 21.4971 13.4027 20.9304 15.615 19.7968 17.1534 18.668 18.6966 17.0557 19.4681 14.9601 19.4681 12.8311 19.4681 11.207 18.7228 10.0877 17.232 8.9732 15.746 8.41595 13.5955 8.41595 10.7807 8.41595 7.82298 8.98035 5.54633 10.1091 3.95078 11.2427 2.35999 12.8597 1.5646 14.9601 1.5646ZM7.68009 18.3536C8.69458 19.4681 9.84002 20.2992 11.1165 20.847 12.3977 21.3995 13.8432 21.6757 15.4531 21.6757 18.768 21.6757 21.3899 20.6779 23.3189 18.6823 25.2479 16.6914 26.2123 13.9694 26.2123 10.5164 26.2123 7.13951 25.1741 4.43421 23.0974 2.40048 21.0208 0.366739 18.2488-0.650129 14.7815-0.650129 11.0141-0.650129 8.11825 0.752527 6.09406 3.55785 4.06986 6.36792 3.05775 10.3758 3.05775 15.5817 3.05775 21.4162 4.25561 25.9337 6.65132 29.1343 9.047 32.335 12.4262 33.9353 16.789 33.9353 17.9655 33.9353 19.2014 33.8233 20.4969 33.5995 21.7924 33.3757 23.1165 33.0423 24.4691 32.5993L24.4691 27.1054 21.9472 27.1054C21.7662 28.6057 21.1923 29.7511 20.2254 30.5418 19.2586 31.3324 17.9559 31.7277 16.3175 31.7277 13.4312 31.7277 11.2808 30.6323 9.86624 28.4413 8.45167 26.2552 7.72296 22.8926 7.68009 18.3536Z" fill="#000000" fill-rule="nonzero" fill-opacity="1" transform="matrix(1.00002 0 0 -1 1830.21 856.821)"/><path d="M0 0 13.717 0" stroke="#000000" stroke-width="2.28617" stroke-linecap="butt" stroke-linejoin="round" stroke-miterlimit="4" stroke-opacity="1" fill="none" fill-rule="nonzero" transform="matrix(1.00002 0 0 1 1875.31 701.018)"/><path d="M0 0-13.717 0" stroke="#000000" stroke-width="2.28617" stroke-linecap="butt" stroke-linejoin="round" stroke-miterlimit="4" stroke-opacity="1" fill="none" fill-rule="nonzero" transform="matrix(1.00002 0 0 1 2905.34 701.018)"/><path d="M14.5314 1.5646C16.8128 1.5646 18.518 2.81484 19.6467 5.31534 20.7803 7.81583 21.3471 11.588 21.3471 16.6319 21.3471 21.6948 20.7803 25.4765 19.6467 27.977 18.518 30.4775 16.8128 31.7277 14.5314 31.7277 12.2548 31.7277 10.5497 30.4775 9.41615 27.977 8.28735 25.4765 7.72296 21.6948 7.72296 16.6319 7.72296 11.588 8.28735 7.81583 9.41615 5.31534 10.5497 2.81484 12.2548 1.5646 14.5314 1.5646ZM14.5314-0.650129C10.9164-0.650129 8.0921 0.866836 6.05834 3.90077 4.02937 6.93947 3.01488 11.1831 3.01488 16.6319 3.01488 22.0949 4.02937 26.3433 6.05834 29.3772 8.0921 32.4159 10.9164 33.9353 14.5314 33.9353 18.1655 33.9353 20.9947 32.4159 23.0188 29.3772 25.043 26.3433 26.0552 22.0949 26.0552 16.6319 26.0552 11.1831 25.043 6.93947 23.0188 3.90077 20.9947 0.866836 18.1655-0.650129 14.5314-0.650129Z" fill="#000000" fill-rule="nonzero" fill-opacity="1" transform="matrix(1.00002 0 0 -1 1786.59 718.389)"/><path d="M4.308 2.32189C4.308 3.15539 4.59139 3.86267 5.15816 4.44374 5.72494 5.0248 6.43222 5.31534 7.28001 5.31534 8.09925 5.31534 8.79696 5.0248 9.37328 4.44374 9.95433 3.86267 10.2449 3.15539 10.2449 2.32189 10.2449 1.50268 9.95433 0.802537 9.37328 0.221472 8.79696-0.359595 8.09925-0.650129 7.28001-0.650129 6.43222-0.650129 5.72494-0.364358 5.15816 0.207184 4.59139 0.783491 4.308 1.48839 4.308 2.32189Z" fill="#000000" fill-rule="nonzero" fill-opacity="1" transform="matrix(1.00002 0 0 -1 1815.68 718.389)"/><path d="M21.2971 9.10895C21.2971 11.4903 20.7041 13.3384 19.5181 14.6529 18.337 15.9722 16.6747 16.6319 14.5314 16.6319 12.3882 16.6319 10.7259 15.9722 9.54475 14.6529 8.36358 13.3384 7.77297 11.4903 7.77297 9.10895 7.77297 6.71324 8.36358 4.85573 9.54475 3.53641 10.7259 2.22187 12.3882 1.5646 14.5314 1.5646 16.6747 1.5646 18.337 2.22187 19.5181 3.53641 20.7041 4.85573 21.2971 6.71324 21.2971 9.10895ZM20.3826 25.2979C20.3826 27.3221 19.8682 28.8986 18.8394 30.0274 17.8155 31.161 16.3795 31.7277 14.5314 31.7277 12.7025 31.7277 11.2713 31.161 10.2377 30.0274 9.20418 28.8986 8.68743 27.3221 8.68743 25.2979 8.68743 23.2594 9.20418 21.6734 10.2377 20.5398 11.2713 19.411 12.7025 18.8466 14.5314 18.8466 16.3795 18.8466 17.8155 19.411 18.8394 20.5398 19.8682 21.6734 20.3826 23.2594 20.3826 25.2979ZM17.975 17.7464C20.5041 17.4082 22.4759 16.4747 23.8904 14.9458 25.305 13.4217 26.0123 11.4761 26.0123 9.10895 26.0123 5.98452 25.0216 3.5769 23.0403 1.88609 21.059 0.195276 18.2227-0.650129 14.5314-0.650129 10.8593-0.650129 8.0278 0.195276 6.03691 1.88609 4.0508 3.5769 3.05775 5.98452 3.05775 9.10895 3.05775 11.4761 3.76503 13.4217 5.1796 14.9458 6.59416 16.4747 8.57312 17.4082 11.1165 17.7464 8.8684 18.1512 7.14427 19.0038 5.94403 20.304 4.74856 21.6091 4.15082 23.2737 4.15082 25.2979 4.15082 27.9746 5.07243 30.0822 6.91565 31.6205 8.76366 33.1637 11.3022 33.9353 14.5314 33.9353 17.7654 33.9353 20.304 33.1637 22.1472 31.6205 23.9952 30.0822 24.9192 27.9746 24.9192 25.2979 24.9192 23.2737 24.3191 21.6091 23.1189 20.304 21.9186 19.0038 20.204 18.1512 17.975 17.7464Z" fill="#000000" fill-rule="nonzero" fill-opacity="1" transform="matrix(1.00002 0 0 -1 1830.21 718.389)"/><path d="M0 0 13.717 0" stroke="#000000" stroke-width="2.28617" stroke-linecap="butt" stroke-linejoin="round" stroke-miterlimit="4" stroke-opacity="1" fill="none" fill-rule="nonzero" transform="matrix(1.00002 0 0 1 1875.31 562.586)"/><path d="M0 0-13.717 0" stroke="#000000" stroke-width="2.28617" stroke-linecap="butt" stroke-linejoin="round" stroke-miterlimit="4" stroke-opacity="1" fill="none" fill-rule="nonzero" transform="matrix(1.00002 0 0 1 2905.34 562.586)"/><path d="M6.49414 0 6.49414 2.36475 12.3024 2.36475 12.3024 30.0988 5.57968 25.7408 5.57968 28.67 13.7099 33.9353 16.789 33.9353 16.789 2.36475 22.5973 2.36475 22.5973 0 6.49414 0Z" fill="#000000" fill-rule="nonzero" fill-opacity="1" transform="matrix(1.00002 0 0 -1 1786.59 579.957)"/><path d="M4.308 2.32189C4.308 3.15539 4.59139 3.86267 5.15816 4.44374 5.72494 5.0248 6.43222 5.31534 7.28001 5.31534 8.09925 5.31534 8.79696 5.0248 9.37328 4.44374 9.95433 3.86267 10.2449 3.15539 10.2449 2.32189 10.2449 1.50268 9.95433 0.802537 9.37328 0.221472 8.79696-0.359595 8.09925-0.650129 7.28001-0.650129 6.43222-0.650129 5.72494-0.364358 5.15816 0.207184 4.59139 0.783491 4.308 1.48839 4.308 2.32189Z" fill="#000000" fill-rule="nonzero" fill-opacity="1" transform="matrix(1.00002 0 0 -1 1815.68 579.957)"/><path d="M14.5314 1.5646C16.8128 1.5646 18.518 2.81484 19.6467 5.31534 20.7803 7.81583 21.3471 11.588 21.3471 16.6319 21.3471 21.6948 20.7803 25.4765 19.6467 27.977 18.518 30.4775 16.8128 31.7277 14.5314 31.7277 12.2548 31.7277 10.5497 30.4775 9.41615 27.977 8.28735 25.4765 7.72296 21.6948 7.72296 16.6319 7.72296 11.588 8.28735 7.81583 9.41615 5.31534 10.5497 2.81484 12.2548 1.5646 14.5314 1.5646ZM14.5314-0.650129C10.9164-0.650129 8.0921 0.866836 6.05834 3.90077 4.02937 6.93947 3.01488 11.1831 3.01488 16.6319 3.01488 22.0949 4.02937 26.3433 6.05834 29.3772 8.0921 32.4159 10.9164 33.9353 14.5314 33.9353 18.1655 33.9353 20.9947 32.4159 23.0188 29.3772 25.043 26.3433 26.0552 22.0949 26.0552 16.6319 26.0552 11.1831 25.043 6.93947 23.0188 3.90077 20.9947 0.866836 18.1655-0.650129 14.5314-0.650129Z" fill="#000000" fill-rule="nonzero" fill-opacity="1" transform="matrix(1.00002 0 0 -1 1830.21 579.957)"/><path d="M0 0 6.8585 0" stroke="#000000" stroke-width="2.28617" stroke-linecap="butt" stroke-linejoin="round" stroke-miterlimit="4" stroke-opacity="1" fill="none" fill-rule="nonzero" transform="matrix(1.00002 0 0 1 1875.31 1220.14)"/><path d="M0 0-6.8585 0" stroke="#000000" stroke-width="2.28617" stroke-linecap="butt" stroke-linejoin="round" stroke-miterlimit="4" stroke-opacity="1" fill="none" fill-rule="nonzero" transform="matrix(1.00002 0 0 1 2905.34 1220.14)"/><path d="M0 0 6.8585 0" stroke="#000000" stroke-width="2.28617" stroke-linecap="butt" stroke-linejoin="round" stroke-miterlimit="4" stroke-opacity="1" fill="none" fill-rule="nonzero" transform="matrix(1.00002 0 0 1 1875.31 1185.53)"/><path d="M0 0-6.8585 0" stroke="#000000" stroke-width="2.28617" stroke-linecap="butt" stroke-linejoin="round" stroke-miterlimit="4" stroke-opacity="1" fill="none" fill-rule="nonzero" transform="matrix(1.00002 0 0 1 2905.34 1185.53)"/><path d="M0 0 6.8585 0" stroke="#000000" stroke-width="2.28617" stroke-linecap="butt" stroke-linejoin="round" stroke-miterlimit="4" stroke-opacity="1" fill="none" fill-rule="nonzero" transform="matrix(1.00002 0 0 1 1875.31 1150.92)"/><path d="M0 0-6.8585 0" stroke="#000000" stroke-width="2.28617" stroke-linecap="butt" stroke-linejoin="round" stroke-miterlimit="4" stroke-opacity="1" fill="none" fill-rule="nonzero" transform="matrix(1.00002 0 0 1 2905.34 1150.92)"/><path d="M0 0 6.8585 0" stroke="#000000" stroke-width="2.28617" stroke-linecap="butt" stroke-linejoin="round" stroke-miterlimit="4" stroke-opacity="1" fill="none" fill-rule="nonzero" transform="matrix(1.00002 0 0 1 1875.31 1081.7)"/><path d="M0 0-6.8585 0" stroke="#000000" stroke-width="2.28617" stroke-linecap="butt" stroke-linejoin="round" stroke-miterlimit="4" stroke-opacity="1" fill="none" fill-rule="nonzero" transform="matrix(1.00002 0 0 1 2905.34 1081.7)"/><path d="M0 0 6.8585 0" stroke="#000000" stroke-width="2.28617" stroke-linecap="butt" stroke-linejoin="round" stroke-miterlimit="4" stroke-opacity="1" fill="none" fill-rule="nonzero" transform="matrix(1.00002 0 0 1 1875.31 1047.1)"/><path d="M0 0-6.8585 0" stroke="#000000" stroke-width="2.28617" stroke-linecap="butt" stroke-linejoin="round" stroke-miterlimit="4" stroke-opacity="1" fill="none" fill-rule="nonzero" transform="matrix(1.00002 0 0 1 2905.34 1047.1)"/><path d="M0 0 6.8585 0" stroke="#000000" stroke-width="2.28617" stroke-linecap="butt" stroke-linejoin="round" stroke-miterlimit="4" stroke-opacity="1" fill="none" fill-rule="nonzero" transform="matrix(1.00002 0 0 1 1875.31 1012.49)"/><path d="M0 0-6.8585 0" stroke="#000000" stroke-width="2.28617" stroke-linecap="butt" stroke-linejoin="round" stroke-miterlimit="4" stroke-opacity="1" fill="none" fill-rule="nonzero" transform="matrix(1.00002 0 0 1 2905.34 1012.49)"/><path d="M0 0 6.8585 0" stroke="#000000" stroke-width="2.28617" stroke-linecap="butt" stroke-linejoin="round" stroke-miterlimit="4" stroke-opacity="1" fill="none" fill-rule="nonzero" transform="matrix(1.00002 0 0 1 1875.31 943.273)"/><path d="M0 0-6.8585 0" stroke="#000000" stroke-width="2.28617" stroke-linecap="butt" stroke-linejoin="round" stroke-miterlimit="4" stroke-opacity="1" fill="none" fill-rule="nonzero" transform="matrix(1.00002 0 0 1 2905.34 943.273)"/><path d="M0 0 6.8585 0" stroke="#000000" stroke-width="2.28617" stroke-linecap="butt" stroke-linejoin="round" stroke-miterlimit="4" stroke-opacity="1" fill="none" fill-rule="nonzero" transform="matrix(1.00002 0 0 1 1875.31 908.665)"/><path d="M0 0-6.8585 0" stroke="#000000" stroke-width="2.28617" stroke-linecap="butt" stroke-linejoin="round" stroke-miterlimit="4" stroke-opacity="1" fill="none" fill-rule="nonzero" transform="matrix(1.00002 0 0 1 2905.34 908.665)"/><path d="M0 0 6.8585 0" stroke="#000000" stroke-width="2.28617" stroke-linecap="butt" stroke-linejoin="round" stroke-miterlimit="4" stroke-opacity="1" fill="none" fill-rule="nonzero" transform="matrix(1.00002 0 0 1 1875.31 874.057)"/><path d="M0 0-6.8585 0" stroke="#000000" stroke-width="2.28617" stroke-linecap="butt" stroke-linejoin="round" stroke-miterlimit="4" stroke-opacity="1" fill="none" fill-rule="nonzero" transform="matrix(1.00002 0 0 1 2905.34 874.057)"/><path d="M0 0 6.8585 0" stroke="#000000" stroke-width="2.28617" stroke-linecap="butt" stroke-linejoin="round" stroke-miterlimit="4" stroke-opacity="1" fill="none" fill-rule="nonzero" transform="matrix(1.00002 0 0 1 1875.31 804.841)"/><path d="M0 0-6.8585 0" stroke="#000000" stroke-width="2.28617" stroke-linecap="butt" stroke-linejoin="round" stroke-miterlimit="4" stroke-opacity="1" fill="none" fill-rule="nonzero" transform="matrix(1.00002 0 0 1 2905.34 804.841)"/><path d="M0 0 6.8585 0" stroke="#000000" stroke-width="2.28617" stroke-linecap="butt" stroke-linejoin="round" stroke-miterlimit="4" stroke-opacity="1" fill="none" fill-rule="nonzero" transform="matrix(1.00002 0 0 1 1875.31 770.233)"/><path d="M0 0-6.8585 0" stroke="#000000" stroke-width="2.28617" stroke-linecap="butt" stroke-linejoin="round" stroke-miterlimit="4" stroke-opacity="1" fill="none" fill-rule="nonzero" transform="matrix(1.00002 0 0 1 2905.34 770.233)"/><path d="M0 0 6.8585 0" stroke="#000000" stroke-width="2.28617" stroke-linecap="butt" stroke-linejoin="round" stroke-miterlimit="4" stroke-opacity="1" fill="none" fill-rule="nonzero" transform="matrix(1.00002 0 0 1 1875.31 735.625)"/><path d="M0 0-6.8585 0" stroke="#000000" stroke-width="2.28617" stroke-linecap="butt" stroke-linejoin="round" stroke-miterlimit="4" stroke-opacity="1" fill="none" fill-rule="nonzero" transform="matrix(1.00002 0 0 1 2905.34 735.625)"/><path d="M0 0 6.8585 0" stroke="#000000" stroke-width="2.28617" stroke-linecap="butt" stroke-linejoin="round" stroke-miterlimit="4" stroke-opacity="1" fill="none" fill-rule="nonzero" transform="matrix(1.00002 0 0 1 1875.31 666.409)"/><path d="M0 0-6.8585 0" stroke="#000000" stroke-width="2.28617" stroke-linecap="butt" stroke-linejoin="round" stroke-miterlimit="4" stroke-opacity="1" fill="none" fill-rule="nonzero" transform="matrix(1.00002 0 0 1 2905.34 666.409)"/><path d="M0 0 6.8585 0" stroke="#000000" stroke-width="2.28617" stroke-linecap="butt" stroke-linejoin="round" stroke-miterlimit="4" stroke-opacity="1" fill="none" fill-rule="nonzero" transform="matrix(1.00002 0 0 1 1875.31 631.802)"/><path d="M0 0-6.8585 0" stroke="#000000" stroke-width="2.28617" stroke-linecap="butt" stroke-linejoin="round" stroke-miterlimit="4" stroke-opacity="1" fill="none" fill-rule="nonzero" transform="matrix(1.00002 0 0 1 2905.34 631.802)"/><path d="M0 0 6.8585 0" stroke="#000000" stroke-width="2.28617" stroke-linecap="butt" stroke-linejoin="round" stroke-miterlimit="4" stroke-opacity="1" fill="none" fill-rule="nonzero" transform="matrix(1.00002 0 0 1 1875.31 597.194)"/><path d="M0 0-6.8585 0" stroke="#000000" stroke-width="2.28617" stroke-linecap="butt" stroke-linejoin="round" stroke-miterlimit="4" stroke-opacity="1" fill="none" fill-rule="nonzero" transform="matrix(1.00002 0 0 1 2905.34 597.194)"/><path d="M11.2951 16.9676 17.1891 16.9676C19.4086 16.9676 21.097 17.5654 22.2544 18.7609 23.4166 19.9611 23.9976 21.6924 23.9976 23.9547 23.9976 26.2314 23.4166 27.965 22.2544 29.1558 21.097 30.3465 19.4086 30.9418 17.1891 30.9418L11.2951 30.9418 11.2951 16.9676ZM2.52193 0 2.52193 2.36475 6.76562 2.36475 6.76562 30.9418 2.52193 30.9418 2.52193 33.3352 18.2822 33.3352C21.6162 33.3352 24.2572 32.4898 26.2052 30.799 28.1579 29.1081 29.1343 26.8267 29.1343 23.9547 29.1343 21.097 28.1579 18.8204 26.2052 17.1248 24.2572 15.4293 21.6162 14.5815 18.2822 14.5815L11.2951 14.5815 11.2951 2.36475 16.4533 2.36475 16.4533 0 2.52193 0Z" fill="#000000" fill-rule="nonzero" fill-opacity="1" transform="matrix(6.12338e-17 -1 -1.00002 -6.12323e-17 1757.02 1214.78)"/><path d="M21.8543 23.7761 21.8543 17.8392 19.4896 17.8392C19.4181 19.0157 19.0919 19.8944 18.5108 20.4755 17.9298 21.0565 17.0796 21.3471 15.9603 21.3471 13.9361 21.3471 12.3834 20.6469 11.3022 19.2467 10.2258 17.8464 9.68763 15.8365 9.68763 13.2169L9.68763 2.36475 14.4457 2.36475 14.4457 0 1.87894 0 1.87894 2.36475 5.57968 2.36475 5.57968 21.3899 1.65033 21.3899 1.65033 23.7333 9.68763 23.7333 9.68763 19.511C10.4926 21.1637 11.5261 22.3878 12.7882 23.1832 14.0551 23.9833 15.5983 24.3834 17.4177 24.3834 18.0845 24.3834 18.7871 24.331 19.5253 24.2262 20.2635 24.1214 21.0399 23.9714 21.8543 23.7761Z" fill="#000000" fill-rule="nonzero" fill-opacity="1" transform="matrix(6.12338e-17 -1 -1.00002 -6.12323e-17 1757.02 1184.02)"/><path d="M14.5815-7.12284C10.9617-5.49871 8.22784-2.92677 6.37983 0.592974 4.53661 4.11272 3.615 8.51361 3.615 13.7956 3.615 19.0966 4.53661 23.507 6.37983 27.0268 8.22784 30.5465 10.9617 33.1185 14.5815 34.7426L14.5815 32.5493C12.2858 30.9728 10.6402 28.7509 9.64477 25.8837 8.64935 23.0212 8.15161 18.9918 8.15161 13.7956 8.15161 8.61835 8.64935 4.59615 9.64477 1.72891 10.6402-1.13356 12.2858-3.35543 14.5815-4.93669L14.5815-7.12284Z" fill="#000000" fill-rule="nonzero" fill-opacity="1" transform="matrix(6.12338e-17 -1 -1.00002 -6.12323e-17 1757.02 1162.16)"/><path d="M9.50902 34.9426 9.50902-10.7807 5.89402-10.7807 5.89402 34.9426 9.50902 34.9426Z" fill="#000000" fill-rule="nonzero" fill-opacity="1" transform="matrix(6.12338e-17 -1 -1.00002 -6.12323e-17 1757.02 1144.32)"/><path d="M14.6886 14.2671 4.22226 2.36475 8.53026 2.36475 8.08017 0-2.95058 0-2.50049 2.36475 1.34312 2.36475 13.667 16.3675 6.76562 30.9418 3.19349 30.9418 3.66501 33.3352 16.8819 33.3352 16.4104 30.9418 12.481 30.9418 17.5463 20.204 26.9696 30.9418 22.6831 30.9418 23.1546 33.3352 34.071 33.3352 33.5995 30.9418 29.8488 30.9418 18.5537 18.1036 26.0123 2.36475 29.5844 2.36475 29.1129 0 15.896 0 16.3461 2.36475 20.3183 2.36475 14.6886 14.2671Z" fill="#000000" fill-rule="nonzero" fill-opacity="1" transform="matrix(6.12338e-17 -1 -1.00002 -6.12323e-17 1757.02 1128.92)"/><path d="M4.84382 16.1389 33.4638 16.1389 33.4638 12.5239 4.84382 12.5239 4.84382 16.1389Z" fill="#000000" fill-rule="nonzero" fill-opacity="1" transform="matrix(6.12338e-17 -1 -1.00002 -6.12323e-17 1757.02 1087.7)"/><path d="M30.3632 29.8559 29.9488 28.1627 15.3602 28.1627 12.2096 16.1889 25.105 16.1889 24.5977 14.4957 11.7523 14.4957 8.32308 1.69319 24.5977 1.69319 24.2334 0 0.778726 0 8.78031 29.8559 30.3632 29.8559ZM13.6741 28.1627 10.102 28.1627 2.97202 1.69319 6.62988 1.69319 13.6741 28.1627Z" fill="#000000" fill-rule="nonzero" fill-opacity="1" transform="matrix(6.12338e-17 -1 -1.00002 -6.12323e-17 1757.02 1040.71)"/><path d="M3.92935 34.7426 14.31 34.7426 14.31 32.3707 8.19448 32.3707 8.19448-3.66501 14.31-3.66501 14.31-6.02976 3.92935-6.02976 3.92935 34.7426Z" fill="#000000" fill-rule="nonzero" fill-opacity="1" transform="matrix(6.12338e-17 -1 -1.00002 -6.12323e-17 1757.02 1011.5)"/><path d="M14.6886 14.2671 4.22226 2.36475 8.53026 2.36475 8.08017 0-2.95058 0-2.50049 2.36475 1.34312 2.36475 13.667 16.3675 6.76562 30.9418 3.19349 30.9418 3.66501 33.3352 16.8819 33.3352 16.4104 30.9418 12.481 30.9418 17.5463 20.204 26.9696 30.9418 22.6831 30.9418 23.1546 33.3352 34.071 33.3352 33.5995 30.9418 29.8488 30.9418 18.5537 18.1036 26.0123 2.36475 29.5844 2.36475 29.1129 0 15.896 0 16.3461 2.36475 20.3183 2.36475 14.6886 14.2671Z" fill="#000000" fill-rule="nonzero" fill-opacity="1" transform="matrix(6.12338e-17 -1 -1.00002 -6.12323e-17 1757.02 993.657)"/><path d="M13.9099 34.7426 13.9099-6.02976 3.52927-6.02976 3.52927-3.66501 9.64477-3.66501 9.64477 32.3707 3.52927 32.3707 3.52927 34.7426 13.9099 34.7426Z" fill="#000000" fill-rule="nonzero" fill-opacity="1" transform="matrix(6.12338e-17 -1 -1.00002 -6.12323e-17 1757.02 961.106)"/><path d="M9.50902 34.9426 9.50902-10.7807 5.89402-10.7807 5.89402 34.9426 9.50902 34.9426Z" fill="#000000" fill-rule="nonzero" fill-opacity="1" transform="matrix(6.12338e-17 -1 -1.00002 -6.12323e-17 1757.02 943.268)"/><path d="M33.4638 3.4864 33.4638 0 4.84382 0 4.84382 3.4864 33.4638 3.4864ZM4.84382 22.9045 4.84382 26.6124 33.4638 18.4179 33.4638 14.6243 4.84382 6.40841 4.84382 10.1163 28.3985 16.4961 4.84382 22.9045Z" fill="#000000" fill-rule="nonzero" fill-opacity="1" transform="matrix(6.12338e-17 -1 -1.00002 -6.12323e-17 1757.02 919.191)"/><path d="M22.7974 22.5473 21.9258 18.1536 19.4253 17.5963C19.4967 18.9204 19.0657 19.923 18.1322 20.6041 17.1939 21.2756 16.0246 21.6114 14.6243 21.6114 13.224 21.6114 11.9357 21.2471 10.7593 20.5183 9.56854 19.7753 8.87797 18.8966 8.68743 17.8821 8.43503 16.5723 8.8589 15.5388 9.95911 14.7815 11.0736 14.0051 12.6216 13.617 14.6029 13.617L15.6745 13.617 15.2244 11.2737 13.174 11.2737C11.1784 11.2737 9.43758 10.7974 7.95157 9.84481 6.44651 8.87797 5.53681 7.58243 5.22246 5.95832 4.98432 4.71045 5.40821 3.61738 6.49414 2.6791 7.58486 1.72653 8.95413 1.25025 10.6021 1.25025 12.331 1.25025 13.898 1.64318 15.303 2.42905 16.7128 3.21969 17.6392 4.37467 18.0821 5.89402L20.3826 5.33677 19.4896 0.73586C17.8083 0.202421 16.1341-0.20004 14.4671-0.471522 12.8288-0.738239 11.438-0.871601 10.2949-0.871601 7.36096-0.871601 4.99385-0.28339 3.19349 0.893034 1.42171 2.08375 0.752527 3.78884 1.18595 6.00833 1.62889 8.34215 2.68387 10.0829 4.35086 11.2308 5.23199 11.8118 6.80373 12.2501 9.06608 12.5453L5.91546 14.31C4.81524 14.9339 4.45088 16.1913 4.82238 18.0821 5.19388 20.0016 6.20599 21.4685 7.8587 22.483 9.51138 23.4784 11.7952 23.9762 14.7101 23.9762 15.515 23.9762 16.6699 23.8571 18.175 23.619 19.6753 23.3666 21.2161 23.0093 22.7974 22.5473Z" fill="#000000" fill-rule="nonzero" fill-opacity="1" transform="matrix(6.12338e-17 -1 -1.00002 -6.12323e-17 1757.02 872.209)"/><path d="M4.84382 15.8746C4.84382 16.7081 5.12959 17.4106 5.70113 17.9821 6.27743 18.5585 6.98948 18.8466 7.83727 18.8466 8.6565 18.8466 9.35664 18.556 9.93768 17.975 10.5187 17.3939 10.8093 16.6938 10.8093 15.8746 10.8093 15.041 10.5187 14.3362 9.93768 13.7599 9.35664 13.1883 8.6565 12.9026 7.83727 12.9026 6.98948 12.9026 6.27743 13.186 5.70113 13.7527 5.12959 14.3195 4.84382 15.0268 4.84382 15.8746Z" fill="#000000" fill-rule="nonzero" fill-opacity="1" transform="matrix(6.12338e-17 -1 -1.00002 -6.12323e-17 1757.02 839.001)"/><path d="M33.11 47.1853 16.0229-8.96867 14.7451-8.96867 7.72408 13.8615C7.49924 14.5931 7.24429 15.1204 6.95927 15.4434 6.67743 15.7696 6.30372 15.9327 5.83819 15.9327 5.14782 15.9327 4.459 15.6587 3.77178 15.1109L3.406 15.7189 8.38913 19.5477 9.14918 19.5477 16.0514-2.85971 16.175-2.85971 31.3761 47.1853 33.11 47.1853Z" fill="#000000" fill-rule="nonzero" fill-opacity="1" transform="matrix(6.12338e-17 -1 -1.00002 -6.12323e-17 1755.24 814.68)"/><path d="M7.99444 30.9418 17.8392 5.3582 27.6626 30.9418 23.9119 30.9418 23.9119 33.3352 33.6924 33.3352 33.6924 30.9418 30.456 30.9418 18.5537 0 14.7101 0 2.87914 30.9418-0.450089 30.9418-0.450089 33.3352 11.7023 33.3352 11.7023 30.9418 7.99444 30.9418Z" fill="#000000" fill-rule="nonzero" fill-opacity="1" transform="matrix(6.12338e-17 -1 -1.00002 -6.12323e-17 1756.98 776.825)"/><path d="M18.1965 7.45862 18.1965 12.481 12.9026 12.481C10.8641 12.481 9.34471 12.0405 8.34451 11.1594 7.3491 10.283 6.85136 8.93748 6.85136 7.12284 6.85136 5.47013 7.35624 4.16034 8.36594 3.19349 9.38043 2.22663 10.7521 1.7432 12.481 1.7432 14.1909 1.7432 15.5697 2.27188 16.6176 3.32923 17.6701 4.38658 18.1965 5.76305 18.1965 7.45862ZM22.3044 14.8244 22.3044 2.36475 25.9623 2.36475 25.9623 0 18.1965 0 18.1965 2.56479C17.2868 1.46458 16.2366 0.65251 15.0458 0.128597 13.8551-0.390554 12.4644-0.650129 10.8736-0.650129 8.2397-0.650129 6.14884 0.0500099 4.60091 1.45029 3.05298 2.85056 2.27902 4.74142 2.27902 7.12284 2.27902 9.58047 3.16491 11.4856 4.93669 12.8383 6.70847 14.1909 9.20897 14.8672 12.4382 14.8672L18.1965 14.8672 18.1965 16.4961C18.1965 18.3013 17.6487 19.6968 16.5533 20.6827 15.4626 21.6734 13.9265 22.1687 11.9452 22.1687 10.3068 22.1687 9.00414 21.7972 8.0373 21.0542 7.07045 20.3112 6.46794 19.2086 6.2298 17.7464L4.10796 17.7464 4.10796 22.5473C5.53681 23.1569 6.92518 23.6142 8.27307 23.919 9.62098 24.2286 10.9331 24.3834 12.2096 24.3834 15.5007 24.3834 18.0059 23.5666 19.7253 21.9329 21.4447 20.304 22.3044 17.9345 22.3044 14.8244Z" fill="#000000" fill-rule="nonzero" fill-opacity="1" transform="matrix(6.12338e-17 -1 -1.00002 -6.12323e-17 1756.98 743.805)"/><path d="M21.8543 23.7761 21.8543 17.8392 19.4896 17.8392C19.4181 19.0157 19.0919 19.8944 18.5108 20.4755 17.9298 21.0565 17.0796 21.3471 15.9603 21.3471 13.9361 21.3471 12.3834 20.6469 11.3022 19.2467 10.2258 17.8464 9.68763 15.8365 9.68763 13.2169L9.68763 2.36475 14.4457 2.36475 14.4457 0 1.87894 0 1.87894 2.36475 5.57968 2.36475 5.57968 21.3899 1.65033 21.3899 1.65033 23.7333 9.68763 23.7333 9.68763 19.511C10.4926 21.1637 11.5261 22.3878 12.7882 23.1832 14.0551 23.9833 15.5983 24.3834 17.4177 24.3834 18.0845 24.3834 18.7871 24.331 19.5253 24.2262 20.2635 24.1214 21.0399 23.9714 21.8543 23.7761Z" fill="#000000" fill-rule="nonzero" fill-opacity="1" transform="matrix(6.12338e-17 -1 -1.00002 -6.12323e-17 1756.98 716.545)"/><path d="M14.5815-7.12284C10.9617-5.49871 8.22784-2.92677 6.37983 0.592974 4.53661 4.11272 3.615 8.51361 3.615 13.7956 3.615 19.0966 4.53661 23.507 6.37983 27.0268 8.22784 30.5465 10.9617 33.1185 14.5815 34.7426L14.5815 32.5493C12.2858 30.9728 10.6402 28.7509 9.64477 25.8837 8.64935 23.0212 8.15161 18.9918 8.15161 13.7956 8.15161 8.61835 8.64935 4.59615 9.64477 1.72891 10.6402-1.13356 12.2858-3.35543 14.5815-4.93669L14.5815-7.12284Z" fill="#000000" fill-rule="nonzero" fill-opacity="1" transform="matrix(6.12338e-17 -1 -1.00002 -6.12323e-17 1756.98 694.689)"/><path d="M14.6886 14.2671 4.22226 2.36475 8.53026 2.36475 8.08017 0-2.95058 0-2.50049 2.36475 1.34312 2.36475 13.667 16.3675 6.76562 30.9418 3.19349 30.9418 3.66501 33.3352 16.8819 33.3352 16.4104 30.9418 12.481 30.9418 17.5463 20.204 26.9696 30.9418 22.6831 30.9418 23.1546 33.3352 34.071 33.3352 33.5995 30.9418 29.8488 30.9418 18.5537 18.1036 26.0123 2.36475 29.5844 2.36475 29.1129 0 15.896 0 16.3461 2.36475 20.3183 2.36475 14.6886 14.2671Z" fill="#000000" fill-rule="nonzero" fill-opacity="1" transform="matrix(6.12338e-17 -1 -1.00002 -6.12323e-17 1756.98 676.848)"/><path d="M3.23635-7.12284 3.23635-4.93669C5.52729-3.35543 7.17521-1.13356 8.18019 1.72891 9.18517 4.59615 9.68763 8.61835 9.68763 13.7956 9.68763 18.9918 9.18517 23.0212 8.18019 25.8837 7.17521 28.7509 5.52729 30.9728 3.23635 32.5493L3.23635 34.7426C6.87041 33.1185 9.60904 30.5465 11.4523 27.0268 13.3003 23.507 14.2242 19.0966 14.2242 13.7956 14.2242 8.51361 13.3003 4.11272 11.4523 0.592974 9.60904-2.92677 6.87041-5.49871 3.23635-7.12284Z" fill="#000000" fill-rule="nonzero" fill-opacity="1" transform="matrix(6.12338e-17 -1 -1.00002 -6.12323e-17 1756.98 644.297)"/><path d="M3.23635-7.12284 3.23635-4.93669C5.52729-3.35543 7.17521-1.13356 8.18019 1.72891 9.18517 4.59615 9.68763 8.61835 9.68763 13.7956 9.68763 18.9918 9.18517 23.0212 8.18019 25.8837 7.17521 28.7509 5.52729 30.9728 3.23635 32.5493L3.23635 34.7426C6.87041 33.1185 9.60904 30.5465 11.4523 27.0268 13.3003 23.507 14.2242 19.0966 14.2242 13.7956 14.2242 8.51361 13.3003 4.11272 11.4523 0.592974 9.60904-2.92677 6.87041-5.49871 3.23635-7.12284Z" fill="#000000" fill-rule="nonzero" fill-opacity="1" transform="matrix(6.12338e-17 -1 -1.00002 -6.12323e-17 1757.02 620.745)"/><path d="M432.242 45.952 432.242 48.8097 594.038 48.8097 594.038 45.952 432.242 45.952Z" fill="#000000" fill-rule="nonzero" fill-opacity="1" transform="matrix(6.12338e-17 -1 -1.00002 -6.12323e-17 1757.33 1214.78)"/><g clip-path="url(#clip5)"><path d="M320.42-4.57233 327.51 111.276 336.968 225.96 346.426 313.401 355.885 381.592 365.343 435.795 374.801 479.587 384.26 515.48 393.718 545.26 403.176 570.239 412.635 591.399 422.093 609.483 431.551 625.052 441.01 638.558 450.468 650.35 459.926 660.702 469.387 669.842 478.842 677.954 488.302 685.182 497.758 691.652 507.218 697.468 516.678 702.713 526.134 707.463 535.594 711.775 545.05 715.698 554.51 719.283 563.965 722.57 573.425 725.584 582.886 728.359 592.341 730.915 601.801 733.279 611.257 735.469 620.717 737.504 630.177 739.392 639.633 741.152 649.093 742.794 658.549 744.326 668.009 745.761 677.469 747.101 686.924 748.363 696.385 749.547 705.84 750.663 715.3 751.714 724.761 752.702 734.216 753.635 743.676 754.522 753.132 755.354 762.592 756.145 772.052 756.895 781.508 757.608 790.968 758.285 800.424 758.925 809.884 759.538 819.344 760.118 828.799 760.672 838.26 761.202 847.715 761.705 857.175 762.185 866.635 762.647 876.091 763.086 885.551 763.511 895.007 763.913 904.467 764.297 913.927 764.668 923.383 765.024 932.843 765.367 942.298 765.692 951.759 766.008 961.214 766.309 970.674 766.602 980.135 766.881 989.59 767.151 999.05 767.411 1008.51 767.663 1017.97 767.901 1027.43 768.134 1036.88 768.358 1046.34 768.577 1055.8 768.783 1065.26 768.989 1074.72 769.181 1084.17 769.373 1093.63 769.556 1103.09 769.729 1112.55 769.903 1122.01 770.068 1131.47 770.228 1140.93 770.383 1150.38 770.534 1159.84 770.68 1169.3 770.822" stroke="#0000FF" stroke-width="9.14467" stroke-linecap="square" stroke-linejoin="round" stroke-miterlimit="4" stroke-opacity="1" fill="none" fill-rule="nonzero" transform="matrix(1.00002 0 0 1 1689.2 477)"/></g><path d="M186.108 777.745 186.108 85.5854" stroke="#000000" stroke-width="2.28617" stroke-linecap="square" stroke-linejoin="miter" stroke-miterlimit="4" stroke-opacity="1" fill="none" fill-rule="nonzero" transform="matrix(1.00002 0 0 1 1689.2 477)"/><path d="M1216.12 777.745 1216.12 85.5854" stroke="#000000" stroke-width="2.28617" stroke-linecap="square" stroke-linejoin="miter" stroke-miterlimit="4" stroke-opacity="1" fill="none" fill-rule="nonzero" transform="matrix(1.00002 0 0 1 1689.2 477)"/><path d="M186.108 777.745 1216.12 777.745" stroke="#000000" stroke-width="2.28617" stroke-linecap="square" stroke-linejoin="miter" stroke-miterlimit="4" stroke-opacity="1" fill="none" fill-rule="nonzero" transform="matrix(1.00002 0 0 1 1689.2 477)"/><path d="M186.108 85.5854 1216.12 85.5854" stroke="#000000" stroke-width="2.28617" stroke-linecap="square" stroke-linejoin="miter" stroke-miterlimit="4" stroke-opacity="1" fill="none" fill-rule="nonzero" transform="matrix(1.00002 0 0 1 1689.2 477)"/><path d="M38.6905 10.5792C37.5074 6.84707 35.527 4.0208 32.7493 2.10042 29.9716 0.180036 26.4595-0.780154 22.213-0.780154 19.601-0.780154 17.1777-0.334352 14.943 0.557253 12.7139 1.45458 10.7336 2.76912 9.00178 4.50089 7.00139 6.50128 5.51252 8.77314 4.53518 11.3165 3.56357 13.8656 3.07775 16.7461 3.07775 19.9582 3.07775 26.1766 4.87239 31.1919 8.46167 35.0041 12.0566 38.8163 16.7919 40.7223 22.6673 40.7223 24.8449 40.7223 27.1654 40.4366 29.6287 39.865 32.0978 39.2935 34.7497 38.4276 37.5846 37.2674L37.5846 28.0513 34.5583 28.0513C33.901 31.4062 32.575 33.8782 30.5803 35.467 28.5914 37.0616 25.8023 37.8589 22.213 37.8589 17.9436 37.8589 14.7087 36.3443 12.5082 33.3152 10.3135 30.286 9.21611 25.8337 9.21611 19.9582 9.21611 14.1 10.3135 9.65617 12.5082 6.62703 14.7087 3.60357 17.9436 2.09184 22.213 2.09184 25.1964 2.09184 27.6512 2.80056 29.5773 4.21798 31.5091 5.64112 32.9037 7.76153 33.761 10.5792L38.6905 10.5792Z" fill="#000000" fill-rule="nonzero" fill-opacity="1" transform="matrix(1.00002 0 0 -1 2068.13 535.152)"/><path d="M2.25473 0 2.25473 2.8377 6.69561 2.8377 6.69561 38.8448 1.98039 38.8448 1.98039 41.6911 11.6252 41.6911 11.6252 23.4132C12.5397 25.345 13.7227 26.8024 15.1744 27.7855 16.6319 28.7686 18.3265 29.2601 20.2583 29.2601 23.4018 29.2601 25.7136 28.3571 27.194 26.551 28.6743 24.7449 29.4144 21.9329 29.4144 18.115L29.4144 2.8377 33.8124 2.8377 33.8124 0 20.1983 0 20.1983 2.8377 24.4591 2.8377 24.4591 16.5547C24.4591 20.0411 24.0333 22.4216 23.1817 23.6961 22.3358 24.9763 20.8241 25.6165 18.6465 25.6165 16.3604 25.6165 14.6172 24.7849 13.4169 23.1217 12.2224 21.4585 11.6252 19.0381 11.6252 15.8603L11.6252 2.8377 15.9117 2.8377 15.9117 0 2.25473 0Z" fill="#000000" fill-rule="nonzero" fill-opacity="1" transform="matrix(1.00002 0 0 -1 2110.11 535.152)"/><path d="M29.7402 13.717 8.49597 13.717 8.49597 13.5027C8.49597 9.66191 9.21894 6.7642 10.665 4.80952 12.111 2.85485 14.2457 1.87751 17.0691 1.87751 19.2295 1.87751 21.0013 2.44334 22.3844 3.57499 23.7675 4.71236 24.7363 6.39555 25.2907 8.62456L29.2601 8.62456C28.4713 5.49823 27.0167 3.14919 24.8964 1.57746 22.7816 0.00571542 20.0011-0.780154 16.5547-0.780154 12.3939-0.780154 9.05039 0.591546 6.52415 3.33495 3.99793 6.07835 2.73483 9.7191 2.73483 14.2571 2.73483 18.7552 3.97508 22.3787 6.45556 25.1278 8.94177 27.8826 12.2024 29.2601 16.2375 29.2601 20.5412 29.2601 23.8447 27.9312 26.148 25.2736 28.4514 22.6216 29.6487 18.7694 29.7402 13.717ZM23.9276 16.5547C23.819 19.8811 23.116 22.3873 21.8186 24.0733 20.5269 25.7594 18.6665 26.6024 16.2375 26.6024 13.9684 26.6024 12.1824 25.7537 10.8793 24.0562 9.57618 22.3587 8.78171 19.8582 8.49597 16.5547L23.9276 16.5547Z" fill="#000000" fill-rule="nonzero" fill-opacity="1" transform="matrix(1.00002 0 0 -1 2145.45 535.152)"/><path d="M6.32697 2.8377 6.32697 38.8448 1.57746 38.8448 1.57746 41.6911 11.2565 41.6911 11.2565 24.0305C12.2167 25.8194 13.4427 27.1368 14.9344 27.9827 16.4261 28.8342 18.2722 29.2601 20.4726 29.2601 23.9705 29.2601 26.8253 27.8741 29.0372 25.1021 31.2548 22.3358 32.3635 18.7209 32.3635 14.2571 32.3635 9.78768 31.2548 6.16408 29.0372 3.38638 26.8253 0.608692 23.9705-0.780154 20.4726-0.780154 18.2722-0.780154 16.4261-0.357214 14.9344 0.488668 13.4427 1.34026 12.2167 2.66052 11.2565 4.44945L11.2565 0 1.57746 0 1.57746 2.8377 6.32697 2.8377ZM11.2565 12.834C11.2565 9.40472 11.9109 6.79277 13.2198 4.99813 14.5343 3.20349 16.4404 2.30617 18.938 2.30617 21.4585 2.30617 23.3646 3.31494 24.6563 5.33248 25.9537 7.35002 26.6024 10.3249 26.6024 14.2571 26.6024 18.2007 25.9537 21.1728 24.6563 23.1732 23.3646 25.1735 21.4585 26.1738 18.938 26.1738 16.4404 26.1738 14.5343 25.2707 13.2198 23.4646 11.9109 21.6643 11.2565 19.0581 11.2565 15.646L11.2565 12.834Z" fill="#000000" fill-rule="nonzero" fill-opacity="1" transform="matrix(1.00002 0 0 -1 2177.92 535.152)"/><path d="M11.8395-5.22103 13.717-0.480095 3.07775 25.6165-0.162889 25.6165-0.162889 28.4799 12.9368 28.4799 12.9368 25.6165 8.38452 25.6165 16.4004 6.02691 24.4077 25.6165 20.1468 25.6165 20.1468 28.4799 30.8375 28.4799 30.8375 25.6165 27.6483 25.6165 14.6-6.42984C13.7084-8.64745 12.7168-10.162 11.6252-10.9736 10.5392-11.7852 9.00461-12.191 7.02139-12.191 6.18122-12.191 5.31819-12.1196 4.43231-11.9767 3.55213-11.8337 2.66339-11.628 1.76606-11.3594L1.76606-5.92403 4.28656-5.92403C4.39516-7.13569 4.70379-8.00444 5.21246-8.53026 5.72113-9.06179 6.50986-9.32756 7.57864-9.32756 8.5617-9.32756 9.35328-9.05322 9.9534-8.50454 10.5535-7.96158 11.1822-6.86707 11.8395-5.22103Z" fill="#000000" fill-rule="nonzero" fill-opacity="1" transform="matrix(1.00002 0 0 -1 2213.05 535.152)"/><path d="M3.07775 1.57746 3.07775 8.22163 5.92403 8.22163C5.99261 6.10121 6.6556 4.51232 7.91299 3.45497 9.17607 2.40333 11.0394 1.87751 13.5027 1.87751 15.7203 1.87751 17.4092 2.29188 18.5694 3.12062 19.7296 3.94936 20.3097 5.16102 20.3097 6.75562 20.3097 8.00158 19.8839 9.00753 19.0323 9.77336 18.1864 10.5449 16.3976 11.368 13.6656 12.2424L10.0991 13.4512C7.65295 14.2342 5.88116 15.2145 4.7838 16.3918 3.68644 17.5749 3.13776 19.078 3.13776 20.9013 3.13776 23.5075 4.09224 25.5507 6.00119 27.0311 7.91014 28.517 10.5535 29.2601 13.9313 29.2601 15.4345 29.2601 17.0148 29.0629 18.6723 28.6685 20.3355 28.2742 22.0501 27.7026 23.8161 26.9539L23.8161 20.7384 20.9784 20.7384C20.9041 22.5788 20.2583 24.0162 19.0409 25.0507 17.8293 26.0852 16.1803 26.6024 14.0942 26.6024 12.0195 26.6024 10.4506 26.2366 9.38757 25.505 8.3245 24.7735 7.79297 23.6761 7.79297 22.213 7.79297 21.0127 8.19591 20.0497 9.00178 19.3238 9.80766 18.6037 11.4166 17.8692 13.8285 17.1205L17.7378 15.9117C20.4355 15.0716 22.3759 14.0228 23.5589 12.7654 24.7478 11.508 25.3422 9.88764 25.3422 7.90442 25.3422 5.20674 24.3106 3.08347 22.2473 1.53459 20.184-0.00857313 17.3406-0.780154 13.717-0.780154 11.8766-0.780154 10.082-0.582973 8.33308-0.188609 6.58416 0.205755 4.83239 0.794443 3.07775 1.57746Z" fill="#000000" fill-rule="nonzero" fill-opacity="1" transform="matrix(1.00002 0 0 -1 2244.05 535.152)"/><path d="M2.25473 0 2.25473 2.8377 6.69561 2.8377 6.69561 38.8448 1.98039 38.8448 1.98039 41.6911 11.6252 41.6911 11.6252 23.4132C12.5397 25.345 13.7227 26.8024 15.1744 27.7855 16.6319 28.7686 18.3265 29.2601 20.2583 29.2601 23.4018 29.2601 25.7136 28.3571 27.194 26.551 28.6743 24.7449 29.4144 21.9329 29.4144 18.115L29.4144 2.8377 33.8124 2.8377 33.8124 0 20.1983 0 20.1983 2.8377 24.4591 2.8377 24.4591 16.5547C24.4591 20.0411 24.0333 22.4216 23.1817 23.6961 22.3358 24.9763 20.8241 25.6165 18.6465 25.6165 16.3604 25.6165 14.6172 24.7849 13.4169 23.1217 12.2224 21.4585 11.6252 19.0381 11.6252 15.8603L11.6252 2.8377 15.9117 2.8377 15.9117 0 2.25473 0Z" fill="#000000" fill-rule="nonzero" fill-opacity="1" transform="matrix(1.00002 0 0 -1 2272.2 535.152)"/><path d="M29.7402 13.717 8.49597 13.717 8.49597 13.5027C8.49597 9.66191 9.21894 6.7642 10.665 4.80952 12.111 2.85485 14.2457 1.87751 17.0691 1.87751 19.2295 1.87751 21.0013 2.44334 22.3844 3.57499 23.7675 4.71236 24.7363 6.39555 25.2907 8.62456L29.2601 8.62456C28.4713 5.49823 27.0167 3.14919 24.8964 1.57746 22.7816 0.00571542 20.0011-0.780154 16.5547-0.780154 12.3939-0.780154 9.05039 0.591546 6.52415 3.33495 3.99793 6.07835 2.73483 9.7191 2.73483 14.2571 2.73483 18.7552 3.97508 22.3787 6.45556 25.1278 8.94177 27.8826 12.2024 29.2601 16.2375 29.2601 20.5412 29.2601 23.8447 27.9312 26.148 25.2736 28.4514 22.6216 29.6487 18.7694 29.7402 13.717ZM23.9276 16.5547C23.819 19.8811 23.116 22.3873 21.8186 24.0733 20.5269 25.7594 18.6665 26.6024 16.2375 26.6024 13.9684 26.6024 12.1824 25.7537 10.8793 24.0562 9.57618 22.3587 8.78171 19.8582 8.49597 16.5547L23.9276 16.5547Z" fill="#000000" fill-rule="nonzero" fill-opacity="1" transform="matrix(1.00002 0 0 -1 2307.54 535.152)"/><path d="M13.5541 0 3.07775 25.6165-0.162889 25.6165-0.162889 28.4799 12.9368 28.4799 12.9368 25.6165 8.38452 25.6165 16.4004 6.02691 24.4077 25.6165 20.1468 25.6165 20.1468 28.4799 30.8375 28.4799 30.8375 25.6165 27.6483 25.6165 17.172 0 13.5541 0Z" fill="#000000" fill-rule="nonzero" fill-opacity="1" transform="matrix(1.00002 0 0 -1 2340.01 535.152)"/><path d="M9.64477 40.0022 9.64477 25.1278 5.38392 25.1278 5.38392 40.0022 9.64477 40.0022Z" fill="#000000" fill-rule="nonzero" fill-opacity="1" transform="matrix(1.00002 0 0 -1 2371.01 535.152)"/><path d="M3.07775 1.57746 3.07775 8.22163 5.92403 8.22163C5.99261 6.10121 6.6556 4.51232 7.91299 3.45497 9.17607 2.40333 11.0394 1.87751 13.5027 1.87751 15.7203 1.87751 17.4092 2.29188 18.5694 3.12062 19.7296 3.94936 20.3097 5.16102 20.3097 6.75562 20.3097 8.00158 19.8839 9.00753 19.0323 9.77336 18.1864 10.5449 16.3976 11.368 13.6656 12.2424L10.0991 13.4512C7.65295 14.2342 5.88116 15.2145 4.7838 16.3918 3.68644 17.5749 3.13776 19.078 3.13776 20.9013 3.13776 23.5075 4.09224 25.5507 6.00119 27.0311 7.91014 28.517 10.5535 29.2601 13.9313 29.2601 15.4345 29.2601 17.0148 29.0629 18.6723 28.6685 20.3355 28.2742 22.0501 27.7026 23.8161 26.9539L23.8161 20.7384 20.9784 20.7384C20.9041 22.5788 20.2583 24.0162 19.0409 25.0507 17.8293 26.0852 16.1803 26.6024 14.0942 26.6024 12.0195 26.6024 10.4506 26.2366 9.38757 25.505 8.3245 24.7735 7.79297 23.6761 7.79297 22.213 7.79297 21.0127 8.19591 20.0497 9.00178 19.3238 9.80766 18.6037 11.4166 17.8692 13.8285 17.1205L17.7378 15.9117C20.4355 15.0716 22.3759 14.0228 23.5589 12.7654 24.7478 11.508 25.3422 9.88764 25.3422 7.90442 25.3422 5.20674 24.3106 3.08347 22.2473 1.53459 20.184-0.00857313 17.3406-0.780154 13.717-0.780154 11.8766-0.780154 10.082-0.582973 8.33308-0.188609 6.58416 0.205755 4.83239 0.794443 3.07775 1.57746Z" fill="#000000" fill-rule="nonzero" fill-opacity="1" transform="matrix(1.00002 0 0 -1 2386.1 535.152)"/><path d="M13.5541 2.8377 18.6465 2.8377 18.6465 0 3.02631 0 3.02631 2.8377 8.11875 2.8377 8.11875 37.1302 3.02631 37.1302 3.02631 40.0022 18.6465 40.0022 18.6465 37.1302 13.5541 37.1302 13.5541 2.8377Z" fill="#000000" fill-rule="nonzero" fill-opacity="1" transform="matrix(1.00002 0 0 -1 2431.7 535.152)"/><path d="M2.25473 0 2.25473 2.8377 6.69561 2.8377 6.69561 25.6165 1.98039 25.6165 1.98039 28.4799 11.6252 28.4799 11.6252 23.4132C12.5397 25.345 13.7227 26.8024 15.1744 27.7855 16.6319 28.7686 18.3265 29.2601 20.2583 29.2601 23.4018 29.2601 25.7136 28.3571 27.194 26.551 28.6743 24.7449 29.4144 21.9329 29.4144 18.115L29.4144 2.8377 33.8124 2.8377 33.8124 0 20.1983 0 20.1983 2.8377 24.4591 2.8377 24.4591 16.5547C24.4591 20.0411 24.0305 22.4301 23.1732 23.7218 22.3158 25.0192 20.807 25.6679 18.6465 25.6679 16.3604 25.6679 14.6172 24.8306 13.4169 23.156 12.2224 21.4871 11.6252 19.0552 11.6252 15.8603L11.6252 2.8377 15.9117 2.8377 15.9117 0 2.25473 0Z" fill="#000000" fill-rule="nonzero" fill-opacity="1" transform="matrix(1.00002 0 0 -1 2453.37 535.152)"/><path d="M29.7402 13.717 8.49597 13.717 8.49597 13.5027C8.49597 9.66191 9.21894 6.7642 10.665 4.80952 12.111 2.85485 14.2457 1.87751 17.0691 1.87751 19.2295 1.87751 21.0013 2.44334 22.3844 3.57499 23.7675 4.71236 24.7363 6.39555 25.2907 8.62456L29.2601 8.62456C28.4713 5.49823 27.0167 3.14919 24.8964 1.57746 22.7816 0.00571542 20.0011-0.780154 16.5547-0.780154 12.3939-0.780154 9.05039 0.591546 6.52415 3.33495 3.99793 6.07835 2.73483 9.7191 2.73483 14.2571 2.73483 18.7552 3.97508 22.3787 6.45556 25.1278 8.94177 27.8826 12.2024 29.2601 16.2375 29.2601 20.5412 29.2601 23.8447 27.9312 26.148 25.2736 28.4514 22.6216 29.6487 18.7694 29.7402 13.717ZM23.9276 16.5547C23.819 19.8811 23.116 22.3873 21.8186 24.0733 20.5269 25.7594 18.6665 26.6024 16.2375 26.6024 13.9684 26.6024 12.1824 25.7537 10.8793 24.0562 9.57618 22.3587 8.78171 19.8582 8.49597 16.5547L23.9276 16.5547Z" fill="#000000" fill-rule="nonzero" fill-opacity="1" transform="matrix(1.00002 0 0 -1 2488.71 535.152)"/><path d="M28.7971 25.6165 28.7971-8.54741 33.5123-8.54741 33.5123-11.4108 19.2124-11.4108 19.2124-8.54741 23.8676-8.54741 23.8676 4.44945C22.9074 2.66052 21.6814 1.34026 20.1897 0.488668 18.698-0.357214 16.8519-0.780154 14.6515-0.780154 11.1536-0.780154 8.29307 0.608692 6.06977 3.38638 3.84648 6.16408 2.73483 9.78768 2.73483 14.2571 2.73483 18.7209 3.84076 22.3358 6.05263 25.1021 8.27021 27.8741 11.1365 29.2601 14.6515 29.2601 16.8519 29.2601 18.698 28.8342 20.1897 27.9827 21.6814 27.1368 22.9074 25.8194 23.8676 24.0305L23.8676 28.4799 33.5123 28.4799 33.5123 25.6165 28.7971 25.6165ZM23.8676 15.646C23.8676 19.0581 23.2103 21.6643 21.8958 23.4646 20.5869 25.2707 18.6837 26.1738 16.1861 26.1738 13.6484 26.1738 11.7309 25.1735 10.4335 23.1732 9.14178 21.1728 8.49597 18.2007 8.49597 14.2571 8.49597 10.3249 9.14178 7.35002 10.4335 5.33248 11.7309 3.31494 13.6484 2.30617 16.1861 2.30617 18.6837 2.30617 20.5869 3.20349 21.8958 4.99813 23.2103 6.79277 23.8676 9.40472 23.8676 12.834L23.8676 15.646Z" fill="#000000" fill-rule="nonzero" fill-opacity="1" transform="matrix(1.00002 0 0 -1 2521.18 535.152)"/><path d="M19.4267 28.4799 28.6428 28.4799 28.6428 2.8377 33.298 2.8377 33.298 0 23.7133 0 23.7133 5.041C22.7988 3.14348 21.6186 1.69748 20.1726 0.702996 18.7265-0.285771 17.0491-0.780154 15.1401-0.780154 11.9795-0.780154 9.65334 0.117166 8.16162 1.91181 6.66989 3.71216 5.92403 6.52987 5.92403 10.3649L5.92403 25.6165 1.47458 25.6165 1.47458 28.4799 10.8793 28.4799 10.8793 11.8995C10.8793 8.43024 11.3022 6.05263 12.1481 4.76666 12.9997 3.48069 14.5143 2.8377 16.6919 2.8377 18.9781 2.8377 20.7184 3.67787 21.9129 5.3582 23.1131 7.03854 23.7133 9.47613 23.7133 12.6711L23.7133 25.6165 19.4267 25.6165 19.4267 28.4799Z" fill="#000000" fill-rule="nonzero" fill-opacity="1" transform="matrix(1.00002 0 0 -1 2556.3 535.152)"/><path d="M21.8358 8.95034 21.8358 14.9772 15.4831 14.9772C13.0369 14.9772 11.2136 14.4485 10.0134 13.3912 8.81892 12.3396 8.22163 10.725 8.22163 8.54741 8.22163 6.56416 8.82749 4.99241 10.0391 3.83219 11.2565 2.67196 12.9026 2.09184 14.9772 2.09184 17.0291 2.09184 18.6837 2.72625 19.9411 3.99508 21.2042 5.2639 21.8358 6.91566 21.8358 8.95034ZM26.7653 17.7892 26.7653 2.8377 31.1547 2.8377 31.1547 0 21.8358 0 21.8358 3.07775C20.7441 1.75749 19.4839 0.783012 18.055 0.154316 16.6261-0.468664 14.9573-0.780154 13.0483-0.780154 9.88764-0.780154 7.37861 0.0600119 5.52109 1.74034 3.66358 3.42068 2.73483 5.6897 2.73483 8.54741 2.73483 11.4966 3.79789 13.7828 5.92403 15.4059 8.05016 17.0291 11.0508 17.8407 14.9258 17.8407L21.8358 17.8407 21.8358 19.7953C21.8358 21.9615 21.1784 23.6361 19.8639 24.8192 18.5551 26.008 16.7118 26.6024 14.3343 26.6024 12.3682 26.6024 10.805 26.1566 9.64477 25.265 8.48454 24.3734 7.76153 23.0503 7.47577 21.2956L4.92955 21.2956 4.92955 27.0568C6.64417 27.7883 8.31021 28.337 9.92768 28.7028 11.5452 29.0743 13.1197 29.2601 14.6515 29.2601 18.6009 29.2601 21.6071 28.2799 23.6704 26.3195 25.7337 24.3648 26.7653 21.5214 26.7653 17.7892Z" fill="#000000" fill-rule="nonzero" fill-opacity="1" transform="matrix(1.00002 0 0 -1 2591.64 535.152)"/><path d="M11.2565 2.8377 15.9117 2.8377 15.9117 0 1.57746 0 1.57746 2.8377 6.32697 2.8377 6.32697 38.8448 1.57746 38.8448 1.57746 41.6911 11.2565 41.6911 11.2565 2.8377Z" fill="#000000" fill-rule="nonzero" fill-opacity="1" transform="matrix(1.00002 0 0 -1 2624.35 535.152)"/><path d="M5.33248 37.3188C5.33248 38.1418 5.62969 38.8562 6.22409 39.4621 6.82421 40.068 7.54435 40.3708 8.38452 40.3708 9.20754 40.3708 9.91628 40.068 10.5107 39.4621 11.1108 38.8562 11.4108 38.1418 11.4108 37.3188 11.4108 36.4786 11.1165 35.7642 10.5278 35.1755 9.93908 34.5868 9.22468 34.2925 8.38452 34.2925 7.54435 34.2925 6.82421 34.5868 6.22409 35.1755 5.62969 35.7642 5.33248 36.4786 5.33248 37.3188ZM11.6252 2.8377 16.2889 2.8377 16.2889 0 1.98039 0 1.98039 2.8377 6.69561 2.8377 6.69561 25.6165 1.98039 25.6165 1.98039 28.4799 11.6252 28.4799 11.6252 2.8377Z" fill="#000000" fill-rule="nonzero" fill-opacity="1" transform="matrix(1.00002 0 0 -1 2641.9 535.152)"/><path d="M5.92403 25.6165 1.57746 25.6165 1.57746 28.4799 5.92403 28.4799 5.92403 37.3188 10.8793 37.3188 10.8793 28.4799 20.1468 28.4799 20.1468 25.6165 10.8793 25.6165 10.8793 7.5272C10.8793 5.1153 11.1108 3.56927 11.5737 2.88914 12.0367 2.21472 12.894 1.87751 14.1457 1.87751 15.4316 1.87751 16.3689 2.25473 16.9576 3.00917 17.5464 3.76932 17.8606 4.99813 17.9007 6.69561L21.6214 6.69561C21.4785 4.10653 20.7727 2.21187 19.5039 1.01163 18.235-0.182893 16.3061-0.780154 13.717-0.780154 10.8765-0.780154 8.86744-0.151459 7.69009 1.10593 6.51272 2.36904 5.92403 4.50946 5.92403 7.5272L5.92403 25.6165Z" fill="#000000" fill-rule="nonzero" fill-opacity="1" transform="matrix(1.00002 0 0 -1 2659.45 535.152)"/><path d="M11.8395-5.22103 13.717-0.480095 3.07775 25.6165-0.162889 25.6165-0.162889 28.4799 12.9368 28.4799 12.9368 25.6165 8.38452 25.6165 16.4004 6.02691 24.4077 25.6165 20.1468 25.6165 20.1468 28.4799 30.8375 28.4799 30.8375 25.6165 27.6483 25.6165 14.6-6.42984C13.7084-8.64745 12.7168-10.162 11.6252-10.9736 10.5392-11.7852 9.00461-12.191 7.02139-12.191 6.18122-12.191 5.31819-12.1196 4.43231-11.9767 3.55213-11.8337 2.66339-11.628 1.76606-11.3594L1.76606-5.92403 4.28656-5.92403C4.39516-7.13569 4.70379-8.00444 5.21246-8.53026 5.72113-9.06179 6.50986-9.32756 7.57864-9.32756 8.5617-9.32756 9.35328-9.05322 9.9534-8.50454 10.5535-7.96158 11.1822-6.86707 11.8395-5.22103Z" fill="#000000" fill-rule="nonzero" fill-opacity="1" transform="matrix(1.00002 0 0 -1 2681.5 535.152)"/></g></g></g><text fill="#000000" fill-opacity="1" font-family="Cambria Math,Cambria Math_MSFontService,sans-serif" font-style="normal" font-variant="normal" font-weight="400" font-stretch="normal" font-size="64" text-anchor="start" direction="ltr" writing-mode="lr-tb" unicode-bidi="normal" text-decoration="none" transform="matrix(1 0 0 1 437.593 836)">âˆ’</text><text fill="#000000" fill-opacity="1" font-family="Cambria Math,Cambria Math_MSFontService,sans-serif" font-style="normal" font-variant="normal" font-weight="400" font-stretch="normal" font-size="64" text-anchor="start" direction="ltr" writing-mode="lr-tb" unicode-bidi="normal" text-decoration="none" transform="matrix(1 0 0 1 485.718 836)"> </text><text fill="#000000" fill-opacity="1" font-family="Cambria Math,Cambria Math_MSFontService,sans-serif" font-style="normal" font-variant="normal" font-weight="400" font-stretch="normal" font-size="64" text-anchor="start" direction="ltr" writing-mode="lr-tb" unicode-bidi="normal" text-decoration="none" transform="matrix(1 0 0 1 500.041 836)">ğœ–</text><path d="M572.998 775.484 581.748 775.484 581.748 775.607 675.408 775.607 771.408 775.607 771.408 779.607 675.408 779.607 581.748 779.607 581.748 779.641 575.498 779.641 555.185 854.953 552.154 854.953 539.216 827.141 533.935 829.484 532.966 827.141 543.216 822.453 554.029 846.578Z" fill="#000000" fill-rule="evenodd" fill-opacity="1"/><text fill="#000000" fill-opacity="1" font-family="Cambria Math,Cambria Math_MSFontService,sans-serif" font-style="normal" font-variant="normal" font-weight="400" font-stretch="normal" font-size="64" text-anchor="start" direction="ltr" writing-mode="lr-tb" unicode-bidi="normal" text-decoration="none" transform="matrix(1 0 0 1 579.516 836)">Var</text><text fill="#000000" fill-opacity="1" font-family="Cambria Math,Cambria Math_MSFontService,sans-serif" font-style="normal" font-variant="normal" font-weight="400" font-stretch="normal" font-size="64" text-anchor="start" direction="ltr" writing-mode="lr-tb" unicode-bidi="normal" text-decoration="none" transform="matrix(1 0 0 1 676.339 836)">(</text><text fill="#000000" fill-opacity="1" font-family="Cambria Math,Cambria Math_MSFontService,sans-serif" font-style="normal" font-variant="normal" font-weight="400" font-stretch="normal" font-size="64" text-anchor="start" direction="ltr" writing-mode="lr-tb" unicode-bidi="normal" text-decoration="none" transform="matrix(1 0 0 1 702.693 836)">ğ‘‹</text><text fill="#000000" fill-opacity="1" font-family="Cambria Math,Cambria Math_MSFontService,sans-serif" font-style="normal" font-variant="normal" font-weight="400" font-stretch="normal" font-size="64" text-anchor="start" direction="ltr" writing-mode="lr-tb" unicode-bidi="normal" text-decoration="none" transform="matrix(1 0 0 1 745.502 836)">)</text><path d="M625.5 914.5 625.5 947.5" stroke="#000000" stroke-width="9.16667" stroke-linecap="butt" stroke-linejoin="round" stroke-miterlimit="10" stroke-opacity="1" fill="none" fill-rule="evenodd"/><rect x="378" y="900" width="247" height="59.0001" fill="#4285F4" fill-opacity="0.501961"/></g></g></svg>