<?xml version="1.0" encoding="utf-8" standalone="no"?>
<!DOCTYPE svg PUBLIC "-//W3C//DTD SVG 1.1//EN"
  "http://www.w3.org/Graphics/SVG/1.1/DTD/svg11.dtd">
<svg xmlns:xlink="http://www.w3.org/1999/xlink" width="339.84pt" height="243.926376pt" viewBox="0 0 339.84 243.926376" xmlns="http://www.w3.org/2000/svg" version="1.1">
 <metadata>
  <rdf:RDF xmlns:dc="http://purl.org/dc/elements/1.1/" xmlns:cc="http://creativecommons.org/ns#" xmlns:rdf="http://www.w3.org/1999/02/22-rdf-syntax-ns#">
   <cc:Work>
    <dc:type rdf:resource="http://purl.org/dc/dcmitype/StillImage"/>
    <dc:date>2025-11-11T11:19:41.535658</dc:date>
    <dc:format>image/svg+xml</dc:format>
    <dc:creator>
     <cc:Agent>
      <dc:title>Matplotlib v3.7.2, https://matplotlib.org/</dc:title>
     </cc:Agent>
    </dc:creator>
   </cc:Work>
  </rdf:RDF>
 </metadata>
 <defs>
  <style type="text/css">*{stroke-linejoin: round; stroke-linecap: butt}</style>
 </defs>
 <g id="figure_1">
  <g id="patch_1">
   <path d="M 0 243.926376 
L 339.84 243.926376 
L 339.84 0 
L 0 0 
z
" style="fill: #ffffff"/>
  </g>
  <g id="axes_1">
   <g id="patch_2">
    <path d="M 3.6 240.326376 
L 3.6 186.698037 
L 43.797125 103.810472 
L 73.042058 74.620761 
L 31.146814 18.566376 
z
" clip-path="url(#pda22c338f0)" style="fill: #bcd6e8"/>
   </g>
   <g id="patch_3">
    <path d="M 111.956742 94.183529 
L 115.110807 97.780166 
L 170.079168 119.904048 
L 172.62582 119.755226 
L 157.480824 48.087534 
L 110.922166 92.337823 
z
" clip-path="url(#pda22c338f0)" style="fill: #e7eef8"/>
   </g>
   <g id="patch_4">
    <path d="M 273.357247 101.419514 
L 276.339895 120.959978 
L 306.423412 163.038219 
L 336.24 190.652687 
L 336.24 205.663298 
L 336.24 18.566376 
L 336.24 18.566376 
z
" clip-path="url(#pda22c338f0)" style="fill: #ffd9b7"/>
   </g>
   <g id="patch_5">
    <path d="M 233.633424 228.779188 
L 164.745101 192.559329 
L 149.337911 196.530932 
L 179.420328 240.326376 
L 240.779433 240.326376 
L 240.391166 239.987662 
z
" clip-path="url(#pda22c338f0)" style="fill: #ffebd6"/>
   </g>
   <g id="patch_6">
    <path d="M 111.956742 94.183529 
L 82.195427 129.208446 
L 82.526771 132.675224 
L 104.580947 170.80963 
L 115.110807 97.780166 
z
" clip-path="url(#pda22c338f0)" style="fill: #c0e2c0"/>
   </g>
   <g id="patch_7">
    <path d="M 210.595104 98.556782 
L 273.357247 101.419514 
L 336.24 18.566376 
L 201.349093 58.034232 
z
" clip-path="url(#pda22c338f0)" style="fill: #e0f5dc"/>
   </g>
   <g id="patch_8">
    <path d="M 173.914395 240.326376 
L 179.420328 240.326376 
L 149.337911 196.530932 
L 107.346653 180.753206 
L 105.640452 180.806427 
L 12.708115 240.326376 
z
" clip-path="url(#pda22c338f0)" style="fill: #f3bebe"/>
   </g>
   <g id="patch_9">
    <path d="M 73.042058 74.620761 
L 92.291222 79.245849 
L 147.535914 18.566376 
L 137.980092 18.566376 
L 31.146814 18.566376 
z
" clip-path="url(#pda22c338f0)" style="fill: #ffe0e0"/>
   </g>
   <g id="patch_10">
    <path d="M 3.6 240.326376 
L 12.708115 240.326376 
L 105.640452 180.806427 
L 104.580947 170.80963 
L 82.526771 132.675224 
L 3.6 186.698037 
z
" clip-path="url(#pda22c338f0)" style="fill: #dfd1eb"/>
   </g>
   <g id="patch_11">
    <path d="M 179.420328 240.326376 
L 173.914395 240.326376 
L 336.24 205.663298 
L 336.24 190.652687 
L 240.779433 240.326376 
z
" clip-path="url(#pda22c338f0)" style="fill: #eee7f2"/>
   </g>
   <g id="patch_12">
    <path d="M 147.535914 18.566376 
L 162.19736 35.352277 
L 201.349093 58.034232 
L 336.24 18.566376 
L 336.24 18.566376 
L 137.980092 18.566376 
z
" clip-path="url(#pda22c338f0)" style="fill: #dcccc9"/>
   </g>
   <g id="patch_13">
    <path d="M 111.956742 94.183529 
L 82.195427 129.208446 
L 43.797125 103.810472 
L 73.042058 74.620761 
L 92.291222 79.245849 
L 110.922166 92.337823 
z
" clip-path="url(#pda22c338f0)" style="fill: #ede1df"/>
   </g>
   <g id="patch_14">
    <path d="M 240.391166 239.987662 
L 306.423412 163.038219 
L 336.24 190.652687 
L 240.779433 240.326376 
z
" clip-path="url(#pda22c338f0)" style="fill: #f7d6ed"/>
   </g>
   <g id="patch_15">
    <path d="M 172.62582 119.755226 
L 180.459504 121.8417 
L 210.595104 98.556782 
L 201.349093 58.034232 
L 162.19736 35.352277 
L 157.480824 48.087534 
z
" clip-path="url(#pda22c338f0)" style="fill: #fde9f2"/>
   </g>
   <g id="patch_16">
    <path d="M 180.459504 121.8417 
L 187.050751 140.462981 
L 187.552276 140.841228 
L 245.265956 151.163532 
L 276.339895 120.959978 
L 273.357247 101.419514 
L 210.595104 98.556782 
z
" clip-path="url(#pda22c338f0)" style="fill: #d9d9d9"/>
   </g>
   <g id="patch_17">
    <path d="M 43.797125 103.810472 
L 3.6 186.698037 
L 82.526771 132.675224 
L 82.195427 129.208446 
z
" clip-path="url(#pda22c338f0)" style="fill: #eeeeee"/>
   </g>
   <g id="patch_18">
    <path d="M 170.079168 119.904048 
L 107.346653 180.753206 
L 105.640452 180.806427 
L 104.580947 170.80963 
L 115.110807 97.780166 
z
" clip-path="url(#pda22c338f0)" style="fill: #ebebbd"/>
   </g>
   <g id="patch_19">
    <path d="M 110.922166 92.337823 
L 92.291222 79.245849 
L 147.535914 18.566376 
L 162.19736 35.352277 
L 157.480824 48.087534 
z
" clip-path="url(#pda22c338f0)" style="fill: #f4f4dd"/>
   </g>
   <g id="patch_20">
    <path d="M 233.633424 228.779188 
L 229.602396 197.543542 
L 245.265956 151.163532 
L 276.339895 120.959978 
L 306.423412 163.038219 
L 240.391166 239.987662 
z
" clip-path="url(#pda22c338f0)" style="fill: #b9ecf1"/>
   </g>
   <g id="patch_21">
    <path d="M 233.633424 228.779188 
L 229.602396 197.543542 
L 187.552276 140.841228 
L 187.050751 140.462981 
L 164.745101 192.559329 
z
" clip-path="url(#pda22c338f0)" style="fill: #e2f4f7"/>
   </g>
   <g id="patch_22">
    <path d="M 172.62582 119.755226 
L 180.459504 121.8417 
L 187.050751 140.462981 
L 164.745101 192.559329 
L 149.337911 196.530932 
L 107.346653 180.753206 
L 170.079168 119.904048 
z
" clip-path="url(#pda22c338f0)" style="fill: #bcd6e8"/>
   </g>
   <g id="patch_23">
    <path d="M 187.552276 140.841228 
L 229.602396 197.543542 
L 245.265956 151.163532 
z
" clip-path="url(#pda22c338f0)" style="fill: #e7eef8"/>
   </g>
   <g id="text_1">
    <!-- $k$ Nearest Neighbors ($k=1$) -->
    <g transform="translate(97.291721 12.566376) scale(0.12 -0.12)">
     <defs>
      <path id="CMMI12-6b" d="M 1798 4257 
C 1805 4283 1818 4321 1818 4352 
C 1818 4416 1754 4416 1741 4416 
C 1734 4416 1504 4393 1389 4377 
C 1280 4377 1184 4358 1069 4358 
C 915 4345 870 4339 870 4224 
C 870 4160 934 4160 998 4160 
C 1325 4160 1325 4103 1325 4040 
C 1325 4015 1325 4002 1293 3888 
L 378 248 
C 352 152 352 140 352 101 
C 352 -38 461 -64 525 -64 
C 704 -64 742 77 794 275 
L 1094 1469 
C 1555 1418 1830 1226 1830 920 
C 1830 881 1830 856 1811 760 
C 1786 664 1786 588 1786 556 
C 1786 185 2029 -64 2355 -64 
C 2650 -64 2803 204 2854 294 
C 2989 530 3072 888 3072 913 
C 3072 945 3046 971 3008 971 
C 2950 971 2944 945 2918 843 
C 2829 511 2694 64 2368 64 
C 2240 64 2157 128 2157 370 
C 2157 492 2182 632 2208 728 
C 2234 843 2234 849 2234 926 
C 2234 1303 1894 1514 1306 1590 
C 1536 1731 1766 1980 1856 2076 
C 2221 2484 2470 2689 2765 2689 
C 2912 2689 2950 2650 2995 2612 
C 2758 2586 2669 2420 2669 2293 
C 2669 2139 2790 2088 2880 2088 
C 3053 2088 3206 2235 3206 2440 
C 3206 2625 3059 2816 2771 2816 
C 2419 2816 2131 2567 1677 2056 
C 1613 1980 1376 1737 1139 1648 
L 1798 4257 
z
" transform="scale(0.015625)"/>
      <path id="CMR17-4e" d="M 1312 4250 
C 1267 4320 1261 4320 1139 4320 
L 326 4320 
L 326 4160 
L 448 4160 
C 704 4160 819 4129 838 4122 
L 838 610 
C 838 451 838 153 326 153 
L 326 -13 
C 474 0 742 0 902 0 
C 1062 0 1331 0 1478 -13 
L 1478 153 
C 966 153 966 451 966 610 
L 966 4033 
C 1011 3995 1011 3982 1056 3919 
L 3430 76 
C 3475 0 3494 0 3526 0 
C 3590 0 3590 19 3590 139 
L 3590 3705 
C 3590 3863 3590 4160 4102 4160 
L 4102 4326 
C 3955 4320 3686 4320 3526 4320 
C 3366 4320 3098 4320 2950 4326 
L 2950 4160 
C 3462 4160 3462 3862 3462 3703 
L 3462 763 
L 1312 4250 
z
" transform="scale(0.015625)"/>
      <path id="CMR17-65" d="M 2438 1472 
C 2464 1498 2464 1511 2464 1576 
C 2464 2238 2118 2816 1389 2816 
C 710 2816 173 2169 173 1383 
C 173 551 781 -64 1459 -64 
C 2176 -64 2458 607 2458 740 
C 2458 784 2419 784 2406 784 
C 2362 784 2355 771 2330 696 
C 2189 265 1837 51 1504 51 
C 1229 51 954 203 781 480 
C 582 803 582 1176 582 1472 
L 2438 1472 
z
M 589 1568 
C 634 2505 1126 2714 1382 2714 
C 1818 2714 2112 2297 2118 1568 
L 589 1568 
z
" transform="scale(0.015625)"/>
      <path id="CMR17-61" d="M 2304 1653 
C 2304 2072 2304 2294 2035 2543 
C 1798 2752 1523 2816 1306 2816 
C 800 2816 435 2407 435 1971 
C 435 1728 627 1728 666 1728 
C 749 1728 896 1778 896 1954 
C 896 2112 774 2181 666 2181 
C 640 2181 608 2174 589 2168 
C 723 2592 1069 2714 1293 2714 
C 1613 2714 1965 2429 1965 1885 
L 1965 1600 
C 1587 1600 1133 1549 774 1357 
C 371 1133 256 813 256 570 
C 256 77 832 -64 1171 -64 
C 1523 -64 1850 139 1990 511 
C 2003 233 2182 -18 2464 -18 
C 2598 -18 2938 70 2938 567 
L 2938 920 
L 2822 920 
L 2822 562 
C 2822 178 2650 128 2566 128 
C 2304 128 2304 458 2304 738 
L 2304 1653 
z
M 1965 870 
C 1965 317 1568 38 1216 38 
C 896 38 646 275 646 570 
C 646 761 730 1100 1101 1305 
C 1408 1478 1760 1504 1965 1504 
L 1965 870 
z
" transform="scale(0.015625)"/>
      <path id="CMR17-72" d="M 960 1497 
C 960 2112 1222 2688 1702 2688 
C 1747 2688 1792 2682 1837 2662 
C 1837 2662 1696 2617 1696 2452 
C 1696 2298 1818 2234 1914 2234 
C 1990 2234 2131 2279 2131 2458 
C 2131 2663 1926 2790 1709 2790 
C 1222 2790 1011 2317 947 2093 
L 941 2093 
L 941 2790 
L 198 2720 
L 198 2554 
C 576 2554 634 2515 634 2208 
L 634 428 
C 634 184 608 153 198 153 
L 198 -13 
C 352 0 646 0 813 0 
C 998 0 1325 0 1498 -13 
L 1498 153 
C 1037 153 960 153 960 440 
L 960 1497 
z
" transform="scale(0.015625)"/>
      <path id="CMR17-73" d="M 1978 2697 
C 1978 2813 1971 2819 1933 2819 
C 1907 2819 1901 2813 1824 2717 
C 1805 2691 1747 2626 1728 2601 
C 1523 2819 1235 2819 1126 2819 
C 416 2819 160 2447 160 2076 
C 160 1498 813 1365 998 1325 
C 1402 1243 1542 1217 1677 1101 
C 1760 1025 1901 884 1901 654 
C 1901 384 1747 38 1158 38 
C 602 38 403 460 288 1021 
C 269 1110 269 1117 218 1117 
C 166 1117 160 1110 160 983 
L 160 63 
C 160 -51 166 -58 205 -58 
C 237 -58 243 -51 275 0 
C 314 57 410 211 448 276 
C 576 103 800 -64 1158 -64 
C 1792 -64 2131 283 2131 784 
C 2131 1112 1958 1285 1875 1362 
C 1683 1561 1459 1606 1190 1657 
C 838 1735 390 1825 390 2217 
C 390 2383 480 2737 1126 2737 
C 1811 2737 1850 2094 1862 1888 
C 1869 1856 1901 1849 1920 1849 
C 1978 1849 1978 1869 1978 1978 
L 1978 2697 
z
" transform="scale(0.015625)"/>
      <path id="CMR17-74" d="M 966 2560 
L 1862 2560 
L 1862 2725 
L 966 2725 
L 966 3904 
L 851 3904 
C 838 3245 614 2668 70 2668 
L 70 2560 
L 627 2560 
L 627 771 
C 627 650 627 -64 1370 -64 
C 1747 -64 1965 306 1965 777 
L 1965 1140 
L 1850 1140 
L 1850 783 
C 1850 344 1677 51 1408 51 
C 1222 51 966 178 966 758 
L 966 2560 
z
" transform="scale(0.015625)"/>
      <path id="CMR17-69" d="M 992 3909 
C 992 4049 877 4170 730 4170 
C 589 4170 467 4056 467 3909 
C 467 3769 582 3648 730 3648 
C 870 3648 992 3763 992 3909 
z
M 243 2706 
L 243 2541 
C 602 2541 653 2502 653 2197 
L 653 427 
C 653 184 627 153 218 153 
L 218 -13 
C 371 0 646 0 806 0 
C 960 0 1222 0 1370 -13 
L 1370 153 
C 992 153 979 191 979 420 
L 979 2776 
L 243 2706 
z
" transform="scale(0.015625)"/>
      <path id="CMR17-67" d="M 710 1164 
C 832 1068 1043 960 1299 960 
C 1805 960 2240 1357 2240 1888 
C 2240 2054 2189 2310 1997 2509 
C 2176 2692 2438 2752 2586 2752 
C 2611 2752 2650 2752 2682 2734 
C 2656 2728 2598 2703 2598 2605 
C 2598 2527 2656 2471 2739 2471 
C 2835 2471 2886 2533 2886 2614 
C 2886 2731 2790 2854 2586 2854 
C 2330 2854 2106 2738 1926 2580 
C 1734 2753 1504 2816 1299 2816 
C 794 2816 358 2419 358 1888 
C 358 1522 570 1292 634 1228 
C 442 1004 442 743 442 711 
C 442 545 506 302 723 168 
C 390 85 128 -169 128 -486 
C 128 -943 736 -1280 1466 -1280 
C 2170 -1280 2803 -956 2803 -479 
C 2803 384 1856 384 1363 384 
C 1216 384 954 384 922 391 
C 723 423 589 602 589 826 
C 589 883 589 1024 710 1164 
z
M 1299 1068 
C 736 1068 736 1760 736 1889 
C 736 2016 736 2708 1299 2708 
C 1862 2708 1862 2016 1862 1889 
C 1862 1760 1862 1068 1299 1068 
z
M 1466 -1171 
C 826 -1171 384 -835 384 -486 
C 384 -289 493 -105 634 -4 
C 794 104 858 104 1293 104 
C 1818 104 2547 104 2547 -486 
C 2547 -835 2106 -1171 1466 -1171 
z
" transform="scale(0.015625)"/>
      <path id="CMR17-68" d="M 2656 1933 
C 2656 2259 2592 2790 1837 2790 
C 1312 2790 1056 2368 979 2157 
L 973 2157 
L 973 4396 
L 211 4326 
L 211 4160 
C 589 4160 646 4122 646 3817 
L 646 426 
C 646 184 621 153 211 153 
L 211 -13 
C 365 0 646 0 813 0 
C 979 0 1267 0 1421 -13 
L 1421 153 
C 1011 153 986 178 986 428 
L 986 1658 
C 986 2247 1344 2688 1792 2688 
C 2266 2688 2317 2266 2317 1958 
L 2317 428 
C 2317 184 2291 153 1882 153 
L 1882 -13 
C 2035 0 2317 0 2483 0 
C 2650 0 2938 0 3091 -13 
L 3091 153 
C 2682 153 2656 178 2656 428 
L 2656 1933 
z
" transform="scale(0.015625)"/>
      <path id="CMR17-62" d="M 960 4396 
L 198 4326 
L 198 4160 
C 576 4160 634 4122 634 3817 
L 634 -13 
L 749 -13 
L 934 441 
C 1120 141 1395 -64 1766 -64 
C 2406 -64 3053 500 3053 1370 
C 3053 2188 2477 2790 1830 2790 
C 1434 2790 1152 2579 960 2330 
L 960 4396 
z
M 973 2004 
C 973 2118 973 2138 1062 2272 
C 1312 2657 1670 2688 1792 2688 
C 1984 2688 2643 2585 2643 1376 
C 2643 108 1888 38 1734 38 
C 1536 38 1248 114 1043 486 
C 973 608 973 621 973 735 
L 973 2004 
z
" transform="scale(0.015625)"/>
      <path id="CMR17-6f" d="M 2758 1356 
C 2758 2176 2163 2816 1466 2816 
C 768 2816 173 2176 173 1356 
C 173 551 768 -64 1466 -64 
C 2163 -64 2758 551 2758 1356 
z
M 1466 51 
C 1165 51 909 230 762 480 
C 602 767 582 1126 582 1408 
C 582 1677 595 2010 762 2298 
C 890 2509 1139 2714 1466 2714 
C 1754 2714 1997 2554 2150 2330 
C 2349 2029 2349 1607 2349 1408 
C 2349 1158 2336 775 2163 467 
C 1984 173 1709 51 1466 51 
z
" transform="scale(0.015625)"/>
      <path id="CMR17-28" d="M 1958 -1561 
C 1958 -1555 1958 -1542 1939 -1523 
C 1645 -1224 858 -407 858 1581 
C 858 3569 1632 4379 1946 4697 
C 1946 4704 1958 4717 1958 4736 
C 1958 4755 1939 4768 1914 4768 
C 1843 4768 1299 4296 986 3594 
C 666 2887 576 2199 576 1588 
C 576 1128 621 351 1005 -471 
C 1312 -1135 1837 -1600 1914 -1600 
C 1946 -1600 1958 -1587 1958 -1561 
z
" transform="scale(0.015625)"/>
      <path id="CMR17-3d" d="M 4115 2017 
C 4211 2017 4307 2017 4307 2125 
C 4307 2240 4198 2240 4090 2240 
L 512 2240 
C 403 2240 294 2240 294 2125 
C 294 2017 390 2017 486 2017 
L 4115 2017 
z
M 4090 896 
C 4198 896 4307 896 4307 1011 
C 4307 1119 4211 1119 4115 1119 
L 486 1119 
C 390 1119 294 1119 294 1011 
C 294 896 403 896 512 896 
L 4090 896 
z
" transform="scale(0.015625)"/>
      <path id="CMR17-31" d="M 1702 4058 
C 1702 4192 1696 4192 1606 4192 
C 1357 3916 979 3827 621 3827 
C 602 3827 570 3827 563 3808 
C 557 3795 557 3782 557 3648 
C 755 3648 1088 3686 1344 3839 
L 1344 461 
C 1344 236 1331 160 781 160 
L 589 160 
L 589 0 
C 896 0 1216 0 1523 0 
C 1830 0 2150 0 2458 0 
L 2458 160 
L 2266 160 
C 1715 160 1702 230 1702 458 
L 1702 4058 
z
" transform="scale(0.015625)"/>
      <path id="CMR17-29" d="M 1683 1581 
C 1683 2040 1638 2817 1254 3639 
C 947 4303 422 4768 346 4768 
C 326 4768 301 4761 301 4729 
C 301 4717 307 4710 314 4697 
C 621 4378 1402 3568 1402 1584 
C 1402 -407 627 -1217 314 -1537 
C 307 -1549 301 -1556 301 -1568 
C 301 -1600 326 -1600 346 -1600 
C 416 -1600 960 -1128 1274 -426 
C 1594 281 1683 969 1683 1581 
z
" transform="scale(0.015625)"/>
     </defs>
     <use xlink:href="#CMMI12-6b" transform="scale(0.996264)"/>
     <use xlink:href="#CMR17-4e" transform="translate(84.155167 0) scale(0.996264)"/>
     <use xlink:href="#CMR17-65" transform="translate(153.227597 0) scale(0.996264)"/>
     <use xlink:href="#CMR17-61" transform="translate(193.713257 0) scale(0.996264)"/>
     <use xlink:href="#CMR17-72" transform="translate(239.403734 0) scale(0.996264)"/>
     <use xlink:href="#CMR17-65" transform="translate(274.684502 0) scale(0.996264)"/>
     <use xlink:href="#CMR17-73" transform="translate(315.170163 0) scale(0.996264)"/>
     <use xlink:href="#CMR17-74" transform="translate(350.9715 0) scale(0.996264)"/>
     <use xlink:href="#CMR17-4e" transform="translate(416.328234 0) scale(0.996264)"/>
     <use xlink:href="#CMR17-65" transform="translate(485.400664 0) scale(0.996264)"/>
     <use xlink:href="#CMR17-69" transform="translate(525.886325 0) scale(0.996264)"/>
     <use xlink:href="#CMR17-67" transform="translate(550.757383 0) scale(0.996264)"/>
     <use xlink:href="#CMR17-68" transform="translate(596.44786 0) scale(0.996264)"/>
     <use xlink:href="#CMR17-62" transform="translate(644.740776 0) scale(0.996264)"/>
     <use xlink:href="#CMR17-6f" transform="translate(698.238585 0) scale(0.996264)"/>
     <use xlink:href="#CMR17-72" transform="translate(743.929062 0) scale(0.996264)"/>
     <use xlink:href="#CMR17-73" transform="translate(779.20983 0) scale(0.996264)"/>
     <use xlink:href="#CMR17-28" transform="translate(845.087134 0) scale(0.996264)"/>
     <use xlink:href="#CMMI12-6b" transform="translate(880.367901 0) scale(0.996264)"/>
     <use xlink:href="#CMR17-3d" transform="translate(962.121111 0) scale(0.996264)"/>
     <use xlink:href="#CMR17-31" transform="translate(1061.509908 0) scale(0.996264)"/>
     <use xlink:href="#CMR17-29" transform="translate(1107.200385 0) scale(0.996264)"/>
    </g>
   </g>
   <g id="PathCollection_1">
    <defs>
     <path id="C0_0_5e9aa1c6e0" d="M 0 4.1833 
C 1.109424 4.1833 2.173559 3.742521 2.95804 2.95804 
C 3.742521 2.173559 4.1833 1.109424 4.1833 -0 
C 4.1833 -1.109424 3.742521 -2.173559 2.95804 -2.95804 
C 2.173559 -3.742521 1.109424 -4.1833 0 -4.1833 
C -1.109424 -4.1833 -2.173559 -3.742521 -2.95804 -2.95804 
C -3.742521 -2.173559 -4.1833 -1.109424 -4.1833 0 
C -4.1833 1.109424 -3.742521 2.173559 -2.95804 2.95804 
C -2.173559 3.742521 -1.109424 4.1833 0 4.1833 
z
"/>
    </defs>
    <g clip-path="url(#pda22c338f0)">
     <use xlink:href="#C0_0_5e9aa1c6e0" x="28.983189" y="67.371585" style="fill: #1f77b4; stroke: #1f77b4"/>
    </g>
    <g clip-path="url(#pda22c338f0)">
     <use xlink:href="#C0_0_5e9aa1c6e0" x="149.432447" y="79.890738" style="fill: #aec7e8; stroke: #aec7e8"/>
    </g>
    <g clip-path="url(#pda22c338f0)">
     <use xlink:href="#C0_0_5e9aa1c6e0" x="328.918431" y="120.909532" style="fill: #ff7f0e; stroke: #ff7f0e"/>
    </g>
    <g clip-path="url(#pda22c338f0)">
     <use xlink:href="#C0_0_5e9aa1c6e0" x="170.292711" y="224.348317" style="fill: #ffbb78; stroke: #ffbb78"/>
    </g>
    <g clip-path="url(#pda22c338f0)">
     <use xlink:href="#C0_0_5e9aa1c6e0" x="92.893542" y="129.472433" style="fill: #2ca02c; stroke: #2ca02c"/>
    </g>
    <g clip-path="url(#pda22c338f0)">
     <use xlink:href="#C0_0_5e9aa1c6e0" x="229.539066" y="62.089207" style="fill: #98df8a; stroke: #98df8a"/>
    </g>
    <g clip-path="url(#pda22c338f0)">
     <use xlink:href="#C0_0_5e9aa1c6e0" x="130.316259" y="225.704332" style="fill: #d62728; stroke: #d62728"/>
    </g>
    <g clip-path="url(#pda22c338f0)">
     <use xlink:href="#C0_0_5e9aa1c6e0" x="99.448752" y="38.614915" style="fill: #ff9896; stroke: #ff9896"/>
    </g>
    <g clip-path="url(#pda22c338f0)">
     <use xlink:href="#C0_0_5e9aa1c6e0" x="74.580504" y="140.063366" style="fill: #9467bd; stroke: #9467bd"/>
    </g>
    <g clip-path="url(#pda22c338f0)">
     <use xlink:href="#C0_0_5e9aa1c6e0" x="313.35637" y="234.804723" style="fill: #c5b0d5; stroke: #c5b0d5"/>
    </g>
    <g clip-path="url(#pda22c338f0)">
     <use xlink:href="#C0_0_5e9aa1c6e0" x="203.366592" y="29.625658" style="fill: #8c564b; stroke: #8c564b"/>
    </g>
    <g clip-path="url(#pda22c338f0)">
     <use xlink:href="#C0_0_5e9aa1c6e0" x="80.20795" y="118.693252" style="fill: #c49c94; stroke: #c49c94"/>
    </g>
    <g clip-path="url(#pda22c338f0)">
     <use xlink:href="#C0_0_5e9aa1c6e0" x="306.012463" y="210.79472" style="fill: #e377c2; stroke: #e377c2"/>
    </g>
    <g clip-path="url(#pda22c338f0)">
     <use xlink:href="#C0_0_5e9aa1c6e0" x="177.707961" y="73.915486" style="fill: #f7b6d2; stroke: #f7b6d2"/>
    </g>
    <g clip-path="url(#pda22c338f0)">
     <use xlink:href="#C0_0_5e9aa1c6e0" x="226.140564" y="136.597502" style="fill: #7f7f7f; stroke: #7f7f7f"/>
    </g>
    <g clip-path="url(#pda22c338f0)">
     <use xlink:href="#C0_0_5e9aa1c6e0" x="71.741001" y="131.494133" style="fill: #c7c7c7; stroke: #c7c7c7"/>
    </g>
    <g clip-path="url(#pda22c338f0)">
     <use xlink:href="#C0_0_5e9aa1c6e0" x="127.470043" y="134.457896" style="fill: #bcbd22; stroke: #bcbd22"/>
    </g>
    <g clip-path="url(#pda22c338f0)">
     <use xlink:href="#C0_0_5e9aa1c6e0" x="125.309778" y="54.509682" style="fill: #dbdb8d; stroke: #dbdb8d"/>
    </g>
    <g clip-path="url(#pda22c338f0)">
     <use xlink:href="#C0_0_5e9aa1c6e0" x="259.282907" y="170.694916" style="fill: #17becf; stroke: #17becf"/>
    </g>
    <g clip-path="url(#pda22c338f0)">
     <use xlink:href="#C0_0_5e9aa1c6e0" x="194.078091" y="179.109739" style="fill: #9edae5; stroke: #9edae5"/>
    </g>
    <g clip-path="url(#pda22c338f0)">
     <use xlink:href="#C0_0_5e9aa1c6e0" x="154.233673" y="162.049894" style="fill: #1f77b4; stroke: #1f77b4"/>
    </g>
    <g clip-path="url(#pda22c338f0)">
     <use xlink:href="#C0_0_5e9aa1c6e0" x="222.277357" y="158.19732" style="fill: #aec7e8; stroke: #aec7e8"/>
    </g>
   </g>
  </g>
 </g>
 <defs>
  <clipPath id="pda22c338f0">
   <rect x="3.6" y="18.566376" width="332.64" height="221.76"/>
  </clipPath>
 </defs>
</svg>
