<svg width="1141" height="468" xmlns="http://www.w3.org/2000/svg" xmlns:xlink="http://www.w3.org/1999/xlink" xml:space="preserve" overflow="hidden"><g transform="translate(-930 -563)"><g><path d="M933 734.5C933 708.267 954.266 687 980.5 687 1006.73 687 1028 708.267 1028 734.5 1028 760.734 1006.73 782 980.5 782 954.266 782 933 760.734 933 734.5Z" fill="#FF7879" fill-rule="evenodd" fill-opacity="0.8"/><path d="M933 858.5C933 832.266 954.266 811 980.5 811 1006.73 811 1028 832.266 1028 858.5 1028 884.734 1006.73 906 980.5 906 954.266 906 933 884.734 933 858.5Z" fill="#FF7879" fill-rule="evenodd" fill-opacity="0.901961"/><path d="M1280 614.5C1280 588.266 1301.27 567 1327.5 567 1353.73 567 1375 588.266 1375 614.5 1375 640.734 1353.73 662 1327.5 662 1301.27 662 1280 640.734 1280 614.5Z" fill="#00B050" fill-rule="evenodd" fill-opacity="0.501961"/><path d="M1.97549-4.13575 233.717 106.558 229.767 114.83-1.97549 4.13575ZM233.533 96.3115 252.421 120.572 221.68 121.126Z" fill="#FFDDB3" fill-rule="nonzero" fill-opacity="1" transform="matrix(1 0 0 -1 1028.5 735.072)"/><path d="M3.18881-3.29218 239.149 225.26 232.771 231.844-3.18881 3.29218ZM242.235 215.487 252.421 244.496 223.102 235.24Z" fill="#FFDDB3" fill-rule="nonzero" fill-opacity="0.8" transform="matrix(1 0 0 -1 1028.5 858.996)"/><path d="M1280 736.5C1280 710.266 1301.27 689 1327.5 689 1353.73 689 1375 710.266 1375 736.5 1375 762.734 1353.73 784 1327.5 784 1301.27 784 1280 762.734 1280 736.5Z" fill="#0D5BDC" fill-rule="evenodd" fill-opacity="0.529412"/><path d="M0.0304245-4.58323 229.535-3.05973 229.474 6.10673-0.0304245 4.58323ZM225.013-12.2566 252.421 1.67562 224.83 15.2428Z" fill="#FFCD8C" fill-rule="nonzero" fill-opacity="1" transform="matrix(1 0 0 -1 1028.5 739.175)"/><path d="M1627 614.5C1627 588.266 1648.27 567 1674.5 567 1700.73 567 1722 588.266 1722 614.5 1722 640.734 1700.73 662 1674.5 662 1648.27 662 1627 640.734 1627 614.5Z" fill="#00B050" fill-rule="evenodd" fill-opacity="1"/><path d="M1375.5 609.917 1605 609.917 1605 619.084 1375.5 619.083ZM1600.42 600.75 1627.92 614.5 1600.42 628.25Z" fill="#00717D" fill-rule="nonzero" fill-opacity="1"/><path d="M1280 858.5C1280 832.266 1301.27 811 1327.5 811 1353.73 811 1375 832.266 1375 858.5 1375 884.734 1353.73 906 1327.5 906 1301.27 906 1280 884.734 1280 858.5Z" fill="#0D5BDC" fill-rule="evenodd" fill-opacity="1"/><path d="M1030.52 731.386 1262.37 845.211 1258.33 853.439 1026.48 739.614ZM1262.29 834.962 1280.92 859.424 1250.18 859.648Z" fill="#EF8600" fill-rule="nonzero" fill-opacity="0.701961"/><path d="M1280 981.5C1280 955.266 1301.27 934 1327.5 934 1353.73 934 1375 955.266 1375 981.5 1375 1007.73 1353.73 1029 1327.5 1029 1301.27 1029 1280 1007.73 1280 981.5Z" fill="#00B050" fill-rule="evenodd" fill-opacity="0.8"/><path d="M1030.5 855.375 1262.29 967.634 1258.3 975.884 1026.5 863.625ZM1262.16 957.387 1280.92 981.748 1250.18 982.137Z" fill="#FFDDB3" fill-rule="nonzero" fill-opacity="0.8"/><path d="M1028.5 854.917 1258 854.917 1258 864.084 1028.5 864.083ZM1253.42 845.75 1280.92 859.5 1253.42 873.25Z" fill="#FFCD8C" fill-rule="nonzero" fill-opacity="1"/><path d="M1627 734.5C1627 708.267 1648.27 687 1674.5 687 1700.73 687 1722 708.267 1722 734.5 1722 760.734 1700.73 782 1674.5 782 1648.27 782 1627 760.734 1627 734.5Z" fill="#0D5BDC" fill-rule="evenodd" fill-opacity="1"/><path d="M1375.5 730.917 1605 730.917 1605 740.084 1375.5 740.083ZM1600.42 721.75 1627.92 735.5 1600.42 749.25Z" fill="#00717D" fill-rule="nonzero" fill-opacity="1"/><path d="M1627 855.5C1627 829.267 1648.27 808 1674.5 808 1700.73 808 1722 829.267 1722 855.5 1722 881.734 1700.73 903 1674.5 903 1648.27 903 1627 881.734 1627 855.5Z" fill="#0D5BDC" fill-rule="evenodd" fill-opacity="1"/><path d="M1375.5 851.917 1605 851.917 1605 861.084 1375.5 861.083ZM1600.42 842.75 1627.92 856.5 1600.42 870.25Z" fill="#00717D" fill-rule="nonzero" fill-opacity="1"/><path d="M1627 981.5C1627 955.266 1648.27 934 1674.5 934 1700.73 934 1722 955.266 1722 981.5 1722 1007.73 1700.73 1029 1674.5 1029 1648.27 1029 1627 1007.73 1627 981.5Z" fill="#00B050" fill-rule="evenodd" fill-opacity="1"/><path d="M1375.5 976.917 1605 976.917 1605 986.084 1375.5 986.083ZM1600.42 967.75 1627.92 981.5 1600.42 995.25Z" fill="#00717D" fill-rule="nonzero" fill-opacity="1"/><path d="M1725.19 610.786 1959.04 779.892 1953.66 787.32 1719.81 618.214ZM1960.69 769.778 1974.92 797.034 1944.58 792.062Z" fill="#EF8600" fill-rule="nonzero" fill-opacity="0.701961"/><path d="M1723.59 731.049 1953.76 787.517 1951.57 796.419 1721.41 739.951ZM1951.49 777.522 1974.92 797.429 1944.94 804.23Z" fill="#FFDDB3" fill-rule="nonzero" fill-opacity="0.8"/><path d="M1.03776-4.4643 231.136 49.0237 229.06 57.9523-1.03776 4.4643ZM228.747 39.0573 252.42 58.6768 222.521 65.8431Z" fill="#FFDDB3" fill-rule="nonzero" fill-opacity="0.8" transform="matrix(1 0 0 -1 1722.5 856.177)"/><path d="M2.70185-3.70229 236.61 166.999 231.206 174.403-2.70185 3.70229ZM238.311 156.892 252.42 184.21 222.1 179.106Z" fill="#EF8600" fill-rule="nonzero" fill-opacity="0.701961" transform="matrix(1 0 0 -1 1722.5 981.71)"/><path d="M1975 796.5C1975 770.266 1996.27 749 2022.5 749 2048.73 749 2070 770.266 2070 796.5 2070 822.733 2048.73 844 2022.5 844 1996.27 844 1975 822.733 1975 796.5Z" fill="#00B050" fill-rule="evenodd" fill-opacity="1"/></g></g></svg>