<svg width="1865" height="1393" xmlns="http://www.w3.org/2000/svg" xmlns:xlink="http://www.w3.org/1999/xlink" xml:space="preserve" overflow="hidden"><g transform="translate(-779 -110)"><g><path d="M1198.6 304.731C1280.16 158.717 1438.09 82.0118 1551.35 133.406 1597.24 154.231 1630.71 194.301 1646.42 247.204 1751.02 177.161 1864.16 201.723 1899.11 302.066 1905.22 319.612 1908.66 338.84 1909.3 359.151 1994.13 299.78 2087.86 317.003 2118.67 397.62 2127.19 419.933 2130.22 445.716 2127.52 472.988 2227.2 430.412 2316.88 479.118 2327.83 581.777 2332.44 624.924 2322.32 672.952 2299.23 717.627 2356.38 800.069 2326.21 940.299 2231.83 1030.84 2223.9 1038.45 2215.64 1045.57 2207.12 1052.15 2192.53 1204.9 2067.81 1351.44 1928.55 1379.44 1885.2 1388.16 1843.75 1384.47 1808.21 1368.74 1725.26 1486.17 1588.26 1531.57 1502.21 1470.14 1473.46 1449.62 1452.94 1418.64 1442.91 1380.64 1321.37 1492.38 1166.95 1495.75 1098 1388.15 1069.11 1343.06 1058.78 1283.12 1068.77 1218.55 912.799 1230.79 814.616 1097.2 849.473 920.17 849.912 917.939 850.372 915.707 850.852 913.473 778.73 878.539 763.905 774.489 817.74 681.071 846.435 631.278 890.611 592.218 938.494 574.302 913.703 490.067 963.769 378.055 1050.32 324.114 1100.25 292.995 1154.01 286.897 1195.06 307.694Z" stroke="#000000" stroke-width="9.16667" stroke-linecap="butt" stroke-linejoin="round" stroke-miterlimit="10" stroke-opacity="1" fill="none" fill-rule="evenodd"/><path d="M996.601 640.199C970.824 626.02 952.098 601.738 942.937 570.613M892.143 919.236C878.848 917.734 866.306 914.16 854.842 908.607M1072 1213.78C1075.08 1193.9 1080.04 1173.83 1086.82 1153.91M1489.31 1329.79C1475.98 1346.62 1461.44 1362.3 1445.93 1376.56M1856.54 1109.98C1885.81 1183.96 1867.59 1283.25 1809.7 1365.2M2208.57 1048.89C2180.21 1070.77 2149.42 1086.24 2118.62 1094.11M2302.23 713.668C2295.83 726.03 2288.52 738 2280.38 749.412M2079.18 498.624C2095.34 486.372 2112.4 476.369 2129.82 468.925M1876.37 388.143C1887.58 376.524 1899.69 366.137 1912.43 357.221M1646.47 246.834C1652.16 265.976 1655.43 286.528 1656.23 308.039M1177.9 347.542C1183.88 332.998 1190.81 318.688 1198.6 304.743" stroke="#000000" stroke-width="9.16667" stroke-linecap="butt" stroke-linejoin="round" stroke-miterlimit="10" stroke-opacity="1" fill="none" fill-rule="evenodd"/><path d="M2394 814C2394 744.964 2449.96 689 2519 689 2588.04 689 2644 744.964 2644 814 2644 883.036 2588.04 939 2519 939 2449.96 939 2394 883.036 2394 814Z" fill="#008080" fill-rule="evenodd" fill-opacity="0.501961"/><text fill="#FFFFFF" fill-opacity="1" font-family="Cambria Math,Cambria Math_MSFontService,sans-serif" font-style="normal" font-variant="normal" font-weight="400" font-stretch="normal" font-size="92" text-anchor="start" direction="ltr" writing-mode="lr-tb" unicode-bidi="normal" text-decoration="none" transform="matrix(1 0 0 1 2463.94 787)">𝝏</text><text fill="#FFFFFF" fill-opacity="1" font-family="Cambria Math,Cambria Math_MSFontService,sans-serif" font-style="normal" font-variant="normal" font-weight="400" font-stretch="normal" font-size="92" text-anchor="start" direction="ltr" writing-mode="lr-tb" unicode-bidi="normal" text-decoration="none" transform="matrix(1 0 0 1 2519.51 787)">ℒ</text><text fill="#FFFFFF" fill-opacity="1" font-family="Cambria Math,Cambria Math_MSFontService,sans-serif" font-style="normal" font-variant="normal" font-weight="400" font-stretch="normal" font-size="92" text-anchor="start" direction="ltr" writing-mode="lr-tb" unicode-bidi="normal" text-decoration="none" transform="matrix(1 0 0 1 2463.94 918)">𝝏</text><text fill="#FFFFFF" fill-opacity="1" font-family="Cambria Math,Cambria Math_MSFontService,sans-serif" font-style="normal" font-variant="normal" font-weight="400" font-stretch="normal" font-size="92" text-anchor="start" direction="ltr" writing-mode="lr-tb" unicode-bidi="normal" text-decoration="none" transform="matrix(1 0 0 1 2519.51 918)">ℒ</text><path d="M2463.94 827.256 2575.94 827.256 2575.94 833.256 2463.94 833.256Z" fill="#FFFFFF" fill-rule="evenodd" fill-opacity="1"/><path d="M1416.18 851.873 1592.85 1111.68 1585.27 1116.83 1408.6 857.028ZM1403.59 865.972 1399.5 835.5 1426.33 850.509Z" fill="#000000" fill-rule="nonzero" fill-opacity="1"/><path d="M21.1047 10.0382 192.301 137.864 186.816 145.209 15.6204 17.3832ZM13.8087 27.4706 0 0 30.2617 5.43535Z" fill="#000000" fill-rule="nonzero" fill-opacity="1" transform="matrix(1 0 0 -1 1399.5 757.037)"/><path d="M1422.42 790.917 1552.49 790.917 1552.49 800.084 1422.42 800.083ZM1427 809.25 1399.5 795.5 1427 781.75Z" fill="#000000" fill-rule="nonzero" fill-opacity="1"/><path d="M1110 795C1110 725.964 1165.74 670 1234.5 670 1303.26 670 1359 725.964 1359 795 1359 864.035 1303.26 920 1234.5 920 1165.74 920 1110 864.035 1110 795Z" fill="#00B050" fill-rule="evenodd" fill-opacity="0.6"/><text fill="#FFFFFF" fill-opacity="1" font-family="Cambria Math,Cambria Math_MSFontService,sans-serif" font-style="normal" font-variant="normal" font-weight="400" font-stretch="normal" font-size="83" text-anchor="start" direction="ltr" writing-mode="lr-tb" unicode-bidi="normal" text-decoration="none" transform="matrix(1 0 0 1 1185.49 771)">𝜕ℒ</text><text fill="#FFFFFF" fill-opacity="1" font-family="Cambria Math,Cambria Math_MSFontService,sans-serif" font-style="normal" font-variant="normal" font-weight="400" font-stretch="normal" font-size="83" text-anchor="start" direction="ltr" writing-mode="lr-tb" unicode-bidi="normal" text-decoration="none" transform="matrix(1 0 0 1 1186.31 888)">𝜕𝑢</text><path d="M1185.07 807.185 1209.32 807.185 1233.57 807.185 1257.82 807.185 1282.07 807.185 1282.07 812.185 1257.82 812.185 1233.57 812.185 1209.32 812.185 1185.07 812.185Z" fill="#FFFFFF" fill-rule="evenodd" fill-opacity="1"/><text fill="#000000" fill-opacity="1" font-family="Cambria Math,Cambria Math_MSFontService,sans-serif" font-style="normal" font-variant="normal" font-weight="400" font-stretch="normal" font-size="101" text-anchor="start" direction="ltr" writing-mode="lr-tb" unicode-bidi="normal" text-decoration="none" transform="matrix(1 0 0 1 1656.45 1033)">⋮</text><text fill="#000000" fill-opacity="1" font-family="Cambria Math,Cambria Math_MSFontService,sans-serif" font-style="normal" font-variant="normal" font-weight="400" font-stretch="normal" font-size="101" text-anchor="start" direction="ltr" writing-mode="lr-tb" unicode-bidi="normal" text-decoration="none" transform="matrix(1 0 0 1 1687.96 1033)"> </text><path d="M1552 526.5C1552 457.74 1607.96 402 1677 402 1746.04 402 1802 457.74 1802 526.5 1802 595.259 1746.04 651 1677 651 1607.96 651 1552 595.259 1552 526.5Z" fill="#00B050" fill-rule="evenodd" fill-opacity="0.4"/><text fill="#FFFFFF" fill-opacity="1" font-family="Cambria Math,Cambria Math_MSFontService,sans-serif" font-style="normal" font-variant="normal" font-weight="400" font-stretch="normal" font-size="78" text-anchor="start" direction="ltr" writing-mode="lr-tb" unicode-bidi="normal" text-decoration="none" transform="matrix(1 0 0 1 1636.31 496)">𝜕ℒ</text><text fill="#FFFFFF" fill-opacity="1" font-family="Cambria Math,Cambria Math_MSFontService,sans-serif" font-style="normal" font-variant="normal" font-weight="400" font-stretch="normal" font-size="78" text-anchor="start" direction="ltr" writing-mode="lr-tb" unicode-bidi="normal" text-decoration="none" transform="matrix(1 0 0 1 1621.62 607)">𝜕</text><text fill="#FFFFFF" fill-opacity="1" font-family="Cambria Math,Cambria Math_MSFontService,sans-serif" font-style="normal" font-variant="normal" font-weight="400" font-stretch="normal" font-size="78" text-anchor="start" direction="ltr" writing-mode="lr-tb" unicode-bidi="normal" text-decoration="none" transform="matrix(1 0 0 1 1667.13 607)">𝑣</text><text fill="#FFFFFF" fill-opacity="1" font-family="Cambria Math,Cambria Math_MSFontService,sans-serif" font-style="normal" font-variant="normal" font-weight="400" font-stretch="normal" font-size="57" text-anchor="start" direction="ltr" writing-mode="lr-tb" unicode-bidi="normal" text-decoration="none" transform="matrix(1 0 0 1 1706.96 623)">1</text><path d="M1621.62 529.899 1742.62 529.899 1742.62 534.899 1621.62 534.899Z" fill="#FFFFFF" fill-rule="evenodd" fill-opacity="1"/><path d="M1552 795C1552 725.964 1607.96 670 1677 670 1746.04 670 1802 725.964 1802 795 1802 864.035 1746.04 920 1677 920 1607.96 920 1552 864.035 1552 795Z" fill="#00B050" fill-rule="evenodd" fill-opacity="0.701961"/><text fill="#FFFFFF" fill-opacity="1" font-family="Cambria Math,Cambria Math_MSFontService,sans-serif" font-style="normal" font-variant="normal" font-weight="400" font-stretch="normal" font-size="78" text-anchor="start" direction="ltr" writing-mode="lr-tb" unicode-bidi="normal" text-decoration="none" transform="matrix(1 0 0 1 1637.2 765)">𝜕ℒ</text><text fill="#FFFFFF" fill-opacity="1" font-family="Cambria Math,Cambria Math_MSFontService,sans-serif" font-style="normal" font-variant="normal" font-weight="400" font-stretch="normal" font-size="78" text-anchor="start" direction="ltr" writing-mode="lr-tb" unicode-bidi="normal" text-decoration="none" transform="matrix(1 0 0 1 1621.62 876)">𝜕</text><text fill="#FFFFFF" fill-opacity="1" font-family="Cambria Math,Cambria Math_MSFontService,sans-serif" font-style="normal" font-variant="normal" font-weight="400" font-stretch="normal" font-size="78" text-anchor="start" direction="ltr" writing-mode="lr-tb" unicode-bidi="normal" text-decoration="none" transform="matrix(1 0 0 1 1667.13 876)">𝑣</text><text fill="#FFFFFF" fill-opacity="1" font-family="Cambria Math,Cambria Math_MSFontService,sans-serif" font-style="normal" font-variant="normal" font-weight="400" font-stretch="normal" font-size="57" text-anchor="start" direction="ltr" writing-mode="lr-tb" unicode-bidi="normal" text-decoration="none" transform="matrix(1 0 0 1 1708.77 892)">2</text><path d="M1621.62 798.768 1744.62 798.768 1744.62 803.768 1621.62 803.768Z" fill="#FFFFFF" fill-rule="evenodd" fill-opacity="1"/><path d="M1552 1202.5C1552 1133.74 1607.96 1078 1677 1078 1746.04 1078 1802 1133.74 1802 1202.5 1802 1271.26 1746.04 1327 1677 1327 1607.96 1327 1552 1271.26 1552 1202.5Z" fill="#00B050" fill-rule="evenodd" fill-opacity="1"/><text fill="#FFFFFF" fill-opacity="1" font-family="Cambria Math,Cambria Math_MSFontService,sans-serif" font-style="normal" font-variant="normal" font-weight="400" font-stretch="normal" font-size="78" text-anchor="start" direction="ltr" writing-mode="lr-tb" unicode-bidi="normal" text-decoration="none" transform="matrix(1 0 0 1 1637.8 1172)">𝜕ℒ</text><text fill="#FFFFFF" fill-opacity="1" font-family="Cambria Math,Cambria Math_MSFontService,sans-serif" font-style="normal" font-variant="normal" font-weight="400" font-stretch="normal" font-size="78" text-anchor="start" direction="ltr" writing-mode="lr-tb" unicode-bidi="normal" text-decoration="none" transform="matrix(1 0 0 1 1621.62 1283)">𝜕</text><text fill="#FFFFFF" fill-opacity="1" font-family="Cambria Math,Cambria Math_MSFontService,sans-serif" font-style="normal" font-variant="normal" font-weight="400" font-stretch="normal" font-size="78" text-anchor="start" direction="ltr" writing-mode="lr-tb" unicode-bidi="normal" text-decoration="none" transform="matrix(1 0 0 1 1667.13 1283)">𝑣</text><text fill="#FFFFFF" fill-opacity="1" font-family="Cambria Math,Cambria Math_MSFontService,sans-serif" font-style="normal" font-variant="normal" font-weight="400" font-stretch="normal" font-size="57" text-anchor="start" direction="ltr" writing-mode="lr-tb" unicode-bidi="normal" text-decoration="none" transform="matrix(1 0 0 1 1704.97 1299)">𝑛</text><path d="M1621.62 1205.55 1745.62 1205.55 1745.62 1210.55 1621.62 1210.55Z" fill="#FFFFFF" fill-rule="evenodd" fill-opacity="1"/></g></g></svg>