<svg width="907" height="715" xmlns="http://www.w3.org/2000/svg" xmlns:xlink="http://www.w3.org/1999/xlink" xml:space="preserve" overflow="hidden"><g transform="translate(-550 -284)"><g><path d="M4.58333-2.52054e-06 4.58368 633.327-4.58298 633.327-4.58333 2.52054e-06ZM13.7503 628.744 0.000360892 656.244-13.7497 628.744Z" fill="#000000" fill-rule="nonzero" fill-opacity="1" transform="matrix(1 0 0 -1 579.5 969.744)"/><path d="M1.94576e-06-4.58333 827.183-4.58298 827.183 4.58368-1.94576e-06 4.58333ZM822.599-13.7497 850.099 0.000360892 822.599 13.7503Z" fill="#000000" fill-rule="nonzero" fill-opacity="1" transform="matrix(1 0 0 -1 576.5 967.5)"/><rect x="906" y="377" width="44" height="44" fill="#00B050" fill-opacity="1"/><rect x="984" y="874" width="43.9999" height="42.9999" fill="#00B050" fill-opacity="1"/><path d="M873 659 895 615 917 659Z" fill="#4285F4" fill-rule="evenodd" fill-opacity="1"/><rect x="659" y="495" width="44" height="42.9999" fill="#00B050" fill-opacity="1"/><rect x="742" y="517" width="44" height="42.9999" fill="#00B050" fill-opacity="1"/><path d="M928 611 950 567 972 611Z" fill="#4285F4" fill-rule="evenodd" fill-opacity="1"/><rect x="682" y="754" width="42.9999" height="43.0003" fill="#00B050" fill-opacity="1"/><path d="M850 742 872 698 894 742Z" fill="#4285F4" fill-rule="evenodd" fill-opacity="1"/><rect x="1152" y="338" width="43" height="43" fill="#00B050" fill-opacity="1"/><path d="M1061 804 1083 760 1105 804Z" fill="#4285F4" fill-rule="evenodd" fill-opacity="1"/><rect x="997" y="369" width="43" height="44" fill="#00B050" fill-opacity="1"/><path d="M915 725 937 681 959 725Z" fill="#4285F4" fill-rule="evenodd" fill-opacity="1"/><rect x="833" y="449" width="44" height="44" fill="#00B050" fill-opacity="1"/><path d="M1011 718 1033 674 1055 718Z" fill="#4285F4" fill-rule="evenodd" fill-opacity="1"/><rect x="1257" y="638" width="43" height="42.9999" fill="#00B050" fill-opacity="1"/><path d="M1039 657 1060.5 613 1082 657Z" fill="#4285F4" fill-rule="evenodd" fill-opacity="1"/><path d="M959 818 980.5 774 1002 818Z" fill="#4285F4" fill-rule="evenodd" fill-opacity="1"/><rect x="1141" y="844" width="43" height="44" fill="#00B050" fill-opacity="1"/><path d="M1122 733 1144 689 1166 733Z" fill="#4285F4" fill-rule="evenodd" fill-opacity="1"/><rect x="1318" y="511" width="43" height="44" fill="#00B050" fill-opacity="1"/><path d="M1022 548 1043.5 505 1065 548Z" fill="#4285F4" fill-rule="evenodd" fill-opacity="1"/><rect x="761" y="376" width="44" height="43" fill="#00B050" fill-opacity="1"/><rect x="1297" y="356" width="43" height="44" fill="#00B050" fill-opacity="1"/><rect x="708" y="635" width="42.9999" height="44" fill="#00B050" fill-opacity="1"/><rect x="1316" y="736" width="43" height="42.9999" fill="#00B050" fill-opacity="1"/><rect x="1268" y="804" width="43" height="42.9999" fill="#00B050" fill-opacity="1"/><rect x="1135" y="473" width="43" height="42.9999" fill="#00B050" fill-opacity="1"/><rect x="1213" y="453" width="44" height="43" fill="#00B050" fill-opacity="1"/><rect x="790" y="839" width="42.9999" height="42.9999" fill="#00B050" fill-opacity="1"/><rect x="691" y="876" width="42.9999" height="44" fill="#00B050" fill-opacity="1"/><rect x="860" y="799" width="42.9999" height="42.9999" fill="#00B050" fill-opacity="1"/><rect x="1242" y="871" width="43" height="44" fill="#00B050" fill-opacity="1"/></g></g></svg>