<svg width="2361" height="994" xmlns="http://www.w3.org/2000/svg" xmlns:xlink="http://www.w3.org/1999/xlink" xml:space="preserve" overflow="hidden"><defs><clipPath id="clip0"><rect x="444" y="426" width="2361" height="994"/></clipPath><clipPath id="clip1"><rect x="444" y="426" width="2361" height="994"/></clipPath></defs><g clip-path="url(#clip0)" transform="translate(-444 -426)"><g clip-path="url(#clip1)"><rect x="1403" y="430" width="495" height="330" fill="#00B050" fill-opacity="0.32549"/><text fill="#FFFFFF" fill-opacity="1" font-family="Cambria Math,Cambria Math_MSFontService,sans-serif" font-style="normal" font-variant="normal" font-weight="400" font-stretch="normal" font-size="92" text-anchor="start" direction="ltr" writing-mode="lr-tb" unicode-bidi="normal" text-decoration="none" transform="matrix(1 0 0 1 1584.48 626)">𝑾</text><text fill="#FFFFFF" fill-opacity="1" font-family="Cambria Math,Cambria Math_MSFontService,sans-serif" font-style="normal" font-variant="normal" font-weight="400" font-stretch="normal" font-size="67" text-anchor="start" direction="ltr" writing-mode="lr-tb" unicode-bidi="normal" text-decoration="none" transform="matrix(1 0 0 1 1672.3 645)">1</text><rect x="449" y="430" width="495" height="990" fill="#FF0000" fill-opacity="0.32549"/><text fill="#FFFFFF" fill-opacity="1" font-family="Cambria Math,Cambria Math_MSFontService,sans-serif" font-style="normal" font-variant="normal" font-weight="400" font-stretch="normal" font-size="92" text-anchor="start" direction="ltr" writing-mode="lr-tb" unicode-bidi="normal" text-decoration="none" transform="matrix(1 0 0 1 664.436 956)">𝑿</text><text fill="#000000" fill-opacity="1" font-family="Cambria Math,Cambria Math_MSFontService,sans-serif" font-style="normal" font-variant="normal" font-weight="400" font-stretch="normal" font-size="101" text-anchor="start" direction="ltr" writing-mode="lr-tb" unicode-bidi="normal" text-decoration="none" transform="matrix(1 0 0 1 2065.87 633)">=</text><rect x="1007" y="430" width="330" height="495" fill="#4285F4" fill-opacity="0.32549"/><text fill="#FFFFFF" fill-opacity="1" font-family="Cambria Math,Cambria Math_MSFontService,sans-serif" font-style="normal" font-variant="normal" font-weight="400" font-stretch="normal" font-size="92" text-anchor="start" direction="ltr" writing-mode="lr-tb" unicode-bidi="normal" text-decoration="none" transform="matrix(1 0 0 1 1105.52 708)">𝑾</text><text fill="#FFFFFF" fill-opacity="1" font-family="Cambria Math,Cambria Math_MSFontService,sans-serif" font-style="normal" font-variant="normal" font-weight="400" font-stretch="normal" font-size="67" text-anchor="start" direction="ltr" writing-mode="lr-tb" unicode-bidi="normal" text-decoration="none" transform="matrix(1 0 0 1 1195.47 727)">0</text><rect x="2310" y="430" width="495" height="990" fill="#FFCD8C" fill-opacity="1"/><text fill="#FFFFFF" fill-opacity="1" font-family="Cambria Math,Cambria Math_MSFontService,sans-serif" font-style="normal" font-variant="normal" font-weight="400" font-stretch="normal" font-size="92" text-anchor="start" direction="ltr" writing-mode="lr-tb" unicode-bidi="normal" text-decoration="none" transform="matrix(1 0 0 1 2525.2 957)">𝑿</text><path d="M38.543-56.0625C39.7409-56.0625 40.8265-56.1748 41.7998-56.3994 42.7731-56.624 43.6865-56.9609 44.54-57.4102 45.3936-57.8594 46.2321-58.4209 47.0557-59.0947 47.8792-59.7686 48.7552-60.5697 49.6836-61.498L52.1543-59.6113C50.8965-57.8444 49.6686-56.3695 48.4707-55.1865 47.2728-54.0036 46.0749-53.0527 44.8769-52.334 43.679-51.6152 42.4587-51.1061 41.2158-50.8066 39.973-50.5072 38.6927-50.3574 37.375-50.3574 36.4167-50.3574 35.4733-50.4248 34.5449-50.5596 33.6165-50.6943 32.6582-50.8965 31.6699-51.166 30.6816-51.4355 29.6409-51.7575 28.5478-52.1318 27.4548-52.5062 26.2793-52.9479 25.0215-53.457 22.6256-54.3854 20.5892-55.0518 18.9121-55.4561 17.235-55.8603 15.6927-56.0625 14.2852-56.0625 13.2669-56.0625 12.2861-56.0101 11.3428-55.9053 10.3994-55.8004 9.45605-55.5684 8.51269-55.209 7.56933-54.8496 6.61849-54.3105 5.66016-53.5918 4.70182-52.873 3.68359-51.8997 2.60547-50.6719L0-52.5586C1.10807-54.1758 2.20866-55.5684 3.30176-56.7363 4.39486-57.9043 5.54036-58.8551 6.73828-59.5889 7.9362-60.3226 9.20898-60.8691 10.5566-61.2285 11.9043-61.5879 13.4017-61.7676 15.0488-61.7676 16.0671-61.7676 17.0254-61.7077 17.9238-61.5879 18.8223-61.4681 19.7506-61.2884 20.709-61.0488 21.6673-60.8092 22.693-60.4948 23.7861-60.1055 24.8792-59.7161 26.1296-59.2519 27.5371-58.7129 28.8848-58.2038 30.0677-57.777 31.0859-57.4326 32.1042-57.0882 33.0325-56.8112 33.8711-56.6016 34.7096-56.3919 35.4958-56.2497 36.2295-56.1748 36.9632-56.0999 37.7344-56.0625 38.543-56.0625Z" fill="#FFFFFF" fill-rule="nonzero" fill-opacity="1" transform="matrix(1 0 0 1 2531 940)"/><text fill="#000000" fill-opacity="0" font-family="Arial,Arial_MSFontService,sans-serif" font-size="11.4102" direction="ltr" writing-mode="lr-tb" y="-51.7837">෩</text></g></g></svg>