<svg width="1627" height="967" xmlns="http://www.w3.org/2000/svg" xmlns:xlink="http://www.w3.org/1999/xlink" xml:space="preserve" overflow="hidden"><g transform="translate(-550 -440)"><g><text fill="#000000" fill-opacity="1" font-family="Calibri,Calibri_MSFontService,sans-serif" font-style="normal" font-variant="normal" font-weight="400" font-stretch="normal" font-size="73" text-anchor="start" direction="ltr" writing-mode="lr-tb" unicode-bidi="normal" text-decoration="none" transform="matrix(1 0 0 1 595.496 1342)">Linear Model</text><path d="M584 487.5C584 461.266 605.266 440 631.5 440 657.733 440 679 461.266 679 487.5 679 513.733 657.733 535 631.5 535 605.266 535 584 513.733 584 487.5Z" fill="#EF8600" fill-rule="evenodd" fill-opacity="1"/><path d="M584 611.5C584 585.267 605.266 564 631.5 564 657.733 564 679 585.267 679 611.5 679 637.734 657.733 659 631.5 659 605.266 659 584 637.734 584 611.5Z" fill="#8EB6F8" fill-rule="evenodd" fill-opacity="1"/><path d="M584 734.5C584 708.267 605.266 687 631.5 687 657.733 687 679 708.267 679 734.5 679 760.734 657.733 782 631.5 782 605.266 782 584 760.734 584 734.5Z" fill="#B3CEFB" fill-rule="evenodd" fill-opacity="0.45098"/><path d="M584 979.5C584 953.266 605.266 932 631.5 932 657.733 932 679 953.266 679 979.5 679 1005.73 657.733 1027 631.5 1027 605.266 1027 584 1005.73 584 979.5Z" fill="#FFDDB3" fill-rule="evenodd" fill-opacity="1"/><text fill="#000000" fill-opacity="1" font-family="Cambria Math,Cambria Math_MSFontService,sans-serif" font-style="normal" font-variant="normal" font-weight="400" font-stretch="normal" font-size="92" text-anchor="start" direction="ltr" writing-mode="lr-tb" unicode-bidi="normal" text-decoration="none" transform="matrix(1 0 0 1 616.765 874)">⋮</text><path d="M931 487.5C931 461.266 952.266 440 978.5 440 1004.73 440 1026 461.266 1026 487.5 1026 513.733 1004.73 535 978.5 535 952.266 535 931 513.733 931 487.5Z" fill="#FFCD8C" fill-rule="evenodd" fill-opacity="1"/><path d="M679.5 482.917 909.003 482.917 909.003 492.084 679.5 492.083ZM904.42 473.75 931.92 487.5 904.42 501.25Z" fill="#00B050" fill-rule="nonzero" fill-opacity="0.615686"/><path d="M2.01987-4.11425 233.869 109.711 229.829 117.939-2.01987 4.11425ZM233.794 99.4623 252.42 123.924 221.675 124.148Z" fill="#00B050" fill-rule="nonzero" fill-opacity="0.980392" transform="matrix(1 0 0 -1 679.5 611.424)"/><path d="M3.21116-3.27038 239.279 228.523 232.857 235.063-3.21116 3.27038ZM242.431 218.771 252.42 247.849 223.164 238.393Z" fill="#00B050" fill-rule="nonzero" fill-opacity="0.25098" transform="matrix(1 0 0 -1 679.5 735.349)"/><path d="M4.07855-2.09103 246.044 469.862 237.887 474.044-4.07855 2.09103ZM252.11 461.601 252.42 492.346 227.638 474.147Z" fill="#00B050" fill-rule="nonzero" fill-opacity="0.521569" transform="matrix(1 0 0 -1 679.5 979.846)"/><text fill="#000000" fill-opacity="1" font-family="Calibri,Calibri_MSFontService,sans-serif" font-style="normal" font-variant="normal" font-weight="400" font-stretch="normal" font-size="73" text-anchor="start" direction="ltr" writing-mode="lr-tb" unicode-bidi="normal" text-decoration="none" transform="matrix(1 0 0 1 1510.9 1342)">Neural Network</text><path d="M1383 487.5C1383 461.266 1404.27 440 1430.5 440 1456.73 440 1478 461.266 1478 487.5 1478 513.733 1456.73 535 1430.5 535 1404.27 535 1383 513.733 1383 487.5Z" fill="#EF8600" fill-rule="evenodd" fill-opacity="1"/><path d="M1383 611.5C1383 585.267 1404.27 564 1430.5 564 1456.73 564 1478 585.267 1478 611.5 1478 637.734 1456.73 659 1430.5 659 1404.27 659 1383 637.734 1383 611.5Z" fill="#8EB6F8" fill-rule="evenodd" fill-opacity="1"/><path d="M1383 734.5C1383 708.267 1404.27 687 1430.5 687 1456.73 687 1478 708.267 1478 734.5 1478 760.734 1456.73 782 1430.5 782 1404.27 782 1383 760.734 1383 734.5Z" fill="#B3CEFB" fill-rule="evenodd" fill-opacity="0.45098"/><path d="M1383 979.5C1383 953.266 1404.27 932 1430.5 932 1456.73 932 1478 953.266 1478 979.5 1478 1005.73 1456.73 1027 1430.5 1027 1404.27 1027 1383 1005.73 1383 979.5Z" fill="#FFDDB3" fill-rule="evenodd" fill-opacity="1"/><text fill="#000000" fill-opacity="1" font-family="Cambria Math,Cambria Math_MSFontService,sans-serif" font-style="normal" font-variant="normal" font-weight="400" font-stretch="normal" font-size="92" text-anchor="start" direction="ltr" writing-mode="lr-tb" unicode-bidi="normal" text-decoration="none" transform="matrix(1 0 0 1 1416.07 874)">⋮</text><path d="M1730 487.5C1730 461.266 1751.27 440 1777.5 440 1803.73 440 1825 461.266 1825 487.5 1825 513.733 1803.73 535 1777.5 535 1751.27 535 1730 513.733 1730 487.5Z" fill="#FFCD8C" fill-rule="evenodd" fill-opacity="1"/><path d="M1478.5 482.917 1708 482.917 1708 492.084 1478.5 492.083ZM1703.42 473.75 1730.92 487.5 1703.42 501.25Z" fill="#00B050" fill-rule="nonzero" fill-opacity="0.180392"/><path d="M2.01987-4.11425 233.869 109.711 229.829 117.939-2.01987 4.11425ZM233.794 99.4623 252.42 123.924 221.675 124.148Z" fill="#00B050" fill-rule="nonzero" fill-opacity="0.980392" transform="matrix(1 0 0 -1 1478.5 611.424)"/><path d="M3.21116-3.27038 239.279 228.523 232.857 235.063-3.21116 3.27038ZM242.431 218.771 252.42 247.849 223.164 238.393Z" fill="#00B050" fill-rule="nonzero" fill-opacity="0.25098" transform="matrix(1 0 0 -1 1478.5 735.349)"/><path d="M4.07855-2.09103 246.044 469.862 237.887 474.044-4.07855 2.09103ZM252.11 461.601 252.42 492.346 227.638 474.147Z" fill="#00B050" fill-rule="nonzero" fill-opacity="0.521569" transform="matrix(1 0 0 -1 1478.5 979.846)"/><path d="M1730 609.5C1730 583.266 1751.27 562 1777.5 562 1803.73 562 1825 583.266 1825 609.5 1825 635.733 1803.73 657 1777.5 657 1751.27 657 1730 635.733 1730 609.5Z" fill="#8EB6F8" fill-rule="evenodd" fill-opacity="0.529412"/><path d="M1730 841.5C1730 815.266 1751.27 794 1777.5 794 1803.73 794 1825 815.266 1825 841.5 1825 867.733 1803.73 889 1777.5 889 1751.27 889 1730 867.733 1730 841.5Z" fill="#EF8600" fill-rule="evenodd" fill-opacity="1"/><text fill="#000000" fill-opacity="1" font-family="Cambria Math,Cambria Math_MSFontService,sans-serif" font-style="normal" font-variant="normal" font-weight="400" font-stretch="normal" font-size="92" text-anchor="start" direction="ltr" writing-mode="lr-tb" unicode-bidi="normal" text-decoration="none" transform="matrix(1 0 0 1 1763.48 760)">⋮</text><path d="M1480.5 483.375 1712.29 595.635 1708.3 603.885 1476.5 491.625ZM1712.16 585.387 1730.92 609.749 1700.18 610.137Z" fill="#00B050" fill-rule="nonzero" fill-opacity="0.615686"/><path d="M0.0304245-4.58323 229.535-3.05973 229.474 6.10673-0.0304245 4.58323ZM225.013-12.2566 252.421 1.67562 224.83 15.2428Z" fill="#00B050" fill-rule="nonzero" fill-opacity="0.721569" transform="matrix(1 0 0 -1 1478.5 611.176)"/><path d="M2.04179-4.10342 233.945 111.287 229.862 119.494-2.04179 4.10342ZM233.926 101.039 252.421 125.6 221.675 125.659Z" fill="#00B050" fill-rule="nonzero" fill-opacity="0.721569" transform="matrix(1 0 0 -1 1478.5 735.1)"/><path d="M3.78648-2.58253 243.295 348.582 235.722 353.747-3.78648 2.58253ZM248.285 339.63 252.421 370.097 225.566 355.126Z" fill="#00B050" fill-rule="nonzero" fill-opacity="0.278431" transform="matrix(1 0 0 -1 1478.5 979.597)"/><path d="M1488.26 486.877 1721.05 820.421 1713.54 825.667 1480.74 492.123ZM1725.95 811.416 1730.41 841.836 1703.4 827.155Z" fill="#00B050" fill-rule="nonzero" fill-opacity="0.278431"/><path d="M1487.62 610.142 1716.74 822.958 1710.5 829.674 1481.38 616.858ZM1719.62 813.122 1730.41 841.912 1700.9 833.271Z" fill="#00B050" fill-rule="nonzero" fill-opacity="0.180392"/><path d="M1486.29 733.281 1711.11 828.807 1707.53 837.244 1482.71 741.718ZM1710.48 818.578 1730.41 841.987 1699.72 843.888Z" fill="#00B050" fill-rule="nonzero" fill-opacity="0.278431"/><path d="M2.26773-3.98301 228.263 124.688 223.728 132.654-2.26773 3.98301ZM228.816 114.454 245.911 140.01 215.209 138.352Z" fill="#00B050" fill-rule="nonzero" fill-opacity="0.533333" transform="matrix(1 0 0 -1 1484.5 981.51)"/><path d="M2078 487.5C2078 461.266 2099.27 440 2125.5 440 2151.73 440 2173 461.266 2173 487.5 2173 513.733 2151.73 535 2125.5 535 2099.27 535 2078 513.733 2078 487.5Z" fill="#8EB6F8" fill-rule="evenodd" fill-opacity="1"/><path d="M1825.5 482.917 2055 482.917 2055 492.084 1825.5 492.083ZM2050.42 473.75 2077.92 487.5 2050.42 501.25Z" fill="#00B050" fill-rule="nonzero" fill-opacity="0.360784"/><path d="M3.73183-2.6609 242.847 332.692 235.384 338.014-3.73183 2.6609ZM247.651 323.639 252.42 354.012 225.26 339.604Z" fill="#00B050" fill-rule="nonzero" fill-opacity="0.721569" transform="matrix(1 0 0 -1 1825.5 841.512)"/><path d="M1.99778-4.12503 233.793 108.135 229.797 116.385-1.99778 4.12503ZM233.663 97.8869 252.42 122.249 221.677 122.637Z" fill="#00B050" fill-rule="nonzero" fill-opacity="0.980392" transform="matrix(1 0 0 -1 1825.5 609.749)"/></g></g></svg>