<svg width="1421" height="1141" xmlns="http://www.w3.org/2000/svg" xmlns:xlink="http://www.w3.org/1999/xlink" xml:space="preserve" overflow="hidden"><g transform="translate(-449 -270)"><g><path d="M580.5 273.5 580.5 1264.79" stroke="#000000" stroke-width="9.16667" stroke-linecap="butt" stroke-linejoin="round" stroke-miterlimit="10" stroke-opacity="1" fill="none" fill-rule="evenodd"/><path d="M0 0 1271.65 0.000360892" stroke="#000000" stroke-width="9.16667" stroke-linecap="butt" stroke-linejoin="round" stroke-miterlimit="10" stroke-opacity="1" fill="none" fill-rule="evenodd" transform="matrix(-1 0 0 1 1845.15 1261.5)"/><text fill="#000000" fill-opacity="1" font-family="Calibri,Calibri_MSFontService,sans-serif" font-style="normal" font-variant="normal" font-weight="400" font-stretch="normal" font-size="73" text-anchor="start" direction="ltr" writing-mode="lr-tb" unicode-bidi="normal" text-decoration="none" transform="matrix(-1.83697e-16 -1 1 -1.83697e-16 542.973 1231)">Loss</text><text fill="#000000" fill-opacity="1" font-family="Calibri,Calibri_MSFontService,sans-serif" font-style="normal" font-variant="normal" font-weight="400" font-stretch="normal" font-size="73" text-anchor="start" direction="ltr" writing-mode="lr-tb" unicode-bidi="normal" text-decoration="none" transform="matrix(1 0 0 1 606.052 1346)">Parameter</text><path d="M604.5 452.034C667.116 603.786 729.732 755.539 831.556 860.116 933.38 964.693 1082.41 1080.01 1215.44 1079.5 1348.48 1078.99 1522.09 961.881 1629.76 857.048 1737.44 752.215 1821.32 520.048 1861.5 450.5" stroke="#0070C0" stroke-width="9.16667" stroke-linecap="butt" stroke-linejoin="round" stroke-miterlimit="10" stroke-opacity="1" fill="none" fill-rule="evenodd"/><text fill="#000000" fill-opacity="1" font-family="Cambria Math,Cambria Math_MSFontService,sans-serif" font-style="normal" font-variant="normal" font-weight="400" font-stretch="normal" font-size="73" text-anchor="start" direction="ltr" writing-mode="lr-tb" unicode-bidi="normal" text-decoration="none" transform="matrix(1 0 0 1 1188.39 1346)">ğ‘¤</text><text fill="#000000" fill-opacity="1" font-family="Cambria Math,Cambria Math_MSFontService,sans-serif" font-style="normal" font-variant="normal" font-weight="400" font-stretch="normal" font-size="54" text-anchor="start" direction="ltr" writing-mode="lr-tb" unicode-bidi="normal" text-decoration="none" transform="matrix(1 0 0 1 1247.31 1319)">âˆ—</text><path d="M1218.5 1238.5 1218.5 1282.08" stroke="#000000" stroke-width="9.16667" stroke-linecap="butt" stroke-linejoin="round" stroke-miterlimit="10" stroke-opacity="1" fill="none" fill-rule="evenodd"/><path d="M0.261971-4.57584 1098.84 58.3186 1098.32 67.4703-0.261971 4.57584ZM1094.78 48.9049 1121.45 64.2042 1093.21 76.3599Z" fill="#FF0000" fill-rule="nonzero" fill-opacity="1" transform="matrix(-1 0 0 1 1799.95 559.5)"/><path d="M697.63 619.919 1739.25 649.51 1738.99 658.672 697.37 629.082ZM1734.93 640.216 1762.03 654.742 1734.15 667.705Z" fill="#FF0000" fill-rule="nonzero" fill-opacity="1"/><path d="M769.111 755.677 800.492 795.817 793.271 801.463 761.889 761.323ZM804.891 786.561 810.996 816.694 783.226 803.498Z" fill="#FF0000" fill-rule="nonzero" fill-opacity="1"/><path d="M3.44007-3.02867 163.08 178.296 156.2 184.353-3.44007 3.02867ZM166.931 168.799 174.783 198.525 146.291 186.971Z" fill="#00B050" fill-rule="nonzero" fill-opacity="1" transform="matrix(-1 0 0 1 1716.28 723.5)"/><path d="M2.44048-3.87957 172.617 103.172 167.736 110.931-2.44048 3.87957ZM173.619 92.9721 189.575 119.254 158.976 116.249Z" fill="#00B050" fill-rule="nonzero" fill-opacity="1" transform="matrix(-1 0 0 1 1535.07 921.5)"/><path d="M1.35048-4.37986 108.13 28.5442 105.429 37.304-1.35048 4.37986ZM106.451 18.4341 128.678 39.6765 98.3478 44.7132Z" fill="#00B050" fill-rule="nonzero" fill-opacity="1" transform="matrix(-1 0 0 1 1344.18 1039.5)"/><path d="M0.183717-4.57965 995.714 35.3569 995.347 44.5162-0.183717 4.57965ZM991.503 26.0139 1018.43 40.8552 990.4 53.4918Z" fill="#FF0000" fill-rule="nonzero" fill-opacity="1" transform="matrix(-1 0 0 1 1739.93 655.5)"/><path d="M816.737 818.255 854.856 856.279 848.382 862.769 810.263 824.745ZM858.085 846.552 867.844 875.708 838.663 866.022Z" fill="#FF0000" fill-rule="nonzero" fill-opacity="1"/><path d="M873.441 878.984 913.97 912.886 908.089 919.917 867.559 886.016ZM916.336 902.914 928.608 931.104 898.692 924.007Z" fill="#FF0000" fill-rule="nonzero" fill-opacity="1"/><text fill="#FF0000" fill-opacity="1" font-family="Cambria Math,Cambria Math_MSFontService,sans-serif" font-style="normal" font-variant="normal" font-weight="400" font-stretch="normal" font-size="64" text-anchor="start" direction="ltr" writing-mode="lr-tb" unicode-bidi="normal" text-decoration="none" transform="matrix(1 0 0 1 1638.1 1222)">ğ›¼</text><text fill="#00B050" fill-opacity="1" font-family="Cambria Math,Cambria Math_MSFontService,sans-serif" font-style="normal" font-variant="normal" font-weight="400" font-stretch="normal" font-size="83" text-anchor="start" direction="ltr" writing-mode="lr-tb" unicode-bidi="normal" text-decoration="none" transform="matrix(1 0 0 1 1693.9 1222)">ğ›¼</text><text fill="#FF0000" fill-opacity="1" font-family="Cambria Math,Cambria Math_MSFontService,sans-serif" font-style="normal" font-variant="normal" font-weight="400" font-stretch="normal" font-size="101" text-anchor="start" direction="ltr" writing-mode="lr-tb" unicode-bidi="normal" text-decoration="none" transform="matrix(1 0 0 1 1762.29 1222)">ğ›¼</text></g></g></svg>