<svg width="696" height="674" xmlns="http://www.w3.org/2000/svg" xmlns:xlink="http://www.w3.org/1999/xlink" xml:space="preserve" overflow="hidden"><g transform="translate(-1925 -398)"><g><path d="M1955.5 403.5 1955.5 1063.5" stroke="#000000" stroke-width="9.16667" stroke-linecap="butt" stroke-linejoin="round" stroke-miterlimit="10" stroke-opacity="1" fill="none" fill-rule="evenodd"/><path d="M1955.5 1060.5 2615.5 1060.5" stroke="#000000" stroke-width="9.16667" stroke-linecap="butt" stroke-linejoin="round" stroke-miterlimit="10" stroke-opacity="1" fill="none" fill-rule="evenodd"/><path d="M5.78288-3.71805 317.193 480.635 305.627 488.071-5.78288 3.71805ZM325.041 467.416 330 513.268 290.343 489.724Z" fill="#92A000" fill-rule="nonzero" fill-opacity="0.501961" transform="matrix(1 0 0 -1 1955 1060.27)"/><path d="M4.09532-5.52214 295.038 210.247 286.848 221.291-4.09532 5.52214ZM297.707 195.107 318.554 236.245 273.135 228.24Z" fill="#00B050" fill-rule="nonzero" fill-opacity="0.501961" transform="matrix(1 0 0 -1 1955 1060.25)"/><path d="M1.26751-6.75715 215.741 33.4738 213.206 46.9881-1.26751 6.75715ZM211.519 18.692 248.259 46.5685 203.914 59.2349Z" fill="#9F5900" fill-rule="nonzero" fill-opacity="0.501961" transform="matrix(-1 0 0 1 2273.26 554)"/><path d="M2044.81 599.091 2253.18 803.43 2243.55 813.247 2035.19 608.909ZM2257.9 788.799 2272.91 832.407 2229.01 818.25Z" fill="#EF8600" fill-rule="nonzero" fill-opacity="0.501961"/><text fill="#000000" fill-opacity="1" font-family="Calibri,Calibri_MSFontService,sans-serif" font-style="normal" font-variant="normal" font-weight="400" font-stretch="normal" font-size="64" text-anchor="start" direction="ltr" writing-mode="lr-tb" unicode-bidi="normal" text-decoration="none" transform="matrix(1 0 0 1 1963.57 742)">young</text><text fill="#000000" fill-opacity="1" font-family="Calibri,Calibri_MSFontService,sans-serif" font-style="normal" font-variant="normal" font-weight="400" font-stretch="normal" font-size="64" text-anchor="start" direction="ltr" writing-mode="lr-tb" unicode-bidi="normal" text-decoration="none" transform="matrix(1 0 0 1 2348.51 566)">dog</text><text fill="#000000" fill-opacity="1" font-family="Calibri,Calibri_MSFontService,sans-serif" font-style="normal" font-variant="normal" font-weight="400" font-stretch="normal" font-size="64" text-anchor="start" direction="ltr" writing-mode="lr-tb" unicode-bidi="normal" text-decoration="none" transform="matrix(1 0 0 1 2093.49 542)">old</text><text fill="#000000" fill-opacity="1" font-family="Calibri,Calibri_MSFontService,sans-serif" font-style="normal" font-variant="normal" font-weight="400" font-stretch="normal" font-size="64" text-anchor="start" direction="ltr" writing-mode="lr-tb" unicode-bidi="normal" text-decoration="none" transform="matrix(1 0 0 1 2223.47 942)">puppy</text></g></g></svg>