<?xml version="1.0" encoding="utf-8" standalone="no"?>
<!DOCTYPE svg PUBLIC "-//W3C//DTD SVG 1.1//EN"
  "http://www.w3.org/Graphics/SVG/1.1/DTD/svg11.dtd">
<svg xmlns:xlink="http://www.w3.org/1999/xlink" width="417.6pt" height="275.120731pt" viewBox="0 0 417.6 275.120731" xmlns="http://www.w3.org/2000/svg" version="1.1">
 <metadata>
  <rdf:RDF xmlns:dc="http://purl.org/dc/elements/1.1/" xmlns:cc="http://creativecommons.org/ns#" xmlns:rdf="http://www.w3.org/1999/02/22-rdf-syntax-ns#">
   <cc:Work>
    <dc:type rdf:resource="http://purl.org/dc/dcmitype/StillImage"/>
    <dc:date>2025-11-11T11:19:40.926175</dc:date>
    <dc:format>image/svg+xml</dc:format>
    <dc:creator>
     <cc:Agent>
      <dc:title>Matplotlib v3.7.2, https://matplotlib.org/</dc:title>
     </cc:Agent>
    </dc:creator>
   </cc:Work>
  </rdf:RDF>
 </metadata>
 <defs>
  <style type="text/css">*{stroke-linejoin: round; stroke-linecap: butt}</style>
 </defs>
 <g id="figure_1">
  <g id="patch_1">
   <path d="M 0 275.120731 
L 417.6 275.120731 
L 417.6 0 
L 0 0 
z
" style="fill: #ffffff"/>
  </g>
  <g id="axes_1">
   <g id="patch_2">
    <path d="M 32.685756 246.309377 
L 414 246.309377 
L 414 3.6 
L 32.685756 3.6 
z
" style="fill: #ffffff"/>
   </g>
   <g id="PathCollection_1">
    <defs>
     <path id="m4958ae0ffe" d="M -3 3 
L 3 3 
L 3 -3 
L -3 -3 
z
" style="stroke: #008000"/>
    </defs>
    <g clip-path="url(#pebd301aaf2)">
     <use xlink:href="#m4958ae0ffe" x="309.165269" y="93.155301" style="fill: #008000; stroke: #008000"/>
     <use xlink:href="#m4958ae0ffe" x="318.324642" y="42.761278" style="fill: #008000; stroke: #008000"/>
     <use xlink:href="#m4958ae0ffe" x="264.824712" y="96.063521" style="fill: #008000; stroke: #008000"/>
     <use xlink:href="#m4958ae0ffe" x="374.838722" y="65.681649" style="fill: #008000; stroke: #008000"/>
     <use xlink:href="#m4958ae0ffe" x="250.548164" y="72.503042" style="fill: #008000; stroke: #008000"/>
     <use xlink:href="#m4958ae0ffe" x="250.915614" y="103.088702" style="fill: #008000; stroke: #008000"/>
     <use xlink:href="#m4958ae0ffe" x="293.709882" y="146.998982" style="fill: #008000; stroke: #008000"/>
     <use xlink:href="#m4958ae0ffe" x="174.38243" y="106.017704" style="fill: #008000; stroke: #008000"/>
     <use xlink:href="#m4958ae0ffe" x="217.583585" y="79.428724" style="fill: #008000; stroke: #008000"/>
     <use xlink:href="#m4958ae0ffe" x="223.94206" y="131.802261" style="fill: #008000; stroke: #008000"/>
     <use xlink:href="#m4958ae0ffe" x="367.948974" y="95.809907" style="fill: #008000; stroke: #008000"/>
     <use xlink:href="#m4958ae0ffe" x="283.127248" y="132.179755" style="fill: #008000; stroke: #008000"/>
     <use xlink:href="#m4958ae0ffe" x="246.003596" y="85.596417" style="fill: #008000; stroke: #008000"/>
     <use xlink:href="#m4958ae0ffe" x="209.201491" y="77.564667" style="fill: #008000; stroke: #008000"/>
     <use xlink:href="#m4958ae0ffe" x="242.590637" y="97.80946" style="fill: #008000; stroke: #008000"/>
    </g>
   </g>
   <g id="PathCollection_2">
    <defs>
     <path id="m319168a8eb" d="M 0 -3 
L -3 3 
L 3 3 
z
" style="stroke: #0000ff"/>
    </defs>
    <g clip-path="url(#pebd301aaf2)">
     <use xlink:href="#m319168a8eb" x="125.042013" y="91.515713" style="fill: #0000ff; stroke: #0000ff"/>
     <use xlink:href="#m319168a8eb" x="160.72773" y="179.787892" style="fill: #0000ff; stroke: #0000ff"/>
     <use xlink:href="#m319168a8eb" x="211.449062" y="184.736392" style="fill: #0000ff; stroke: #0000ff"/>
     <use xlink:href="#m319168a8eb" x="174.218003" y="207.148099" style="fill: #0000ff; stroke: #0000ff"/>
     <use xlink:href="#m319168a8eb" x="80.967674" y="141.731454" style="fill: #0000ff; stroke: #0000ff"/>
     <use xlink:href="#m319168a8eb" x="206.348165" y="142.504763" style="fill: #0000ff; stroke: #0000ff"/>
     <use xlink:href="#m319168a8eb" x="154.53039" y="156.83682" style="fill: #0000ff; stroke: #0000ff"/>
     <use xlink:href="#m319168a8eb" x="71.847034" y="169.538977" style="fill: #0000ff; stroke: #0000ff"/>
     <use xlink:href="#m319168a8eb" x="133.600372" y="115.636129" style="fill: #0000ff; stroke: #0000ff"/>
     <use xlink:href="#m319168a8eb" x="182.393354" y="201.183487" style="fill: #0000ff; stroke: #0000ff"/>
     <use xlink:href="#m319168a8eb" x="181.208238" y="159.384243" style="fill: #0000ff; stroke: #0000ff"/>
     <use xlink:href="#m319168a8eb" x="120.478816" y="129.148373" style="fill: #0000ff; stroke: #0000ff"/>
     <use xlink:href="#m319168a8eb" x="224.095668" y="119.453448" style="fill: #0000ff; stroke: #0000ff"/>
     <use xlink:href="#m319168a8eb" x="110.632608" y="157.08279" style="fill: #0000ff; stroke: #0000ff"/>
     <use xlink:href="#m319168a8eb" x="181.643805" y="118.110705" style="fill: #0000ff; stroke: #0000ff"/>
    </g>
   </g>
   <g id="PathCollection_3">
    <g clip-path="url(#pebd301aaf2)">
     <use xlink:href="#m4958ae0ffe" x="309.165269" y="93.155301" style="fill: #008000; stroke: #008000"/>
     <use xlink:href="#m4958ae0ffe" x="318.324642" y="42.761278" style="fill: #008000; stroke: #008000"/>
     <use xlink:href="#m4958ae0ffe" x="264.824712" y="96.063521" style="fill: #008000; stroke: #008000"/>
     <use xlink:href="#m4958ae0ffe" x="374.838722" y="65.681649" style="fill: #008000; stroke: #008000"/>
     <use xlink:href="#m4958ae0ffe" x="250.548164" y="72.503042" style="fill: #008000; stroke: #008000"/>
     <use xlink:href="#m4958ae0ffe" x="250.915614" y="103.088702" style="fill: #008000; stroke: #008000"/>
     <use xlink:href="#m4958ae0ffe" x="293.709882" y="146.998982" style="fill: #008000; stroke: #008000"/>
     <use xlink:href="#m4958ae0ffe" x="174.38243" y="106.017704" style="fill: #008000; stroke: #008000"/>
     <use xlink:href="#m4958ae0ffe" x="217.583585" y="79.428724" style="fill: #008000; stroke: #008000"/>
     <use xlink:href="#m4958ae0ffe" x="223.94206" y="131.802261" style="fill: #008000; stroke: #008000"/>
     <use xlink:href="#m4958ae0ffe" x="367.948974" y="95.809907" style="fill: #008000; stroke: #008000"/>
     <use xlink:href="#m4958ae0ffe" x="283.127248" y="132.179755" style="fill: #008000; stroke: #008000"/>
     <use xlink:href="#m4958ae0ffe" x="246.003596" y="85.596417" style="fill: #008000; stroke: #008000"/>
     <use xlink:href="#m4958ae0ffe" x="209.201491" y="77.564667" style="fill: #008000; stroke: #008000"/>
     <use xlink:href="#m4958ae0ffe" x="242.590637" y="97.80946" style="fill: #008000; stroke: #008000"/>
    </g>
   </g>
   <g id="PathCollection_4">
    <g clip-path="url(#pebd301aaf2)">
     <use xlink:href="#m319168a8eb" x="125.042013" y="91.515713" style="fill: #0000ff; stroke: #0000ff"/>
     <use xlink:href="#m319168a8eb" x="160.72773" y="179.787892" style="fill: #0000ff; stroke: #0000ff"/>
     <use xlink:href="#m319168a8eb" x="211.449062" y="184.736392" style="fill: #0000ff; stroke: #0000ff"/>
     <use xlink:href="#m319168a8eb" x="174.218003" y="207.148099" style="fill: #0000ff; stroke: #0000ff"/>
     <use xlink:href="#m319168a8eb" x="80.967674" y="141.731454" style="fill: #0000ff; stroke: #0000ff"/>
     <use xlink:href="#m319168a8eb" x="206.348165" y="142.504763" style="fill: #0000ff; stroke: #0000ff"/>
     <use xlink:href="#m319168a8eb" x="154.53039" y="156.83682" style="fill: #0000ff; stroke: #0000ff"/>
     <use xlink:href="#m319168a8eb" x="71.847034" y="169.538977" style="fill: #0000ff; stroke: #0000ff"/>
     <use xlink:href="#m319168a8eb" x="133.600372" y="115.636129" style="fill: #0000ff; stroke: #0000ff"/>
     <use xlink:href="#m319168a8eb" x="182.393354" y="201.183487" style="fill: #0000ff; stroke: #0000ff"/>
     <use xlink:href="#m319168a8eb" x="181.208238" y="159.384243" style="fill: #0000ff; stroke: #0000ff"/>
     <use xlink:href="#m319168a8eb" x="120.478816" y="129.148373" style="fill: #0000ff; stroke: #0000ff"/>
     <use xlink:href="#m319168a8eb" x="224.095668" y="119.453448" style="fill: #0000ff; stroke: #0000ff"/>
     <use xlink:href="#m319168a8eb" x="110.632608" y="157.08279" style="fill: #0000ff; stroke: #0000ff"/>
     <use xlink:href="#m319168a8eb" x="181.643805" y="118.110705" style="fill: #0000ff; stroke: #0000ff"/>
    </g>
   </g>
   <g id="matplotlib.axis_1">
    <g id="xtick_1">
     <g id="line2d_1">
      <defs>
       <path id="mdd574bac05" d="M 0 0 
L 0 -3 
" style="stroke: #000000; stroke-width: 0.5"/>
      </defs>
      <g>
       <use xlink:href="#mdd574bac05" x="63.643389" y="246.309377" style="stroke: #000000; stroke-width: 0.5"/>
      </g>
     </g>
     <g id="line2d_2">
      <defs>
       <path id="m4e8d8df4f9" d="M 0 0 
L 0 3 
" style="stroke: #000000; stroke-width: 0.5"/>
      </defs>
      <g>
       <use xlink:href="#m4e8d8df4f9" x="63.643389" y="3.6" style="stroke: #000000; stroke-width: 0.5"/>
      </g>
     </g>
     <g id="text_1">
      <!-- $\mathdefault{−4}$ -->
      <g transform="translate(57.27835 256.727876) scale(0.1 -0.1)">
       <defs>
        <path id="CMSY10-0" d="M 4218 1472 
C 4326 1472 4442 1472 4442 1600 
C 4442 1728 4326 1728 4218 1728 
L 755 1728 
C 646 1728 531 1728 531 1600 
C 531 1472 646 1472 755 1472 
L 4218 1472 
z
" transform="scale(0.015625)"/>
        <path id="CMR17-34" d="M 2150 4122 
C 2150 4256 2144 4256 2029 4256 
L 128 1254 
L 128 1088 
L 1779 1088 
L 1779 457 
C 1779 224 1766 160 1318 160 
L 1197 160 
L 1197 0 
C 1402 0 1747 0 1965 0 
C 2182 0 2528 0 2733 0 
L 2733 160 
L 2611 160 
C 2163 160 2150 224 2150 457 
L 2150 1088 
L 2803 1088 
L 2803 1254 
L 2150 1254 
L 2150 4122 
z
M 1798 3703 
L 1798 1254 
L 256 1254 
L 1798 3703 
z
" transform="scale(0.015625)"/>
       </defs>
       <use xlink:href="#CMSY10-0" transform="scale(0.996264)"/>
       <use xlink:href="#CMR17-34" transform="translate(77.487468 0) scale(0.996264)"/>
      </g>
     </g>
    </g>
    <g id="xtick_2">
     <g id="line2d_3">
      <g>
       <use xlink:href="#mdd574bac05" x="141.965946" y="246.309377" style="stroke: #000000; stroke-width: 0.5"/>
      </g>
     </g>
     <g id="line2d_4">
      <g>
       <use xlink:href="#m4e8d8df4f9" x="141.965946" y="3.6" style="stroke: #000000; stroke-width: 0.5"/>
      </g>
     </g>
     <g id="text_2">
      <!-- $\mathdefault{−2}$ -->
      <g transform="translate(135.600906 256.727876) scale(0.1 -0.1)">
       <defs>
        <path id="CMR17-32" d="M 2669 989 
L 2554 989 
C 2490 536 2438 459 2413 420 
C 2381 369 1920 369 1830 369 
L 602 369 
C 832 619 1280 1072 1824 1597 
C 2214 1967 2669 2402 2669 3035 
C 2669 3790 2067 4224 1395 4224 
C 691 4224 262 3604 262 3030 
C 262 2780 448 2748 525 2748 
C 589 2748 781 2787 781 3010 
C 781 3207 614 3264 525 3264 
C 486 3264 448 3258 422 3245 
C 544 3790 915 4058 1306 4058 
C 1862 4058 2227 3617 2227 3035 
C 2227 2479 1901 2000 1536 1584 
L 262 146 
L 262 0 
L 2515 0 
L 2669 989 
z
" transform="scale(0.015625)"/>
       </defs>
       <use xlink:href="#CMSY10-0" transform="scale(0.996264)"/>
       <use xlink:href="#CMR17-32" transform="translate(77.487468 0) scale(0.996264)"/>
      </g>
     </g>
    </g>
    <g id="xtick_3">
     <g id="line2d_5">
      <g>
       <use xlink:href="#mdd574bac05" x="220.288503" y="246.309377" style="stroke: #000000; stroke-width: 0.5"/>
      </g>
     </g>
     <g id="line2d_6">
      <g>
       <use xlink:href="#m4e8d8df4f9" x="220.288503" y="3.6" style="stroke: #000000; stroke-width: 0.5"/>
      </g>
     </g>
     <g id="text_3">
      <!-- $\mathdefault{0}$ -->
      <g transform="translate(217.797835 256.727876) scale(0.1 -0.1)">
       <defs>
        <path id="CMR17-30" d="M 2688 2025 
C 2688 2416 2682 3080 2413 3591 
C 2176 4039 1798 4198 1466 4198 
C 1158 4198 768 4058 525 3597 
C 269 3118 243 2524 243 2025 
C 243 1661 250 1106 448 619 
C 723 -39 1216 -128 1466 -128 
C 1760 -128 2208 -7 2470 600 
C 2662 1042 2688 1559 2688 2025 
z
M 1466 -26 
C 1056 -26 813 325 723 812 
C 653 1188 653 1738 653 2096 
C 653 2588 653 2997 736 3387 
C 858 3929 1216 4096 1466 4096 
C 1728 4096 2067 3923 2189 3400 
C 2272 3036 2278 2607 2278 2096 
C 2278 1680 2278 1169 2202 792 
C 2067 95 1690 -26 1466 -26 
z
" transform="scale(0.015625)"/>
       </defs>
       <use xlink:href="#CMR17-30" transform="scale(0.996264)"/>
      </g>
     </g>
    </g>
    <g id="xtick_4">
     <g id="line2d_7">
      <g>
       <use xlink:href="#mdd574bac05" x="298.611059" y="246.309377" style="stroke: #000000; stroke-width: 0.5"/>
      </g>
     </g>
     <g id="line2d_8">
      <g>
       <use xlink:href="#m4e8d8df4f9" x="298.611059" y="3.6" style="stroke: #000000; stroke-width: 0.5"/>
      </g>
     </g>
     <g id="text_4">
      <!-- $\mathdefault{2}$ -->
      <g transform="translate(296.120392 256.727876) scale(0.1 -0.1)">
       <use xlink:href="#CMR17-32" transform="scale(0.996264)"/>
      </g>
     </g>
    </g>
    <g id="xtick_5">
     <g id="line2d_9">
      <g>
       <use xlink:href="#mdd574bac05" x="376.933616" y="246.309377" style="stroke: #000000; stroke-width: 0.5"/>
      </g>
     </g>
     <g id="line2d_10">
      <g>
       <use xlink:href="#m4e8d8df4f9" x="376.933616" y="3.6" style="stroke: #000000; stroke-width: 0.5"/>
      </g>
     </g>
     <g id="text_5">
      <!-- $\mathdefault{4}$ -->
      <g transform="translate(374.442948 256.727876) scale(0.1 -0.1)">
       <use xlink:href="#CMR17-34" transform="scale(0.996264)"/>
      </g>
     </g>
    </g>
    <g id="xtick_6">
     <g id="line2d_11">
      <defs>
       <path id="m1341de31ca" d="M 0 0 
L 0 -1.5 
" style="stroke: #000000; stroke-width: 0.5"/>
      </defs>
      <g>
       <use xlink:href="#m1341de31ca" x="44.06275" y="246.309377" style="stroke: #000000; stroke-width: 0.5"/>
      </g>
     </g>
     <g id="line2d_12">
      <defs>
       <path id="md878a5ec52" d="M 0 0 
L 0 1.5 
" style="stroke: #000000; stroke-width: 0.5"/>
      </defs>
      <g>
       <use xlink:href="#md878a5ec52" x="44.06275" y="3.6" style="stroke: #000000; stroke-width: 0.5"/>
      </g>
     </g>
    </g>
    <g id="xtick_7">
     <g id="line2d_13">
      <g>
       <use xlink:href="#m1341de31ca" x="83.224028" y="246.309377" style="stroke: #000000; stroke-width: 0.5"/>
      </g>
     </g>
     <g id="line2d_14">
      <g>
       <use xlink:href="#md878a5ec52" x="83.224028" y="3.6" style="stroke: #000000; stroke-width: 0.5"/>
      </g>
     </g>
    </g>
    <g id="xtick_8">
     <g id="line2d_15">
      <g>
       <use xlink:href="#m1341de31ca" x="102.804668" y="246.309377" style="stroke: #000000; stroke-width: 0.5"/>
      </g>
     </g>
     <g id="line2d_16">
      <g>
       <use xlink:href="#md878a5ec52" x="102.804668" y="3.6" style="stroke: #000000; stroke-width: 0.5"/>
      </g>
     </g>
    </g>
    <g id="xtick_9">
     <g id="line2d_17">
      <g>
       <use xlink:href="#m1341de31ca" x="122.385307" y="246.309377" style="stroke: #000000; stroke-width: 0.5"/>
      </g>
     </g>
     <g id="line2d_18">
      <g>
       <use xlink:href="#md878a5ec52" x="122.385307" y="3.6" style="stroke: #000000; stroke-width: 0.5"/>
      </g>
     </g>
    </g>
    <g id="xtick_10">
     <g id="line2d_19">
      <g>
       <use xlink:href="#m1341de31ca" x="161.546585" y="246.309377" style="stroke: #000000; stroke-width: 0.5"/>
      </g>
     </g>
     <g id="line2d_20">
      <g>
       <use xlink:href="#md878a5ec52" x="161.546585" y="3.6" style="stroke: #000000; stroke-width: 0.5"/>
      </g>
     </g>
    </g>
    <g id="xtick_11">
     <g id="line2d_21">
      <g>
       <use xlink:href="#m1341de31ca" x="181.127224" y="246.309377" style="stroke: #000000; stroke-width: 0.5"/>
      </g>
     </g>
     <g id="line2d_22">
      <g>
       <use xlink:href="#md878a5ec52" x="181.127224" y="3.6" style="stroke: #000000; stroke-width: 0.5"/>
      </g>
     </g>
    </g>
    <g id="xtick_12">
     <g id="line2d_23">
      <g>
       <use xlink:href="#m1341de31ca" x="200.707863" y="246.309377" style="stroke: #000000; stroke-width: 0.5"/>
      </g>
     </g>
     <g id="line2d_24">
      <g>
       <use xlink:href="#md878a5ec52" x="200.707863" y="3.6" style="stroke: #000000; stroke-width: 0.5"/>
      </g>
     </g>
    </g>
    <g id="xtick_13">
     <g id="line2d_25">
      <g>
       <use xlink:href="#m1341de31ca" x="239.869142" y="246.309377" style="stroke: #000000; stroke-width: 0.5"/>
      </g>
     </g>
     <g id="line2d_26">
      <g>
       <use xlink:href="#md878a5ec52" x="239.869142" y="3.6" style="stroke: #000000; stroke-width: 0.5"/>
      </g>
     </g>
    </g>
    <g id="xtick_14">
     <g id="line2d_27">
      <g>
       <use xlink:href="#m1341de31ca" x="259.449781" y="246.309377" style="stroke: #000000; stroke-width: 0.5"/>
      </g>
     </g>
     <g id="line2d_28">
      <g>
       <use xlink:href="#md878a5ec52" x="259.449781" y="3.6" style="stroke: #000000; stroke-width: 0.5"/>
      </g>
     </g>
    </g>
    <g id="xtick_15">
     <g id="line2d_29">
      <g>
       <use xlink:href="#m1341de31ca" x="279.03042" y="246.309377" style="stroke: #000000; stroke-width: 0.5"/>
      </g>
     </g>
     <g id="line2d_30">
      <g>
       <use xlink:href="#md878a5ec52" x="279.03042" y="3.6" style="stroke: #000000; stroke-width: 0.5"/>
      </g>
     </g>
    </g>
    <g id="xtick_16">
     <g id="line2d_31">
      <g>
       <use xlink:href="#m1341de31ca" x="318.191699" y="246.309377" style="stroke: #000000; stroke-width: 0.5"/>
      </g>
     </g>
     <g id="line2d_32">
      <g>
       <use xlink:href="#md878a5ec52" x="318.191699" y="3.6" style="stroke: #000000; stroke-width: 0.5"/>
      </g>
     </g>
    </g>
    <g id="xtick_17">
     <g id="line2d_33">
      <g>
       <use xlink:href="#m1341de31ca" x="337.772338" y="246.309377" style="stroke: #000000; stroke-width: 0.5"/>
      </g>
     </g>
     <g id="line2d_34">
      <g>
       <use xlink:href="#md878a5ec52" x="337.772338" y="3.6" style="stroke: #000000; stroke-width: 0.5"/>
      </g>
     </g>
    </g>
    <g id="xtick_18">
     <g id="line2d_35">
      <g>
       <use xlink:href="#m1341de31ca" x="357.352977" y="246.309377" style="stroke: #000000; stroke-width: 0.5"/>
      </g>
     </g>
     <g id="line2d_36">
      <g>
       <use xlink:href="#md878a5ec52" x="357.352977" y="3.6" style="stroke: #000000; stroke-width: 0.5"/>
      </g>
     </g>
    </g>
    <g id="xtick_19">
     <g id="line2d_37">
      <g>
       <use xlink:href="#m1341de31ca" x="396.514255" y="246.309377" style="stroke: #000000; stroke-width: 0.5"/>
      </g>
     </g>
     <g id="line2d_38">
      <g>
       <use xlink:href="#md878a5ec52" x="396.514255" y="3.6" style="stroke: #000000; stroke-width: 0.5"/>
      </g>
     </g>
    </g>
    <g id="text_6">
     <!-- $x_1$ -->
     <g transform="translate(218.5103 269.583552) scale(0.1 -0.1)">
      <defs>
       <path id="CMMI12-78" d="M 3034 2606 
C 2829 2567 2752 2414 2752 2293 
C 2752 2139 2874 2088 2963 2088 
C 3155 2088 3290 2254 3290 2427 
C 3290 2695 2982 2816 2714 2816 
C 2323 2816 2106 2433 2048 2312 
C 1901 2816 1504 2816 1389 2816 
C 736 2816 390 1980 390 1839 
C 390 1814 416 1782 461 1782 
C 512 1782 525 1820 538 1846 
C 755 2555 1184 2689 1370 2689 
C 1658 2689 1715 2420 1715 2267 
C 1715 2127 1677 1980 1600 1673 
L 1382 798 
C 1286 415 1101 64 762 64 
C 730 64 570 64 435 147 
C 666 192 717 383 717 460 
C 717 588 621 664 499 664 
C 346 664 179 530 179 326 
C 179 57 480 -64 755 -64 
C 1062 -64 1280 179 1414 441 
C 1517 64 1837 -64 2074 -64 
C 2726 -64 3072 773 3072 913 
C 3072 945 3046 971 3008 971 
C 2950 971 2944 939 2925 888 
C 2752 326 2381 64 2093 64 
C 1869 64 1747 230 1747 492 
C 1747 632 1773 734 1875 1156 
L 2099 2024 
C 2195 2408 2413 2689 2707 2689 
C 2720 2689 2899 2689 3034 2606 
z
" transform="scale(0.015625)"/>
       <path id="CMR17-31" d="M 1702 4058 
C 1702 4192 1696 4192 1606 4192 
C 1357 3916 979 3827 621 3827 
C 602 3827 570 3827 563 3808 
C 557 3795 557 3782 557 3648 
C 755 3648 1088 3686 1344 3839 
L 1344 461 
C 1344 236 1331 160 781 160 
L 589 160 
L 589 0 
C 896 0 1216 0 1523 0 
C 1830 0 2150 0 2458 0 
L 2458 160 
L 2266 160 
C 1715 160 1702 230 1702 458 
L 1702 4058 
z
" transform="scale(0.015625)"/>
      </defs>
      <use xlink:href="#CMMI12-78" transform="scale(0.996264)"/>
      <use xlink:href="#CMR17-31" transform="translate(55.43406 -14.943915) scale(0.697382)"/>
     </g>
    </g>
   </g>
   <g id="matplotlib.axis_2">
    <g id="ytick_1">
     <g id="line2d_39">
      <defs>
       <path id="ma84d42c4bb" d="M 0 0 
L 3 0 
" style="stroke: #000000; stroke-width: 0.5"/>
      </defs>
      <g>
       <use xlink:href="#ma84d42c4bb" x="32.685756" y="235.815958" style="stroke: #000000; stroke-width: 0.5"/>
      </g>
     </g>
     <g id="line2d_40">
      <defs>
       <path id="m882c4ca195" d="M 0 0 
L -3 0 
" style="stroke: #000000; stroke-width: 0.5"/>
      </defs>
      <g>
       <use xlink:href="#m882c4ca195" x="414" y="235.815958" style="stroke: #000000; stroke-width: 0.5"/>
      </g>
     </g>
     <g id="text_7">
      <!-- $\mathdefault{−3}$ -->
      <g transform="translate(16.455677 239.275207) scale(0.1 -0.1)">
       <defs>
        <path id="CMR17-33" d="M 1414 2157 
C 1984 2157 2234 1662 2234 1090 
C 2234 320 1824 25 1453 25 
C 1114 25 563 194 390 693 
C 422 680 454 680 486 680 
C 640 680 755 782 755 948 
C 755 1133 614 1216 486 1216 
C 378 1216 211 1165 211 926 
C 211 335 787 -128 1466 -128 
C 2176 -128 2720 430 2720 1085 
C 2720 1707 2208 2157 1600 2227 
C 2086 2328 2554 2756 2554 3329 
C 2554 3820 2048 4179 1472 4179 
C 890 4179 378 3829 378 3329 
C 378 3110 544 3072 627 3072 
C 762 3072 877 3155 877 3321 
C 877 3486 762 3569 627 3569 
C 602 3569 570 3569 544 3557 
C 730 3959 1235 4032 1459 4032 
C 1683 4032 2106 3925 2106 3320 
C 2106 3143 2080 2828 1862 2550 
C 1670 2304 1453 2304 1242 2284 
C 1210 2284 1062 2269 1037 2269 
C 992 2263 966 2257 966 2208 
C 966 2163 973 2157 1101 2157 
L 1414 2157 
z
" transform="scale(0.015625)"/>
       </defs>
       <use xlink:href="#CMSY10-0" transform="scale(0.996264)"/>
       <use xlink:href="#CMR17-33" transform="translate(77.487468 0) scale(0.996264)"/>
      </g>
     </g>
    </g>
    <g id="ytick_2">
     <g id="line2d_41">
      <g>
       <use xlink:href="#ma84d42c4bb" x="32.685756" y="196.65468" style="stroke: #000000; stroke-width: 0.5"/>
      </g>
     </g>
     <g id="line2d_42">
      <g>
       <use xlink:href="#m882c4ca195" x="414" y="196.65468" style="stroke: #000000; stroke-width: 0.5"/>
      </g>
     </g>
     <g id="text_8">
      <!-- $\mathdefault{−2}$ -->
      <g transform="translate(16.455677 200.113929) scale(0.1 -0.1)">
       <use xlink:href="#CMSY10-0" transform="scale(0.996264)"/>
       <use xlink:href="#CMR17-32" transform="translate(77.487468 0) scale(0.996264)"/>
      </g>
     </g>
    </g>
    <g id="ytick_3">
     <g id="line2d_43">
      <g>
       <use xlink:href="#ma84d42c4bb" x="32.685756" y="157.493401" style="stroke: #000000; stroke-width: 0.5"/>
      </g>
     </g>
     <g id="line2d_44">
      <g>
       <use xlink:href="#m882c4ca195" x="414" y="157.493401" style="stroke: #000000; stroke-width: 0.5"/>
      </g>
     </g>
     <g id="text_9">
      <!-- $\mathdefault{−1}$ -->
      <g transform="translate(16.455677 160.952651) scale(0.1 -0.1)">
       <use xlink:href="#CMSY10-0" transform="scale(0.996264)"/>
       <use xlink:href="#CMR17-31" transform="translate(77.487468 0) scale(0.996264)"/>
      </g>
     </g>
    </g>
    <g id="ytick_4">
     <g id="line2d_45">
      <g>
       <use xlink:href="#ma84d42c4bb" x="32.685756" y="118.332123" style="stroke: #000000; stroke-width: 0.5"/>
      </g>
     </g>
     <g id="line2d_46">
      <g>
       <use xlink:href="#m882c4ca195" x="414" y="118.332123" style="stroke: #000000; stroke-width: 0.5"/>
      </g>
     </g>
     <g id="text_10">
      <!-- $\mathdefault{0}$ -->
      <g transform="translate(24.20442 121.791372) scale(0.1 -0.1)">
       <use xlink:href="#CMR17-30" transform="scale(0.996264)"/>
      </g>
     </g>
    </g>
    <g id="ytick_5">
     <g id="line2d_47">
      <g>
       <use xlink:href="#ma84d42c4bb" x="32.685756" y="79.170845" style="stroke: #000000; stroke-width: 0.5"/>
      </g>
     </g>
     <g id="line2d_48">
      <g>
       <use xlink:href="#m882c4ca195" x="414" y="79.170845" style="stroke: #000000; stroke-width: 0.5"/>
      </g>
     </g>
     <g id="text_11">
      <!-- $\mathdefault{1}$ -->
      <g transform="translate(24.20442 82.630094) scale(0.1 -0.1)">
       <use xlink:href="#CMR17-31" transform="scale(0.996264)"/>
      </g>
     </g>
    </g>
    <g id="ytick_6">
     <g id="line2d_49">
      <g>
       <use xlink:href="#ma84d42c4bb" x="32.685756" y="40.009566" style="stroke: #000000; stroke-width: 0.5"/>
      </g>
     </g>
     <g id="line2d_50">
      <g>
       <use xlink:href="#m882c4ca195" x="414" y="40.009566" style="stroke: #000000; stroke-width: 0.5"/>
      </g>
     </g>
     <g id="text_12">
      <!-- $\mathdefault{2}$ -->
      <g transform="translate(24.20442 43.468815) scale(0.1 -0.1)">
       <use xlink:href="#CMR17-32" transform="scale(0.996264)"/>
      </g>
     </g>
    </g>
    <g id="ytick_7">
     <g id="line2d_51">
      <defs>
       <path id="ma1b8a4ad4c" d="M 0 0 
L 1.5 0 
" style="stroke: #000000; stroke-width: 0.5"/>
      </defs>
      <g>
       <use xlink:href="#ma1b8a4ad4c" x="32.685756" y="243.648214" style="stroke: #000000; stroke-width: 0.5"/>
      </g>
     </g>
     <g id="line2d_52">
      <defs>
       <path id="m6eb6c76dda" d="M 0 0 
L -1.5 0 
" style="stroke: #000000; stroke-width: 0.5"/>
      </defs>
      <g>
       <use xlink:href="#m6eb6c76dda" x="414" y="243.648214" style="stroke: #000000; stroke-width: 0.5"/>
      </g>
     </g>
    </g>
    <g id="ytick_8">
     <g id="line2d_53">
      <g>
       <use xlink:href="#ma1b8a4ad4c" x="32.685756" y="227.983702" style="stroke: #000000; stroke-width: 0.5"/>
      </g>
     </g>
     <g id="line2d_54">
      <g>
       <use xlink:href="#m6eb6c76dda" x="414" y="227.983702" style="stroke: #000000; stroke-width: 0.5"/>
      </g>
     </g>
    </g>
    <g id="ytick_9">
     <g id="line2d_55">
      <g>
       <use xlink:href="#ma1b8a4ad4c" x="32.685756" y="220.151447" style="stroke: #000000; stroke-width: 0.5"/>
      </g>
     </g>
     <g id="line2d_56">
      <g>
       <use xlink:href="#m6eb6c76dda" x="414" y="220.151447" style="stroke: #000000; stroke-width: 0.5"/>
      </g>
     </g>
    </g>
    <g id="ytick_10">
     <g id="line2d_57">
      <g>
       <use xlink:href="#ma1b8a4ad4c" x="32.685756" y="212.319191" style="stroke: #000000; stroke-width: 0.5"/>
      </g>
     </g>
     <g id="line2d_58">
      <g>
       <use xlink:href="#m6eb6c76dda" x="414" y="212.319191" style="stroke: #000000; stroke-width: 0.5"/>
      </g>
     </g>
    </g>
    <g id="ytick_11">
     <g id="line2d_59">
      <g>
       <use xlink:href="#ma1b8a4ad4c" x="32.685756" y="204.486935" style="stroke: #000000; stroke-width: 0.5"/>
      </g>
     </g>
     <g id="line2d_60">
      <g>
       <use xlink:href="#m6eb6c76dda" x="414" y="204.486935" style="stroke: #000000; stroke-width: 0.5"/>
      </g>
     </g>
    </g>
    <g id="ytick_12">
     <g id="line2d_61">
      <g>
       <use xlink:href="#ma1b8a4ad4c" x="32.685756" y="188.822424" style="stroke: #000000; stroke-width: 0.5"/>
      </g>
     </g>
     <g id="line2d_62">
      <g>
       <use xlink:href="#m6eb6c76dda" x="414" y="188.822424" style="stroke: #000000; stroke-width: 0.5"/>
      </g>
     </g>
    </g>
    <g id="ytick_13">
     <g id="line2d_63">
      <g>
       <use xlink:href="#ma1b8a4ad4c" x="32.685756" y="180.990168" style="stroke: #000000; stroke-width: 0.5"/>
      </g>
     </g>
     <g id="line2d_64">
      <g>
       <use xlink:href="#m6eb6c76dda" x="414" y="180.990168" style="stroke: #000000; stroke-width: 0.5"/>
      </g>
     </g>
    </g>
    <g id="ytick_14">
     <g id="line2d_65">
      <g>
       <use xlink:href="#ma1b8a4ad4c" x="32.685756" y="173.157913" style="stroke: #000000; stroke-width: 0.5"/>
      </g>
     </g>
     <g id="line2d_66">
      <g>
       <use xlink:href="#m6eb6c76dda" x="414" y="173.157913" style="stroke: #000000; stroke-width: 0.5"/>
      </g>
     </g>
    </g>
    <g id="ytick_15">
     <g id="line2d_67">
      <g>
       <use xlink:href="#ma1b8a4ad4c" x="32.685756" y="165.325657" style="stroke: #000000; stroke-width: 0.5"/>
      </g>
     </g>
     <g id="line2d_68">
      <g>
       <use xlink:href="#m6eb6c76dda" x="414" y="165.325657" style="stroke: #000000; stroke-width: 0.5"/>
      </g>
     </g>
    </g>
    <g id="ytick_16">
     <g id="line2d_69">
      <g>
       <use xlink:href="#ma1b8a4ad4c" x="32.685756" y="149.661146" style="stroke: #000000; stroke-width: 0.5"/>
      </g>
     </g>
     <g id="line2d_70">
      <g>
       <use xlink:href="#m6eb6c76dda" x="414" y="149.661146" style="stroke: #000000; stroke-width: 0.5"/>
      </g>
     </g>
    </g>
    <g id="ytick_17">
     <g id="line2d_71">
      <g>
       <use xlink:href="#ma1b8a4ad4c" x="32.685756" y="141.82889" style="stroke: #000000; stroke-width: 0.5"/>
      </g>
     </g>
     <g id="line2d_72">
      <g>
       <use xlink:href="#m6eb6c76dda" x="414" y="141.82889" style="stroke: #000000; stroke-width: 0.5"/>
      </g>
     </g>
    </g>
    <g id="ytick_18">
     <g id="line2d_73">
      <g>
       <use xlink:href="#ma1b8a4ad4c" x="32.685756" y="133.996634" style="stroke: #000000; stroke-width: 0.5"/>
      </g>
     </g>
     <g id="line2d_74">
      <g>
       <use xlink:href="#m6eb6c76dda" x="414" y="133.996634" style="stroke: #000000; stroke-width: 0.5"/>
      </g>
     </g>
    </g>
    <g id="ytick_19">
     <g id="line2d_75">
      <g>
       <use xlink:href="#ma1b8a4ad4c" x="32.685756" y="126.164379" style="stroke: #000000; stroke-width: 0.5"/>
      </g>
     </g>
     <g id="line2d_76">
      <g>
       <use xlink:href="#m6eb6c76dda" x="414" y="126.164379" style="stroke: #000000; stroke-width: 0.5"/>
      </g>
     </g>
    </g>
    <g id="ytick_20">
     <g id="line2d_77">
      <g>
       <use xlink:href="#ma1b8a4ad4c" x="32.685756" y="110.499867" style="stroke: #000000; stroke-width: 0.5"/>
      </g>
     </g>
     <g id="line2d_78">
      <g>
       <use xlink:href="#m6eb6c76dda" x="414" y="110.499867" style="stroke: #000000; stroke-width: 0.5"/>
      </g>
     </g>
    </g>
    <g id="ytick_21">
     <g id="line2d_79">
      <g>
       <use xlink:href="#ma1b8a4ad4c" x="32.685756" y="102.667612" style="stroke: #000000; stroke-width: 0.5"/>
      </g>
     </g>
     <g id="line2d_80">
      <g>
       <use xlink:href="#m6eb6c76dda" x="414" y="102.667612" style="stroke: #000000; stroke-width: 0.5"/>
      </g>
     </g>
    </g>
    <g id="ytick_22">
     <g id="line2d_81">
      <g>
       <use xlink:href="#ma1b8a4ad4c" x="32.685756" y="94.835356" style="stroke: #000000; stroke-width: 0.5"/>
      </g>
     </g>
     <g id="line2d_82">
      <g>
       <use xlink:href="#m6eb6c76dda" x="414" y="94.835356" style="stroke: #000000; stroke-width: 0.5"/>
      </g>
     </g>
    </g>
    <g id="ytick_23">
     <g id="line2d_83">
      <g>
       <use xlink:href="#ma1b8a4ad4c" x="32.685756" y="87.0031" style="stroke: #000000; stroke-width: 0.5"/>
      </g>
     </g>
     <g id="line2d_84">
      <g>
       <use xlink:href="#m6eb6c76dda" x="414" y="87.0031" style="stroke: #000000; stroke-width: 0.5"/>
      </g>
     </g>
    </g>
    <g id="ytick_24">
     <g id="line2d_85">
      <g>
       <use xlink:href="#ma1b8a4ad4c" x="32.685756" y="71.338589" style="stroke: #000000; stroke-width: 0.5"/>
      </g>
     </g>
     <g id="line2d_86">
      <g>
       <use xlink:href="#m6eb6c76dda" x="414" y="71.338589" style="stroke: #000000; stroke-width: 0.5"/>
      </g>
     </g>
    </g>
    <g id="ytick_25">
     <g id="line2d_87">
      <g>
       <use xlink:href="#ma1b8a4ad4c" x="32.685756" y="63.506333" style="stroke: #000000; stroke-width: 0.5"/>
      </g>
     </g>
     <g id="line2d_88">
      <g>
       <use xlink:href="#m6eb6c76dda" x="414" y="63.506333" style="stroke: #000000; stroke-width: 0.5"/>
      </g>
     </g>
    </g>
    <g id="ytick_26">
     <g id="line2d_89">
      <g>
       <use xlink:href="#ma1b8a4ad4c" x="32.685756" y="55.674078" style="stroke: #000000; stroke-width: 0.5"/>
      </g>
     </g>
     <g id="line2d_90">
      <g>
       <use xlink:href="#m6eb6c76dda" x="414" y="55.674078" style="stroke: #000000; stroke-width: 0.5"/>
      </g>
     </g>
    </g>
    <g id="ytick_27">
     <g id="line2d_91">
      <g>
       <use xlink:href="#ma1b8a4ad4c" x="32.685756" y="47.841822" style="stroke: #000000; stroke-width: 0.5"/>
      </g>
     </g>
     <g id="line2d_92">
      <g>
       <use xlink:href="#m6eb6c76dda" x="414" y="47.841822" style="stroke: #000000; stroke-width: 0.5"/>
      </g>
     </g>
    </g>
    <g id="ytick_28">
     <g id="line2d_93">
      <g>
       <use xlink:href="#ma1b8a4ad4c" x="32.685756" y="32.177311" style="stroke: #000000; stroke-width: 0.5"/>
      </g>
     </g>
     <g id="line2d_94">
      <g>
       <use xlink:href="#m6eb6c76dda" x="414" y="32.177311" style="stroke: #000000; stroke-width: 0.5"/>
      </g>
     </g>
    </g>
    <g id="ytick_29">
     <g id="line2d_95">
      <g>
       <use xlink:href="#ma1b8a4ad4c" x="32.685756" y="24.345055" style="stroke: #000000; stroke-width: 0.5"/>
      </g>
     </g>
     <g id="line2d_96">
      <g>
       <use xlink:href="#m6eb6c76dda" x="414" y="24.345055" style="stroke: #000000; stroke-width: 0.5"/>
      </g>
     </g>
    </g>
    <g id="ytick_30">
     <g id="line2d_97">
      <g>
       <use xlink:href="#ma1b8a4ad4c" x="32.685756" y="16.512799" style="stroke: #000000; stroke-width: 0.5"/>
      </g>
     </g>
     <g id="line2d_98">
      <g>
       <use xlink:href="#m6eb6c76dda" x="414" y="16.512799" style="stroke: #000000; stroke-width: 0.5"/>
      </g>
     </g>
    </g>
    <g id="ytick_31">
     <g id="line2d_99">
      <g>
       <use xlink:href="#ma1b8a4ad4c" x="32.685756" y="8.680544" style="stroke: #000000; stroke-width: 0.5"/>
      </g>
     </g>
     <g id="line2d_100">
      <g>
       <use xlink:href="#m6eb6c76dda" x="414" y="8.680544" style="stroke: #000000; stroke-width: 0.5"/>
      </g>
     </g>
    </g>
    <g id="text_13">
     <!-- $x_2$ -->
     <g transform="translate(10.518498 129.787267) rotate(-90) scale(0.1 -0.1)">
      <use xlink:href="#CMMI12-78" transform="scale(0.996264)"/>
      <use xlink:href="#CMR17-32" transform="translate(55.43406 -14.943915) scale(0.697382)"/>
     </g>
    </g>
   </g>
   <g id="line2d_101">
    <path d="M 62.942548 -1 
L 400.420856 276.120731 
L 400.420856 276.120731 
" clip-path="url(#pebd301aaf2)" style="fill: none; stroke: #000000; stroke-width: 1.8; stroke-linecap: square"/>
   </g>
   <g id="line2d_102">
    <path d="M 113.492653 -1 
L 414 245.761981 
L 414 245.761981 
" clip-path="url(#pebd301aaf2)" style="fill: none; stroke-dasharray: 6.66,2.88; stroke-dashoffset: 0; stroke: #808080; stroke-width: 1.8"/>
   </g>
   <g id="line2d_103">
    <path d="M 32.685756 15.663878 
L 349.870751 276.120731 
L 349.870751 276.120731 
" clip-path="url(#pebd301aaf2)" style="fill: none; stroke-dasharray: 6.66,2.88; stroke-dashoffset: 0; stroke: #808080; stroke-width: 1.8"/>
   </g>
   <g id="line2d_104">
    <path d="M 293.709882 146.998982 
L 293.716445 146.99099 
" clip-path="url(#pebd301aaf2)" style="fill: none; stroke: #ff0000; stroke-opacity: 0.5; stroke-linecap: square"/>
   </g>
   <g id="line2d_105">
    <path d="M 174.38243 106.017704 
L 202.346767 71.962666 
" clip-path="url(#pebd301aaf2)" style="fill: none; stroke: #ff0000; stroke-opacity: 0.5; stroke-linecap: square"/>
   </g>
   <g id="line2d_106">
    <path d="M 223.94206 131.802261 
L 244.593139 106.653327 
" clip-path="url(#pebd301aaf2)" style="fill: none; stroke: #ff0000; stroke-opacity: 0.5; stroke-linecap: square"/>
   </g>
   <g id="line2d_107">
    <path d="M 206.348165 142.504763 
L 198.617622 151.919036 
" clip-path="url(#pebd301aaf2)" style="fill: none; stroke: #ff0000; stroke-opacity: 0.5; stroke-linecap: square"/>
   </g>
   <g id="line2d_108">
    <path d="M 224.095668 119.453448 
L 197.912181 151.339763 
" clip-path="url(#pebd301aaf2)" style="fill: none; stroke: #ff0000; stroke-opacity: 0.5; stroke-linecap: square"/>
   </g>
   <g id="line2d_109">
    <path d="M 181.643805 118.110705 
L 171.898483 129.978582 
" clip-path="url(#pebd301aaf2)" style="fill: none; stroke: #ff0000; stroke-opacity: 0.5; stroke-linecap: square"/>
   </g>
   <g id="patch_3">
    <path d="M 32.685756 246.309377 
L 32.685756 3.6 
" style="fill: none; stroke: #000000; stroke-width: 0.5; stroke-linejoin: miter; stroke-linecap: square"/>
   </g>
   <g id="patch_4">
    <path d="M 414 246.309377 
L 414 3.6 
" style="fill: none; stroke: #000000; stroke-width: 0.5; stroke-linejoin: miter; stroke-linecap: square"/>
   </g>
   <g id="patch_5">
    <path d="M 32.685756 246.309377 
L 414 246.309377 
" style="fill: none; stroke: #000000; stroke-width: 0.5; stroke-linejoin: miter; stroke-linecap: square"/>
   </g>
   <g id="patch_6">
    <path d="M 32.685756 3.6 
L 414 3.6 
" style="fill: none; stroke: #000000; stroke-width: 0.5; stroke-linejoin: miter; stroke-linecap: square"/>
   </g>
  </g>
 </g>
 <defs>
  <clipPath id="pebd301aaf2">
   <rect x="32.685756" y="3.6" width="381.314244" height="242.709377"/>
  </clipPath>
 </defs>
</svg>
